<svg id="Layer_1" data-name="Layer 1" xmlns="http://www.w3.org/2000/svg" viewBox="0 0 514.5 530.21"><rect x="1.03" y="2.29" width="108.96" height="97.55" fill="none"/><path d="M384.57,423.41H363.24a1,1,0,1,1,0-2.05h20.3v-95.5H276.63v95.5H326a1,1,0,1,1,0,2.05H275.6a1,1,0,0,1-1-1V324.83a1,1,0,0,1,1-1h109a1,1,0,0,1,1,1v97.55A1,1,0,0,1,384.57,423.41Z" transform="translate(-274.57 -322.54)" fill="#12b9a6"/><rect x="81.64" y="46.61" width="14.05" height="26.8" rx="2.97" fill="#30276a"/><rect x="58.47" y="22.79" width="14.06" height="50.62" rx="2.97" fill="#30276a"/><path d="M300.75,358.56V393a3,3,0,0,1-3,3h-8.11a3,3,0,0,1-3-3V358.56a3,3,0,0,1,3-3h8.11A3,3,0,0,1,300.75,358.56Z" transform="translate(-274.57 -322.54)" fill="#30276a"/><rect x="35.3" y="11.21" width="14.05" height="62.2" rx="2.97" fill="#30276a"/><rect x="81.64" y="62.83" width="14.05" height="10.58" rx="2.97" fill="#12b9a6"/><rect x="58.47" y="39" width="14.06" height="34.41" rx="2.97" fill="#12b9a6"/><path d="M300.75,374.77V393a3,3,0,0,1-3,3h-8.11a3,3,0,0,1-3-3V374.77a3,3,0,0,1,3-3h8.11A3,3,0,0,1,300.75,374.77Z" transform="translate(-274.57 -322.54)" fill="#12b9a6"/><rect x="35.3" y="27.42" width="14.05" height="45.99" rx="2.97" fill="#12b9a6"/><path d="M553.61,851.71H527.93A14.22,14.22,0,0,1,514,834.78l10.5-53.58V662.32h32.58V781.2l10.49,53.58A14.22,14.22,0,0,1,553.61,851.71Z" transform="translate(-274.57 -322.54)" fill="#30276a"/><path d="M553.61,852.74H527.93a15.25,15.25,0,0,1-15-18.16l10.48-53.48V662.32a1,1,0,0,1,1-1h32.58a1,1,0,0,1,1,1V781.1l10.47,53.48a15.24,15.24,0,0,1-14.95,18.16Zm-28.1-189.39V781.2a1.23,1.23,0,0,1,0,.2L515,835a13.2,13.2,0,0,0,12.94,15.72h25.68A13.2,13.2,0,0,0,566.54,835L556.05,781.4a.65.65,0,0,1,0-.2V663.35Z" transform="translate(-274.57 -322.54)" fill="#30276a"/><path d="M564.24,654.33l-103.93,140,0,0-23.48,49.24a14.24,14.24,0,0,1-21.3,5.29L394.9,833.61a14.2,14.2,0,0,1-1.1-21.9l40.35-36.77,103.92-140Z" transform="translate(-274.57 -322.54)" fill="#30276a"/><path d="M424,852.74a15.15,15.15,0,0,1-9.05-3l-20.61-15.3A15.25,15.25,0,0,1,393.1,811l40.28-36.71L537.24,634.3a1,1,0,0,1,1.44-.21l26.17,19.42a1,1,0,0,1,.21,1.44l-103.88,140-23.44,49.16A15.25,15.25,0,0,1,424,852.74ZM538.28,636.36,435,775.55l-.13.15-40.35,36.77a13.18,13.18,0,0,0,1,20.32l20.62,15.3a13.2,13.2,0,0,0,19.76-4.91l23.47-49.24a.83.83,0,0,1,.07-.13L562.8,654.55Z" transform="translate(-274.57 -322.54)" fill="#30276a"/><path d="M686.63,833.61,666,848.92a14.24,14.24,0,0,1-21.3-5.29l-23.47-49.24,0,0-103.94-140,26.17-19.41,103.93,140,40.34,36.77A14.2,14.2,0,0,1,686.63,833.61Z" transform="translate(-274.57 -322.54)" fill="#30276a"/><path d="M657.58,852.74a15.27,15.27,0,0,1-13.79-8.67l-23.43-49.16L516.47,655a1.06,1.06,0,0,1-.19-.77,1,1,0,0,1,.4-.67l26.17-19.42a1,1,0,0,1,1.44.21L648.15,774.24l40.28,36.7a15.25,15.25,0,0,1-1.18,23.5l-20.62,15.3A15.15,15.15,0,0,1,657.58,852.74ZM518.73,654.55,622.05,793.74a2.26,2.26,0,0,1,.13.2l23.47,49.24a13.2,13.2,0,0,0,19.76,4.91L686,832.79h0a13.19,13.19,0,0,0,1-20.33L646.69,775.7l-.13-.15L543.25,636.36Z" transform="translate(-274.57 -322.54)" fill="#30276a"/><rect x="238.58" y="339.77" width="32.58" height="118.92" fill="#12b9a6"/><rect x="238.59" y="339.78" width="7.53" height="118.92" fill="#fff"/><path d="M542.28,851.72H516.61a14.23,14.23,0,0,1-13.95-17l10.5-53.56h32.58l10.49,53.56A14.23,14.23,0,0,1,542.28,851.72Z" transform="translate(-274.57 -322.54)" fill="#12b9a6"/><path d="M546.13,851.16a13.27,13.27,0,0,1-3.85.55H516.6a14.22,14.22,0,0,1-13.94-16.94l10.5-53.56h9.22l-10.4,53a14.22,14.22,0,0,0,13.94,16.94Z" transform="translate(-274.57 -322.54)" fill="#fff"/><path d="M545.74,782.27H513.16a1,1,0,0,1-1-1v-14a1,1,0,1,1,2,0v13h30.53V663.35H514.18V747.9a1,1,0,0,1-2,0V662.32a1,1,0,0,1,1-1h32.58a1,1,0,0,1,1,1V781.24A1,1,0,0,1,545.74,782.27Z" transform="translate(-274.57 -322.54)" fill="#30276a"/><path d="M542.28,852.75H516.61a15.27,15.27,0,0,1-15-18.17L512.15,781a1,1,0,0,1,1-.83h32.58a1,1,0,0,1,1,.83l10.49,53.56a15.27,15.27,0,0,1-15,18.18ZM514,782.24,503.67,835a13.21,13.21,0,0,0,12.94,15.72h25.67A13.21,13.21,0,0,0,555.22,835l-10.33-52.73Z" transform="translate(-274.57 -322.54)" fill="#30276a"/><rect x="471.57" y="627.44" width="32.58" height="174.41" transform="translate(247.45 -472.51) rotate(36.58)" fill="#12b9a6"/><rect x="390.99" y="703.22" width="174.41" height="8.53" transform="translate(-649.48 347.33) rotate(-53.42)" fill="#fff"/><path d="M404.19,848.92l-20.61-15.3a14.22,14.22,0,0,1-1.1-21.92l40.34-36.76L449,794.36l-23.5,49.26A14.23,14.23,0,0,1,404.19,848.92Z" transform="translate(-274.57 -322.54)" fill="#12b9a6"/><path d="M449,794.36l-.38.81-20.17-15L388.1,817a14.23,14.23,0,0,0-2.33,18.27l-2.2-1.62a14.23,14.23,0,0,1-1.09-21.92L422.82,775Z" transform="translate(-274.57 -322.54)" fill="#fff"/><path d="M449,795.42a1,1,0,0,1-.62-.21l-26.16-19.42a1,1,0,0,1-.4-.67,1.06,1.06,0,0,1,.19-.77L525.92,634.3a1,1,0,0,1,1.44-.21l26.17,19.42a1,1,0,0,1,.4.67,1.06,1.06,0,0,1-.19.77L449.79,795A1,1,0,0,1,449,795.42Zm-24.73-20.66L448.75,793l102.73-138.4L527,636.35Z" transform="translate(-274.57 -322.54)" fill="#30276a"/><path d="M412.63,852.75a15.15,15.15,0,0,1-9.05-3L383,834.44a15.25,15.25,0,0,1-1.18-23.5l40.35-36.76a1,1,0,0,1,1.31-.06l26.16,19.41a1,1,0,0,1,.32,1.27l-23.5,49.27a15.32,15.32,0,0,1-13.79,8.68Zm10.26-76.48-39.72,36.19a13.19,13.19,0,0,0,1,20.33l20.62,15.3h0a13.19,13.19,0,0,0,19.75-4.91l23.13-48.5Z" transform="translate(-274.57 -322.54)" fill="#30276a"/><rect x="554.74" y="627.44" width="32.58" height="174.41" transform="translate(1180.92 625.65) rotate(143.42)" fill="#12b9a6"/><rect x="576.44" y="620.27" width="8.53" height="174.41" transform="translate(-581.81 162.87) rotate(-36.58)" fill="#fff"/><path d="M654.7,848.92l20.62-15.3a14.23,14.23,0,0,0,1.1-21.92l-40.35-36.76-26.16,19.42,23.5,49.26A14.22,14.22,0,0,0,654.7,848.92Z" transform="translate(-274.57 -322.54)" fill="#12b9a6"/><path d="M609.91,794.36l.38.81,20.17-15L670.79,817a14.23,14.23,0,0,1,2.33,18.27l2.2-1.62a14.23,14.23,0,0,0,1.09-21.92L636.08,775Z" transform="translate(-274.57 -322.54)" fill="#fff"/><path d="M609.93,795.42a1,1,0,0,1-.83-.42l-104-140a1.06,1.06,0,0,1-.19-.77,1,1,0,0,1,.41-.67l26.16-19.42a1,1,0,0,1,1.44.21L636.92,774.35a1.06,1.06,0,0,1,.19.77,1,1,0,0,1-.41.67l-26.16,19.42A1,1,0,0,1,609.93,795.42ZM507.42,654.55,610.14,793l24.51-18.19L531.93,636.35Z" transform="translate(-274.57 -322.54)" fill="#30276a"/><path d="M646.26,852.75a15.32,15.32,0,0,1-13.78-8.68L609,794.8a1,1,0,0,1,.31-1.27l26.17-19.41a1,1,0,0,1,1.3.06l40.35,36.76a15.25,15.25,0,0,1-1.18,23.5l-20.62,15.31A15.15,15.15,0,0,1,646.26,852.75ZM611.2,794.68l23.13,48.5a13.2,13.2,0,0,0,19.76,4.91h0l20.61-15.3a13.19,13.19,0,0,0,1-20.33L636,776.27Z" transform="translate(-274.57 -322.54)" fill="#30276a"/><circle cx="254.87" cy="194.76" r="193.73" fill="#12b9a6"/><path d="M347,525.53a193.45,193.45,0,0,0,74.31,152.58A193.57,193.57,0,0,1,335.72,517.3c0-107,86.73-193.73,193.72-193.73a192.93,192.93,0,0,1,119.42,41.16,192.9,192.9,0,0,0-108.1-32.93C433.77,331.8,347,418.54,347,525.53Z" transform="translate(-274.57 -322.54)" fill="#fff"/><circle cx="529.45" cy="517.3" r="151.07" transform="translate(-485.29 203.35) rotate(-45)" fill="#fff"/><path d="M653.43,431a151.08,151.08,0,0,0-241.75,181A151.08,151.08,0,1,1,653.43,431Z" transform="translate(-274.57 -322.54)" fill="#30276a"/><circle cx="529.45" cy="517.3" r="106.64" transform="translate(-485.29 203.35) rotate(-45)" fill="#12b9a6"/><path d="M615.73,454.62a106.65,106.65,0,0,0-166.41,133,106.64,106.64,0,1,1,166.41-133Z" transform="translate(-274.57 -322.54)" fill="#fff"/><circle cx="529.45" cy="517.3" r="60.15" transform="translate(-485.29 203.35) rotate(-45)" fill="#fff"/><path d="M575.66,478.81A60.14,60.14,0,0,0,491,563.51a60.14,60.14,0,1,1,84.71-84.7Z" transform="translate(-274.57 -322.54)" fill="#30276a"/><path d="M529.45,712.06c-107.4,0-194.76-87.37-194.76-194.76s87.36-194.76,194.76-194.76S724.2,409.91,724.2,517.3,636.84,712.06,529.45,712.06Zm0-387.46c-106.26,0-192.71,86.45-192.71,192.7S423.19,710,529.45,710s192.7-86.44,192.7-192.7S635.7,324.6,529.45,324.6Z" transform="translate(-274.57 -322.54)" fill="#30276a"/><path d="M529.45,669.4c-83.87,0-152.1-68.23-152.1-152.1a152,152,0,0,1,36.95-99.38,1,1,0,0,1,1.46-.11,1,1,0,0,1,.1,1.45,150,150,0,0,0-36.46,98c0,82.73,67.31,150,150.05,150s150-67.31,150-150-67.31-150-150-150A148.9,148.9,0,0,0,441.4,395.8a1,1,0,1,1-1.21-1.67,151,151,0,0,1,89.26-28.93c83.86,0,152.09,68.23,152.09,152.1S613.31,669.4,529.45,669.4Z" transform="translate(-274.57 -322.54)" fill="#30276a"/><path d="M529.45,625a107.67,107.67,0,1,1,0-215.34c1.55,0,3.13,0,4.69.1a1,1,0,0,1,1,1.07,1,1,0,0,1-1.08,1c-1.52-.07-3.08-.1-4.6-.1a105.5,105.5,0,1,0,27.4,3.59,1,1,0,0,1,.53-2A107.68,107.68,0,0,1,529.45,625Z" transform="translate(-274.57 -322.54)" fill="#30276a"/><path d="M529.45,578.48a61.18,61.18,0,1,1,61.17-61.18A61.25,61.25,0,0,1,529.45,578.48Zm0-120.3a59.12,59.12,0,1,0,59.11,59.12A59.19,59.19,0,0,0,529.45,458.18Z" transform="translate(-274.57 -322.54)" fill="#30276a"/><path d="M788.32,374a6.22,6.22,0,0,1-3,3.78l-238,135.38,6.22,1.89a6.29,6.29,0,0,1-1.83,12.3,6,6,0,0,1-1.84-.28l-19.42-5.93a6.15,6.15,0,0,1-2.08-.74l-.08,0a6.27,6.27,0,0,1-3.1-7.4l6.27-20.5a6.28,6.28,0,0,1,7.85-4.17,6.2,6.2,0,0,1,3.71,3,6.27,6.27,0,0,1,.46,4.8l-1.75,5.74,237.42-135a6.29,6.29,0,0,1,8.57,2.37A6.2,6.2,0,0,1,788.32,374Z" transform="translate(-274.57 -322.54)" fill="#30276a"/><path d="M551.2,527.48a7,7,0,0,1-2.14-.32l-19.35-5.92a6.79,6.79,0,0,1-2.33-.82l0,0,0,0a7.3,7.3,0,0,1-3.61-8.61L530,491.26a7.31,7.31,0,0,1,9.14-4.85,7.31,7.31,0,0,1,4.85,9.13l-1,3.26L778.13,365.06a7.35,7.35,0,0,1,10,2.75,7.26,7.26,0,0,1,.69,5.58h0a7.26,7.26,0,0,1-3.43,4.39L549.4,512l3.94,1.19a7.35,7.35,0,0,1,4.86,9.14A7.27,7.27,0,0,1,551.2,527.48Zm-22.9-8.9.09,0a4.68,4.68,0,0,0,1.72.6l.13,0,19.42,5.93a5.05,5.05,0,0,0,1.54.24,5.26,5.26,0,0,0,1.53-10.29l-6.22-1.89a1,1,0,0,1-.21-1.88L784.35,376a5.26,5.26,0,0,0,2.47-3.16,5.19,5.19,0,0,0-.5-4,5.28,5.28,0,0,0-7.17-2l-237.42,135a1,1,0,0,1-1.49-1.19l1.75-5.75a5.24,5.24,0,0,0-.39-4,5.26,5.26,0,0,0-9.66.94l-6.27,20.51a5.25,5.25,0,0,0,2.59,6.19ZM787.81,373.11h0Z" transform="translate(-274.57 -322.54)" fill="#30276a"/><path d="M784.35,391.52l-25.72,14.1a3.17,3.17,0,0,1-2.47.27l-21.74-6.35a3.27,3.27,0,0,1-2.23-4.06l6.35-21.74a3.31,3.31,0,0,1,1.56-2l25.71-14.08a3.28,3.28,0,0,1,4.73,3.78L766,376.94a3.26,3.26,0,0,0,2.23,4.05l15.46,4.53A3.26,3.26,0,0,1,784.35,391.52Z" transform="translate(-274.57 -322.54)" fill="#fff"/><path d="M784.35,391.52l-25.71,14.11a3.25,3.25,0,0,1-2.25.32l23.51-12.89a3.26,3.26,0,0,0-.66-6l-15.46-4.53a3.27,3.27,0,0,1-2.23-4L766.08,363a3.28,3.28,0,0,0-2.46-4.12l2.19-1.21a3.27,3.27,0,0,1,4.72,3.79L766,376.94a3.26,3.26,0,0,0,2.23,4.05l15.45,4.53A3.26,3.26,0,0,1,784.35,391.52Z" transform="translate(-274.57 -322.54)" fill="#7960aa"/><path d="M757.08,407.06a4.24,4.24,0,0,1-1.22-.18l-21.73-6.36a4.24,4.24,0,0,1-2.57-2,4.29,4.29,0,0,1-.36-3.27l6.36-21.75a4.25,4.25,0,0,1,2-2.56l25.72-14.1a4.32,4.32,0,0,1,6.22,5L767,377.23a2.23,2.23,0,0,0,1.52,2.77L784,384.53a4.29,4.29,0,0,1,.86,7.89l-25.72,14.11A4.23,4.23,0,0,1,757.08,407.06Zm10.32-48.75a2.35,2.35,0,0,0-1.1.29l-25.71,14.09a2.21,2.21,0,0,0-1.05,1.32l-6.36,21.76a2.22,2.22,0,0,0,.19,1.71,2.25,2.25,0,0,0,1.33,1.07l21.75,6.35a2.14,2.14,0,0,0,1.68-.17l25.73-14.11h0a2.23,2.23,0,0,0,1.16-2.21,2.2,2.2,0,0,0-1.61-1.9L768,382a4.31,4.31,0,0,1-2.93-5.33l4.53-15.46a2.2,2.2,0,0,0-.75-2.38A2.24,2.24,0,0,0,767.4,358.31Z" transform="translate(-274.57 -322.54)" fill="#30276a"/><rect x="96.6" y="505.1" width="45.53" height="24.07" fill="#30276a"/><path d="M416.7,852.74H371.17a1,1,0,0,1-1-1V827.64a1,1,0,0,1,1-1H416.7a1,1,0,0,1,1,1v24.07A1,1,0,0,1,416.7,852.74Zm-44.5-2.06h43.47v-22H372.2Z" transform="translate(-274.57 -322.54)" fill="#30276a"/><rect x="96.6" y="481.04" width="28.42" height="24.07" fill="#30276a"/><path d="M399.59,828.68H371.17a1,1,0,0,1-1-1V803.58a1,1,0,0,1,1-1h28.42a1,1,0,0,1,1,1v24.07A1,1,0,0,1,399.59,828.68Zm-27.39-2.06h26.37v-22H372.2Z" transform="translate(-274.57 -322.54)" fill="#30276a"/><rect x="96.6" y="456.99" width="37.87" height="24.07" fill="#30276a"/><path d="M409,804.63H371.17a1,1,0,0,1-1-1V779.53a1,1,0,0,1,1-1H409a1,1,0,0,1,1,1V803.6A1,1,0,0,1,409,804.63Zm-36.84-2.06H408v-22H372.2Z" transform="translate(-274.57 -322.54)" fill="#30276a"/><rect x="18.17" y="505.1" width="115.41" height="24.07" fill="#12b9a6"/><rect x="33.09" y="505.1" width="9.65" height="24.07" fill="#fff"/><rect x="51.81" y="505.1" width="18.27" height="24.07" fill="#fff"/><rect x="18.17" y="505.1" width="115.41" height="3.83" fill="#fff"/><path d="M408.15,852.74H292.74a1,1,0,0,1-1-1V827.64a1,1,0,0,1,1-1H408.15a1,1,0,0,1,1,1v24.07A1,1,0,0,1,408.15,852.74Zm-114.38-2.06H407.12v-22H293.77Z" transform="translate(-274.57 -322.54)" fill="#30276a"/><rect x="1.06" y="481.04" width="115.41" height="24.07" fill="#12b9a6"/><rect x="1.06" y="481.04" width="115.41" height="3.83" fill="#fff"/><rect x="15.99" y="481.04" width="9.65" height="24.07" fill="#fff"/><rect x="34.7" y="481.04" width="18.27" height="24.07" fill="#fff"/><path d="M391,828.68H275.64a1,1,0,0,1-1-1V803.58a1,1,0,0,1,1-1H391a1,1,0,0,1,1,1v24.07A1,1,0,0,1,391,828.68Zm-114.38-2.06H390v-22H276.66Z" transform="translate(-274.57 -322.54)" fill="#30276a"/><rect x="10.51" y="456.99" width="115.41" height="24.07" fill="#12b9a6"/><rect x="25.44" y="456.99" width="9.65" height="24.07" fill="#fff"/><rect x="44.15" y="456.99" width="18.27" height="24.07" fill="#fff"/><rect x="10.51" y="456.99" width="115.41" height="3.83" fill="#fff"/><path d="M400.49,804.63H285.08a1,1,0,0,1-1-1V779.53a1,1,0,0,1,1-1H400.49a1,1,0,0,1,1,1V803.6A1,1,0,0,1,400.49,804.63Zm-114.38-2.06H399.46v-22H286.11Z" transform="translate(-274.57 -322.54)" fill="#30276a"/><circle cx="350.06" cy="720.73" r="58.41" transform="translate(-681.68 136.08) rotate(-45)" fill="#fff"/><path d="M346.15,662.46c1.29-.09,2.59-.14,3.91-.14a58.33,58.33,0,0,1,48.26,25.51l-6.3,2.32A58.4,58.4,0,0,0,346.15,662.46Z" transform="translate(-274.57 -322.54)" fill="#12b9a6"/><path d="M399.91,711.43a57.16,57.16,0,0,0-4.24-14.33l6.66-2.45a57.1,57.1,0,0,1,4.9,14.09Z" transform="translate(-274.57 -322.54)" fill="#12b9a6"/><path d="M408.47,720.73a58.4,58.4,0,0,1-58.41,58.4c-1.32,0-2.62,0-3.91-.13a58.42,58.42,0,0,0,54.51-58.27c0-.42,0-.85,0-1.27l7.68-2.8C408.42,718,408.47,719.36,408.47,720.73Z" transform="translate(-274.57 -322.54)" fill="#12b9a6"/><path d="M350.06,780.17a59.44,59.44,0,1,1,59.44-59.44A59.51,59.51,0,0,1,350.06,780.17Zm0-116.82a57.38,57.38,0,1,0,57.38,57.38A57.45,57.45,0,0,0,350.06,663.35Z" transform="translate(-274.57 -322.54)" fill="#30276a"/><circle cx="335.52" cy="720.73" r="58.41" transform="translate(-685.93 125.8) rotate(-45)" fill="#fff"/><circle cx="60.94" cy="398.19" r="39.8" fill="#fff"/><path d="M306,722.58a39.81,39.81,0,0,0,27.63,37.9,39.8,39.8,0,1,1,14.06-77.65c-.63,0-1.26-.05-1.89-.05A39.8,39.8,0,0,0,306,722.58Z" transform="translate(-274.57 -322.54)" fill="#12b9a6"/><path d="M335.52,761.55a40.83,40.83,0,1,1,40.83-40.82A40.87,40.87,0,0,1,335.52,761.55Zm0-79.59a38.77,38.77,0,1,0,38.77,38.77A38.81,38.81,0,0,0,335.52,682Z" transform="translate(-274.57 -322.54)" fill="#30276a"/><path d="M335.52,780.17a59.51,59.51,0,0,1-59.44-59.44,58.81,58.81,0,0,1,12.85-36.92,1,1,0,0,1,1.61,1.28,56.81,56.81,0,0,0-12.4,35.64,57.38,57.38,0,0,0,93.45,44.63,1,1,0,0,1,1.45.15,1,1,0,0,1-.16,1.45A59.54,59.54,0,0,1,335.52,780.17Z" transform="translate(-274.57 -322.54)" fill="#30276a"/><path d="M381.26,758.09a1,1,0,0,1-.64-.23,1,1,0,0,1-.16-1.44,56.79,56.79,0,0,0,12.44-35.69,57.44,57.44,0,0,0-57.38-57.38,56.79,56.79,0,0,0-35.75,12.49,1,1,0,1,1-1.28-1.61,58.76,58.76,0,0,1,37-12.94A59.51,59.51,0,0,1,395,720.73a58.85,58.85,0,0,1-12.89,37A1.07,1.07,0,0,1,381.26,758.09Z" transform="translate(-274.57 -322.54)" fill="#30276a"/><path d="M327,705.21a9.67,9.67,0,0,1,7.4-2.93v-3.15h2.25v3.1A11.14,11.14,0,0,1,343.9,705a9,9,0,0,1,2.64,6.48h-4.15a7,7,0,0,0-1-3.1,5.42,5.42,0,0,0-4.75-2.51v11.5a27.72,27.72,0,0,1,7.45,2.89,7.49,7.49,0,0,1,3.2,6.58q0,6.28-4.1,8.94a15.18,15.18,0,0,1-6.55,1.94v4.59h-2.25v-4.59q-6.89-.45-9.35-4.87a13.18,13.18,0,0,1-1.35-6.46h4.19a11.73,11.73,0,0,0,1,4.73q1.47,2.67,5.44,3V721.24c-3.41-.65-5.92-1.73-7.55-3.25a8.19,8.19,0,0,1-2.44-6.29A9.39,9.39,0,0,1,327,705.21Zm3.17,9.87a9,9,0,0,0,4.18,1.85V705.81A5.37,5.37,0,0,0,330,707.7a6.12,6.12,0,0,0-1.32,3.71A4.57,4.57,0,0,0,330.19,715.08Zm12.06,16.21a6.5,6.5,0,0,0,.81-3.29,5.15,5.15,0,0,0-2.18-4.49,14,14,0,0,0-4.21-1.71v12.45C339.36,734.13,341.23,733.14,342.25,731.29Z" transform="translate(-274.57 -322.54)" fill="#30276a"/></svg>