<svg id="Layer_1" data-name="Layer 1" xmlns="http://www.w3.org/2000/svg" viewBox="0 0 488.97 528.95"><path d="M427.76,307.4v74.25a12.68,12.68,0,0,1-1,4.94c-10.41,25-34.08,42.13-61.67,57a12.63,12.63,0,0,1-11.94,0c-27.55-14.83-51.21-31.94-61.62-57a12.69,12.69,0,0,1-1-4.94V307.4a12.59,12.59,0,0,1,8.7-12l56-18.27a12.56,12.56,0,0,1,7.81,0l56,18.27A12.58,12.58,0,0,1,427.76,307.4Z" transform="translate(-275.01 -275.5)" fill="#30276a"/><path d="M359.12,446.08a13.58,13.58,0,0,1-6.45-1.63c-22.9-12.32-50.66-30-62.09-57.46a13.63,13.63,0,0,1-1.08-5.34V307.4a13.58,13.58,0,0,1,9.4-13l56-18.27a13.56,13.56,0,0,1,8.45,0l56,18.27a13.58,13.58,0,0,1,9.4,13v74.25a13.63,13.63,0,0,1-1.08,5.34c-11.44,27.48-39.21,45.14-62.13,57.46A13.59,13.59,0,0,1,359.12,446.08Zm0-168.52a11.6,11.6,0,0,0-3.58.57l-56,18.27a11.53,11.53,0,0,0-8,11v74.25a11.49,11.49,0,0,0,.93,4.54c11.19,26.88,38.56,44.29,61.16,56.45a11.57,11.57,0,0,0,11,0c22.62-12.16,50-29.56,61.21-56.44a11.75,11.75,0,0,0,.93-4.55V307.4a11.53,11.53,0,0,0-8-11l-56-18.27A11.61,11.61,0,0,0,359.12,277.56Z" transform="translate(-275.01 -275.5)" fill="#30276a"/><path d="M413.28,307.4v74.25a12.68,12.68,0,0,1-1,4.94c-10.42,25-34.08,42.13-61.67,57a12.63,12.63,0,0,1-11.94,0c-27.55-14.83-51.21-31.94-61.62-57a12.51,12.51,0,0,1-1-4.94V307.4a12.58,12.58,0,0,1,8.69-12l56-18.27a12.56,12.56,0,0,1,7.81,0l56,18.27A12.58,12.58,0,0,1,413.28,307.4Z" transform="translate(-275.01 -275.5)" fill="#12b9a6"/><path d="M344.64,446.08a13.59,13.59,0,0,1-6.46-1.63c-22.9-12.32-50.65-30-62.08-57.46a13.64,13.64,0,0,1-1.09-5.34V307.4a13.6,13.6,0,0,1,9.4-13l56-18.27a13.53,13.53,0,0,1,8.44,0l56.05,18.27a13.6,13.6,0,0,1,9.4,13v74.25a13.64,13.64,0,0,1-1.09,5.34c-11.43,27.47-39.21,45.14-62.12,57.46A13.62,13.62,0,0,1,344.64,446.08Zm0-168.52a11.66,11.66,0,0,0-3.59.57l-56,18.27a11.53,11.53,0,0,0-8,11v74.25a11.66,11.66,0,0,0,.92,4.54c11.19,26.88,38.57,44.29,61.17,56.45a11.57,11.57,0,0,0,11,0c22.62-12.16,50-29.57,61.21-56.44a11.74,11.74,0,0,0,.92-4.55V307.4a11.53,11.53,0,0,0-8-11l-56-18.27A11.6,11.6,0,0,0,344.64,277.56Z" transform="translate(-275.01 -275.5)" fill="#30276a"/><path d="M344.64,428.58a5.29,5.29,0,0,1-2.47-.62c-19-10.24-42-24.82-51.21-46.86a5.37,5.37,0,0,1-.43-2.1V314.17a5.19,5.19,0,0,1,3.59-5L343,293.26a5.17,5.17,0,0,1,1.61-.26,5.28,5.28,0,0,1,1.62.26l48.94,15.95a5.19,5.19,0,0,1,3.59,5V379a5.28,5.28,0,0,1-.42,2.07c-9.19,22.08-32.22,36.65-51.26,46.89A5.26,5.26,0,0,1,344.64,428.58Z" transform="translate(-275.01 -275.5)" fill="#fff"/><path d="M297.37,315.8v64.83a5.09,5.09,0,0,0,.44,2.09c8.77,21.09,30.2,35.35,48.7,45.52a5.38,5.38,0,0,1-1.87.34,5.17,5.17,0,0,1-2.47-.62c-19-10.24-42-24.82-51.21-46.86a5.38,5.38,0,0,1-.44-2.1V314.17a5.2,5.2,0,0,1,3.6-5L343,293.26a5.15,5.15,0,0,1,3.23,0l4.4,1.43a4.58,4.58,0,0,0-.79.2L301,310.83A5.21,5.21,0,0,0,297.37,315.8Z" transform="translate(-275.01 -275.5)" fill="#12b9a6"/><path d="M344.64,429.61a6.23,6.23,0,0,1-3-.75c-19.17-10.32-42.37-25-51.67-47.37a6.34,6.34,0,0,1-.51-2.49V314.17a6.23,6.23,0,0,1,4.3-5.94l6.87-2.24a1,1,0,0,1,1.29.66,1,1,0,0,1-.66,1.3l-6.86,2.24a4.17,4.17,0,0,0-2.88,4V379a4.24,4.24,0,0,0,.35,1.7c9,21.75,31.87,36.19,50.74,46.35a4.31,4.31,0,0,0,4,0c18.88-10.15,41.73-24.6,50.79-46.38a4.2,4.2,0,0,0,.35-1.67V314.17a4.17,4.17,0,0,0-2.89-4l-48.94-16a4.24,4.24,0,0,0-2.59,0l-29.18,9.52a1,1,0,0,1-.64-2l29.18-9.51a6.24,6.24,0,0,1,3.87,0l48.94,16a6.23,6.23,0,0,1,4.3,5.94V379a6.38,6.38,0,0,1-.5,2.47c-9.31,22.37-32.53,37.08-51.72,47.39A6.2,6.2,0,0,1,344.64,429.61Z" transform="translate(-275.01 -275.5)" fill="#30276a"/><path d="M680.51,332.51H618.8V803.42h61.71a36.35,36.35,0,0,0,36.37-36.37V368.88A36.35,36.35,0,0,0,680.51,332.51Z" transform="translate(-275.01 -275.5)" fill="#150f3b"/><path d="M680.51,804.45H618.8a1,1,0,0,1-1-1V332.51a1,1,0,0,1,1-1h61.71a37.45,37.45,0,0,1,37.4,37.4V767.05A37.45,37.45,0,0,1,680.51,804.45Zm-60.68-2.06h60.68a35.38,35.38,0,0,0,35.34-35.34V368.88a35.38,35.38,0,0,0-35.34-35.34H619.83Z" transform="translate(-275.01 -275.5)" fill="#150f3b"/><rect x="99.22" y="95.9" width="306.49" height="361.43" fill="#12b9a6"/><polygon points="405.7 95.9 405.7 111.75 112.25 111.75 112.25 457.33 99.22 457.33 99.22 95.9 405.7 95.9" fill="#fff"/><path d="M680.72,368.88v6.05H374.23v-6.05a36.35,36.35,0,0,1,36.37-36.37H644.34A36.36,36.36,0,0,1,680.72,368.88Z" transform="translate(-275.01 -275.5)" fill="#fff"/><path d="M680.72,725v42a36.35,36.35,0,0,1-36.38,36.37H410.6a36.35,36.35,0,0,1-36.37-36.37V725Z" transform="translate(-275.01 -275.5)" fill="#fff"/><path d="M644.34,804.45H468.41a1,1,0,1,1,0-2.06H644.34a35.39,35.39,0,0,0,35.35-35.34V368.88a35.38,35.38,0,0,0-35.35-35.34H410.6a35.38,35.38,0,0,0-35.34,35.34V767.05a35.38,35.38,0,0,0,35.34,35.34H445a1,1,0,1,1,0,2.06H410.6a37.45,37.45,0,0,1-37.4-37.4V368.88a37.45,37.45,0,0,1,37.4-37.4H644.34a37.45,37.45,0,0,1,37.41,37.4V767.05A37.45,37.45,0,0,1,644.34,804.45Z" transform="translate(-275.01 -275.5)" fill="#30276a"/><path d="M680.72,376H460.39a1,1,0,0,1,0-2.06h219.3v-5a35.38,35.38,0,0,0-35.35-35.34H410.6a35.38,35.38,0,0,0-35.34,35.34v5h57.31a1,1,0,0,1,0,2.06H374.23a1,1,0,0,1-1-1v-6.05a37.45,37.45,0,0,1,37.4-37.4H644.34a37.45,37.45,0,0,1,37.41,37.4v6.05A1,1,0,0,1,680.72,376Z" transform="translate(-275.01 -275.5)" fill="#30276a"/><path d="M680.72,726.07H374.23a1,1,0,1,1,0-2.06H680.72a1,1,0,1,1,0,2.06Z" transform="translate(-275.01 -275.5)" fill="#30276a"/><path d="M559.81,354.75H493.58a1,1,0,0,1,0-2.06h66.23a1,1,0,1,1,0,2.06Z" transform="translate(-275.01 -275.5)" fill="#30276a"/><path d="M520.61,704.25a20.88,20.88,0,1,1,10.91-38.68,1,1,0,0,1,.34,1.41,1,1,0,0,1-1.42.34,18.82,18.82,0,1,0,9,16,19.39,19.39,0,0,0-.32-3.5,1,1,0,1,1,2-.38,20.9,20.9,0,0,1-20.52,24.76Z" transform="translate(-275.01 -275.5)" fill="#150f3b"/><path d="M522.16,687.57a1.06,1.06,0,0,1-.73-.3l-6.37-6.37a1,1,0,0,1,0-1.46,1,1,0,0,1,1.45,0l5.65,5.65,24.23-24.24a1,1,0,1,1,1.46,1.46l-25,25A1.06,1.06,0,0,1,522.16,687.57Z" transform="translate(-275.01 -275.5)" fill="#150f3b"/><path d="M597.25,670.39H557.92a1,1,0,1,1,0-2h39.33a1,1,0,1,1,0,2Z" transform="translate(-275.01 -275.5)" fill="#150f3b"/><path d="M597.25,684.4H557.92a1,1,0,0,1,0-2.06h39.33a1,1,0,0,1,0,2.06Z" transform="translate(-275.01 -275.5)" fill="#150f3b"/><path d="M577.58,698.4H557.92a1,1,0,0,1,0-2.06h19.66a1,1,0,0,1,0,2.06Z" transform="translate(-275.01 -275.5)" fill="#150f3b"/><circle cx="213.95" cy="488.73" r="10.13" fill="#30276a"/><path d="M489,775.39a11.16,11.16,0,1,1,11.16-11.16A11.17,11.17,0,0,1,489,775.39Zm0-20.26a9.1,9.1,0,1,0,9.1,9.1A9.11,9.11,0,0,0,489,755.13Z" transform="translate(-275.01 -275.5)" fill="#30276a"/><circle cx="252.46" cy="488.73" r="10.13" fill="#30276a"/><path d="M527.47,775.39a11.16,11.16,0,1,1,11.16-11.16A11.17,11.17,0,0,1,527.47,775.39Zm0-20.26a9.1,9.1,0,1,0,9.1,9.1A9.11,9.11,0,0,0,527.47,755.13Z" transform="translate(-275.01 -275.5)" fill="#30276a"/><circle cx="290.97" cy="488.73" r="10.13" fill="#30276a"/><path d="M566,775.39a11.16,11.16,0,1,1,11.16-11.16A11.17,11.17,0,0,1,566,775.39Zm0-20.26a9.1,9.1,0,1,0,9.1,9.1A9.11,9.11,0,0,0,566,755.13Z" transform="translate(-275.01 -275.5)" fill="#30276a"/><path d="M367.71,354l-24,24.05a7.41,7.41,0,0,1-10.5,0l-11.56-11.57A7.42,7.42,0,0,1,332.1,356l6.32,6.31,18.79-18.79A7.42,7.42,0,0,1,367.71,354Z" transform="translate(-275.01 -275.5)" fill="#30276a"/><rect x="433.56" y="15.03" width="54.38" height="44.51" rx="7.41" fill="#fff"/><path d="M763,297.9v4.61a7.39,7.39,0,0,0-7.38-7.38H716a7.38,7.38,0,0,0-7.38,7.38V297.9a7.37,7.37,0,0,1,7.38-7.37h39.62A7.38,7.38,0,0,1,763,297.9Z" transform="translate(-275.01 -275.5)" fill="#d586b8"/><path d="M755.58,336.06h-6.22a1,1,0,1,1,0-2.05h6.22a6.36,6.36,0,0,0,6.35-6.35V297.9a6.36,6.36,0,0,0-6.35-6.35H716a6.35,6.35,0,0,0-6.34,6.35v29.76A6.35,6.35,0,0,0,716,334h25.28a1,1,0,1,1,0,2.05H716a8.41,8.41,0,0,1-8.4-8.4V297.9a8.41,8.41,0,0,1,8.4-8.41h39.63a8.41,8.41,0,0,1,8.4,8.41v29.76A8.41,8.41,0,0,1,755.58,336.06Z" transform="translate(-275.01 -275.5)" fill="#30276a"/><path d="M735.77,320.16a5.46,5.46,0,0,1-3.47-1.25l-24.38-20.22a1,1,0,0,1-.37-.79,8.41,8.41,0,0,1,8.41-8.4h39.62a8.42,8.42,0,0,1,8.41,8.4,1,1,0,0,1-.38.79l-24.37,20.22A5.46,5.46,0,0,1,735.77,320.16Zm-26.15-22.73,24,19.89a3.35,3.35,0,0,0,4.3,0l24-19.89a6.35,6.35,0,0,0-6.33-5.87H716A6.35,6.35,0,0,0,709.62,297.43Zm53.34.47h0Z" transform="translate(-275.01 -275.5)" fill="#30276a"/><path d="M602.24,473.21a70.79,70.79,0,1,1-71.61-70.71A70.75,70.75,0,0,1,602.24,473.21Zm-20.07,34.36c15.41-21.52,15.57-56.7-9.28-79.56-24.61-22.64-63.22-21.23-85.94,3s-19.86,58-6.1,76.49c14.06-13.83,30.92-21.2,50.68-21.2S568.12,493.73,582.17,507.57Z" transform="translate(-275.01 -275.5)" fill="#150f3b"/><path d="M531.58,421.34a28.32,28.32,0,1,1-28.41,28.52A28.35,28.35,0,0,1,531.58,421.34Z" transform="translate(-275.01 -275.5)" fill="#150f3b"/><path d="M458.21,590H431.7a1.33,1.33,0,0,1,0-2.65h26.51a1.33,1.33,0,1,1,0,2.65Z" transform="translate(-275.01 -275.5)" fill="#30276a"/><path d="M572.06,590H473.6a1.33,1.33,0,0,1,0-2.65h98.46a1.33,1.33,0,0,1,0,2.65Z" transform="translate(-275.01 -275.5)" fill="#30276a"/><path d="M648.3,590H585.12a1.33,1.33,0,0,1,0-2.65H648.3a1.33,1.33,0,0,1,0,2.65Z" transform="translate(-275.01 -275.5)" fill="#30276a"/><path d="M520.82,611H431.7a1.33,1.33,0,0,1,0-2.65h89.12a1.33,1.33,0,1,1,0,2.65Z" transform="translate(-275.01 -275.5)" fill="#30276a"/><path d="M621.51,611H533.3a1.33,1.33,0,0,1,0-2.65h88.21a1.33,1.33,0,0,1,0,2.65Z" transform="translate(-275.01 -275.5)" fill="#30276a"/><path d="M648.3,611H632.5a1.33,1.33,0,0,1,0-2.65h15.8a1.33,1.33,0,0,1,0,2.65Z" transform="translate(-275.01 -275.5)" fill="#30276a"/><path d="M536.93,632H431.7a1.33,1.33,0,0,1,0-2.65H536.93a1.33,1.33,0,0,1,0,2.65Z" transform="translate(-275.01 -275.5)" fill="#30276a"/><path d="M574.13,632H549.59a1.33,1.33,0,0,1,0-2.65h24.54a1.33,1.33,0,0,1,0,2.65Z" transform="translate(-275.01 -275.5)" fill="#30276a"/></svg>