<svg id="Layer_1" data-name="Layer 1" xmlns="http://www.w3.org/2000/svg" viewBox="0 0 422.63 459.42"><path d="M650.19,460.28a143.13,143.13,0,0,1-62.51,118.35A59.88,59.88,0,0,0,561.8,625l-2,39.1H454L452,625c-.95-18.45-10.12-35.71-25.41-46.07a143.15,143.15,0,0,1-62.82-125.33C367.21,377.78,430.6,317.18,506.52,317A143.3,143.3,0,0,1,650.19,460.28Z" transform="translate(-318.02 -271.92)" fill="#fff"/><path d="M463,623.27l2,39.08H452.31l-2-39.08c-1-18.45-10.12-35.71-25.42-46.07A143.2,143.2,0,0,1,362,451.86c3.44-75.84,66.82-136.44,142.75-136.64q3.39,0,6.74.15C438.3,318.64,378.13,378,374.8,451.86A143.18,143.18,0,0,0,437.62,577.2C452.91,587.56,462.07,604.82,463,623.27Z" transform="translate(-318.02 -271.92)" fill="#30276a"/><path d="M559.78,665.13H454a1,1,0,0,1-1-1l-2-39.08c-1-18.4-10.29-35.32-25-45.27a144.17,144.17,0,0,1-52.69-174,1,1,0,0,1,1.91.78,139.82,139.82,0,0,0-10.43,47.12A141.52,141.52,0,0,0,427.18,578.1c15.2,10.31,24.87,27.83,25.86,46.87l2,38.11H558.8l2-38.14a61.24,61.24,0,0,1,26.31-47.16A142.27,142.27,0,0,0,506.89,318h-.37c-43.95.12-86.23,21.34-113.08,56.77a1,1,0,1,1-1.64-1.25C419,337.59,461.92,316.07,506.52,316h.37a144.32,144.32,0,0,1,81.37,263.52,59.17,59.17,0,0,0-25.43,45.57l-2,39.11A1,1,0,0,1,559.78,665.13Z" transform="translate(-318.02 -271.92)" fill="#30276a"/><path d="M506.9,295.44a1,1,0,0,1-1-1V273a1,1,0,0,1,2.06,0v21.46A1,1,0,0,1,506.9,295.44Z" transform="translate(-318.02 -271.92)" fill="#30276a"/><path d="M421.79,318.25a1,1,0,0,1-.89-.52l-10.73-18.58a1,1,0,1,1,1.78-1l10.73,18.58a1,1,0,0,1-.37,1.41A1.1,1.1,0,0,1,421.79,318.25Z" transform="translate(-318.02 -271.92)" fill="#30276a"/><path d="M359.48,380.55a1,1,0,0,1-.51-.14l-18.58-10.73a1,1,0,0,1-.38-1.4,1,1,0,0,1,1.4-.38L360,378.63a1,1,0,0,1-.52,1.92Z" transform="translate(-318.02 -271.92)" fill="#30276a"/><path d="M654.32,380.55a1,1,0,0,1-.51-1.92l18.58-10.73a1,1,0,0,1,1.41.38,1,1,0,0,1-.38,1.4l-18.59,10.73A.94.94,0,0,1,654.32,380.55Z" transform="translate(-318.02 -271.92)" fill="#30276a"/><path d="M592,318.25a1.06,1.06,0,0,1-.51-.14,1,1,0,0,1-.38-1.41l10.73-18.58a1,1,0,1,1,1.79,1l-10.73,18.58A1.05,1.05,0,0,1,592,318.25Z" transform="translate(-318.02 -271.92)" fill="#30276a"/><path d="M527.25,651.79a1,1,0,0,1-1-1v-20.9c1.42-24.33,14.61-47.16,25.43-62a100.34,100.34,0,0,0,18.86-55.3c.9-27.8-7.58-43.67-25.21-47.17-13.55-2.68-27.54,3.83-36.86,17,9.94,14.84,13.8,32.38,9.36,42.9-1.84,4.37-5.43,7.17-9.59,7.47s-8.2-1.94-10.67-6c-4.56-7.51-6.82-21.27,8.27-44.15l.24-.37a1,1,0,0,1,.45-.84,1.06,1.06,0,0,1,.21-.11c9.79-13.94,24.61-20.79,39-17.93,12.9,2.56,28,13.18,26.87,49.25A102.45,102.45,0,0,1,553.32,569c-10.66,14.65-23.66,37.11-25,60.88v20.84A1,1,0,0,1,527.25,651.79ZM507.19,484.24c-14.13,21.67-12.11,34.49-7.89,41.44,2.06,3.41,5.33,5.29,8.76,5s6.31-2.57,7.85-6.22C520,514.74,516.43,498.39,507.19,484.24Z" transform="translate(-318.02 -271.92)" fill="#30276a"/><path d="M486.57,651.79a1,1,0,0,1-1-1v-20.9c-1.39-23.71-14.38-46.17-25-60.82a102.45,102.45,0,0,1-19.25-56.44c-1.17-36.07,14-46.69,26.87-49.25,14.83-3,30.11,4.43,39.89,19.25a1,1,0,0,1-1.72,1.13c-9.31-14.11-23.78-21.14-37.77-18.37-17.63,3.5-26.11,19.37-25.22,47.17a100.42,100.42,0,0,0,18.86,55.3c10.82,14.87,24,37.7,25.43,62v21A1,1,0,0,1,486.57,651.79Z" transform="translate(-318.02 -271.92)" fill="#30276a"/><ellipse cx="188.89" cy="431.23" rx="39.22" ry="27.15" fill="#30276a"/><path d="M506.91,731.34c-22.19,0-40.25-12.64-40.25-28.18S484.72,675,506.91,675s40.25,12.65,40.25,28.19S529.1,731.34,506.91,731.34Zm0-54.31c-21.06,0-38.19,11.72-38.19,26.13s17.13,26.12,38.19,26.12,38.19-11.72,38.19-26.12S528,677,506.91,677Z" transform="translate(-318.02 -271.92)" fill="#30276a"/><path d="M567.31,651.61v38.55A13,13,0,0,1,556.17,703a346.7,346.7,0,0,1-100.59,0,13,13,0,0,1-11.14-12.84V651.61a13,13,0,0,1,14.75-12.81,345.89,345.89,0,0,0,93.37,0A13,13,0,0,1,567.31,651.61Z" transform="translate(-318.02 -271.92)" fill="#19b9a6"/><path d="M568.34,653.07v6a13,13,0,0,0-14.75-12.81,346.71,346.71,0,0,1-93.37,0,13,13,0,0,0-14.75,12.81v-6a13,13,0,0,1,14.75-12.82,345.89,345.89,0,0,0,93.37,0A13,13,0,0,1,568.34,653.07Z" transform="translate(-318.02 -271.92)" fill="#fff"/><path d="M506.91,709.15a348.26,348.26,0,0,1-50.45-3.67,14.08,14.08,0,0,1-12-13.87V653.07a13.92,13.92,0,0,1,4.75-10.49,14.11,14.11,0,0,1,11.16-3.35,344.64,344.64,0,0,0,93.09,0,14.07,14.07,0,0,1,11.16,3.35,13.89,13.89,0,0,1,4.76,10.49v38.54a14.09,14.09,0,0,1-12,13.87A348.12,348.12,0,0,1,506.91,709.15Zm-48.44-68a12,12,0,0,0-7.91,3,11.86,11.86,0,0,0-4.06,8.94v38.54a12,12,0,0,0,10.26,11.83,345.76,345.76,0,0,0,100.3,0,12,12,0,0,0,10.25-11.83V653.07a11.88,11.88,0,0,0-4-8.94,12,12,0,0,0-9.53-2.86,347.07,347.07,0,0,1-93.64,0A12.6,12.6,0,0,0,458.47,641.16Z" transform="translate(-318.02 -271.92)" fill="#30276a"/><path d="M508,689.27a321.12,321.12,0,0,1-62.7-6.32,1,1,0,0,1,.41-2c42,8.38,83.24,8.38,122.45,0a1,1,0,0,1,.43,2A289.46,289.46,0,0,1,508,689.27Z" transform="translate(-318.02 -271.92)" fill="#30276a"/><path d="M508,667.31a321.12,321.12,0,0,1-62.7-6.32,1,1,0,0,1,.41-2c42,8.38,83.24,8.38,122.45,0a1,1,0,0,1,.43,2A290.13,290.13,0,0,1,508,667.31Z" transform="translate(-318.02 -271.92)" fill="#30276a"/><path d="M596.82,539.68c6.75-6.82,6-19.9-1.21-24.41,2-6.37-1.33-14.21-7.06-17.7-2.71-1.64.32-2.52.81-5.68a31.35,31.35,0,0,0,.25-8.76,20.12,20.12,0,0,0-6.1-12.5,16.92,16.92,0,0,0-5.79-3.52c-1.61-.58-4.43-.33-5.37-1.78-1.06-1.63-1.18-5.24-1.87-7.16A35.68,35.68,0,0,0,567,451c-4.93-7.64-15.2-10.51-23.55-8.47-1.63-3.42-1.68-8.29-4.83-10.2-4.35-2.62-10.74-2.75-15.69-2.78-3.23-1.21-6.51.31-9.86.76-2-.24-3.63-1.28-5.54-2.63-2.85-2-5.63-4-9.1-3.68a15.08,15.08,0,0,0-5.87-1.84c-6.16-.51-11.83,2.33-17.07,5.5-4.21,2.55-7.57,2.91-12.3,2a41.14,41.14,0,0,0-8.49-.82c-5.25.16-10.7,1.77-14.63,5.74-.94.95-1.6,2.09-2.46,3.1-2,2.34-3.3,2.59-6.05,2.31a22.42,22.42,0,0,0-20.32,7.16c-3.38,1.21-5.53,4.43-6.65,8.33-.91,3.16-1.08,6.52-2,9.67-1.05,3.6-3.34,6.2-5.55,9a29.08,29.08,0,0,0-3.91,30.33c1,2.2,3.76,4.82,4.05,7.23.18,1.47-.4,3.44-.4,5a29.23,29.23,0,0,0,.31,4.38,29.84,29.84,0,0,0,6.32,14.53c6.79,8.21,14.69,12.12,29.17,5.76,1.08,13.19,8.13,19,16.46,23.92,10.55,6.19,21.94,4,33.37,5.12A24.65,24.65,0,0,1,500,579.91c.23.42.46.84.66,1.26,1.37,2.82,2.38,6,4.19,8.52.28,1,.54,2,.74,3a36.12,36.12,0,0,1,.69,8c-.07,2.72-.95,5.69-.25,8.38,1.34,5.18,8,6.15,12.19,6.74,5.56.79,9.89-.55,11.8-6.77,1.08-3.53-.36-7.86-.18-11.64,7,1.75,16.7,1.3,23.43-.58,7.86-2.2,15.25-5.87,19.12-13.82a6.12,6.12,0,0,0,.6-1.76c.32-1,2.91-4.85,3-5.94,5.53-.79,8.1-.86,12.4-4.94,3.5-3.33,7.12-10.84,6.65-15.83,4.4-2,3.87-2.47,4.74-7.7C600.51,542.77,599.71,541.33,596.82,539.68Z" transform="translate(-318.02 -271.92)" fill="#19b9a6"/><path d="M598.61,542.44a10.17,10.17,0,0,0-2.55-4c-.79-.8-1.79-1.42-2.54-2.27-1.32-1.52-1.51-3.07-2.23-4.87-1.38-3.46-3.77-4.74-6.88-5.89-1.87-.69-3-1.11-4.19-2.88-1.1-1.57-1.7-3.17-3.61-3.71-3.93-1.12-6.09,4.86-9.88,1.28-3.59-3.39-4.17-11.53-5.3-16.29-2-8.31-2.87-21.89-11.72-25.15-3-1.1-5.78-.22-8.34,1.53-1.72,1.17-3.57,3.27-5.81,2.51-2-.67-3.35-3.36-4.75-4.9-2.2-2.44-5.36-4.53-8.61-3.64-3.75,1-4.21,5.12-5.65,8.37-2.25,5.1-7.16,9.95-12.6,7.58-3.51-1.53-7.24-3.93-10.61-.58-2.74,2.72-2.92,10.7-8.24,7.76-3.38-1.87-3.38-7.16-7.28-8.64-3.35-1.26-6.65,1.14-8.29,4.23-2.26,4.26-1.5,10.14-6.55,12-10.06,3.77-10.21-12-15.87-16.95a2.4,2.4,0,0,0-3.49.47,12.87,12.87,0,0,0-2.75,5.79c-.57,2.44-.54,5.79-2.07,7.79-3.43,4.48-12.35-1.26-16-3-11-5.28-21.95-13.95-22.09-28.36,0-1.65-2.29-1.5-2.54,0-.08.42-.13.84-.18,1.25a2,2,0,0,0-.86.64,29.88,29.88,0,0,0-6,24c.87,4.76,3.46,8.5,4.86,13,1.54,4.93.78,10.37,2.14,15.41,4.22,15.71,21,25.61,34.1,16.31,3.28,7.4,7,14.83,13.19,19.78,7.17,5.74,16.72,8.05,25.46,8.76,4.7.38,9.48-.6,14.14,0,5,.67,9.23,4,12.3,8.17,5,7,5.87,15.2,8.11,23.4,1.77,6.47,5.64,13.38,12.63,13.32,6.27-.05,12.13-5.87,12.1-12.84,0-1.61-.69-3.26-.61-4.84.13-2.65,1-2.29,3.13-1.94a17.27,17.27,0,0,1,2.6,1c4.36,1.66,8.86,3.29,13.55,3,7.46-.47,15.55-6,20.1-11.91,2.54-3.28,5.64-11.43,6.25-11.65,2.49-.9,6.19-1.32,9.76-3.27a16.13,16.13,0,0,0,6.84-6.37c1.12-2.07,1.47-4.36,2.17-6.6a54.28,54.28,0,0,1,3.13-7C598.45,549.27,599.7,545.81,598.61,542.44Z" transform="translate(-318.02 -271.92)" fill="#19b9a6"/><path d="M531.76,435.38a1.62,1.62,0,0,0-1.74,1.87c.35,2.08,1.4,3.94,1.78,6s0,4.35.37,6.48a1.64,1.64,0,0,0,2.61,1.23C539.65,447.48,537.41,436.48,531.76,435.38Z" transform="translate(-318.02 -271.92)" fill="#fff"/><path d="M530,454.27a7.86,7.86,0,0,1-1.31,1.27,9,9,0,0,1-1.45,1.11c-1.09.57-.78,2.59.55,2.35a4.48,4.48,0,0,0,2.65-1.36,5.46,5.46,0,0,0,1.23-2.6A.94.94,0,0,0,530,454.27Z" transform="translate(-318.02 -271.92)" fill="#fff"/><path d="M415.6,451c-1.56,0-2.63,0-3.77,1.31a5.78,5.78,0,0,0-1.17,4.46c.1,1,1.55,1.62,2.12.65s1.22-1.71,1.79-2.59a6.69,6.69,0,0,0,.85-1.5,5.3,5.3,0,0,1,.52-1.41C416.16,451.55,416,451,415.6,451Z" transform="translate(-318.02 -271.92)" fill="#fff"/><path d="M582.46,498.36c-.57-1.95-2-4.37-4.09-4.46a1.93,1.93,0,0,0-2,2.21c.25,1.39,1.15,2.42,1.53,3.76a20.45,20.45,0,0,1,.75,3.8,1.53,1.53,0,0,0,2.74.83A6.36,6.36,0,0,0,582.46,498.36Z" transform="translate(-318.02 -271.92)" fill="#fff"/><path d="M581,509.16a1.47,1.47,0,0,0-2.33-1.09,3.43,3.43,0,0,0-.75.9c-.09.17-.19.34-.27.51l0,.07c-.07.13-.15.25-.22.37a6.19,6.19,0,0,1-1,1.61,1.45,1.45,0,0,0-.33,1.73,1.18,1.18,0,0,0,1.52.6,7.23,7.23,0,0,0,2.35-1.64A4.07,4.07,0,0,0,581,509.16Z" transform="translate(-318.02 -271.92)" fill="#fff"/><path d="M573.88,576.72a35.81,35.81,0,0,1-12.47,16.12,30.41,30.41,0,0,1-31.91,1.95c-1.33-.71-2.46,1.33-1.17,2.18a.69.69,0,0,1-.24-.27s.07.11.06.11,0-.1,0,.14a7.7,7.7,0,0,1,.17.89,26.18,26.18,0,0,1,.12,2.94c0,2.1-.09,4.2-.27,6.29-.33,3.77-2.29,9.25-6.81,8.67a47.79,47.79,0,0,1-11-2.33c-1.61-.63-2.2-2.54-2.5-4.32a60.38,60.38,0,0,1-.41-7.73,36,36,0,0,0-1.46-8.05,53.41,53.41,0,0,0-3.35-8.95c-2.62-5.43-6.46-10.71-11.5-13.65a14.31,14.31,0,0,0-7.33-1.93c-2.9,0-5.79.54-8.7.57a63.49,63.49,0,0,1-18.6-2.57c-5.55-1.64-11.11-4.07-15.33-8.48a26.16,26.16,0,0,1-6.53-13q-.36-1.8-.54-3.63c-.15-1.6-2.47-1.61-2.31,0a32.08,32.08,0,0,0,4.9,14.86,30.24,30.24,0,0,0,13.77,10.77,62,62,0,0,0,19.24,4.39,60.26,60.26,0,0,0,9.5,0c2.84-.24,5.65-.72,8.44.16a17.46,17.46,0,0,1,7.11,5,34.47,34.47,0,0,1,5.52,8.06,42.66,42.66,0,0,1,4.89,17.64c.1,4.33-.3,11.2,4.21,13.16a28.41,28.41,0,0,0,6.13,1.61q2.89.56,5.8,1c5.07.7,8.37-4.59,9.05-9.52a54.64,54.64,0,0,0,.42-6,25.79,25.79,0,0,0-.29-6.21,2.66,2.66,0,0,0-1-1.73L528.33,597a33,33,0,0,0,22.77,3.17,34,34,0,0,0,18.31-11.37A39,39,0,0,0,575.88,578c.58-1.48-1.41-2.77-2-1.28Z" transform="translate(-318.02 -271.92)" fill="#231f20"/><path d="M485.35,570.52c12.6-4,25.68-2.37,38.43-.19,5.89,1,11.81,1.86,17.67,3,5.5,1.1,11,2.36,16.52,3.09,6,.8,12.27,1,18.13-.94,1.42-.47.82-2.91-.61-2.44-5.15,1.7-10.6,1.64-15.91,1-5.58-.62-11.09-1.88-16.6-3-5.8-1.19-11.65-2-17.48-3a166.16,166.16,0,0,0-19.09-2.49,60,60,0,0,0-21.67,2.49c-1.43.45-.82,2.89.61,2.43Z" transform="translate(-318.02 -271.92)" fill="#231f20"/><path d="M499.26,567.57a11,11,0,0,0,7.22,9.68l-.69-1.85c-2.88,6.11-.13,13.66,5.93,15.75a10.31,10.31,0,0,0,2.14.45,3.31,3.31,0,0,1,1.86.51c.59.5,1,1.32,1.54,1.88a10.37,10.37,0,0,0,1.58,1.31,9.53,9.53,0,0,0,8.2,1.2c1.42-.45.82-2.89-.62-2.43a7.4,7.4,0,0,1-6.65-1.12c-1.07-.77-1.67-2-2.64-2.83a6,6,0,0,0-3.41-1.06c-5.34-.75-8.38-7.18-5.93-12.39a1.31,1.31,0,0,0-.69-1.85,8.46,8.46,0,0,1-5.52-7.25c-.15-1.6-2.47-1.61-2.32,0Z" transform="translate(-318.02 -271.92)" fill="#231f20"/><path d="M434.48,539c-.44-8.52.83-18.7,8.47-23.16a11.41,11.41,0,0,1,5.17-1.44,6.82,6.82,0,0,0,2.77-.65,11.61,11.61,0,0,0,2.4-2,19.59,19.59,0,0,1,20.06-4.05c1.82.67,3.34,1.85,5.08,2.69,1.93.92,3.62.22,5.12-1.24,3.15-3,6.25-6,10.08-8a20.1,20.1,0,0,1,11.61-2.39,15,15,0,0,1,6.09,2c1.92,1.16,3.65,3.12,5.89,1.48a30.51,30.51,0,0,0,2.49-2.34,24.64,24.64,0,0,1,2.77-2.26c1.93-1.32,4.11-2.23,6.4-1.64a1.2,1.2,0,0,0,1.47-1.22,10.19,10.19,0,0,1,7.71-9.74c1.46-.31.85-2.74-.61-2.44-5.27,1.09-9.27,6.38-9.42,12.18l1.47-1.21c-4.3-1.12-8.14,1.52-11.3,4.43-.72.66-1.38,1.48-2.15,2.06-1,.77-1.91-.38-2.76-1a16.63,16.63,0,0,0-5.47-2.46c-8.47-2.1-16.67,2-23.06,7.86-.79.72-1.55,1.48-2.31,2.25s-1.42,1.59-2.39,1.5-1.9-1-2.73-1.47a20.88,20.88,0,0,0-13.69-2.64,21.56,21.56,0,0,0-10.2,4.23c-1.61,1.23-2.93,3.19-5,3.39a15.87,15.87,0,0,0-5.65,1.29,18,18,0,0,0-8.53,9.65c-2.06,5.09-2.38,10.72-2.1,16.21a1.16,1.16,0,1,0,2.32,0Z" transform="translate(-318.02 -271.92)" fill="#231f20"/><path d="M444.62,532.76a23.34,23.34,0,0,0,29.86,2.83l-.9.13c7,1.12,14.57.92,21.34-1.53,5.14-1.86,10.38-5.51,11.65-11.64l-2.12.3c5.11,7.55,15.12,7.35,22.81,6.23a38.68,38.68,0,0,0,21.11-9.82,44.37,44.37,0,0,0,9.37-13c.7-1.44-1.3-2.71-2-1.28-3.8,7.78-9.42,14.19-16.79,17.95a41,41,0,0,1-20.54,4.15c-4.33-.22-9.24-1.46-12-5.48a1.14,1.14,0,0,0-2.12.3c-.86,4.15-3.89,6.9-7.27,8.68a32.63,32.63,0,0,1-13.36,3.21,45.32,45.32,0,0,1-7.64-.22c-.67-.08-1.35-.25-2-.28a2.43,2.43,0,0,0-1.45.63,18.53,18.53,0,0,1-2.68,1.5A21.27,21.27,0,0,1,446.26,531c-1.1-1.1-2.74.68-1.64,1.78Z" transform="translate(-318.02 -271.92)" fill="#231f20"/><path d="M453.62,541.85A8.86,8.86,0,0,0,452,552.4a1.13,1.13,0,0,0,1.58.45,1.35,1.35,0,0,0,.42-1.73c-.1-.17-.19-.35-.28-.53l-.09-.22,0-.09a8.44,8.44,0,0,1-.28-1.1s-.05-.34,0-.19,0-.17,0-.2c0-.2,0-.4,0-.61s0-.36,0-.54l0-.31c0,.19,0,0,0-.08a8.29,8.29,0,0,1,.26-1.12l.08-.23c.12-.36-.05.11,0-.09s.16-.36.25-.54.17-.31.27-.47c0,0,.17-.26.1-.16s.1-.14.12-.16a5.8,5.8,0,0,1,.8-.84,1.36,1.36,0,0,0,0-1.79,1.13,1.13,0,0,0-1.64,0Z" transform="translate(-318.02 -271.92)" fill="#231f20"/><path d="M476.44,556.08c1.35.48,2.58-.15,3.87-.55,1.59-.49,3.07.28,4.52,1a15.15,15.15,0,0,0,9.12,1.7,15.59,15.59,0,0,0,8.15-4.37,14.76,14.76,0,0,1,3.79-2.87,7.65,7.65,0,0,1,3.93-.47c2.81.31,5.46,1.55,8.22,2.14a11.35,11.35,0,0,0,8.46-1.21,14,14,0,0,1,4.7-2,13,13,0,0,1,5.11.42c3,.75,5.79,2.25,8.82,2.72a25.13,25.13,0,0,0,8.94-.37,19.89,19.89,0,0,0,8.14-3.51c1.2-.93,0-3.13-1.17-2.18-4,3.17-9.79,4.16-14.66,3.69-2.86-.27-5.53-1.64-8.27-2.46-3.19-.95-6.65-1.44-9.8-.06-1.51.66-2.85,1.71-4.37,2.33a8.06,8.06,0,0,1-4,.47c-2.76-.29-5.38-1.49-8.09-2.1a10.42,10.42,0,0,0-8,.91c-2.66,1.63-4.56,4.38-7.44,5.65a11.84,11.84,0,0,1-10-.34c-1.59-.74-3.29-1.73-5.06-1.73a6.47,6.47,0,0,0-2.24.48,3.22,3.22,0,0,1-2.11.36c-1.42-.5-2,1.93-.61,2.44Z" transform="translate(-318.02 -271.92)" fill="#231f20"/><path d="M425.91,489c6.09,1.22,10.73-4,14-8.84a39,39,0,0,1,5.52-7.18,13.79,13.79,0,0,1,8-3.38,42.55,42.55,0,0,1,10.26.59c.62.09,1.15-.65,1.16-1.27a1.25,1.25,0,0,0-1.16-1.26c-5.71-.81-12-1.53-17.25,1.55S439,478.31,435,482.65c-2.21,2.4-5.25,4.56-8.51,3.9-1.46-.29-2.08,2.14-.62,2.44Z" transform="translate(-318.02 -271.92)" fill="#231f20"/><path d="M466.92,443a5.38,5.38,0,0,1,7.43,3.44c1.14,3.54-1.16,6.88-2.88,9.68-3.36,5.44-7.3,11.2-6.61,18.14a11.78,11.78,0,0,0,4.16,8.35c1.2,1,2.36-1.23,1.16-2.18-2.23-1.77-3.09-4.86-3.08-7.76A20,20,0,0,1,470,463c3.08-5.59,10-12.94,5.43-19.71a7.49,7.49,0,0,0-9.7-2.55c-1.36.67-.18,2.85,1.17,2.18Z" transform="translate(-318.02 -271.92)" fill="#231f20"/><path d="M492.23,434.53a14.55,14.55,0,0,1,5.47,11.32,1.16,1.16,0,1,0,2.32,0,17.26,17.26,0,0,0-6.62-13.5,1.12,1.12,0,0,0-1.59.45,1.36,1.36,0,0,0,.42,1.73Z" transform="translate(-318.02 -271.92)" fill="#231f20"/><path d="M506.68,442c-5.32-.66-9.77,4.87-11.32,9.87a10.67,10.67,0,0,0-.52,4,1.24,1.24,0,0,0,1.16,1.26,1.21,1.21,0,0,0,1.15-1.26c0-.33,0-.65,0-1l0-.51c0-.28,0,.06,0-.19a12,12,0,0,1,.52-2.06,14.4,14.4,0,0,1,2-3.85c1.75-2.34,4.16-4.15,6.93-3.81.62.08,1.15-.64,1.15-1.26a1.25,1.25,0,0,0-1.15-1.27Z" transform="translate(-318.02 -271.92)" fill="#231f20"/><path d="M495.36,452.3c-4.08,1.64-7.06,5.25-8.67,9.6-1.93,5.21-1.55,11.09-.38,16.44.35,1.58,2.58.92,2.23-.67-1-4.75-1.38-9.85.18-14.52,1.24-3.7,3.81-7,7.26-8.41,1.39-.56.79-3-.62-2.44Z" transform="translate(-318.02 -271.92)" fill="#231f20"/><path d="M420.61,463.39a21.52,21.52,0,0,1,4-9.78,20.06,20.06,0,0,1,7.14-5.67,21.9,21.9,0,0,1,9.64-2.3,17.38,17.38,0,0,1,6.27,1.28,6.64,6.64,0,0,0,2.83.91,2.88,2.88,0,0,0,2.11-1.56c2.26-3.49,6.3-3.54,9.89-3.44,1.49,0,1.49-2.48,0-2.53-3.38-.09-7.21,0-10,2.37a8.54,8.54,0,0,0-1.67,2c-.28.45-.33.67-.81.62a9.61,9.61,0,0,1-1.9-.83,19.45,19.45,0,0,0-6.37-1.3,22.66,22.66,0,0,0-23.34,19.6c-.26,1.59,2,2.27,2.23.67Z" transform="translate(-318.02 -271.92)" fill="#231f20"/><path d="M508.16,442.78a11.68,11.68,0,0,1,6.34-8.62c2.58-1.33,6.1-2,8.78-.76,1.36.65,2.54-1.53,1.17-2.18-3.49-1.67-7.56-1-10.94.67a14,14,0,0,0-7.58,10.21c-.25,1.59,2,2.28,2.23.68Z" transform="translate(-318.02 -271.92)" fill="#231f20"/><path d="M489.51,481.9a8.52,8.52,0,0,1,7,4.15,10.22,10.22,0,0,1,.53,9.29c-.66,1.45,1.34,2.73,2,1.27a13,13,0,0,0-.53-11.84,10.92,10.92,0,0,0-9-5.39c-1.49,0-1.49,2.5,0,2.52Z" transform="translate(-318.02 -271.92)" fill="#231f20"/><path d="M471,485.24a6.47,6.47,0,0,1,1.58,10.06c-1.25,1.37-2.73,2.62-3.07,4.63a5.87,5.87,0,0,0,1.67,5.25c1.14,1,2.79-.74,1.64-1.79a3.28,3.28,0,0,1-.11-4.72c1.39-1.62,2.82-2.87,3.53-5a9,9,0,0,0-4.07-10.57c-1.33-.71-2.51,1.47-1.17,2.18Z" transform="translate(-318.02 -271.92)" fill="#231f20"/><path d="M443.81,490.57a12.85,12.85,0,0,1,4.09,2.94c1.26,1.52.93,3.41,1.17,5.29a12.17,12.17,0,0,0,5.74,8.94c1.32.76,2.49-1.42,1.17-2.18a9.37,9.37,0,0,1-3.56-3.74,11.77,11.77,0,0,1-1.17-5.34,7.62,7.62,0,0,0-2-5.1,15.79,15.79,0,0,0-4.26-3c-1.33-.71-2.51,1.47-1.17,2.18Z" transform="translate(-318.02 -271.92)" fill="#231f20"/><path d="M420.63,487.52c-6.12-1.08-12.69-.6-17.62,3.92A13.69,13.69,0,0,0,399.6,507a11.1,11.1,0,0,0,6.15,5.5c2.45,1.06,5.51,1.84,7,4.47.83,1.46.48,2.95.26,4.54a13.2,13.2,0,0,0,.13,4.52,15.83,15.83,0,0,0,4.33,7.8,21.56,21.56,0,0,0,6.51,4.49,20,20,0,0,0,7.89,1.16c1.49,0,1.49-2.53,0-2.53a19.48,19.48,0,0,1-6.44-.75,17.88,17.88,0,0,1-4.92-2.92,13.94,13.94,0,0,1-4.72-6.39,10.88,10.88,0,0,1-.61-3.88c.06-1.54.56-3,.41-4.6a8.28,8.28,0,0,0-4.13-6c-2.32-1.47-5.06-1.94-7.33-3.53-4.21-2.95-4.17-9.5-1.35-13.51,4-5.71,11.19-6.45,17.25-5.38,1.45.26,2.08-2.18.61-2.43Z" transform="translate(-318.02 -271.92)" fill="#231f20"/><path d="M409.22,488.22c-1.07-5.56-1.91-12.06,1.13-17.09a11.14,11.14,0,0,1,12-5.17c1.45.36,2.07-2.07.61-2.44a13.44,13.44,0,0,0-14.28,5.84c-3.75,5.62-2.9,13.17-1.68,19.53.31,1.59,2.54.92,2.24-.67Z" transform="translate(-318.02 -271.92)" fill="#231f20"/><path d="M541.71,443.56c1.79,7.65-1.47,15.85-7,20.66-2.91,2.51-6.49,3.51-9.66,5.49a10.66,10.66,0,0,0-5.34,10.07,9.28,9.28,0,0,0,8.65,8.67c1.49.05,1.49-2.47,0-2.53-3.76-.13-6.67-3.65-6.35-7.74s3.83-6.27,7-7.78,6.21-3.09,8.76-5.78a25.07,25.07,0,0,0,5.6-9.48,22.77,22.77,0,0,0,.58-12.25c-.37-1.58-2.6-.91-2.23.67Z" transform="translate(-318.02 -271.92)" fill="#231f20"/><path d="M542.16,458.91c7.58-3.78,16.9-.67,21.17,7.13a20.44,20.44,0,0,1,2.28,12.1,56,56,0,0,1-3.3,12.91A94.42,94.42,0,0,1,557,503c-.75,1.41,1.25,2.68,2,1.28,4.18-7.88,7.87-16.75,8.92-25.85,1.1-9.51-3.76-19-12.1-22.37a18,18,0,0,0-14.8.65c-1.35.68-.18,2.85,1.17,2.18Z" transform="translate(-318.02 -271.92)" fill="#231f20"/><path d="M563.5,547.69c7.55-5.26,11.44-15.6,9.47-25.12l-1.11,1.6a15.94,15.94,0,0,0,11.48-5.32,21.6,21.6,0,0,0,5-13c.59-8.84-3.58-18.59-11.83-21.21A12.84,12.84,0,0,0,564.08,487c-1.17,1,.48,2.79,1.64,1.78a10.48,10.48,0,0,1,9.39-2,13.27,13.27,0,0,1,8.14,6.35c3.91,6.59,4,16.37-.53,22.66a13.76,13.76,0,0,1-10.86,5.83,1.27,1.27,0,0,0-1.12,1.6c1.73,8.39-1.76,17.63-8.41,22.26-1.25.88-.09,3.06,1.17,2.19Z" transform="translate(-318.02 -271.92)" fill="#231f20"/><path d="M572.8,525.3a16.39,16.39,0,0,1,9.89,8.07,21.4,21.4,0,0,1,1.82,14.87c-.36,1.58,1.87,2.25,2.23.67a24.21,24.21,0,0,0-2-16.82,18.74,18.74,0,0,0-11.28-9.22c-1.44-.4-2.06,2-.61,2.43Z" transform="translate(-318.02 -271.92)" fill="#231f20"/><path d="M585.52,539.24a16.08,16.08,0,0,0,10,1.42,1.29,1.29,0,0,0,.81-1.55,1.18,1.18,0,0,0-1.43-.89,13.46,13.46,0,0,1-8.2-1.16,1.15,1.15,0,0,0-1.59.45,1.36,1.36,0,0,0,.42,1.73Z" transform="translate(-318.02 -271.92)" fill="#231f20"/><path d="M558.42,575.7c7.66.2,13-7.67,12.69-15.6l-1.47,1.22a23.87,23.87,0,0,0,25.86-6.55c1-1.16-.59-2.94-1.64-1.79a21.68,21.68,0,0,1-23.6,5.91,1.19,1.19,0,0,0-1.47,1.21c.27,6.58-3.94,13.25-10.37,13.07-1.5,0-1.49,2.49,0,2.53Z" transform="translate(-318.02 -271.92)" fill="#231f20"/><path d="M467.31,548.76a16.53,16.53,0,0,0,10.06,7.34,1.18,1.18,0,0,0,1.42-.88,1.3,1.3,0,0,0-.8-1.56,14.08,14.08,0,0,1-8.68-6.18,1.14,1.14,0,0,0-1.59-.45,1.35,1.35,0,0,0-.41,1.73Z" transform="translate(-318.02 -271.92)" fill="#231f20"/><path d="M472.23,552.92a12.31,12.31,0,0,0-3.41,12.15,1.17,1.17,0,1,0,2.23-.67,9.71,9.71,0,0,1,2.82-9.7,1.34,1.34,0,0,0,0-1.78,1.11,1.11,0,0,0-1.64,0Z" transform="translate(-318.02 -271.92)" fill="#231f20"/><path d="M452.88,537.87a12.84,12.84,0,0,0-.65,5.15,1.42,1.42,0,0,0,.34.89,1.14,1.14,0,0,0,.82.37,1.24,1.24,0,0,0,1.16-1.26,10.44,10.44,0,0,1,0-1.25c0-.18,0-.35,0-.53l0-.36c0-.09.08-.34,0,0,.09-.38.12-.76.21-1.14a10.11,10.11,0,0,1,.35-1.19,1.28,1.28,0,0,0-.81-1.55,1.19,1.19,0,0,0-1.43.88Z" transform="translate(-318.02 -271.92)" fill="#231f20"/><path d="M398.77,510.34c-6.75,6.76-3.08,18.14,1.78,24.81,4.63,6.37,11.81,11.12,19.4,11.16a20,20,0,0,0,13-5.21c1.18-1-.47-2.77-1.63-1.78a17.78,17.78,0,0,1-10.29,4.43,18.33,18.33,0,0,1-9.73-2.26,27.53,27.53,0,0,1-13.05-16c-1.39-4.55-1.32-10,2.13-13.42,1.1-1.1-.55-2.88-1.64-1.78Z" transform="translate(-318.02 -271.92)" fill="#231f20"/><path d="M398.66,511.3a28.45,28.45,0,0,1-6.94-19.23,28.13,28.13,0,0,1,7.45-18.49,19.38,19.38,0,0,0,3.22-3.71c.92-1.62,1-3.52,1.36-5.33a30.77,30.77,0,0,1,3.49-9.31A26.6,26.6,0,0,1,422.13,443a24.71,24.71,0,0,1,9.88-1c1.72.17,3.45.65,5.1-.12,1.43-.67,2.38-2,3.43-3.2a22.91,22.91,0,0,1,15.55-7.54,21.06,21.06,0,0,1,8.64,1.24c1.64.6,3.17,1.25,4.86.47a15,15,0,0,0,3.52-2.92,26.39,26.39,0,0,1,15.13-6.65,27.24,27.24,0,0,1,16.23,3.36A26.23,26.23,0,0,1,508,429c1.15.95,2.18,2.22,3.59,2.71s2.87-.21,4.3-.48a14,14,0,0,1,3.65-.25c.88.06,2.19.22,2.75,1.08a1.18,1.18,0,0,0,2-1.27c-1.52-2.34-4.47-2.51-6.87-2.3a36.41,36.41,0,0,0-4.16.82c-1.54.31-2.76-1.38-3.88-2.31a28.5,28.5,0,0,0-16.26-6.39,29.45,29.45,0,0,0-16.83,3.88,28.34,28.34,0,0,0-3.64,2.55c-1.18,1-2.22,2.28-3.48,3.13-1.55,1.05-3.22-.14-4.78-.63a23.92,23.92,0,0,0-4.48-.92,24.78,24.78,0,0,0-17.42,4.91,26.59,26.59,0,0,0-3.6,3.28c-1.13,1.26-2.08,2.86-3.85,2.91s-3.52-.43-5.29-.45a27.45,27.45,0,0,0-5.11.47,28,28,0,0,0-17,10.65,33,33,0,0,0-4.89,9.1,30.79,30.79,0,0,0-1.32,5c-.35,2-.53,3.73-1.86,5.23-1.14,1.29-2.41,2.41-3.49,3.77a30.53,30.53,0,0,0-2.88,4.34,31.29,31.29,0,0,0,.72,31,30.74,30.74,0,0,0,3.13,4.24c1,1.17,2.68-.62,1.64-1.79Z" transform="translate(-318.02 -271.92)" fill="#231f20"/><path d="M428.32,466.16a22,22,0,0,1,13.35,5.46,1.13,1.13,0,0,0,1.64,0,1.36,1.36,0,0,0,0-1.79,24.65,24.65,0,0,0-15-6.2c-1.49-.07-1.49,2.46,0,2.53Z" transform="translate(-318.02 -271.92)" fill="#231f20"/><path d="M433.43,458.27a13.49,13.49,0,0,0,.89,7.74,1.11,1.11,0,0,0,1.58.45,1.37,1.37,0,0,0,.42-1.73s-.19-.47-.11-.24c0-.12-.08-.23-.11-.34s-.17-.53-.24-.79-.13-.54-.18-.82l-.06-.35c0-.08,0-.16,0-.24,0,.12,0,.14,0,0a14.35,14.35,0,0,1-.07-1.61c0-.28,0-.55.05-.83s0,.25,0-.14c0-.16.05-.31.07-.47a1.29,1.29,0,0,0-.8-1.55,1.15,1.15,0,0,0-1.43.88Z" transform="translate(-318.02 -271.92)" fill="#231f20"/><path d="M582.26,519.94a10.8,10.8,0,0,1,9,3.21c1.09,1.11,2.73-.67,1.63-1.79a13,13,0,0,0-10.62-4,1.25,1.25,0,0,0-1.16,1.27c0,.62.53,1.33,1.16,1.26Z" transform="translate(-318.02 -271.92)" fill="#231f20"/><path d="M590.8,521.37A40.7,40.7,0,0,1,596,515.9a1.33,1.33,0,0,0,0-1.78,1.11,1.11,0,0,0-1.63,0,40.69,40.69,0,0,0-5.19,5.46,1.38,1.38,0,0,0,0,1.79,1.11,1.11,0,0,0,1.64,0Z" transform="translate(-318.02 -271.92)" fill="#231f20"/><path d="M474.92,428.91c5.16-2,10.68-.26,15.14,2.85,1.26.88,2.42-1.3,1.17-2.18-5-3.44-11.22-5.26-16.93-3.11-1.4.53-.79,3,.62,2.44Z" transform="translate(-318.02 -271.92)" fill="#231f20"/><path d="M527.84,478.63a22,22,0,0,0,1.66,10.95,1.12,1.12,0,0,0,1.58.45,1.37,1.37,0,0,0,.42-1.73,19.42,19.42,0,0,1-1.35-9.67,1.21,1.21,0,0,0-1.16-1.26,1.24,1.24,0,0,0-1.15,1.26Z" transform="translate(-318.02 -271.92)" fill="#231f20"/><path d="M524.16,433.1c6.78-4.61,16.35,1.23,17.46,9.5.21,1.6,2.44.92,2.23-.67-1.32-9.88-12.92-16.41-20.86-11-1.26.86-.1,3,1.17,2.19Z" transform="translate(-318.02 -271.92)" fill="#231f20"/><path d="M543,443.87a19.66,19.66,0,0,1,15.46,1.72,22.09,22.09,0,0,1,10,12.78,25,25,0,0,1,1,9.53,1.2,1.2,0,0,0,1.47,1.22c5.9-1,12,2.69,15.08,8.08,3.59,6.2,3.48,14.11,1,20.76a1.3,1.3,0,0,0,.53,1.42c5.22,2.73,8.08,9.54,6.47,15.62-.19.72.36,1.69,1.12,1.6,4.76-.55,5.19,6.95,5.39,10.47.23,4.09-.46,9.55-4.56,11.17a1.32,1.32,0,0,0-.27,2.3,7.7,7.7,0,0,1,2.77,7.39,7.17,7.17,0,0,1-5,5.56,1.3,1.3,0,0,0-.69,1.85c3.16,4.63-1.26,9.86-4.38,12.78-3.6,3.37-8.43,6.18-13.29,4.87-1.45-.39-2.07,2-.62,2.44,5.84,1.57,11.5-1.65,15.79-5.75a19.86,19.86,0,0,0,5.18-7.18,9.44,9.44,0,0,0-.68-8.43l-.7,1.85a9.6,9.6,0,0,0,6.67-7.61,10.38,10.38,0,0,0-3.89-9.95l-.27,2.31c5.3-2.08,6.6-8.5,6.23-14-.2-2.92-.42-6.15-1.73-8.78-1.16-2.3-3.46-4.1-5.95-3.82l1.12,1.6c1.87-7.09-1.42-15.26-7.54-18.47l.53,1.43a28.55,28.55,0,0,0,.55-18.61A20.2,20.2,0,0,0,579,467.77a15.29,15.29,0,0,0-8.67-1.08l1.47,1.21a27.25,27.25,0,0,0-4.8-17.74,22.57,22.57,0,0,0-14.75-9.38,21.58,21.58,0,0,0-9.84.65c-1.43.44-.83,2.88.61,2.44Z" transform="translate(-318.02 -271.92)" fill="#231f20"/><circle cx="681.2" cy="631.77" r="58.41" transform="translate(-565.22 394.8) rotate(-45)" fill="#fff"/><path d="M681.41,577.16c1.29-.08,2.59-.13,3.91-.13a58.32,58.32,0,0,1,48.26,25.5l-6.31,2.32A58.41,58.41,0,0,0,681.41,577.16Z" transform="translate(-318.02 -271.92)" fill="#12b9a6"/><path d="M739.61,631.77a58.4,58.4,0,0,1-58.4,58.4c-1.32,0-2.62,0-3.92-.13a58.41,58.41,0,0,0,54.51-58.27c0-.42,0-.85,0-1.27l7.68-2.81C739.56,629,739.61,630.4,739.61,631.77Z" transform="translate(-318.02 -271.92)" fill="#12b9a6"/><path d="M681.2,691.21a59.44,59.44,0,1,1,59.44-59.44A59.51,59.51,0,0,1,681.2,691.21Zm0-116.83a57.39,57.39,0,1,0,57.39,57.39A57.45,57.45,0,0,0,681.2,574.38Z" transform="translate(-318.02 -271.92)" fill="#30276a"/><circle cx="666.67" cy="631.77" r="58.41" transform="translate(-569.48 384.52) rotate(-45)" fill="#fff"/><circle cx="348.65" cy="359.85" r="39.8" fill="#fff"/><path d="M637.15,633.62a39.81,39.81,0,0,0,27.63,37.9,39.8,39.8,0,1,1,14.06-77.65c-.63,0-1.26,0-1.89,0A39.8,39.8,0,0,0,637.15,633.62Z" transform="translate(-318.02 -271.92)" fill="#12b9a6"/><path d="M666.67,672.59a40.83,40.83,0,1,1,40.82-40.82A40.87,40.87,0,0,1,666.67,672.59Zm0-79.59a38.77,38.77,0,1,0,38.76,38.77A38.81,38.81,0,0,0,666.67,593Z" transform="translate(-318.02 -271.92)" fill="#30276a"/><path d="M666.67,691.21a59.51,59.51,0,0,1-59.44-59.44,58.81,58.81,0,0,1,12.85-36.92,1,1,0,0,1,1.61,1.28,56.76,56.76,0,0,0-12.41,35.64,57.39,57.39,0,0,0,93.46,44.63,1,1,0,0,1,1.44.15A1,1,0,0,1,704,678,59.58,59.58,0,0,1,666.67,691.21Z" transform="translate(-318.02 -271.92)" fill="#30276a"/><path d="M712.41,669.13a1,1,0,0,1-.81-1.67,56.8,56.8,0,0,0,12.45-35.69,57.45,57.45,0,0,0-57.38-57.39,56.79,56.79,0,0,0-35.75,12.5,1,1,0,1,1-1.29-1.61,58.81,58.81,0,0,1,37-12.94,59.51,59.51,0,0,1,59.44,59.44,58.8,58.8,0,0,1-12.9,37A1,1,0,0,1,712.41,669.13Z" transform="translate(-318.02 -271.92)" fill="#30276a"/><path d="M658.17,616.25a9.66,9.66,0,0,1,7.4-2.93v-3.15h2.24v3.1a11.14,11.14,0,0,1,7.23,2.78,9,9,0,0,1,2.64,6.47h-4.14a7,7,0,0,0-1-3.1,5.42,5.42,0,0,0-4.76-2.5v11.5a27.83,27.83,0,0,1,7.46,2.89,7.48,7.48,0,0,1,3.19,6.57q0,6.3-4.09,9a15.23,15.23,0,0,1-6.56,1.94v4.59h-2.24v-4.59q-6.9-.45-9.35-4.87a13.19,13.19,0,0,1-1.35-6.47h4.19a11.6,11.6,0,0,0,1,4.74q1.47,2.67,5.45,3V632.28q-5.12-1-7.55-3.25a8.15,8.15,0,0,1-2.44-6.29A9.39,9.39,0,0,1,658.17,616.25Zm3.17,9.87a9,9,0,0,0,4.18,1.85V616.84q-3.1.12-4.42,1.9a6.17,6.17,0,0,0-1.31,3.71A4.57,4.57,0,0,0,661.34,626.12Zm12.06,16.21a6.49,6.49,0,0,0,.8-3.29,5.14,5.14,0,0,0-2.17-4.49,14,14,0,0,0-4.22-1.71v12.45Q671.86,645.11,673.4,642.33Z" transform="translate(-318.02 -271.92)" fill="#30276a"/><path d="M323.52,718.71V680.66c0-3,1.35-4.41,4.37-4.41H340c2.86,0,4.26,1.39,4.26,4.27q0,18.24,0,36.47v1.64h7.82V661.31c0-3.29,1.26-4.53,4.58-4.53h12c2.81,0,4.19,1.37,4.19,4.2v57.65h7.81V672.22c0-3.39,1.24-4.62,4.63-4.62h12c2.71,0,4.13,1.42,4.13,4.15q0,22.62,0,45.22v1.65h7.82V650.9c0-.48,0-1,0-1.44a3.51,3.51,0,0,1,3.65-3.51q6.72-.06,13.44,0a3.56,3.56,0,0,1,3.64,3.66c0,.4,0,.8,0,1.2v67.9c1.31,0,2.54,0,3.76,0,.88,0,1.72.1,1.75,1.16s-.86,1.25-1.78,1.25H320.37c-.36,0-.8.13-1.07,0-.49-.28-1.15-.67-1.26-1.13-.17-.77.45-1.22,1.25-1.23C320.65,718.7,322,718.71,323.52,718.71Z" transform="translate(-318.02 -271.92)" fill="#19b9a6"/><path d="M418.91,634.88l-4.12-.62-.71-.1c-.75-.13-1.33-.5-1.24-1.33s.74-1.16,1.58-1c2,.3,4,.55,6,.88,3.09.51,3.61-.13,2.89,3.94-.33,1.89-.56,3.8-.84,5.69-.12.84-.36,1.69-1.43,1.52s-1.1-1-.95-1.85c.28-1.64.48-3.3.75-5.2l-23.19,16a23.77,23.77,0,0,1-.06,5,6.72,6.72,0,0,1-7.48,5,6.8,6.8,0,0,1-6-6.86,1.59,1.59,0,0,0-1.27-1.85c-4.54-1.65-9-3.4-13.56-5.11-.47-.18-.84-.4-1.33.18-3,3.46-6.6,3.79-10.24,1-.1-.07-.21-.11-.36-.2l-17.08,11.66c.78,5.31-.5,8.19-4.17,9.48a6.92,6.92,0,0,1-6.87-11.71c2.73-2.39,6.15-2.31,9.6.31L356,648a22.11,22.11,0,0,1-.43-2.76,6.87,6.87,0,1,1,13.74-.2,1.6,1.6,0,0,0,1.29,1.84c4.79,1.75,9.56,3.6,14.31,5.4,4.35-4,6.81-4.35,11.13-1.31L419,635.16Zm-32.35,21a4.5,4.5,0,1,0,9,0,4.5,4.5,0,1,0-9,0ZM367,645a4.5,4.5,0,1,0-4.44,4.56A4.49,4.49,0,0,0,367,645ZM338.4,664.53a4.51,4.51,0,1,0-4.47,4.52A4.48,4.48,0,0,0,338.4,664.53Z" transform="translate(-318.02 -271.92)" fill="#30276a"/><path d="M376.74,636.3A16.38,16.38,0,1,1,393.12,620,16.36,16.36,0,0,1,376.74,636.3Zm14-16.35a14,14,0,1,0-14,13.95A14,14,0,0,0,390.72,620Z" transform="translate(-318.02 -271.92)" fill="#30276a"/><path d="M375.57,610.87c0-.33,0-.6,0-.88.05-.74.42-1.21,1.19-1.21a1.07,1.07,0,0,1,1.18,1.21c-.06.77.37,1,.92,1.26a10.24,10.24,0,0,1,2,1.62,1.11,1.11,0,0,1,0,1.78,1.16,1.16,0,0,1-1.78-.27,2.78,2.78,0,0,0-5.05,1.81,2.74,2.74,0,0,0,2.37,2.48,10.48,10.48,0,0,1,2.11.39,5.13,5.13,0,0,1,.43,9.51,1.44,1.44,0,0,0-1,1.34,1.7,1.7,0,0,1-1.2,1.11c-.3.06-1-.69-1.06-1.11-.05-.79-.42-1-1-1.35a8.81,8.81,0,0,1-2-1.64,1.09,1.09,0,0,1,.14-1.77c.62-.48,1.12-.2,1.7.24a5.48,5.48,0,0,0,2.33,1.2,2.52,2.52,0,0,0,2.72-2.3,2.69,2.69,0,0,0-2-3,5.77,5.77,0,0,0-.94-.16,5.18,5.18,0,0,1-1.5-10.07Z" transform="translate(-318.02 -271.92)" fill="#19b9a6"/></svg>