<svg id="Layer_1" data-name="Layer 1" xmlns="http://www.w3.org/2000/svg" viewBox="0 0 528.93 528.95"><rect x="110.91" y="500.23" width="52.36" height="27.68" fill="#0c1830"/><path d="M438.81,804.47H386.44a1,1,0,0,1-1-1V775.76a1,1,0,0,1,1-1h52.37a1,1,0,0,1,1,1v27.68A1,1,0,0,1,438.81,804.47Zm-51.34-2.06h50.31V776.79H387.47Z" transform="translate(-275.54 -275.52)" fill="#0c1830"/><rect x="110.91" y="472.57" width="32.69" height="27.68" fill="#0c1830"/><path d="M419.13,776.81H386.44a1,1,0,0,1-1-1V748.09a1,1,0,0,1,1-1h32.69a1,1,0,0,1,1,1v27.69A1,1,0,0,1,419.13,776.81Zm-31.66-2.06H418.1V749.12H387.47Z" transform="translate(-275.54 -275.52)" fill="#0c1830"/><rect x="110.91" y="444.9" width="43.56" height="27.68" fill="#0c1830"/><path d="M430,749.14H386.44a1,1,0,0,1-1-1V720.43a1,1,0,0,1,1-1H430a1,1,0,0,1,1,1v27.68A1,1,0,0,1,430,749.14Zm-42.53-2.06H429V721.46h-41.5Z" transform="translate(-275.54 -275.52)" fill="#0c1830"/><path d="M803.43,804.47H276.57a1,1,0,0,1,0-2.06H803.43a1,1,0,0,1,0,2.06Z" transform="translate(-275.54 -275.52)" fill="#0c1830"/><path d="M695.25,312.59H648.72V663.15H718V335.31A22.72,22.72,0,0,0,695.25,312.59Z" transform="translate(-275.54 -275.52)" fill="#11b9a6"/><path d="M718,664.18H648.72a1,1,0,0,1-1-1V312.59a1,1,0,0,1,1-1h46.53A23.77,23.77,0,0,1,719,335.31V663.15A1,1,0,0,1,718,664.18Zm-68.22-2.06H717V335.31a21.72,21.72,0,0,0-21.7-21.69h-45.5Z" transform="translate(-275.54 -275.52)" fill="#11b9a6"/><path d="M690.39,335.31V663.15H419.13V335.31a22.72,22.72,0,0,1,22.69-22.72H667.67A22.72,22.72,0,0,1,690.39,335.31Z" transform="translate(-275.54 -275.52)" fill="#fff"/><path d="M690.39,335.31V345.6a22.73,22.73,0,0,0-22.72-22.73H441.82a22.73,22.73,0,0,0-22.69,22.73V335.31a22.73,22.73,0,0,1,22.69-22.73H667.67A22.73,22.73,0,0,1,690.39,335.31Z" transform="translate(-275.54 -275.52)" fill="#11b9a6"/><rect x="271.75" y="427.7" width="17.24" height="62.93" fill="#11b9a6"/><rect x="271.75" y="427.71" width="3.98" height="62.93" fill="#fff"/><path d="M562.7,803.44H549.11a7.53,7.53,0,0,1-7.38-9l5.56-28.34h17.24l5.55,28.34A7.53,7.53,0,0,1,562.7,803.44Z" transform="translate(-275.54 -275.52)" fill="#11b9a6"/><path d="M564.73,803.15a6.89,6.89,0,0,1-2,.29H549.11a7.53,7.53,0,0,1-7.38-9l5.56-28.34h4.88l-5.51,28.05a7.53,7.53,0,0,0,7.38,9Z" transform="translate(-275.54 -275.52)" fill="#fff"/><rect x="509.99" y="690.68" width="17.24" height="92.29" transform="translate(385.92 -428.34) rotate(44.26)" fill="#11b9a6"/><rect x="467.9" y="730.12" width="92.29" height="4.51" transform="translate(-644.77 313.87) rotate(-45.74)" fill="#fff"/><path d="M465.24,801.31l-9.73-9.48a7.53,7.53,0,0,1,1-11.57l23.76-16.42,12.35,12L476.78,800A7.52,7.52,0,0,1,465.24,801.31Z" transform="translate(-275.54 -275.52)" fill="#11b9a6"/><path d="M492.59,775.87l-.26.4L482.81,767l-23.75,16.42a7.53,7.53,0,0,0-2.51,9.42l-1-1a7.52,7.52,0,0,1,1-11.57l23.75-16.42Z" transform="translate(-275.54 -275.52)" fill="#fff"/><rect x="584.58" y="690.68" width="17.24" height="92.29" transform="translate(1256.75 574.95) rotate(135.74)" fill="#11b9a6"/><rect x="586.42" y="695.2" width="4.28" height="92.28" transform="translate(-626 346.57) rotate(-44.32)" fill="#fff"/><path d="M646.57,801.31l9.73-9.48a7.53,7.53,0,0,0-1-11.57l-23.76-16.42-12.34,12L635,800A7.52,7.52,0,0,0,646.57,801.31Z" transform="translate(-275.54 -275.52)" fill="#11b9a6"/><path d="M657.37,790.53a7.19,7.19,0,0,1-1.06,1.3l-9.74,9.49A7.53,7.53,0,0,1,635,800l-15.8-24.17,3.18-3.1,15.69,24a7.53,7.53,0,0,0,11.55,1.27Z" transform="translate(-275.54 -275.52)" fill="#fff"/><path d="M690.39,664.18H419.13a1,1,0,0,1-1-1V335.31a23.76,23.76,0,0,1,23.72-23.75H667.67a23.78,23.78,0,0,1,23.75,23.75V663.15A1,1,0,0,1,690.39,664.18Zm-270.23-2.06h269.2V335.31a21.71,21.71,0,0,0-21.69-21.69H441.82a21.7,21.7,0,0,0-21.66,21.69Z" transform="translate(-275.54 -275.52)" fill="#30276a"/><path d="M564.53,767.18H547.29a1,1,0,0,1-1-1V703.23a1,1,0,0,1,1-1h17.24a1,1,0,0,1,1,1v62.92A1,1,0,0,1,564.53,767.18Zm-16.22-2.06H563.5V704.26H548.31Z" transform="translate(-275.54 -275.52)" fill="#0c1830"/><path d="M562.7,804.47H549.11a8.56,8.56,0,0,1-8.39-10.19l5.56-28.34a1,1,0,0,1,1-.83h17.24a1,1,0,0,1,1,.83l5.55,28.34a8.56,8.56,0,0,1-8.39,10.19Zm-14.57-37.31-5.39,27.52a6.54,6.54,0,0,0,1.38,5.38,6.42,6.42,0,0,0,5,2.35H562.7a6.49,6.49,0,0,0,6.37-7.74l-5.39-27.51Z" transform="translate(-275.54 -275.52)" fill="#0c1830"/><path d="M492.57,776.91a1,1,0,0,1-.71-.29l-12.35-12a1,1,0,0,1,0-1.46L543.9,697a1,1,0,0,1,1.46,0l12.34,12a1,1,0,0,1,.31.73,1,1,0,0,1-.29.73L493.31,776.6a1,1,0,0,1-.72.31Zm-10.89-13.08,10.88,10.6,63-64.62-10.87-10.6Z" transform="translate(-275.54 -275.52)" fill="#0c1830"/><path d="M470.47,804.47a8.54,8.54,0,0,1-6-2.42l-9.73-9.48a8.57,8.57,0,0,1,1.1-13.16L479.65,763a1,1,0,0,1,1.31.11l12.34,12a1,1,0,0,1,.15,1.3L477.64,800.6a8.53,8.53,0,0,1-6.24,3.82A7.25,7.25,0,0,1,470.47,804.47Zm9.66-39.3-23.06,15.94a6.48,6.48,0,0,0-.84,10l9.73,9.48h0a6.48,6.48,0,0,0,10-1.09L491.26,776Z" transform="translate(-275.54 -275.52)" fill="#0c1830"/><path d="M619.24,776.91h0a1,1,0,0,1-.72-.31l-64.41-66.09a1,1,0,0,1-.29-.73,1,1,0,0,1,.31-.73l12.34-12a1,1,0,0,1,1.46,0l64.41,66.09a1,1,0,0,1,0,1.46l-12.35,12A1,1,0,0,1,619.24,776.91Zm-63-67.1,63,64.62,10.87-10.6-63-64.62Z" transform="translate(-275.54 -275.52)" fill="#0c1830"/><path d="M641.34,804.47a7.25,7.25,0,0,1-.93-.05,8.56,8.56,0,0,1-6.24-3.81l-15.81-24.18a1,1,0,0,1,.15-1.3l12.34-12a1,1,0,0,1,1.31-.11l23.75,16.42A8.56,8.56,0,0,1,657,792.57l-9.73,9.48A8.53,8.53,0,0,1,641.34,804.47ZM620.55,776l15.34,23.46a6.48,6.48,0,0,0,10,1.09h0l9.73-9.48a6.49,6.49,0,0,0-.84-10l-23.06-15.93Z" transform="translate(-275.54 -275.52)" fill="#0c1830"/><path d="M732.63,657.39H648.72v32.76h83.91a6.56,6.56,0,0,0,6.58-6.59V664A6.59,6.59,0,0,0,732.63,657.39Z" transform="translate(-275.54 -275.52)" fill="#0c1830"/><path d="M732.63,691.18H648.72a1,1,0,0,1-1-1V657.39a1,1,0,0,1,1-1h83.91a7.64,7.64,0,0,1,7.61,7.65v19.55A7.62,7.62,0,0,1,732.63,691.18Zm-82.88-2.06h82.88a5.57,5.57,0,0,0,5.56-5.56V664a5.59,5.59,0,0,0-5.56-5.59H649.75Z" transform="translate(-275.54 -275.52)" fill="#0c1830"/><path d="M599.77,305.24l-12-8.27a6.41,6.41,0,0,1-2.73-5.24V286.9a10.35,10.35,0,0,0-10.34-10.35H561v55.59h35.15a6.33,6.33,0,0,0,6.34-6.35V310.48A6.39,6.39,0,0,0,599.77,305.24Z" transform="translate(-275.54 -275.52)" fill="#30276a"/><path d="M596.15,333.17H561a1,1,0,0,1-1-1V276.55a1,1,0,0,1,1-1h13.7a11.39,11.39,0,0,1,11.37,11.38v4.83a5.34,5.34,0,0,0,2.29,4.39l12,8.28h0a7.37,7.37,0,0,1,3.17,6.08v15.31A7.39,7.39,0,0,1,596.15,333.17ZM562,331.11h34.13a5.32,5.32,0,0,0,5.31-5.32V310.48a5.33,5.33,0,0,0-2.28-4.39l-12-8.28a7.39,7.39,0,0,1-3.16-6.08V286.9a9.33,9.33,0,0,0-9.32-9.32H562Z" transform="translate(-275.54 -275.52)" fill="#30276a"/><path d="M501.27,379.1a96.54,96.54,0,1,0,96.54,96.54A96.56,96.56,0,0,0,501.27,379.1ZM520.4,506.19a36,36,0,1,1,16.93-30.55A35.81,35.81,0,0,1,520.4,506.19Z" transform="translate(-275.54 -275.52)" fill="#11b9a6"/><path d="M501.27,573.22a97.58,97.58,0,1,1,51.78-14.88A97.9,97.9,0,0,1,501.27,573.22Zm0-193.09a95.51,95.51,0,1,0,95.51,95.51A95.63,95.63,0,0,0,501.27,380.13Zm0,132.61A37.13,37.13,0,1,1,521,507.07,37.17,37.17,0,0,1,501.27,512.74Zm0-72.1a35,35,0,1,0,18.59,64.68h0a35,35,0,0,0-18.59-64.68Z" transform="translate(-275.54 -275.52)" fill="#11b9a6"/><path d="M533.49,451.84a1,1,0,0,1-.76-.35,1,1,0,0,1,.08-1.45l52.07-46.75a1,1,0,0,1,.68-.26h64.66a1,1,0,0,1,0,2.05H586l-51.78,46.49A1,1,0,0,1,533.49,451.84Z" transform="translate(-275.54 -275.52)" fill="#0c1830"/><rect x="311.32" y="86.81" width="47.84" height="8.62" fill="#0c1830"/><rect x="311.32" y="105.77" width="32.33" height="8.62" fill="#0c1830"/><rect x="261.13" y="401.85" width="38.48" height="50" rx="6.04" fill="#0c1830"/><path d="M548.72,727.37h-5.84a6.22,6.22,0,0,1-6.21-6.23V683.59a6.22,6.22,0,0,1,6.21-6.22h5.84a6.23,6.23,0,0,0-6.23,6.22v37.55A6.23,6.23,0,0,0,548.72,727.37Z" transform="translate(-275.54 -275.52)" fill="#fff"/><path d="M568.93,728.4h-26a7.26,7.26,0,0,1-7.25-7.25V683.59a7.26,7.26,0,0,1,7.25-7.25h26a7.25,7.25,0,0,1,7.24,7.25v37.56A7.26,7.26,0,0,1,568.93,728.4Zm-26-50a5.19,5.19,0,0,0-5.19,5.19v37.56a5.19,5.19,0,0,0,5.19,5.19h26a5.2,5.2,0,0,0,5.19-5.19V683.59a5.2,5.2,0,0,0-5.19-5.19Z" transform="translate(-275.54 -275.52)" fill="#30276a"/><path d="M711.63,664v19.55a6.56,6.56,0,0,1-6.59,6.59H406.79a6.59,6.59,0,0,1-6.62-6.59V664a6.62,6.62,0,0,1,6.62-6.62H705A6.59,6.59,0,0,1,711.63,664Z" transform="translate(-275.54 -275.52)" fill="#0c1830"/><path d="M711.63,664v6.68a6.6,6.6,0,0,0-6.59-6.62H406.79a6.62,6.62,0,0,0-6.62,6.62V664a6.62,6.62,0,0,1,6.62-6.62H705A6.6,6.6,0,0,1,711.63,664Z" transform="translate(-275.54 -275.52)" fill="#fff"/><path d="M705,691.18H406.79a7.64,7.64,0,0,1-7.65-7.62V664a7.66,7.66,0,0,1,7.65-7.65H601.86a1,1,0,0,1,0,2.06H406.79A5.6,5.6,0,0,0,401.2,664v19.55a5.59,5.59,0,0,0,5.59,5.56H705a5.57,5.57,0,0,0,5.56-5.56V664a5.58,5.58,0,0,0-5.56-5.59H627.58a1,1,0,0,1,0-2.06H705a7.64,7.64,0,0,1,7.62,7.65v19.55A7.63,7.63,0,0,1,705,691.18Z" transform="translate(-275.54 -275.52)" fill="#30276a"/><path d="M440,475.64a36,36,0,0,1,36.07-36V379.1A96.52,96.52,0,0,0,383.16,502l58.2-16.52A36,36,0,0,1,440,475.64Z" transform="translate(-275.54 -275.52)" fill="#b9daad"/><path d="M572.57,475.64A96.56,96.56,0,0,0,476,379.1v60.51a36,36,0,0,1,19.11,66.58l32.11,51.28A96.46,96.46,0,0,0,572.57,475.64Z" transform="translate(-275.54 -275.52)" fill="#ffeac8"/><path d="M555.54,530.39A96.55,96.55,0,0,0,476,385.7v-6.6a96.54,96.54,0,0,1,79.51,151.29Z" transform="translate(-275.54 -275.52)" fill="#fff"/><path d="M476,511.71a36,36,0,0,1-34.67-26.21L383.16,502a96.52,96.52,0,0,0,144.09,55.45l-32.11-51.28A35.8,35.8,0,0,1,476,511.71Z" transform="translate(-275.54 -275.52)" fill="#3653a4"/><path d="M527.25,557.46A96.51,96.51,0,0,1,383.16,502l6.34-1.8a96.56,96.56,0,0,0,137.16,56.31Z" transform="translate(-275.54 -275.52)" fill="#fff"/><path d="M383.16,503.05a1,1,0,0,1-.5-.13,1,1,0,0,1-.49-.62,97.73,97.73,0,0,1,.68-55.7,1,1,0,0,1,2,.61,95.73,95.73,0,0,0-.95,53.54l56.23-16A37,37,0,0,1,475,438.6V380.13a96,96,0,0,0-81.33,47.11,1,1,0,1,1-1.77-1A98,98,0,0,1,476,378.07a1,1,0,0,1,1,1v60.51a1,1,0,0,1-1,1,34.93,34.93,0,0,0-33.68,44.58,1,1,0,0,1-.71,1.27L383.44,503A.9.9,0,0,1,383.16,503.05Z" transform="translate(-275.54 -275.52)" fill="#30276a"/><path d="M527.25,558.49a.93.93,0,0,1-.23,0,1.06,1.06,0,0,1-.64-.46l-32.11-51.27a1,1,0,0,1,.33-1.42A35,35,0,0,0,476,440.64a1,1,0,0,1-1-1V379.1a1,1,0,0,1,1-1A97.57,97.57,0,0,1,527.8,558.34,1.06,1.06,0,0,1,527.25,558.49Zm-30.69-52,31,49.53a95.51,95.51,0,0,0-50.52-175.91V438.6a37.05,37.05,0,0,1,19.5,67.91Z" transform="translate(-275.54 -275.52)" fill="#30276a"/><path d="M476,573.22a97.91,97.91,0,0,1-93.86-70.92,1,1,0,0,1,.71-1.27l58.2-16.52a1.06,1.06,0,0,1,.78.09,1.08,1.08,0,0,1,.49.62,35,35,0,0,0,52.25,20.1,1,1,0,0,1,1.42.33l32.11,51.27a1,1,0,0,1-.33,1.42A97.35,97.35,0,0,1,476,573.22Zm-91.6-70.49a95.5,95.5,0,0,0,141.4,54.41l-31-49.54a37,37,0,0,1-54.15-20.83Z" transform="translate(-275.54 -275.52)" fill="#30276a"/><path d="M659,597.88H460.75a1,1,0,1,1,0-2.06H659a1,1,0,0,1,0,2.06Z" transform="translate(-275.54 -275.52)" fill="#30276a"/><path d="M564.53,628.15H460.75a1,1,0,1,1,0-2.06H564.53a1,1,0,0,1,0,2.06Z" transform="translate(-275.54 -275.52)" fill="#30276a"/><path d="M590.31,310.48v15.31a6.33,6.33,0,0,1-6.35,6.35H525.55a6.32,6.32,0,0,1-6.34-6.35V310.48a6.39,6.39,0,0,1,2.72-5.24l12-8.27a6.4,6.4,0,0,0,2.72-5.24V286.9A10.33,10.33,0,0,1,547,276.55h15.51a10.36,10.36,0,0,1,10.35,10.35v4.83a6.4,6.4,0,0,0,2.72,5.24l12,8.27A6.4,6.4,0,0,1,590.31,310.48Z" transform="translate(-275.54 -275.52)" fill="#11b9a6"/><path d="M554.5,276.56a10.33,10.33,0,0,0-10.34,10.34v4.83a6.39,6.39,0,0,1-2.73,5.23l-12,8.29a6.38,6.38,0,0,0-2.72,5.23V325.8a6.33,6.33,0,0,0,6.35,6.34h-7.5a6.33,6.33,0,0,1-6.35-6.34V310.48a6.38,6.38,0,0,1,2.72-5.23l12-8.29a6.39,6.39,0,0,0,2.73-5.23V286.9A10.33,10.33,0,0,1,547,276.56Z" transform="translate(-275.54 -275.52)" fill="#fff"/><path d="M584,333.17H525.55a7.39,7.39,0,0,1-7.37-7.38V310.48a7.39,7.39,0,0,1,3.16-6.08l12-8.28a5.35,5.35,0,0,0,2.28-4.39V286.9A11.39,11.39,0,0,1,547,275.52h15.51a11.39,11.39,0,0,1,11.38,11.38v4.83a5.33,5.33,0,0,0,2.28,4.39l12,8.28a7.39,7.39,0,0,1,3.16,6.08v15.31A7.38,7.38,0,0,1,584,333.17Zm-37-55.59a9.33,9.33,0,0,0-9.32,9.32v4.83a7.39,7.39,0,0,1-3.16,6.08l-12,8.28a5.33,5.33,0,0,0-2.28,4.39v15.31a5.32,5.32,0,0,0,5.31,5.32H584a5.33,5.33,0,0,0,5.32-5.32V310.48a5.35,5.35,0,0,0-2.28-4.39l-12-8.28a7.37,7.37,0,0,1-3.17-6.08V286.9a9.33,9.33,0,0,0-9.32-9.32Z" transform="translate(-275.54 -275.52)" fill="#30276a"/><path d="M560,289.86H549.48a1,1,0,1,1,0-2.06H560a1,1,0,1,1,0,2.06Z" transform="translate(-275.54 -275.52)" fill="#30276a"/><path d="M389.44,388.48a5.58,5.58,0,0,1-3.31-1.09L369.39,375a6.39,6.39,0,0,0-3.79-1.24H297a11.24,11.24,0,0,1-11.22-11.23V315.73A11.23,11.23,0,0,1,297,304.51H383.8A11.23,11.23,0,0,1,395,315.73V382.9a5.6,5.6,0,0,1-5.58,5.58ZM297,306.57a9.17,9.17,0,0,0-9.17,9.16v46.83a9.18,9.18,0,0,0,9.17,9.17H365.6a8.46,8.46,0,0,1,5,1.64l16.74,12.36A3.52,3.52,0,0,0,393,382.9V315.73a9.17,9.17,0,0,0-9.16-9.16Z" transform="translate(-275.54 -275.52)" fill="#0c1830"/><path d="M311.79,359.32a10.18,10.18,0,0,1-10.17-10.17,1,1,0,1,1,2.05,0,8.12,8.12,0,1,0,8.12-8.12A10.18,10.18,0,1,1,322,330.85a1,1,0,0,1-2.06,0,8.12,8.12,0,1,0-8.12,8.12,10.18,10.18,0,1,1,0,20.35Z" transform="translate(-275.54 -275.52)" fill="#0c1830"/><path d="M311.79,363.13a1,1,0,0,1-1-1V317.89a1,1,0,0,1,2.06,0v44.22A1,1,0,0,1,311.79,363.13Z" transform="translate(-275.54 -275.52)" fill="#0c1830"/><path d="M378.16,323.48H333.93a1,1,0,1,1,0-2.06h44.23a1,1,0,1,1,0,2.06Z" transform="translate(-275.54 -275.52)" fill="#0c1830"/><path d="M378.16,335.18H333.93a1,1,0,1,1,0-2.06h44.23a1,1,0,1,1,0,2.06Z" transform="translate(-275.54 -275.52)" fill="#0c1830"/><path d="M378.16,346.88H333.93a1,1,0,0,1,0-2.06h44.23a1,1,0,0,1,0,2.06Z" transform="translate(-275.54 -275.52)" fill="#0c1830"/><path d="M358.16,358.58H333.93a1,1,0,0,1,0-2.06h24.23a1,1,0,0,1,0,2.06Z" transform="translate(-275.54 -275.52)" fill="#0c1830"/><rect x="402.67" y="156.48" width="114.06" height="102.12" fill="#0c1830"/><path d="M792.26,535.15H678.2a1,1,0,0,1-1-1V432a1,1,0,0,1,1-1H792.26a1,1,0,0,1,1,1V534.13A1,1,0,0,1,792.26,535.15Zm-113-2h112V433h-112Z" transform="translate(-275.54 -275.52)" fill="#0c1830"/><rect x="391.06" y="157.89" width="114.06" height="102.12" fill="#fff"/><path d="M780.65,535.16H666.59a1,1,0,0,1-1-1V466.85a1,1,0,1,1,2.06,0V533.1h112V433h-112v11.52a1,1,0,0,1-2.06,0V432a1,1,0,0,1,1-1H780.65a1,1,0,0,1,1,1V534.13A1,1,0,0,1,780.65,535.16Z" transform="translate(-275.54 -275.52)" fill="#0c1830"/><rect x="475.43" y="202.88" width="14.71" height="28.05" rx="3.11" fill="#0c1830"/><rect x="451.18" y="177.94" width="14.71" height="52.99" rx="3.11" fill="#0c1830"/><rect x="402.67" y="188.68" width="14.71" height="42.26" rx="3.11" fill="#0c1830"/><rect x="426.92" y="165.82" width="14.71" height="65.11" rx="3.11" fill="#0c1830"/><rect x="475.43" y="219.86" width="14.71" height="11.08" rx="3.11" fill="#11b9a6"/><rect x="451.18" y="194.92" width="14.71" height="36.02" rx="3.11" fill="#11b9a6"/><rect x="402.67" y="205.66" width="14.71" height="25.28" rx="3.11" fill="#11b9a6"/><rect x="426.92" y="182.8" width="14.71" height="48.14" rx="3.11" fill="#11b9a6"/><rect x="20.7" y="500.23" width="132.73" height="27.68" fill="#11b9a6"/><rect x="37.87" y="500.23" width="11.1" height="27.68" fill="#fff"/><rect x="59.39" y="500.23" width="21.02" height="27.68" fill="#fff"/><rect x="20.7" y="500.23" width="132.73" height="4.4" fill="#fff"/><path d="M429,804.47H296.24a1,1,0,0,1-1-1V775.76a1,1,0,0,1,1-1H429a1,1,0,0,1,1,1v27.68A1,1,0,0,1,429,804.47Zm-131.7-2.06H427.94V776.79H297.27Z" transform="translate(-275.54 -275.52)" fill="#30276a"/><rect x="1.03" y="472.57" width="132.73" height="27.68" fill="#11b9a6"/><rect x="1.03" y="472.57" width="132.73" height="4.4" fill="#fff"/><rect x="18.2" y="472.57" width="11.1" height="27.68" fill="#fff"/><rect x="39.72" y="472.57" width="21.02" height="27.68" fill="#fff"/><path d="M409.3,776.81H276.57a1,1,0,0,1-1-1V748.09a1,1,0,0,1,1-1H409.3a1,1,0,0,1,1,1v27.69A1,1,0,0,1,409.3,776.81Zm-131.7-2.06H408.27V749.12H277.6Z" transform="translate(-275.54 -275.52)" fill="#30276a"/><rect x="11.9" y="444.9" width="132.73" height="27.68" fill="#11b9a6"/><rect x="29.06" y="444.9" width="11.1" height="27.68" fill="#fff"/><rect x="50.59" y="444.9" width="21.02" height="27.68" fill="#fff"/><rect x="11.9" y="444.9" width="132.73" height="4.4" fill="#fff"/><path d="M420.16,749.14H287.43a1,1,0,0,1-1-1V720.43a1,1,0,0,1,1-1H420.16a1,1,0,0,1,1,1v27.68A1,1,0,0,1,420.16,749.14Zm-131.7-2.06H419.14V721.46H288.46Z" transform="translate(-275.54 -275.52)" fill="#30276a"/><path d="M522.91,415c-5,8.68-10.41,14.93-12.08,14s1.06-8.77,6.07-17.44,10.41-14.93,12.07-14S527.92,406.32,522.91,415Z" transform="translate(-275.54 -275.52)" fill="#fff"/></svg>