<svg width="2550" height="1578" viewBox="0 0 2550 1578" fill="none" xmlns="http://www.w3.org/2000/svg">
<path d="M1337.36 540.893C1495.55 580.951 1631.69 645.027 1723.93 716.222C1770.05 751.819 1805.17 789.182 1826.59 826.192C1848.01 863.199 1855.72 899.824 1847.07 933.986C1838.42 968.147 1814.21 996.69 1777.76 1019.04C1741.3 1041.4 1692.63 1057.54 1635.13 1066.89C1520.12 1085.61 1369.89 1077.16 1211.7 1037.11C1053.52 997.049 917.374 932.973 825.136 861.778C779.016 826.18 743.892 788.818 722.47 751.808C701.049 714.8 693.344 678.176 701.994 644.014C710.645 609.853 734.854 581.309 771.306 558.958C807.761 536.604 856.434 520.462 913.938 511.105C1028.94 492.392 1179.18 500.835 1337.36 540.893Z" stroke="white" stroke-opacity="0.11"/>
<path d="M1365.87 428.298C1595.73 486.505 1793.57 579.615 1927.61 683.079C1994.64 734.811 2045.69 789.118 2076.84 842.925C2107.98 896.728 2119.2 950.002 2106.61 999.71C2094.02 1049.42 2058.8 1090.93 2005.8 1123.43C1952.8 1155.93 1882.05 1179.39 1798.49 1192.98C1631.35 1220.18 1413.05 1207.91 1183.19 1149.7C953.335 1091.49 755.498 998.384 621.452 894.92C554.428 843.187 503.371 788.882 472.227 735.075C441.084 681.271 429.867 627.998 442.455 578.29C455.042 528.583 490.263 487.068 543.26 454.572C596.26 422.073 667.01 398.612 750.577 385.014C917.711 357.819 1136.02 370.091 1365.87 428.298Z" stroke="white" stroke-opacity="0.11"/>
<path d="M1400.57 291.291C1717.63 371.583 1990.54 500.021 2175.46 642.751C2267.92 714.117 2338.36 789.04 2381.33 863.284C2424.31 937.526 2439.8 1011.06 2422.42 1079.68C2405.04 1148.31 2356.42 1205.61 2283.29 1250.45C2210.16 1295.29 2112.55 1327.66 1997.27 1346.41C1766.7 1383.93 1465.56 1367 1148.5 1286.71C831.432 1206.42 558.526 1077.98 373.608 935.249C281.148 863.884 210.704 788.96 167.73 714.715C124.757 640.473 109.266 566.94 126.644 498.316C144.022 429.692 192.644 372.394 265.772 327.553C338.904 282.71 436.516 250.345 551.799 231.587C782.361 194.07 1083.5 211 1400.57 291.291Z" stroke="white" stroke-opacity="0.11"/>
</svg>
