<svg width="5260" height="4802" viewBox="0 0 5260 4802" fill="none" xmlns="http://www.w3.org/2000/svg">
<path fill-rule="evenodd" clip-rule="evenodd" d="M27.8528 980.649C9.47461 992.724 -0.863993 1013.83 0.953933 1035.74C1.78749 1045.65 5.13214 1055.32 10.621 1063.67L36.6121 1103.13C31.0021 1113.52 28.3623 1125.48 29.3531 1137.55C30.2979 1148.63 34.2272 1159.27 40.7743 1168.37L65.6271 1202.87C59.4715 1213.76 56.6125 1226.4 57.6725 1239.32L57.6677 1239.28C58.6906 1251.59 63.2521 1263.26 70.8856 1273.04L94.393 1303.1C87.8418 1314.47 84.765 1327.71 85.8785 1341.11L85.8406 1341.12C86.9795 1354.64 92.2063 1367.3 101.002 1377.74L122.792 1403.58C115.971 1415.3 112.843 1428.91 114.003 1442.87C115.23 1457.7 121.16 1471.35 131.151 1482.4L151.033 1504.38C144.081 1516.44 140.878 1530.42 142.057 1544.68C143.376 1560.53 150.176 1575.58 161.262 1587.07L179.014 1605.46C172.033 1617.79 168.819 1632.05 170.031 1646.46C171.432 1663.57 179.016 1679.63 191.369 1691.7L206.833 1706.77C199.944 1719.32 196.782 1733.77 197.971 1748.28C199.503 1766.73 207.865 1783.77 221.513 1796.32L234.463 1808.24C227.666 1820.94 224.658 1835.33 225.868 1850.07L225.864 1850.03C227.488 1869.81 236.639 1887.91 251.619 1900.95L261.953 1909.96C255.379 1922.77 252.487 1937.18 253.691 1951.87C255.446 1972.98 265.414 1992.05 281.726 2005.58L289.316 2011.87C283.03 2024.75 280.285 2039.12 281.474 2053.67C283.321 2075.82 294.372 2096.44 311.832 2110.21L316.586 2113.96C310.61 2126.85 308.024 2141.13 309.22 2155.48C311.164 2179 323.113 2200.63 341.934 2214.8L343.805 2216.21C338.17 2229.07 335.759 2243.2 336.934 2257.33L336.971 2257.33C338.971 2281.73 351.359 2304 370.955 2318.63C365.706 2331.38 363.491 2345.29 364.641 2359.15C366.674 2383.69 378.774 2405.97 398.066 2420.99C393.118 2433.61 391.12 2447.16 392.274 2460.97C394.341 2485.68 406.177 2508 425.198 2523.43C420.597 2535.93 418.776 2549.25 419.907 2562.79L419.864 2562.76C421.936 2587.67 433.58 2610.06 452.316 2625.85C448.017 2638.21 446.354 2651.33 447.463 2664.63L447.501 2664.62C449.524 2689.28 461.206 2712.12 479.521 2728.25C475.523 2740.49 473.995 2753.42 475.057 2766.45L475.02 2766.46C477.102 2791.26 488.584 2814.2 506.683 2830.69C502.942 2842.78 501.547 2855.49 502.614 2868.29C504.673 2893.29 515.977 2916.27 533.86 2933.07C530.362 2945.03 529.084 2957.56 530.132 2970.13L530.094 2970.13C532.185 2995.3 543.35 3018.41 561.043 3035.53C557.788 3047.33 556.624 3059.64 557.651 3071.96C559.747 3097.31 570.731 3120.52 588.21 3137.94C585.176 3149.6 584.11 3161.72 585.099 3173.85L585.094 3173.81C588.192 3210.97 609.757 3243.43 642.795 3260.69L3567.19 4788.84C3592.81 4802.23 3622.14 4804.9 3649.78 4796.27C3677.42 4787.68 3700.02 4768.87 3713.45 4743.28L5246.89 1825.92C5256.44 1807.72 5260.59 1787.33 5258.93 1766.93C5255.88 1729.81 5234.3 1697.31 5201.27 1680.05L2276.87 151.898C2262.12 144.189 2246.14 140.046 2229.95 139.56C2219.27 135.67 2208.12 133.56 2196.86 133.262C2186.06 129.299 2174.88 127.256 2163.77 127.01C2153.1 123.005 2141.91 120.87 2130.6 120.657C2119.99 116.625 2108.84 114.488 2097.56 114.314C2086.88 110.204 2075.73 108.138 2064.65 107.994C2053.99 103.778 2042.68 101.593 2031.23 101.537C2020.8 97.3798 2009.72 95.2292 1998.47 95.1825C1987.92 90.8736 1976.65 88.6795 1965.21 88.7128C1954.79 84.4069 1943.62 82.2273 1932.25 82.2963C1921.65 77.8336 1910.4 75.7068 1899.22 75.8161C1888.66 71.2775 1877.4 69.1304 1866.21 69.2846C1855.85 64.7213 1844.6 62.4589 1833.08 62.6955C1822.63 58.0345 1811.39 55.8629 1800.22 56.1205C1789.97 51.3849 1778.69 49.0554 1767.08 49.4057C1757.4 44.8687 1746.75 42.5433 1735.75 42.6782C1735.16 42.6853 1734.58 42.6993 1734 42.72C1723.68 37.7961 1712.36 35.546 1701.12 35.9899C1690.81 30.9408 1679.44 28.6409 1668.14 29.1498C1657.89 23.9985 1646.49 21.6583 1635.17 22.2351C1624.99 17.0016 1613.6 14.6249 1602.27 15.2633C1592.16 9.9338 1580.76 7.50599 1569.41 8.19851C1550.54 -2.0349 1526.76 -1.85604 1507.59 10.7044L27.8528 980.649ZM1553.67 11.2406C1540.04 7.67539 1525.01 9.65846 1512.32 17.9601L32.662 987.895C16.9105 998.212 8.07321 1016.28 9.64355 1035.03C10.3322 1043.49 13.1909 1051.75 17.9099 1058.9L41.7657 1095.11C45.4353 1090.27 49.8387 1085.94 54.887 1082.32L1537.19 19.6576C1542.36 15.9497 1547.92 13.1544 1553.67 11.2406ZM46.8284 1102.8C50.3011 1097.67 54.7184 1093.11 59.9754 1089.33L1542.19 26.6475C1549.88 21.149 1558.55 17.9873 1567.35 17.0244C1570.16 18.7279 1572.83 20.7133 1575.3 22.9711C1572.36 24.5836 1569.51 26.4497 1566.78 28.5731L94.0852 1174.54L46.8284 1102.8ZM42.0943 1111.45C38.7317 1119.27 37.2765 1127.93 38.0049 1136.83C38.7903 1146.36 42.1862 1155.52 47.802 1163.36L70.7378 1195.19C73.9508 1191.06 77.7063 1187.28 81.9599 1183.98L87.1918 1179.91L42.0943 1111.45ZM91.9571 1187.14L87.2895 1190.77C82.9114 1194.18 79.1403 1198.16 76.044 1202.56L125.781 1271.59L139.823 1259.8L91.9571 1187.14ZM144.594 1267.05L130.832 1278.6L180.403 1347.4L191.152 1337.72L144.594 1267.05ZM197.691 1331.84L151.306 1261.42L1594.97 49.9813L1605.03 65.2665L197.691 1331.84ZM195.964 1345.03L185.489 1354.46L233.604 1421.24L241.297 1413.85L195.964 1345.03ZM247.674 1407.72L202.503 1339.14L1609.86 72.5891L1620.62 88.9332L247.674 1407.72ZM246.141 1421.2L238.716 1428.33L285.517 1493.29L290.367 1488.34L246.141 1421.2ZM296.588 1481.98L252.517 1415.07L1625.47 96.2857L1636.89 113.632L296.588 1481.98ZM295.233 1495.72L290.646 1500.41L336.224 1563.66L338.423 1561.29L295.233 1495.72ZM344.497 1554.72L301.454 1489.37L1641.76 121.019L1653.76 139.246L344.497 1554.72ZM343.324 1568.73L341.383 1570.82L380.149 1624.63L343.324 1568.73ZM391.487 1626.06L349.398 1562.16L1658.68 146.706L1671.22 165.752L391.487 1626.06ZM437.602 1696.07L396.411 1633.54L1676.13 173.207L1689.21 193.065L437.602 1696.07ZM482.895 1764.83L442.56 1703.6L1694.2 200.631L1707.68 221.104L482.895 1764.83ZM501.294 1792.77L487.918 1772.46L1712.72 228.75L1726.65 249.894L528.73 1830.85L501.294 1792.77ZM639.732 2002.94L629.128 1986.85L646.11 2008.56L655.732 2021.91L639.732 2002.94ZM633.08 2008.59L651.95 2037.23L648.904 2041.79L605.15 1993.42L611.992 1983.58L633.08 2008.59ZM571.006 1914.36L592.373 1946.79L568.237 1918.18L571.006 1914.36ZM563.359 1902.75L565.907 1906.62L562.477 1911.35L518.299 1858.97L523.624 1851.94L563.359 1902.75ZM493.819 1797.18L504.657 1813.64L480.131 1782.28L481.675 1780.33L493.819 1797.18ZM657.112 2045.07L671.166 2066.4L654.884 2048.4L657.112 2045.07ZM699.189 2093.21L680.416 2064.71L701.467 2089.67L699.189 2093.21ZM709.294 2108.55L704.401 2101.12L707.312 2096.6L722.597 2114.72L746.141 2147.4L745.448 2148.52L709.294 2108.55ZM702.556 2114.05L698.775 2109.87L690.511 2122.73L733.708 2167.46L735.662 2164.31L702.556 2114.05ZM740.914 2172.28L739.917 2173.89L746.392 2180.6L740.914 2172.28ZM778.978 2214.35L745.935 2164.18L746.735 2162.89L787.753 2208.23L782.138 2217.62L778.978 2214.35ZM772.278 2219.89L776.732 2226.66L767.932 2241.37L724.392 2198.94L735.204 2181.5L772.278 2219.89ZM782.044 2234.72L817.347 2288.31L816.901 2289.08L774.335 2247.61L782.044 2234.72ZM822.184 2279.94L804.858 2253.64L825.207 2274.71L822.184 2279.94ZM848.455 2319.83L827.52 2288.04L831.474 2281.2L872.055 2323.23L864.963 2335.91L848.455 2319.83ZM841.81 2325.45L857.496 2349.26L849.928 2362.79L807.093 2323.37L818.836 2303.06L841.81 2325.45ZM862.86 2357.4L891.761 2401.28L856.477 2368.81L862.86 2357.4ZM901.882 2400.94L870.694 2353.59L907.898 2389.84L901.882 2400.94ZM918.012 2425.43L907.281 2409.14L914.338 2396.11L951.235 2432.06L954.011 2435.92L945.993 2451.17L918.012 2425.43ZM911.387 2431.07L900.715 2421.25L888.201 2444.34L930.297 2481.03L936.512 2469.21L911.387 2431.07ZM941.1 2460.48L937.633 2455.22L941.835 2459.08L941.1 2460.48ZM941.969 2477.49L937.024 2486.9L963.189 2509.7L941.969 2477.49ZM987.456 2530.86L946.557 2468.76L948.447 2465.17L1027.47 2537.87L1041.06 2556.74C1031.84 2558.24 1022.41 2557.2 1013.81 2553.83L987.456 2530.86ZM980.965 2536.69L982.514 2539.04C989.25 2549.29 998.613 2556.79 1009.14 2561.25L1103.68 2643.66L1105.57 2646.28C1111.91 2655.08 1120.16 2661.71 1129.35 2666.03L1226.56 2750.77L1228.71 2753.51C1234.51 2760.94 1241.66 2766.72 1249.54 2770.8L1349.28 2857.74L1351.75 2860.67C1356.94 2866.82 1363.02 2871.77 1369.66 2875.5L1472.34 2965L1474.92 2967.85C1479.34 2972.75 1484.33 2976.84 1489.7 2980.13L1594.61 3071.57L1597.93 3075.02C1601.62 3078.83 1605.65 3082.14 1609.92 3084.92L1717.81 3178.97L1721.09 3182.16C1723.81 3184.8 1726.68 3187.19 1729.68 3189.31L1827.79 3274.83L918.655 2521.84L932.883 2494.78L980.965 2536.69ZM1027.57 2565.83C1033.89 2566.37 1040.32 2565.93 1046.61 2564.44L1081.43 2612.77L1027.57 2565.83ZM1062.38 2558.25L1110.97 2602.96L1071.46 2552.45L1065.72 2556.21C1064.62 2556.93 1063.51 2557.61 1062.38 2558.25ZM1080.87 2546.28L1112.98 2577.57L1084.55 2543.87L1080.87 2546.28ZM1078.77 2537.32L1074.53 2540.1L1067.32 2533.08L1035.98 2493.01L1078.77 2537.32ZM1096.18 2536.24L1190.94 2641L1196.29 2646.54L2669.06 1590.69C2684.38 1579.69 2692.57 1561.98 2691.03 1543.19L2691 1543.19C2690.21 1533.66 2686.82 1524.5 2681.2 1516.7L1967.62 526.242L1946.09 567.192L2562.7 1503.28C2568.19 1511.64 2571.53 1521.3 2572.36 1531.17C2574.18 1553.08 2563.88 1574.22 2545.42 1586.27L1096.18 2536.24ZM1941.46 576.01L2555.36 1508.03C2560.08 1515.17 2562.98 1523.43 2563.67 1531.89L2563.71 1531.92C2565.24 1550.67 2556.41 1568.74 2540.66 1579.1L1090.31 2529.76L997.784 2427.47L979.597 2405.91L1941.46 576.01ZM1940.62 558.895L1961.93 518.356L1944.87 494.665L1923.85 533.434L1940.62 558.895ZM1919.14 542.131L1935.99 567.712L973.553 2398.74L936.637 2354.97L1919.14 542.131ZM1918.46 525.238L1939.25 486.87L1922.39 463.471L1901.9 500.103L1918.46 525.238ZM1897.1 508.674L1913.74 533.935L930.646 2347.87L893.099 2303.35L1897.1 508.674ZM1896.53 491.959L1916.81 455.72L1900.18 432.645L1880.21 467.183L1896.53 491.959ZM1875.33 475.625L1891.74 500.531L887.135 2296.28L848.94 2250.99L1875.33 475.625ZM1874.86 459.059L1894.61 424.906L1878.21 402.151L1858.78 434.641L1874.86 459.059ZM1853.81 442.948L1869.98 467.501L842.996 2243.94L818.193 2214.54L804.551 2197.09L1853.81 442.948ZM1853.49 426.609L1872.7 394.496L1856.55 372.088L1837.66 402.577L1853.49 426.609ZM1832.6 410.744L1848.52 434.916L798.809 2189.75L760.47 2140.73L1832.6 410.744ZM1832.4 394.6L1851.07 364.478L1835.23 342.497L1816.88 371.037L1832.4 394.6ZM1811.72 379.057L1827.34 402.766L754.782 2133.46L715.724 2083.52L1811.72 379.057ZM1811.65 363.089L1829.77 334.908L1814.2 313.308L1796.4 339.949L1811.65 363.089ZM1791.15 347.816L1806.49 371.109L710.072 2076.29L670.263 2025.39L1791.15 347.816ZM1791.23 332.093L1808.8 305.801L1793.53 284.613L1776.29 309.408L1791.23 332.093ZM1770.93 317.117L1785.97 339.961L664.656 2018.22L652.917 2003.21L625.148 1964.67L1770.93 317.117ZM1771.17 301.644L1788.18 277.187L1773.27 256.488L1756.58 279.495L1771.17 301.644ZM1751.11 287.038L1765.81 309.352L619.786 1957.22L579.982 1901.98L1751.11 287.038ZM1751.5 271.773L1767.94 249.096L1753.4 228.907L1737.28 250.184L1751.5 271.773ZM1731.69 257.554L1746.03 279.316L574.643 1894.57L534.031 1838.2L1731.69 257.554ZM1732.23 242.524L1748.11 221.568L1733.98 201.955L1718.42 221.562L1732.23 242.524ZM1713.39 213.916L1728.69 194.621L1715.02 175.634L1700.03 193.634L1713.39 213.916ZM1695.04 186.067L1709.78 168.368L1696.51 149.952L1682.09 166.408L1695.04 186.067ZM1677.18 158.953L1691.35 142.786L1678.63 125.133L1664.77 140.116L1677.18 158.953ZM1659.86 132.657L1673.46 117.954L1661.3 101.072L1648 114.649L1659.86 132.657ZM1643.13 107.261L1656.17 93.9527L1644.6 77.9029L1631.86 90.1462L1643.13 107.261ZM1627.02 82.7938L1639.49 70.8082L1628.61 55.709L1616.41 66.6929L1627.02 82.7938ZM1611.59 59.3703L1623.52 48.6331L1616.4 38.7589C1615.76 37.8633 1615.09 36.9939 1614.4 36.1507C1610.03 38.2016 1605.85 40.8458 1601.98 44.093L1601.69 44.3419L1611.59 59.3703ZM1596.89 37.0573C1600.42 34.1552 1604.16 31.6834 1608.06 29.636C1605.63 27.5317 1603.03 25.676 1600.31 24.0749C1596.74 24.4343 1593.18 25.1439 1589.7 26.2107C1590.09 26.7553 1590.47 27.3082 1590.84 27.8694L1596.89 37.0573ZM1581.34 29.5496C1578.14 31.1487 1575.04 33.0861 1572.11 35.368L98.8503 1181.78L146.534 1254.17L1590.17 42.6941L1583.55 32.6455C1582.85 31.5786 1582.11 30.5465 1581.34 29.5496ZM1583.79 19.0984C1584.57 18.8132 1585.34 18.5438 1586.12 18.2899C1584.81 17.9633 1583.48 17.6866 1582.14 17.4605C1582.7 17.9942 1583.25 18.5402 1583.79 19.0984ZM1066.12 2545.61L1060.96 2549C1059.22 2550.13 1057.45 2551.15 1055.63 2552.05L1034.05 2532.19L987.057 2466.97L1060.82 2538.84L1066.12 2545.61ZM66.2863 1238.61C65.4747 1228.86 67.2684 1219.28 71.2928 1210.73L119.149 1277.15L109.033 1285.64C105.471 1288.63 102.274 1291.95 99.4709 1295.55L77.7233 1267.74C71.1064 1259.3 67.1734 1249.25 66.2863 1238.61ZM114.604 1292.21L124.199 1284.16L173.946 1353.21L156.702 1368.73L104.987 1302.6C107.718 1298.79 110.938 1295.29 114.604 1292.21ZM162.043 1375.56L179.031 1360.27L227.312 1427.28L213.141 1440.89L162.043 1375.56ZM218.502 1447.75L232.424 1434.37L279.382 1499.55L268.058 1511.11L218.502 1447.75ZM273.431 1517.98L284.511 1506.67L330.237 1570.14L321.558 1579.52L273.431 1517.98ZM326.957 1586.42L335.396 1577.3L379.985 1639.19L373.769 1646.28L326.957 1586.42ZM379.181 1653.2L385.162 1646.37L428.685 1706.78L424.766 1711.48L379.181 1653.2ZM430.203 1718.44L433.892 1714.01L476.405 1773.01L474.633 1775.25L430.203 1718.44ZM799.135 2206.15L805.234 2214.61L820.158 2231.11L812.451 2221.25L799.373 2205.75L799.135 2206.15ZM830.844 2264.96L798.648 2220.28L793.853 2214.98L788.396 2224.1L829.724 2266.9L830.844 2264.96ZM752.818 2156.67L751.622 2155.01L751.497 2155.21L752.818 2156.67ZM839.635 2277.17L836.402 2272.68L835.99 2273.39L839.635 2277.17ZM851.067 2278.22L877.056 2314.29L879.594 2309.76L851.067 2278.22ZM871.383 2342.17L877.976 2330.38L913.443 2379.61L912.187 2381.92L871.383 2342.17ZM917.14 2369.93L918.025 2371.15L918.133 2370.96L917.14 2369.93ZM918.627 2388.2L919.059 2387.4L921.998 2391.48L918.627 2388.2ZM923.64 2378.95L957.819 2426.39L958.614 2427.16L963.474 2417.91L924.435 2377.48L923.64 2378.95ZM1002.38 2503.05L959.684 2443.79L952.606 2457.26L1002.38 2503.05ZM1059.14 2567.02L1110.14 2637.8L1134.12 2658.7C1141.66 2662.04 1149.89 2663.6 1158.12 2663.25L1143.71 2644.83L1059.14 2567.02ZM1164.45 2671.34C1159.26 2672.06 1154.02 2672.12 1148.86 2671.54L1198.33 2714.67L1164.45 2671.34ZM1215.56 2699.19L1180.41 2666.85C1182.29 2666.04 1184.15 2665.12 1185.97 2664.1L1215.56 2699.19ZM1307.2 2761.41L1202.36 2652.83L2674.11 1597.71C2691.62 1585.13 2701.41 1563.97 2699.65 1542.48C2698.74 1531.39 2694.81 1520.75 2688.27 1511.65L1972.12 517.665L1990.97 481.813L2807.04 1525.31C2813.65 1533.75 2817.59 1543.84 2818.47 1554.43L2818.47 1554.4C2820.01 1572.96 2812.19 1590.82 2797.5 1602.23L1312.68 2757.64C1310.91 2759.02 1309.08 2760.27 1307.2 2761.41ZM1985.09 474.298L1966.44 509.779L1949.45 486.2L1967.85 452.253L1985.09 474.298ZM1962.04 444.821L1943.84 478.405L1927.06 455.121L1945.01 423.043L1962.04 444.821ZM1939.22 415.648L1921.48 447.371L1904.94 424.415L1922.43 394.168L1939.22 415.648ZM1916.65 386.78L1899.36 416.677L1883.06 394.047L1900.08 365.594L1916.65 386.78ZM1894.36 358.281L1877.54 386.392L1861.49 364.115L1878.04 337.414L1894.36 358.281ZM1872.35 330.138L1856.01 356.505L1840.27 334.66L1856.34 309.668L1872.35 330.138ZM1850.66 302.407L1834.81 327.071L1819.35 305.613L1834.93 282.288L1850.66 302.407ZM1829.31 275.1L1813.94 298.107L1798.78 277.067L1813.87 255.362L1829.31 275.1ZM1808.31 248.246L1793.43 269.641L1778.63 249.097L1793.23 228.964L1808.31 248.246ZM1787.68 221.874L1773.3 241.706L1758.87 221.68L1772.98 203.068L1787.68 221.874ZM1767.47 196.022L1753.59 214.341L1739.58 194.898L1753.18 177.754L1767.47 196.022ZM1747.67 170.707L1734.29 187.564L1720.74 168.756L1733.84 153.027L1747.67 170.707ZM1728.38 146.038L1715.51 161.49L1702.37 143.262L1714.97 128.893L1728.38 146.038ZM1709.57 121.993L1697.21 136.096L1684.64 118.642L1696.73 105.57L1709.57 121.993ZM1691.32 98.6495L1679.46 111.462L1667.45 94.7885L1679.04 82.9554L1691.32 98.6495ZM1673.67 76.0852L1662.32 87.6695L1650.92 71.8394L1661.62 61.5584C1661.75 61.4326 1661.88 61.3075 1662.01 61.1832L1673.67 76.0852ZM1655.63 55.3096L1645.81 64.7448L1635.19 50.0104C1639.04 47.029 1643.17 44.5942 1647.47 42.7011C1648.08 43.4058 1648.68 44.1295 1649.26 44.8723L1656.66 54.3375C1656.31 54.6573 1655.97 54.9814 1655.63 55.3096ZM1640.84 36.2542C1637.11 38.1249 1633.52 40.3638 1630.12 42.9737L1623.47 33.7415C1623.28 33.4819 1623.09 33.2242 1622.9 32.9684C1626.3 32.0003 1629.76 31.3558 1633.24 31.0308C1635.89 32.5411 1638.44 34.2835 1640.84 36.2542ZM1618.52 25.2609C1617.92 25.4518 1617.33 25.6515 1616.73 25.8601C1616.31 25.4444 1615.89 25.0357 1615.45 24.634C1616.48 24.8141 1617.5 25.0232 1618.52 25.2609ZM1173.34 2660.34C1175.69 2659.52 1178.01 2658.52 1180.27 2657.35L1170.19 2645.4L1107.05 2583.88L1150.2 2639.06L1173.34 2660.34ZM100.221 1310.55C95.7123 1319.68 93.6666 1329.97 94.5255 1340.36C95.5141 1352.1 100.065 1363.07 107.683 1372.12L127.879 1396.06C130.325 1392.93 133.07 1389.99 136.101 1387.27L150.257 1374.53L100.221 1310.55ZM155.598 1381.36L141.885 1393.7C138.773 1396.5 136.007 1399.57 133.607 1402.86L186.926 1466.07L206.87 1446.92L155.598 1381.36ZM212.231 1453.77L192.519 1472.7L244.874 1534.78L261.951 1517.35L212.231 1453.77ZM267.323 1524.22L250.474 1541.42L301.185 1601.54L315.606 1585.95L267.323 1524.22ZM321.004 1592.86L306.804 1608.21L356.008 1666.55L367.964 1652.9L321.004 1592.86ZM373.375 1659.82L361.636 1673.22L409.436 1729.89L419.1 1718.29L373.375 1659.82ZM424.537 1725.24L415.085 1736.59L461.573 1791.71L469.1 1782.22L424.537 1725.24ZM474.597 1789.25L467.279 1798.47L512.57 1852.17L518.099 1844.88L474.597 1789.25ZM984.553 2427.25L976.078 2416.41L990.543 2432.4L997.544 2440.7L984.553 2427.25ZM894.891 2326.67L922.797 2362.35L922.469 2362.95L882.761 2321.83L885.723 2316.53L894.891 2326.67ZM978.093 2433.06L1021.09 2488.04L965.102 2433.48L969.826 2424.49L978.093 2433.06ZM1232.91 2744.8L1182.95 2680.93L1259.78 2751.62L1274.49 2769.06C1267.53 2768.5 1260.68 2766.63 1254.35 2763.5L1232.91 2744.8ZM1270.21 2777.32C1274.08 2777.85 1277.99 2778.03 1281.9 2777.85L1312.69 2814.35L1270.21 2777.32ZM1297.98 2775.02L1312.9 2788.75L1299.9 2774.38C1299.55 2774.51 1299.2 2774.63 1298.84 2774.74C1298.55 2774.84 1298.27 2774.93 1297.98 2775.02ZM1313.38 2767.8L1395.44 2852.79L1416.55 2873.35C1424.41 2871.28 1431.94 2867.49 1438.57 2861.94L2925.95 1613.81C2940.04 1601.97 2947.54 1584 2946.02 1565.67L2946.03 1565.71C2945.08 1553.97 2940.53 1542.99 2932.87 1533.91L2011.91 441.974L1995.38 473.417L2813.87 1520.01C2821.51 1529.79 2826.11 1541.45 2827.13 1553.76C2828.88 1575.18 2819.81 1595.9 2802.84 1609.1L1318.02 2764.51C1316.51 2765.69 1314.96 2766.78 1313.38 2767.8ZM1989.5 465.901L2005.85 434.796L1988.48 414.194L1972.35 443.96L1989.5 465.901ZM1966.53 436.528L1982.49 407.09L1965.32 386.735L1949.59 414.858L1966.53 436.528ZM1943.8 407.464L1959.36 379.664L1942.42 359.584L1927.09 386.096L1943.8 407.464ZM1921.31 378.708L1936.46 352.515L1919.75 332.707L1904.84 357.639L1921.31 378.708ZM1899.12 350.326L1913.85 325.706L1897.39 306.194L1882.9 329.581L1899.12 350.326ZM1877.21 322.306L1891.51 299.223L1875.37 280.083L1861.3 301.964L1877.21 322.306ZM1855.62 294.702L1869.5 273.121L1853.63 254.306L1839.99 274.717L1855.62 294.702ZM1834.37 267.529L1847.81 247.41L1832.24 228.95L1819.04 247.931L1834.37 267.529ZM1813.48 240.815L1826.48 222.118L1811.27 204.085L1798.51 221.679L1813.48 240.815ZM1792.97 214.59L1805.52 197.273L1790.69 179.687L1778.38 195.937L1792.97 214.59ZM1772.87 188.892L1784.98 172.912L1770.57 155.833L1758.71 170.785L1772.87 188.892ZM1753.2 163.738L1764.85 149.049L1750.91 132.526L1739.5 146.228L1753.2 163.738ZM1734.04 139.238L1745.24 125.792L1731.72 109.771L1720.77 122.272L1734.04 139.238ZM1715.37 115.373L1726.11 103.118L1713.18 87.7845L1702.68 99.1383L1715.37 115.373ZM1697.26 92.2174L1707.54 81.1036L1695.34 66.6299C1694.01 67.7753 1692.73 68.9811 1691.49 70.2458L1685.15 76.7225L1697.26 92.2174ZM1679.77 69.8523L1685.3 64.2153C1686.73 62.7468 1688.22 61.3482 1689.76 60.0208L1682.11 50.9474C1681.6 50.3475 1681.09 49.7606 1680.56 49.1869C1676.44 50.8881 1672.46 53.0607 1668.71 55.7065L1679.77 69.8523ZM1663.37 48.8774C1666.65 46.5291 1670.1 44.5014 1673.65 42.7934C1671.31 40.9615 1668.84 39.336 1666.29 37.919C1662.88 38.2052 1659.49 38.7858 1656.16 39.6629L1663.37 48.8774ZM1649.73 32.5615C1650.16 32.418 1650.59 32.2789 1651.02 32.1443C1650.28 31.9807 1649.54 31.8317 1648.8 31.6974C1649.11 31.9819 1649.42 32.2699 1649.73 32.5615ZM1293.48 2767.28C1292.46 2767.57 1291.42 2767.82 1290.39 2768.04L1266.45 2746.01L1234.16 2707.72L1280.08 2752.47L1293.48 2767.28ZM122.655 1442.16C121.735 1431.07 123.909 1420.25 128.79 1410.69L180.616 1472.13L163.169 1488.89C160.557 1491.4 158.167 1494.09 156.008 1496.91L137.613 1476.58C128.88 1466.94 123.712 1455.04 122.655 1442.16ZM169.161 1495.14L186.21 1478.77L238.738 1541.04L216.483 1563.77L161.929 1503.46C164.064 1500.5 166.479 1497.72 169.161 1495.14ZM222.293 1570.19L244.337 1547.68L295.212 1608L275.64 1629.16L222.293 1570.19ZM281.465 1635.6L300.832 1614.66L350.189 1673.18L333.101 1692.68L281.465 1635.6ZM338.931 1699.13L355.818 1679.86L403.764 1736.7L388.981 1754.46L338.931 1699.13ZM394.826 1760.92L409.413 1743.4L456.039 1798.68L443.399 1814.61L394.826 1760.92ZM449.299 1821.14L461.745 1805.45L507.168 1859.3L496.527 1873.35L449.299 1821.14ZM502.446 1879.89L512.898 1866.1L557.2 1918.62L548.427 1930.72L502.446 1879.89ZM554.374 1937.29L562.961 1925.45L606.216 1976.74L599.192 1986.84L554.374 1937.29ZM1171.04 2632.89L1176.96 2639.91L1187.89 2650.56L1184.77 2647.11L1171.04 2632.89ZM1310.67 2798.45L1355.72 2851.86L1374.51 2868.23C1379.4 2870.91 1384.62 2872.83 1390 2873.97L1376.28 2858.81L1310.67 2798.45ZM1398.92 2883.84C1396.46 2883.73 1394 2883.48 1391.56 2883.09L1423.19 2910.67L1398.92 2883.84ZM1527.37 2981.34L1423.62 2880.24C1430.91 2877.7 1437.86 2873.83 1444.11 2868.59L2931.48 1620.43C2947.74 1606.81 2956.39 1586.07 2954.64 1564.96C2953.54 1551.43 2948.27 1538.77 2939.48 1528.33L2016.25 433.726L2030.75 406.136L3058.74 1542.51C3067.43 1552.11 3072.6 1564.05 3073.66 1576.93L3073.65 1576.89C3075.18 1595.34 3068.18 1613.02 3054.43 1625.39L1564.49 2966.27C1553.85 2975.83 1540.66 2980.82 1527.37 2981.34ZM2024.53 399.265L2010.19 426.548L1992.9 406.043L2007.05 379.936L2024.53 399.265ZM2000.89 373.133L1986.91 398.94L1969.82 378.686L1983.61 354.034L2000.89 373.133ZM1977.48 347.258L1963.86 371.615L1947.01 351.642L1960.44 328.416L1977.48 347.258ZM1954.31 321.638L1941.05 344.572L1924.44 324.875L1937.49 303.049L1954.31 321.638ZM1931.42 296.333L1918.53 317.874L1902.17 298.478L1914.85 278.02L1931.42 296.333ZM1908.8 271.329L1896.29 291.507L1880.25 272.488L1892.55 253.366L1908.8 271.329ZM1886.5 246.678L1874.38 265.526L1858.62 246.838L1870.52 229.019L1886.5 246.678ZM1864.53 222.391L1852.8 239.941L1837.34 221.614L1848.85 205.064L1864.53 222.391ZM1842.91 198.494L1831.58 214.783L1816.49 196.889L1827.6 181.569L1842.91 198.494ZM1821.67 175.013L1810.74 190.077L1796.03 172.637L1806.74 158.509L1821.67 175.013ZM1800.83 151.984L1790.32 165.862L1776.04 148.937L1786.34 135.96L1800.83 151.984ZM1780.42 129.421L1770.32 142.154L1756.52 125.792L1766.41 113.925L1780.42 129.421ZM1760.53 107.427L1750.84 119.058L1737.47 103.209L1746.94 92.407L1760.53 107.427ZM1741.13 85.9829L1731.86 96.5558L1719.08 81.4026L1721.33 78.9751C1723.61 76.5041 1726.06 74.2344 1728.64 72.1755L1741.13 85.9829ZM1714.92 73.1251L1713.45 74.7217L1702.24 61.4369C1705.83 59.1048 1709.64 57.1563 1713.61 55.6122C1714.07 56.086 1714.52 56.5691 1714.97 57.0615L1722.82 65.7485C1720.04 67.9957 1717.4 70.458 1714.92 73.1251ZM1706.4 49.2776C1703.02 50.8462 1699.75 52.6842 1696.63 54.7807L1689.47 46.2938C1692.7 45.5122 1695.99 44.9972 1699.28 44.7483C1701.74 46.0728 1704.12 47.5829 1706.4 49.2776ZM1683.46 38.9726C1683.35 39.0054 1683.24 39.0385 1683.13 39.0719C1683.01 39.1119 1682.88 39.1524 1682.75 39.1932L1682.61 39.0674L1682.47 38.9403C1682.39 38.8698 1682.31 38.7995 1682.23 38.7294C1682.5 38.7793 1682.76 38.831 1683.03 38.8846C1683.17 38.9134 1683.32 38.9427 1683.46 38.9726ZM157.183 1511.18C152.037 1521.16 149.72 1532.47 150.671 1543.97C151.815 1557.84 157.797 1570.99 167.511 1581.08L183.86 1598.01C185.802 1595.4 187.931 1592.91 190.242 1590.56L210.385 1569.99L157.183 1511.18ZM216.195 1576.41L196.437 1596.59C194.061 1599.01 191.902 1601.61 189.972 1604.34L245.452 1661.8L269.71 1635.57L216.195 1576.41ZM275.536 1642.01L251.469 1668.03L305.588 1724.08L327.331 1699.27L275.536 1642.01ZM333.161 1705.71L311.605 1730.31L363.948 1784.52L383.361 1761.21L333.161 1705.71ZM389.206 1767.67L369.974 1790.76L420.669 1843.26L437.921 1821.52L389.206 1767.67ZM443.821 1828.04L426.748 1849.56L475.945 1900.51L491.184 1880.4L443.821 1828.04ZM497.104 1886.94L482.04 1906.82L529.85 1956.34L543.212 1937.91L497.104 1886.94ZM549.159 1944.48L535.968 1962.67L582.49 2010.85L594.098 1994.16L549.159 1944.48ZM600.056 2000.75L588.616 2017.2L633.96 2064.16L643.926 2049.24L600.056 2000.75ZM649.906 2055.85L640.105 2070.52L684.329 2116.32L692.755 2103.22L649.906 2055.85ZM1382.64 2852.91L1378.69 2848.55L1388.42 2858.03L1390.19 2859.86L1382.64 2852.91ZM1478.47 2958.86L1446.01 2922.97L1491.81 2965.11L1503.69 2977.41C1500.62 2976.22 1497.64 2974.77 1494.78 2973.06L1478.47 2958.86ZM1513.04 2988.99C1513.76 2989.11 1514.48 2989.23 1515.2 2989.34L1524.56 2999.03L1513.04 2988.99ZM1535.49 2989.25L1614.67 3066.39L1636.55 3086.53C1655.35 3090.12 1675.57 3084.87 1690.38 3070.64L3182.87 1637.02C3196.12 1624.28 3202.84 1606.48 3201.33 1588.19L3201.36 1588.19C3200.22 1574.31 3194.23 1561.13 3184.56 1551.07L2047.75 373.791L2035.03 397.983L3065.17 1536.73C3075.16 1547.78 3081.09 1561.43 3082.31 1576.22C3084.07 1597.37 3076.01 1617.65 3060.25 1631.86L1570.28 2972.73C1560.17 2981.83 1548.04 2987.31 1535.49 2989.25ZM2028.82 391.111L2041.39 367.2L2023.81 349L2011.41 371.874L2028.82 391.111ZM2005.26 365.072L2017.51 342.473L2000.14 324.489L1988.07 346.069L2005.26 365.072ZM1981.94 339.293L1993.86 317.984L1976.73 300.241L1964.99 320.551L1981.94 339.293ZM1958.85 313.773L1970.44 293.731L1953.54 276.224L1942.13 295.289L1958.85 313.773ZM1936.06 288.573L1947.31 269.771L1930.65 252.523L1919.59 270.37L1936.06 288.573ZM1913.54 263.679L1924.44 246.09L1908.1 229.173L1897.39 245.831L1913.54 263.679ZM1891.34 239.143L1901.89 222.739L1885.83 206.108L1875.48 221.605L1891.34 239.143ZM1869.48 214.976L1879.67 199.727L1863.91 183.409L1853.92 197.776L1869.48 214.976ZM1847.98 191.206L1857.8 177.08L1842.41 161.142L1832.79 174.414L1847.98 191.206ZM1826.86 167.858L1836.31 154.823L1821.3 139.284L1812.05 151.494L1826.86 167.858ZM1806.15 144.969L1815.23 132.99L1800.66 117.908L1791.79 129.093L1806.15 144.969ZM1785.87 122.553L1794.57 111.595L1780.49 97.0146L1772 107.213L1785.87 122.553ZM1766.12 100.715L1774.26 90.9369L1774.43 90.7377L1761.9 77.7634C1758.64 80.1505 1755.56 82.8612 1752.71 85.8923L1766.12 100.715ZM1746.92 79.4932C1749.73 76.5648 1752.72 73.9072 1755.87 71.5227L1747.78 63.1415C1747.42 62.7648 1747.05 62.3937 1746.68 62.0284C1742.9 63.4126 1739.26 65.1453 1735.81 67.209L1746.92 79.4932ZM1729.91 60.6857C1732.88 58.815 1735.97 57.1632 1739.17 55.7402C1736.93 54.1504 1734.6 52.7298 1732.2 51.4788C1729.01 51.6979 1725.87 52.1511 1722.8 52.8302L1729.91 60.6857ZM1715.75 45.7278L1715.77 45.7232L1715.74 45.718L1715.75 45.7278ZM178.682 1645.75C177.709 1633.95 180.079 1622.3 185.339 1612.01L239.563 1668.17L217.314 1692.22C215.242 1694.46 213.323 1696.81 211.562 1699.26L197.437 1685.5C186.579 1674.9 179.938 1660.8 178.682 1645.75ZM223.68 1698.07L245.58 1674.4L299.86 1730.62L274.012 1760.11L217.848 1705.39C219.604 1702.82 221.551 1700.38 223.68 1698.07ZM280.203 1766.14L305.877 1736.85L358.372 1791.21L334.883 1819.42L280.203 1766.14ZM341.078 1825.46L364.397 1797.46L415.237 1850.11L393.935 1876.96L341.078 1825.46ZM400.18 1883.04L421.315 1856.41L470.648 1907.5L451.379 1932.93L400.18 1883.04ZM457.637 1939.03L476.743 1913.81L524.682 1963.46L507.305 1987.42L457.637 1939.03ZM513.584 1993.54L530.801 1969.8L577.445 2018.11L561.834 2040.55L513.584 1993.54ZM568.116 2046.67L583.571 2024.45L629.032 2071.54L615.073 2092.43L568.116 2046.67ZM621.37 2098.56L635.176 2077.9L679.511 2123.82L667.099 2143.12L621.37 2098.56ZM673.43 2149.29L685.693 2130.22L728.995 2175.07L718.036 2192.75L673.43 2149.29ZM1600.1 3064.74L1600.88 3065.55L1602.73 3067.16L1600.1 3064.74ZM1748.74 3189.75L1647.05 3096.19C1664.77 3096.44 1682.59 3090.01 1696.33 3076.82L3188.82 1643.23C3203.96 1628.68 3211.67 1608.37 3209.94 1587.44C3208.66 1571.62 3201.82 1556.55 3190.74 1545.09L2051.99 365.732L2063.15 344.489L3310.31 1559.65C3321.17 1570.21 3327.81 1584.35 3329.07 1599.4L3329.11 1599.4C3330.6 1617.58 3324.14 1635.5 3311.35 1648.56L1816.3 3174.9C1798.23 3193.37 1771.49 3198.36 1748.74 3189.75ZM2056.65 338.156L2045.62 359.141L2028.13 341.028L2039.01 320.963L2056.65 338.156ZM2032.57 314.689L2021.83 334.501L2004.55 316.607L2015.13 297.699L2032.57 314.689ZM2008.71 291.443L1998.27 310.102L1981.23 292.454L1991.51 274.681L2008.71 291.443ZM1985.08 268.416L1974.94 285.943L1958.14 268.536L1968.1 251.877L1985.08 268.416ZM1961.73 245.665L1951.9 262.083L1935.35 244.939L1945 229.369L1961.73 245.665ZM1938.64 223.173L1929.14 238.505L1912.91 221.698L1922.24 207.191L1938.64 223.173ZM1915.87 200.991L1906.7 215.263L1890.75 198.747L1899.75 185.278L1915.87 200.991ZM1893.43 179.126L1884.59 192.365L1868.95 176.168L1877.61 163.71L1893.43 179.126ZM1871.35 157.604L1862.84 169.839L1847.57 154.028L1855.89 142.549L1871.35 157.604ZM1849.63 136.449L1841.47 147.708L1826.59 132.303L1834.57 121.774L1849.63 136.449ZM1828.33 115.694L1820.52 126.009L1806.09 111.068L1810.76 105.175C1811.75 103.929 1812.77 102.724 1813.83 101.561L1828.33 115.694ZM1803.92 99.8048L1799.99 104.755L1786.37 90.6416C1789.13 87.9856 1792.1 85.5791 1795.23 83.4375L1807.6 95.4906C1806.33 96.8754 1805.1 98.3136 1803.92 99.8048ZM1788.92 77.2916C1785.91 79.4468 1783.05 81.8235 1780.35 84.4106L1769.35 73.0201C1772.71 71.1802 1776.21 69.6431 1779.79 68.4117C1780.07 68.6773 1780.35 68.9457 1780.63 69.217L1788.92 77.2916ZM1772.02 62.1791C1769 63.4615 1766.04 64.9453 1763.18 66.6289L1756.15 59.352C1759.13 58.7504 1762.16 58.3508 1765.24 58.1603C1767.57 59.3522 1769.84 60.6935 1772.02 62.1791ZM213.315 1713.08C208.024 1723.66 205.638 1735.6 206.622 1747.57C207.956 1763.84 215.334 1778.89 227.372 1789.99L239.053 1800.74C240.709 1798.36 242.512 1796.05 244.458 1793.83L268.287 1766.64L213.315 1713.08ZM274.479 1772.68L250.956 1799.52C248.959 1801.8 247.133 1804.18 245.482 1806.66L302.119 1858.77L329.316 1826.11L274.479 1772.68ZM335.511 1832.14L308.472 1864.61L363.536 1915.27L388.517 1883.79L335.511 1832.14ZM394.762 1889.87L369.936 1921.16L423.178 1970.15L446.102 1939.89L394.762 1889.87ZM452.36 1945.99L429.588 1976.05L481.151 2023.49L502.162 1994.52L452.36 1945.99ZM508.44 2000.63L487.578 2029.4L537.59 2075.41L556.817 2047.77L508.44 2000.63ZM563.099 2053.89L544.017 2081.33L592.614 2126.04L610.175 2099.76L563.099 2053.89ZM616.472 2105.89L599.052 2131.96L646.313 2175.45L662.316 2150.56L616.472 2105.89ZM668.647 2156.73L652.783 2181.4L698.821 2223.76L713.361 2200.29L668.647 2156.73ZM719.717 2206.49L705.313 2229.73L750.193 2271.02L763.361 2249.01L719.717 2206.49ZM769.763 2255.25L756.73 2277.04L800.554 2317.36L812.428 2296.82L769.763 2255.25ZM1761.91 3201.87C1783.52 3204.66 1806.14 3197.66 1822.5 3180.97L3317.58 1654.58C3332.11 1639.76 3339.46 1619.38 3337.76 1598.68C3336.36 1581.57 3328.77 1565.51 3316.42 1553.48L2067.36 336.478L2077.15 317.857L3436.14 1568.25C3448.18 1579.32 3455.56 1594.4 3456.89 1610.68L3456.9 1610.71C3458.42 1628.81 3452.2 1646.86 3439.84 1660.21L1942.23 3279.27C1919.39 3303.95 1881.67 3306.98 1855.27 3287.29L1845.51 3278.78L1761.91 3201.87ZM2060.86 330.144L2070.53 311.761L2052.82 295.473L2043.3 313.036L2060.86 330.144ZM2036.86 306.761L2046.26 289.431L2028.76 273.334L2019.52 289.859L2036.86 306.761ZM2013.1 283.603L2022.21 267.308L2004.95 251.426L1995.99 266.932L2013.1 283.603ZM1989.56 260.667L1998.39 245.389L1981.36 229.718L1972.68 244.224L1989.56 260.667ZM1966.3 238.012L1974.85 223.729L1958.06 208.288L1949.68 221.816L1966.3 238.012ZM1943.32 215.62L1951.57 202.312L1935.11 187.169L1927.03 199.744L1943.32 215.62ZM1920.66 193.543L1928.61 181.186L1912.43 166.299L1904.65 177.941L1920.66 193.543ZM1898.34 171.789L1905.97 160.359L1890.1 145.754L1882.63 156.489L1898.34 171.789ZM1876.37 150.384L1883.69 139.856L1868.19 125.595L1861.04 135.452L1876.37 150.384ZM1854.78 129.352L1861.78 119.699L1847.18 106.268C1844.82 108.632 1842.6 111.182 1840.53 113.915L1839.85 114.806L1854.78 129.352ZM1833.61 108.726L1833.63 108.706C1835.87 105.747 1838.27 102.981 1840.82 100.41L1828.56 89.1337C1825.59 91.0197 1822.73 93.1389 1820.02 95.488L1833.61 108.726ZM1813.79 89.4091C1816.4 87.1049 1819.14 84.9939 1821.98 83.0784L1813.48 75.2539C1813.4 75.1873 1813.33 75.1209 1813.26 75.0548C1813.14 74.95 1813.03 74.8458 1812.91 74.7419C1809.48 75.8551 1806.15 77.2306 1802.95 78.8554L1813.79 89.4091ZM1796.45 72.5181C1799.15 71.0164 1801.94 69.6769 1804.81 68.5063C1802.72 67.1465 1800.56 65.9132 1798.35 64.81C1795.42 64.9644 1792.49 65.3084 1789.6 65.8403L1796.45 72.5181ZM234.52 1849.36C233.502 1837.06 235.796 1825.06 241.07 1814.32L296.593 1865.4L271.532 1895.5C269.691 1897.71 267.984 1900 266.414 1902.36L257.341 1894.45C244.089 1882.88 235.97 1866.85 234.52 1849.36ZM278.195 1900.97L302.946 1871.25L358.16 1922.05L329.888 1957.68L272.982 1908.08C274.557 1905.62 276.296 1903.25 278.195 1900.97ZM336.433 1963.39L364.56 1927.94L417.944 1977.06L391.759 2011.61L336.433 1963.39ZM398.311 2017.33L424.354 1982.95L476.051 2030.52L451.805 2063.95L398.311 2017.33ZM458.371 2069.68L482.478 2036.43L532.617 2082.57L510.176 2114.83L458.371 2069.68ZM516.738 2120.55L539.044 2088.48L587.762 2133.3L567.005 2164.37L516.738 2120.55ZM573.575 2170.09L594.199 2139.23L641.575 2182.82L622.393 2212.65L573.575 2170.09ZM628.991 2218.4L648.044 2188.77L694.191 2231.23L676.485 2259.8L628.991 2218.4ZM683.104 2265.57L700.683 2237.2L745.667 2278.59L729.346 2305.87L683.104 2265.57ZM736.008 2311.68L752.204 2284.61L796.126 2325.02L781.109 2350.99L736.008 2311.68ZM787.769 2356.8L802.665 2331.03L845.595 2370.53L831.804 2395.18L787.769 2356.8ZM838.473 2400.99L852.143 2376.56L894.149 2415.21L881.517 2438.51L838.473 2400.99ZM1973.02 3389.93L1877.83 3306.96C1902.79 3312.59 1930.02 3305.16 1948.59 3285.08L3446.2 1666.03C3460.19 1650.89 3467.26 1630.43 3465.54 1609.93C3464.01 1591.52 3455.65 1574.44 3442 1561.89L2081.31 309.935L2089.88 293.631L3561.97 1576.78C3575.26 1588.34 3583.33 1604.34 3584.79 1621.87L3584.82 1621.86C3586.37 1640.15 3580.5 1657.88 3568.39 1671.7L2068.22 3383.51C2043.69 3411.46 2001.04 3414.34 1973.02 3389.93ZM2083.14 287.755L2074.69 303.84L2057.07 287.631L2065.39 272.281L2083.14 287.755ZM2058.71 266.456L2050.51 281.589L2033.1 265.575L2041.16 251.163L2058.71 266.456ZM2034.5 245.351L2026.55 259.55L2009.38 243.754L2017.18 230.262L2034.5 245.351ZM2010.5 224.436L2002.82 237.717L1985.89 222.137L1993.42 209.548L2010.5 224.436ZM1986.79 203.767L1979.38 216.149L1962.7 200.803L1969.96 189.097L1986.79 203.767ZM1963.34 183.325L1956.21 194.827L1939.86 179.786L1946.83 168.94L1963.34 183.325ZM1940.2 163.158L1933.36 173.802L1917.29 159.021L1923.98 149.017L1940.2 163.158ZM1917.39 143.274L1910.84 153.08L1895.08 138.587L1900.09 131.39C1900.55 130.726 1901.02 130.071 1901.5 129.425L1917.39 143.274ZM1892.99 126.475L1888.67 132.689L1873.42 118.659C1875.64 115.986 1878.02 113.483 1880.55 111.161L1894.97 123.737C1894.3 124.635 1893.64 125.547 1892.99 126.475ZM1873.98 105.441C1871.54 107.74 1869.23 110.194 1867.05 112.794L1853.68 100.489C1856.29 98.4211 1859.03 96.5484 1861.86 94.8735L1873.98 105.441ZM1855.03 88.9213C1852.34 90.639 1849.74 92.5217 1847.24 94.5673L1836.57 84.7455C1839.65 83.3023 1842.82 82.0843 1846.05 81.0945C1846.13 81.1617 1846.21 81.229 1846.29 81.2965L1855.03 88.9213ZM1837.62 74.8802C1834.94 75.9294 1832.31 77.1242 1829.74 78.463L1823.02 72.2809C1824.72 71.9973 1826.45 71.7751 1828.19 71.6158C1829.23 71.5208 1830.26 71.4487 1831.29 71.3992C1833.45 72.4374 1835.56 73.5975 1837.62 74.8802ZM268.69 1915.83C263.536 1926.73 261.323 1938.83 262.343 1951.16C263.913 1969.91 272.73 1986.89 287.272 1998.91L293.614 2004.16C295.15 2001.73 296.824 1999.36 298.632 1997.08L324.499 1964.48L268.69 1915.83ZM331.044 1970.18L305.437 2002.46C303.582 2004.79 301.885 2007.22 300.35 2009.74L357.386 2056.98L386.515 2018.53L331.044 1970.18ZM393.068 2024.25L364.071 2062.51L419.535 2108.45L446.699 2070.99L393.068 2024.25ZM453.265 2076.72L426.23 2114L479.864 2158.42L505.201 2121.99L453.265 2076.72ZM511.763 2127.71L486.552 2163.96L538.521 2207L562.154 2171.63L511.763 2127.71ZM568.723 2177.36L545.212 2212.54L595.617 2254.29L617.658 2220.01L568.723 2177.36ZM624.256 2225.76L602.334 2259.85L651.311 2300.42L671.862 2267.26L624.256 2225.76ZM678.48 2273.03L658.047 2306L705.675 2345.45L724.828 2313.43L678.48 2273.03ZM731.49 2319.23L712.453 2351.06L758.853 2389.49L776.692 2358.63L731.49 2319.23ZM783.352 2364.44L765.626 2395.1L810.882 2432.58L827.484 2402.91L783.352 2364.44ZM834.152 2408.72L817.661 2438.2L861.853 2474.8L877.288 2446.32L834.152 2408.72ZM883.971 2452.14L868.644 2480.42L911.821 2516.18L926.155 2488.91L883.971 2452.14ZM1991.99 3410.83L2095.93 3496.92C2125.5 3521.39 2169.54 3517.31 2194.14 3487.81L3696.87 1683.25C3708.6 1669.16 3714.23 1651.35 3712.72 1633.09L3712.69 1633.14C3711.11 1614.35 3702.3 1597.41 3687.75 1585.35L2101.5 271.54L2094.03 285.751L3567.69 1570.28C3582.63 1583.32 3591.81 1601.37 3593.44 1621.16C3595.14 1641.81 3588.54 1661.79 3574.89 1677.39L2074.72 3389.23C2053.63 3413.29 2020.53 3420.86 1991.99 3410.83ZM2087.29 279.875L2094.65 265.868L2076.85 251.13L2069.62 264.477L2087.29 279.875ZM2062.94 258.652L2070.06 245.505L2052.48 230.94L2045.48 243.439L2062.94 258.652ZM2038.82 237.627L2045.7 225.325L2028.35 210.955L2021.6 222.622L2038.82 237.627ZM2014.92 216.796L2021.55 205.325L2004.43 191.144L1997.94 201.995L2014.92 216.796ZM1991.31 196.214L1997.68 185.556L1980.81 171.583L1974.58 181.636L1991.31 196.214ZM1967.96 175.864L1974.07 166.001L1957.53 152.302L1951.57 161.577L1967.96 175.864ZM1944.93 155.795L1950.78 146.708L1934.83 133.503C1933.09 135.625 1931.44 137.847 1929.89 140.163L1928.83 141.755L1944.93 155.795ZM1922.24 136.012L1922.66 135.381C1924.38 132.807 1926.22 130.338 1928.17 127.981L1913.9 116.161C1911.49 118.209 1909.19 120.409 1907.03 122.752L1922.24 136.012ZM1900.51 117.075C1902.62 114.783 1904.83 112.613 1907.15 110.573L1895.14 100.624C1892.44 102.121 1889.84 103.78 1887.34 105.594L1900.51 117.075ZM1880.66 99.7704C1883.03 97.9621 1885.49 96.2822 1888.03 94.7363L1879.18 87.4071C1876.12 88.2884 1873.12 89.3654 1870.18 90.6352L1880.66 99.7704ZM1863.04 84.4105C1865.46 83.219 1867.93 82.1491 1870.44 81.2023C1868.48 80.0212 1866.46 78.9422 1864.4 77.9673C1861.76 78.075 1859.12 78.3264 1856.51 78.7201L1863.04 84.4105ZM290.126 2052.96C289.114 2040.7 291.24 2028.57 296.208 2017.57L352.14 2063.9L325.743 2098.74C323.931 2101.13 322.259 2103.6 320.729 2106.15L317.245 2103.4C301.665 2091.09 291.783 2072.7 290.126 2052.96ZM332.681 2103.94L358.825 2069.44L414.429 2115.49L384.635 2156.58L327.604 2111.57C329.129 2108.94 330.823 2106.39 332.681 2103.94ZM391.452 2161.95L421.124 2121.04L474.891 2165.57L446.949 2205.75L391.452 2161.95ZM453.756 2211.12L481.579 2171.11L533.673 2214.26L507.457 2253.49L453.756 2211.12ZM514.263 2258.86L540.364 2219.8L590.888 2261.65L566.283 2299.91L514.263 2258.86ZM573.112 2305.3L597.605 2267.21L646.694 2307.87L623.597 2345.14L573.112 2305.3ZM630.443 2350.54L653.43 2313.45L701.165 2352.98L679.481 2389.24L630.443 2350.54ZM686.367 2394.67L707.944 2358.6L754.445 2397.11L734.089 2432.33L686.367 2394.67ZM740.967 2437.75L761.218 2402.72L806.571 2440.29L787.463 2474.44L740.967 2437.75ZM794.345 2479.87L813.35 2445.9L857.634 2482.58L839.703 2515.67L794.345 2479.87ZM846.596 2521.11L864.426 2488.21L907.69 2524.04L890.87 2556.04L846.596 2521.11ZM897.804 2561.51L914.525 2529.7L2063.55 3481.4L897.804 2561.51ZM2218.85 3603.94L2101.41 3511.27C2133.83 3529.86 2176.09 3523.05 2200.78 3493.39L3703.51 1688.83C3716.71 1672.99 3723.02 1652.97 3721.34 1632.42C3719.59 1611.31 3709.66 1592.24 3693.31 1578.71L2105.62 263.693L2112.13 251.308L3813.58 1593.88C3829.16 1606.19 3839.03 1624.54 3840.66 1644.32L3840.69 1644.31C3842.2 1662.53 3836.77 1680.47 3825.38 1694.82L2320.09 3592.09C2295.43 3623.22 2250 3628.52 2218.85 3603.94ZM2105.18 245.825L2098.77 258.021L2081.07 243.356L2087.35 231.757L2105.18 245.825ZM2080.46 226.318L2074.28 237.731L2056.78 223.243L2062.84 212.414L2080.46 226.318ZM2055.96 206.984L2050 217.628L2032.75 203.338L2038.57 193.266L2055.96 206.984ZM2031.67 187.818L2025.95 197.708L2008.93 183.612L2014.52 174.281L2031.67 187.818ZM2007.66 168.873L2002.19 178.023L1985.42 164.14L1989.45 157.637C1989.89 156.935 1990.33 156.242 1990.79 155.557L2007.66 168.873ZM1982.06 153.106L1978.69 158.557L1962.36 145.034C1964.2 142.491 1966.16 140.067 1968.24 137.769L1983.96 150.169C1983.31 151.133 1982.68 152.112 1982.06 153.106ZM1961.4 132.371C1959.38 134.631 1957.46 136.999 1955.64 139.472L1940.7 127.098C1942.81 125.03 1945.02 123.086 1947.33 121.27L1961.4 132.371ZM1940.37 115.777C1938.17 117.595 1936.04 119.522 1934.01 121.554L1921.01 110.785C1923.4 109.178 1925.89 107.705 1928.45 106.371L1940.37 115.777ZM1921.08 100.556C1918.68 101.945 1916.35 103.447 1914.09 105.058L1903.78 96.5141C1906.56 95.3995 1909.41 94.4433 1912.33 93.6523L1921.08 100.556ZM1903.24 87.4538C1900.88 88.3079 1898.56 89.2634 1896.3 90.3169L1890.03 85.1293C1892.52 84.7962 1895.02 84.5871 1897.53 84.5036C1899.46 85.3952 1901.37 86.3784 1903.24 87.4538ZM323.618 2119.51C318.882 2130.54 316.872 2142.63 317.872 2154.77C319.622 2175.85 330.278 2195.17 347.181 2207.89L347.756 2208.33C349.311 2205.59 351.022 2202.93 352.887 2200.35L379.525 2163.62L323.618 2119.51ZM386.342 2169L359.924 2205.43C358.019 2208.05 356.292 2210.78 354.748 2213.6L411.663 2256.49L441.975 2212.9L386.342 2169ZM448.782 2218.27L418.58 2261.7L474.048 2303.5L502.612 2260.74L448.782 2218.27ZM509.418 2266.11L480.961 2308.71L534.626 2349.15L561.56 2307.26L509.418 2266.11ZM568.388 2312.65L541.559 2354.37L593.581 2393.57L618.989 2352.57L568.388 2312.65ZM625.835 2357.97L600.53 2398.81L651.003 2436.84L674.983 2396.76L625.835 2357.97ZM681.87 2402.19L657.992 2442.11L707.058 2479.08L729.695 2439.93L681.87 2402.19ZM736.573 2445.35L714.034 2484.34L761.793 2520.33L783.169 2482.12L736.573 2445.35ZM790.051 2487.55L768.771 2525.59L815.317 2560.66L835.504 2523.42L790.051 2487.55ZM842.397 2528.85L822.304 2565.93L867.695 2600.13L886.761 2563.86L842.397 2528.85ZM893.695 2569.33L874.721 2605.43L2341.76 3710.93C2374.5 3735.58 2421.28 3729.07 2446.02 3696.43L3953.86 1706.4C3964.92 1691.82 3970.17 1673.75 3968.67 1655.53L3968.64 1655.58C3966.89 1634.54 3956.23 1615.17 3939.36 1602.45L2121.84 232.835L2116.21 243.548L3818.96 1587.15C3836.42 1600.91 3847.47 1621.5 3849.31 1643.64C3851.02 1664.07 3844.91 1684.18 3832.16 1700.24L2326.87 3597.51C2299.24 3632.33 2248.35 3638.25 2213.47 3610.71L893.695 2569.33ZM2109.26 238.066L2114.8 227.53L2096.94 214.071L2091.52 224.067L2109.26 238.066ZM2084.63 218.628L2089.95 208.806L2072.3 195.504L2067.1 204.798L2084.63 218.628ZM2060.22 199.368L2065.32 190.246L2047.91 177.122L2042.93 185.727L2060.22 199.368ZM2036.03 180.279L2040.9 171.845L2024.06 159.151C2022.34 161.479 2020.73 163.902 2019.22 166.415L2018.98 166.823L2036.03 180.279ZM2012.12 161.416C2013.69 158.834 2015.37 156.34 2017.14 153.938L2001.61 142.232C1999.61 144.244 1997.7 146.368 1995.88 148.602L2012.12 161.416ZM1989.08 143.232C1990.85 141.05 1992.7 138.963 1994.63 136.974L1980.73 126.501C1978.54 128.109 1976.43 129.826 1974.4 131.646L1989.08 143.232ZM1967.48 126.191C1969.42 124.394 1971.44 122.685 1973.52 121.067L1961.76 112.207C1959.34 113.392 1956.99 114.694 1954.71 116.109L1967.48 126.191ZM1947.53 110.451C1949.67 109.023 1951.87 107.688 1954.12 106.448L1945.42 99.8912C1942.67 100.594 1939.98 101.438 1937.35 102.416L1947.53 110.451ZM1929.55 96.2583C1931.66 95.3282 1933.81 94.4793 1936 93.7141C1934.19 92.7128 1932.35 91.7942 1930.48 90.9577C1928.16 91.027 1925.83 91.2014 1923.5 91.4823L1929.55 96.2583ZM345.585 2256.62C344.594 2244.61 346.47 2232.61 350.947 2221.59L406.708 2263.61L380.031 2301.97C378.091 2304.76 376.322 2307.65 374.73 2310.63C357.93 2297.48 347.373 2277.96 345.585 2256.62ZM387.129 2306.92L413.626 2268.82L469.223 2310.72L438.503 2356.7L381.79 2315.8C383.367 2312.74 385.149 2309.77 387.129 2306.92ZM445.516 2361.75L476.136 2315.93L529.924 2356.46L500.857 2401.66L445.516 2361.75ZM507.888 2406.73L536.857 2361.68L588.996 2400.97L561.475 2445.38L507.888 2406.73ZM568.519 2450.46L595.944 2406.21L646.528 2444.32L620.454 2487.91L568.519 2450.46ZM627.537 2493.02L653.516 2449.59L702.688 2486.64L677.973 2529.39L627.537 2493.02ZM685.04 2534.49L709.663 2491.9L757.522 2527.96L734.083 2569.86L685.04 2534.49ZM741.152 2574.96L764.5 2533.22L811.141 2568.37L788.905 2609.4L741.152 2574.96ZM795.98 2614.5L818.128 2573.63L863.61 2607.9L842.507 2648.05L795.98 2614.5ZM849.62 2653.18L870.636 2613.2L2336.59 3717.86C2373.13 3745.42 2425.35 3738.14 2452.96 3701.67L3960.81 1711.64C3973.14 1695.36 3979.02 1675.17 3977.32 1654.86C3975.38 1631.34 3963.44 1609.75 3944.61 1595.54L2125.92 225.079L2130.74 215.902L4065.19 1610.97C4083.37 1624.11 4094.85 1644.45 4096.72 1666.78C4098.23 1685 4093.14 1703.17 4082.38 1717.97L2571.98 3800.75C2547.17 3834.98 2499.01 3842.71 2464.71 3817.95L849.62 2653.18ZM2123.61 210.761L2118.88 219.773L2101.11 206.382L2105.72 197.86L2123.61 210.761ZM2098.65 192.758L2094.12 201.117L2076.56 187.888L2078.75 183.97C2079.5 182.646 2080.26 181.347 2081.06 180.072L2098.65 192.758ZM2071.21 179.728L2069.58 182.629L2052.45 169.715C2054.01 167.398 2055.66 165.165 2057.41 163.018L2074.02 174.996C2073.05 176.54 2072.11 178.117 2071.21 179.728ZM2050.35 157.927C2048.65 160.034 2047.03 162.218 2045.49 164.474L2029.53 152.443C2031.27 150.498 2033.1 148.635 2035.01 146.86L2050.35 157.927ZM2027.86 141.704C2026.03 143.466 2024.27 145.303 2022.58 147.213L2008.12 136.313C2010.06 134.718 2012.07 133.216 2014.13 131.807L2027.86 141.704ZM2006.71 126.456C2004.77 127.88 2002.87 129.383 2001.02 130.964L1988.44 121.481C1990.59 120.242 1992.8 119.099 1995.06 118.053L2006.71 126.456ZM1987.1 112.315C1985.01 113.416 1982.96 114.596 1980.97 115.852L1971.02 108.359C1973.48 107.509 1976 106.771 1978.56 106.149L1987.1 112.315ZM1968.84 99.9842C1966.82 100.664 1964.84 101.411 1962.88 102.226L1957.02 97.8055C1959.18 97.5762 1961.35 97.4356 1963.51 97.3829C1965.31 98.1784 1967.09 99.0458 1968.84 99.9842ZM378.188 2323.86C374.008 2334.82 372.284 2346.66 373.255 2358.44C375.033 2379.87 385.31 2399.36 401.717 2412.89C403.34 2409.71 405.16 2406.61 407.174 2403.59L433.695 2363.89L378.188 2323.86ZM440.708 2368.95L414.367 2408.37C412.267 2411.52 410.401 2414.78 408.774 2418.11L465.193 2457.13L496.173 2408.95L440.708 2368.95ZM503.203 2414.02L472.315 2462.06L527.491 2500.22L556.907 2452.75L503.203 2414.02ZM563.952 2457.83L534.626 2505.15L588.045 2542.09L615.997 2495.36L563.952 2457.83ZM623.081 2500.47L595.218 2547.05L647.043 2582.89L673.622 2536.92L623.081 2500.47ZM680.689 2542.02L654.196 2587.84L704.544 2622.66L729.833 2577.46L680.689 2542.02ZM736.901 2582.56L711.697 2627.61L760.676 2661.48L784.75 2617.06L736.901 2582.56ZM791.825 2622.17L767.834 2666.43L815.514 2699.41L838.442 2655.78L791.825 2622.17ZM845.555 2660.91L822.707 2704.38L2587.63 3924.97C2605.02 3936.97 2626.05 3941.55 2646.91 3937.78C2667.73 3934.02 2685.85 3922.4 2697.94 3905.04L4210.9 1729.55C4221.36 1714.51 4226.31 1696.2 4224.78 1678.03L4224.81 1677.99C4222.85 1654.32 4210.51 1633.01 4191.01 1619.5L2138.93 200.346C2138.72 200.723 2138.52 201.102 2138.32 201.482L2134.81 208.169L4070.27 1603.97C4090.53 1618.58 4103.3 1641.18 4105.37 1666.07C4107.06 1686.3 4101.38 1706.55 4089.42 1723.05L2579.01 3805.79C2551.38 3843.88 2497.83 3852.49 2459.63 3824.95L845.555 2660.91ZM2127.68 203.029L2130.61 197.454C2130.98 196.755 2131.35 196.06 2131.73 195.37L2114.3 183.319C2112.75 185.545 2111.29 187.846 2109.91 190.217L2127.68 203.029ZM2102.86 185.133C2104.23 182.825 2105.67 180.578 2107.19 178.398L2090.82 167.078C2089.13 168.958 2087.52 170.916 2085.97 172.951L2102.86 185.133ZM2078.94 167.881C2080.45 165.891 2082.01 163.967 2083.64 162.112L2068.47 151.622C2066.66 153.19 2064.91 154.831 2063.22 156.542L2078.94 167.881ZM2056.1 151.406C2057.72 149.722 2059.39 148.098 2061.12 146.537L2047.52 137.135C2045.57 138.387 2043.67 139.715 2041.83 141.115L2056.1 151.406ZM2034.51 135.841C2036.25 134.446 2038.04 133.112 2039.87 131.841L2028.41 123.916C2026.29 124.838 2024.21 125.846 2022.17 126.937L2034.51 135.841ZM2014.44 121.364C2016.32 120.252 2018.24 119.206 2020.18 118.228L2011.73 112.379C2009.33 112.927 2006.98 113.573 2004.66 114.314L2014.44 121.364ZM1996.14 108.165C1997.94 107.45 1999.78 106.789 2001.64 106.183C1999.99 105.329 1998.32 104.536 1996.63 103.804C1994.61 103.842 1992.58 103.954 1990.56 104.142L1996.14 108.165ZM400.925 2460.26C399.949 2448.52 401.472 2437.01 405.356 2426.21L460.537 2464.37L434.281 2505.2C432.219 2508.42 430.369 2511.73 428.733 2515.11C412.695 2501.25 402.693 2481.76 400.925 2460.26ZM441.573 2509.86L467.659 2469.3L522.953 2507.54L491.8 2557.81L437.031 2521.42C436.596 2521.13 436.165 2520.84 435.737 2520.54C437.41 2516.88 439.358 2513.32 441.573 2509.86ZM499.02 2562.6L530.088 2512.47L583.617 2549.49L553.945 2599.1L499.02 2562.6ZM561.203 2603.92L590.79 2554.46L642.721 2590.37L614.44 2639.29L561.203 2603.92ZM621.673 2644.1L649.874 2595.32L700.322 2630.21L673.346 2678.43L621.673 2644.1ZM680.578 2683.24L707.475 2635.16L756.549 2669.1L730.801 2716.61L680.578 2683.24ZM738.036 2721.41L763.707 2674.05L811.477 2707.09L786.886 2753.87L738.036 2721.41ZM794.156 2758.7L818.671 2712.06L2582.67 3932.07C2601.97 3945.41 2625.33 3950.46 2648.45 3946.29C2671.6 3942.08 2691.68 3929.17 2705.07 3909.95L4218.03 1734.46C4229.63 1717.77 4235.1 1697.48 4233.42 1677.28C4231.25 1651.02 4217.58 1627.37 4195.92 1612.41L2143.39 192.882C2144.75 190.821 2146.17 188.819 2147.67 186.878L4316.8 1628.07C4337.66 1641.95 4350.84 1664.23 4352.9 1689.23L4352.87 1689.27C4354.44 1707.71 4349.75 1725.68 4339.42 1741.12L2823.9 4009.37C2811.76 4027.47 2793.33 4039.82 2771.92 4044.08C2750.51 4048.34 2728.71 4044.05 2710.54 4031.99L794.156 2758.7ZM2140.41 182.054C2138.95 183.96 2137.56 185.921 2136.23 187.932L2119.59 176.419C2121.07 174.652 2122.61 172.943 2124.21 171.293L2140.41 182.054ZM2116.89 166.432C2115.36 168.063 2113.87 169.746 2112.44 171.479L2097 160.801C2098.61 159.312 2100.27 157.884 2101.97 156.52L2116.89 166.432ZM2094.43 151.506C2092.82 152.87 2091.24 154.288 2089.71 155.759L2075.64 146.027C2077.37 144.81 2079.15 143.653 2080.96 142.558L2094.43 151.506ZM2073.05 137.3C2071.36 138.416 2069.7 139.582 2068.08 140.798L2055.91 132.379C2057.8 131.438 2059.73 130.563 2061.69 129.754L2073.05 137.3ZM2053.17 124.092C2051.38 124.953 2049.62 125.867 2047.89 126.833L2038.39 120.267C2040.54 119.628 2042.71 119.071 2044.9 118.597L2053.17 124.092ZM2034.51 112.423C2032.84 112.95 2031.18 113.522 2029.53 114.139L2024.22 110.466C2026.07 110.322 2027.91 110.239 2029.75 110.216C2031.35 110.898 2032.94 111.634 2034.51 112.423ZM432.486 2528.77C428.932 2539.39 427.567 2550.63 428.516 2562.05C430.307 2583.62 440.059 2603.15 455.762 2617.32C457.417 2613.73 459.306 2610.23 461.425 2606.82L487.246 2565.16L432.486 2528.77ZM494.466 2569.95L468.783 2611.39C466.467 2615.13 464.452 2619 462.747 2622.97C464.129 2623.98 465.547 2624.94 467 2625.87L518.308 2658.67L549.504 2606.52L494.466 2569.95ZM556.762 2611.34L525.645 2663.37L580.315 2698.32L610.106 2646.79L556.762 2611.34ZM617.339 2651.59L587.624 2702.99L640.641 2736.89L669.114 2686L617.339 2651.59ZM676.345 2690.8L647.947 2741.56L699.433 2774.48L726.666 2724.23L676.345 2690.8ZM733.901 2729.04L706.742 2779.15L756.78 2811.15L782.843 2761.56L733.901 2729.04ZM790.113 2766.39L764.12 2815.84L2833.53 4138.97C2872.63 4163.97 2924.8 4152.58 2949.89 4113.58L4467.97 1752.61C4478.04 1736.97 4482.56 1718.91 4481.02 1700.39L4481.03 1700.43C4478.84 1674.1 4464.84 1650.84 4442.58 1636.6L2157.7 175.71C2156.17 177.179 2154.67 178.698 2153.23 180.267L4321.51 1620.89C4344.64 1636.25 4359.16 1660.9 4361.48 1688.53C4363.14 1708.96 4358.03 1728.78 4346.61 1745.91L2831.05 4014.12C2817.69 4034.19 2797.24 4047.84 2773.58 4052.57C2749.91 4057.27 2725.78 4052.55 2705.72 4039.19L790.113 2766.39ZM2145.9 175.399C2147.29 173.856 2148.71 172.356 2150.18 170.9L2135.38 161.436C2133.76 162.657 2132.17 163.929 2130.63 165.251L2145.9 175.399ZM2123.17 160.295C2124.63 158.986 2126.12 157.719 2127.65 156.495L2114.45 148.058C2112.74 149.031 2111.05 150.059 2109.39 151.141L2123.17 160.295ZM2101.6 145.959C2103.13 144.874 2104.7 143.833 2106.29 142.837L2095.03 135.641C2093.18 136.362 2091.36 137.139 2089.57 137.973L2101.6 145.959ZM2081.25 132.441C2082.87 131.581 2084.52 130.764 2086.2 129.992L2078.03 124.768C2076.7 125.042 2075.38 125.346 2074.05 125.682C2073.34 125.861 2072.63 126.049 2071.92 126.245L2081.25 132.441ZM2062.7 120.115C2064.21 119.574 2065.75 119.069 2067.29 118.6C2065.84 117.896 2064.37 117.235 2062.89 116.618C2061.16 116.628 2059.43 116.69 2057.71 116.802L2062.7 120.115ZM456.115 2663.91C455.191 2652.81 456.4 2641.84 459.63 2631.43C460.51 2632.03 461.403 2632.63 462.308 2633.2L513.836 2666.15L488.564 2708.4C486.403 2712.02 484.489 2715.75 482.827 2719.56C467.57 2705.05 457.886 2685.22 456.115 2663.91ZM496.026 2712.88L521.173 2670.84L575.953 2705.86L544.724 2759.88L496.945 2730.44C494.457 2728.91 492.061 2727.25 489.762 2725.49C491.502 2721.16 493.593 2716.95 496.026 2712.88ZM552.104 2764.43L583.262 2710.54L636.383 2744.5L606.486 2797.94L552.104 2764.43ZM613.863 2802.49L643.69 2749.17L695.275 2782.15L666.631 2835.01L613.863 2802.49ZM674.008 2839.55L702.583 2786.83L752.715 2818.88L725.252 2871.13L674.008 2839.55ZM732.66 2875.69L760.056 2823.57L2828.83 4146.27C2871.96 4173.8 2929.52 4161.26 2957.18 4118.23L4475.26 1757.27C4486.39 1739.99 4491.38 1720.1 4489.67 1699.68C4487.26 1670.64 4471.8 1644.99 4447.23 1629.27L2164.51 169.787C2165.94 168.653 2167.4 167.558 2168.89 166.504L4568.32 1645.1C4591.63 1659.47 4606.88 1684.34 4609.15 1711.63C4610.69 1730.15 4606.3 1748.35 4596.49 1764.19L3075.81 4217.91C3063.67 4237.55 3044.5 4251.3 3021.96 4256.63C2999.45 4261.95 2976.17 4258.2 2956.45 4246.03L732.66 2875.69ZM2160.9 161.583C2159.51 162.641 2158.14 163.733 2156.8 164.858L2143.17 156.148C2144.69 155.226 2146.23 154.345 2147.8 153.505L2160.9 161.583ZM2139.4 148.333C2137.96 149.195 2136.54 150.089 2135.15 151.017L2123.48 143.555C2125.11 142.846 2126.76 142.184 2128.42 141.568L2139.4 148.333ZM2119.28 135.933C2117.78 136.597 2116.3 137.296 2114.84 138.031L2105.72 132.202C2107.55 131.732 2109.38 131.319 2111.22 130.963L2119.28 135.933ZM2100.11 124.781C2098.76 125.177 2097.42 125.6 2096.1 126.049L2091.39 123.037C2092.87 122.958 2094.34 122.916 2095.82 122.911C2097.26 123.493 2098.69 124.116 2100.11 124.781ZM486.815 2734.07C483.88 2744.29 482.815 2754.99 483.714 2765.78C485.477 2787.15 494.942 2806.98 509.907 2821.79C511.583 2817.77 513.531 2813.84 515.745 2810.01L540.398 2767.37L492.41 2737.8C490.495 2736.62 488.629 2735.37 486.815 2734.07ZM547.779 2771.91L523.231 2814.37C520.705 2818.75 518.556 2823.29 516.796 2827.94C519.997 2830.51 523.392 2832.87 526.966 2835L571.076 2861.24L602.265 2805.49L547.779 2771.91ZM609.642 2810.03L578.52 2865.67L632.587 2897.82L662.509 2842.61L609.642 2810.03ZM669.886 2847.16L640.029 2902.25L692.493 2933.45L721.224 2878.79L669.886 2847.16ZM728.632 2883.36L699.964 2937.89L3079.45 4353.08C3099.94 4365.23 3123.95 4368.73 3147.05 4362.91C3170.19 4357.09 3189.65 4342.6 3201.88 4322.18L4725.08 1775.75C4734.68 1759.71 4738.94 1741.41 4737.39 1722.85L4737.35 1722.82C4734.99 1694.16 4718.8 1668.29 4694.1 1653.6L2181.25 159.062C2179.81 159.792 2178.39 160.555 2177 161.351L4572.89 1637.74C4598.54 1653.51 4615.3 1680.89 4617.8 1710.88C4619.5 1731.27 4614.68 1751.25 4603.87 1768.68L3083.19 4222.36C3069.8 4244.01 3048.73 4259.12 3023.94 4264.97C2999.11 4270.81 2973.52 4266.7 2951.87 4253.31L728.632 2883.36ZM2168.67 156.218C2169.95 155.416 2171.24 154.64 2172.56 153.891L2161.67 147.413C2160.14 147.946 2158.64 148.515 2157.15 149.119L2168.67 156.218ZM2148.22 143.618C2149.55 142.988 2150.89 142.384 2152.24 141.807L2144.46 137.182C2142.79 137.486 2141.13 137.835 2139.47 138.228L2148.22 143.618ZM2129.44 132.047C2130.62 131.667 2131.8 131.307 2132.99 130.968C2131.69 130.372 2130.37 129.808 2129.05 129.277C2127.72 129.272 2126.39 129.296 2125.07 129.349L2129.44 132.047ZM511.232 2867.62C510.358 2857.14 511.302 2846.72 513.972 2836.71C516.69 2838.74 519.526 2840.64 522.473 2842.39L566.854 2868.79L542.889 2911.62C540.627 2915.65 538.652 2919.8 536.967 2924.04C522.267 2908.97 513.02 2889.09 511.232 2867.62ZM550.436 2915.87L574.297 2873.21L628.464 2905.43L597.386 2962.77L556.901 2939.5C552.245 2936.83 547.878 2933.77 543.83 2930.39C545.605 2925.41 547.81 2920.55 550.436 2915.87ZM604.889 2967.08L635.905 2909.86L688.465 2941.12L658.59 2997.95L604.889 2967.08ZM666.121 3002.28L695.935 2945.56L3074.96 4360.51C3097.41 4373.87 3123.74 4377.69 3149.11 4371.28C3174.49 4364.9 3195.85 4349.02 3209.26 4326.6L4732.46 1780.17C4742.97 1762.55 4747.66 1742.46 4745.97 1722.11C4743.37 1690.71 4725.63 1662.34 4698.52 1646.22L2190.9 154.796C2192.24 154.284 2193.6 153.799 2194.97 153.342L4819.92 1662.12C4846.01 1677.15 4863.09 1704.02 4865.59 1734.01L4865.56 1734.05C4867.07 1752.65 4862.93 1771.05 4853.56 1787.29L3327.8 4426.48C3302.51 4470.24 3246.23 4485.31 3202.36 4460.11L666.121 3002.28ZM2185.21 147.73C2184 148.224 2182.8 148.74 2181.62 149.275L2173.05 144.177C2174.53 143.849 2176.01 143.557 2177.5 143.3L2185.21 147.73ZM2163.69 137.684C2163.35 137.787 2163 137.892 2162.66 137.998L2158.77 135.686C2159.91 135.654 2161.05 135.642 2162.2 135.651C2163.37 136.113 2164.53 136.599 2165.69 137.11C2165.02 137.295 2164.36 137.486 2163.69 137.684ZM541.15 2939.29C538.723 2949.1 537.9 2959.26 538.751 2969.45C540.535 2991.04 549.603 3010.96 564.061 3026.28C565.745 3021.83 567.738 3017.47 570.033 3013.24L593.281 2970.35L552.57 2946.94C548.563 2944.64 544.75 2942.08 541.15 2939.29ZM600.784 2974.66L577.642 3017.36C574.936 3022.35 572.69 3027.53 570.914 3032.84C575.781 3037.05 581.119 3040.8 586.875 3043.99L623.641 3064.44L654.579 3005.58L600.784 2974.66ZM662.11 3009.91L631.228 3068.66L3325.28 4567.13C3347.32 4579.39 3372.8 4582.32 3397.08 4575.47C3421.36 4568.61 3441.48 4552.69 3453.79 4530.72L4982.11 1798.82C4991.27 1782.41 4995.32 1763.91 4993.8 1745.24C4991.2 1713.87 4973.22 1685.96 4945.7 1670.66L2210.69 149.46C2209.38 149.674 2208.07 149.914 2206.77 150.181L4824.21 1654.69C4852.8 1671.12 4871.47 1700.53 4874.17 1733.34C4875.83 1753.7 4871.34 1773.83 4861.04 1791.62L3335.28 4430.8C3307.58 4478.68 3245.99 4495.24 3198 4467.63L662.11 3009.91ZM2195.95 143.965L2192.35 141.895C2193.28 141.878 2194.22 141.876 2195.15 141.887C2196.27 142.318 2197.39 142.772 2198.5 143.25C2197.65 143.478 2196.8 143.716 2195.95 143.965ZM566.265 3071.26C565.46 3061.38 566.174 3051.52 568.355 3041.96C572.798 3045.51 577.568 3048.72 582.633 3051.54L619.612 3072.11L597.139 3114.86C594.819 3119.28 592.818 3123.83 591.141 3128.48C576.936 3112.93 568.049 3092.95 566.265 3071.26ZM604.847 3118.85L627.2 3076.33L3321.14 4574.63C3345.18 4587.98 3373.01 4591.23 3399.51 4583.71C3426.02 4576.22 3448.01 4558.87 3461.44 4534.87L4989.76 1802.98C4999.77 1785.07 5004.18 1764.83 5002.48 1744.48C4999.63 1710.22 4980.02 1679.78 4949.94 1663.07L2226.22 148.157C2226.89 148.154 2227.55 148.157 2228.22 148.167C2232.24 149.693 2236.19 151.494 2240.03 153.568L5071.45 1679.16C5100.42 1694.77 5119.34 1723.64 5122.03 1756.42L5122.04 1756.46C5123.6 1775.13 5119.65 1793.77 5110.66 1810.36L3579.79 4635C3554.36 4681.94 3495.35 4699.48 3448.27 4674.15L616.849 3148.48C609.972 3144.79 603.662 3140.34 598 3135.27C599.776 3129.64 602.062 3124.15 604.847 3118.85ZM595.553 3144.59C600.83 3148.94 606.574 3152.81 612.736 3156.13L3444.19 4681.79C3495.45 4709.41 3559.77 4690.27 3587.47 4639.11L5118.35 1814.46C5128.15 1796.39 5132.38 1776.06 5130.72 1755.7C5127.74 1720.04 5107.15 1688.57 5075.61 1671.58L2257.31 153.021C2262.61 154.749 2267.8 156.934 2272.84 159.573L5197.2 1687.73C5227.59 1703.59 5247.45 1733.5 5250.28 1767.65L5250.32 1767.64C5251.88 1786.35 5248.06 1805.13 5239.25 1821.88L3705.82 4739.25C3693.44 4762.77 3672.64 4780.08 3647.23 4788C3621.78 4795.93 3594.82 4793.5 3571.22 4781.17L646.832 3253.05C616.47 3237.15 596.62 3207.28 593.784 3173.09C592.981 3163.5 593.589 3153.91 595.553 3144.59Z" fill="white" fill-opacity="0.1"/>
</svg>
