<svg width="3016" height="1075" viewBox="0 0 3016 1075" fill="none" xmlns="http://www.w3.org/2000/svg">
<g style="mix-blend-mode:overlay">
<path d="M2965.05 8.83608L2941.64 1M2965.05 8.83608H2895.67M2965.05 8.83608L2989.24 16.9309M2965.05 8.83608H3014.19M2941.64 1L2950.16 1.00306L2958.59 1.02002L2966.84 1.06773L2974.84 1.16168L2982.49 1.31415L2989.71 1.54366L2996.42 1.86246L3002.65 2.26902L3007.99 2.83119L3012.85 3.48267L3014.19 3.71085V8.83608M2941.64 1H2873.37M2873.37 1H2805.1M2873.37 1L2895.67 8.83608M2805.1 1H2736.83M2805.1 1L2826.28 8.83608M2736.83 1H2668.56M2736.83 1L2756.9 8.83608M2668.56 1H2600.3M2668.56 1L2687.52 8.83608M2600.3 1H2532.03M2600.3 1L2618.13 8.83608M2532.03 1H2463.76M2532.03 1L2548.75 8.83608M2463.76 1H2395.49M2463.76 1L2479.37 8.83608M2395.49 1H2327.22M2395.49 1L2409.98 8.83608M2327.22 1H2258.95M2327.22 1L2340.6 8.83608M2258.95 1H2190.69M2258.95 1L2271.22 8.83608M2190.69 1H2122.42M2190.69 1L2201.83 8.83608M2122.42 1H2054.15M2122.42 1L2124.89 2.93591L2128.65 5.86677L2132.45 8.83608M2054.15 1H1985.88M2054.15 1L2056.35 2.93591L2063.07 8.83608M1985.88 1H1917.61M1985.88 1L1993.68 8.83608M1917.61 1H1849.34M1917.61 1L1920.09 3.90924L1922.61 6.85242L1923.45 7.84272L1924.3 8.83608M1849.34 1H1781.07M1849.34 1L1851.41 3.90924L1852.11 4.88568L1852.81 5.86677L1854.92 8.83608M1781.07 1H1712.81M1781.07 1L1785.53 8.83608M1712.81 1L1713.22 1.96563L1713.63 2.93591L1715.73 7.84272L1716.15 8.83608M1712.81 1H1644.54M1644.54 1H1576.27M1644.54 1L1646.77 8.83608M1576.27 1H1508M1576.27 1L1576.68 3.90924L1577.38 8.83608M1508 1H1439.73M1508 1V8.83608M1439.73 1H1371.46M1439.73 1L1439.32 3.90924L1438.62 8.83608M1371.46 1H1303.19M1371.46 1L1369.23 8.83608M1303.19 1L1302.78 1.96563L1302.37 2.93591L1300.27 7.84272L1299.85 8.83608M1303.19 1H1234.93M1234.93 1H1166.66M1234.93 1L1231.03 7.84272L1230.47 8.83608M1166.66 1H1098.39M1166.66 1L1164.59 3.90924L1163.89 4.88568L1162.49 6.85242L1161.79 7.84272L1161.08 8.83608M1098.39 1H1030.12M1098.39 1L1095.91 3.90924L1093.39 6.85242L1092.55 7.84272L1091.7 8.83608M1030.12 1H961.853M1030.12 1L1022.32 8.83608M961.853 1H893.583M961.853 1L959.65 2.93591L952.933 8.83608M893.583 1H825.315M893.583 1L883.55 8.83608M825.315 1H757.047M825.315 1L814.166 8.83608M757.047 1H688.778M757.047 1L744.783 8.83608M688.778 1H620.51M688.778 1L675.399 8.83608M620.51 1H552.242M620.51 1L606.016 8.83608M552.242 1H483.974M552.242 1L536.632 8.83608M483.974 1H415.704M483.974 1L467.249 8.83608M415.704 1H347.436M415.704 1L397.865 8.83608M347.436 1H279.168M347.436 1L328.482 8.83608M279.168 1H210.898M279.168 1L259.098 8.83608M210.898 1H142.63M210.898 1L189.716 8.83608M142.63 1H74.3624M142.63 1L120.333 8.83608M74.3624 1L65.843 1.00306L57.4115 1.02002L49.1557 1.06773L41.1588 1.16168L33.5086 1.31415L26.2867 1.54366L19.5795 1.86246L13.3539 2.26902L8.01163 2.83119L3.14789 3.48267L1.81115 3.7109V8.83608M74.3624 1L50.949 8.83608M189.716 8.83608H259.098M189.716 8.83608H120.333M189.716 8.83608L167.828 16.9309M259.098 8.83608L238.363 16.9309M259.098 8.83608H328.482M467.249 8.83608H536.632M467.249 8.83608H397.865M467.249 8.83608L462.983 10.8352L449.97 16.9309M536.632 8.83608L520.505 16.9309M536.632 8.83608H606.016M744.783 8.83608H814.166M744.783 8.83608H675.399M744.783 8.83608L741.654 10.8352L740.079 11.8393L732.11 16.9309M814.166 8.83608L812.746 9.83254L811.322 10.8352L802.647 16.9309M814.166 8.83608H883.55M1022.32 8.83608L1021.32 9.83254L1014.25 16.9309M1022.32 8.83608H1091.7M1022.32 8.83608H952.933M1091.7 8.83608L1089.99 10.8352L1089.13 11.8393L1088.27 12.8496L1084.79 16.9309M1091.7 8.83608H1161.08M1299.85 8.83608H1369.23M1299.85 8.83608H1230.47M1299.85 8.83608L1296.39 16.9309M1369.23 8.83608L1368.95 9.83254L1368.67 10.8352L1368.38 11.8393L1367.51 14.8811L1366.93 16.9309M1369.23 8.83608H1438.62M1577.38 8.83608H1646.77M1577.38 8.83608H1508M1577.38 8.83608L1578.54 16.9309M1646.77 8.83608L1647.05 9.83254L1647.33 10.8352L1647.62 11.8393L1649.07 16.9309M1646.77 8.83608H1716.15M1854.92 8.83608H1924.3M1854.92 8.83608H1785.53M1854.92 8.83608L1856.34 10.8352L1859.22 14.8811L1859.95 15.9037L1860.68 16.9309M1924.3 8.83608L1926.01 10.8352L1926.87 11.8393L1927.73 12.8496L1931.21 16.9309M1924.3 8.83608H1993.68M2132.45 8.83608H2201.83M2132.45 8.83608H2063.07M2132.45 8.83608L2135.01 10.8352L2136.3 11.8393L2142.82 16.9309M2201.83 8.83608L2203.25 9.83254L2204.68 10.8352L2213.35 16.9309M2201.83 8.83608H2271.22M2409.98 8.83608H2479.37M2409.98 8.83608H2340.6M2409.98 8.83608L2413.68 10.8352L2415.54 11.8393L2424.96 16.9309M2479.37 8.83608L2495.5 16.9309M2479.37 8.83608H2548.75M2687.52 8.83608H2756.9M2687.52 8.83608H2618.13M2687.52 8.83608L2707.1 16.9309M2756.9 8.83608L2777.64 16.9309M2756.9 8.83608H2826.28M1.56797 82.1148H1.81115M71.4033 82.1148L97.8934 71.7729M71.4033 82.1148L43.8981 92.8525M71.4033 82.1148H151.214M71.4033 82.1148H1.81115M97.8934 71.7729H19.5544M97.8934 71.7729L123.425 61.8053M97.8934 71.7729H176.233M19.5544 71.7729L46.5042 61.8053M19.5544 71.7729H1.81115M19.5544 71.7729L1.81115 78.334M97.5765 42.9142H171.81M97.5765 42.9142L121.798 33.9554M97.5765 42.9142H23.3449M97.5765 42.9142L72.4938 52.1919M171.81 42.9142L194.757 33.9554M171.81 42.9142L148.048 52.1919M171.81 42.9142H246.043M121.798 33.9554H194.757M121.798 33.9554L145.202 25.2999M121.798 33.9554H48.8403M194.757 33.9554H267.715M194.757 33.9554L216.928 25.2999M1.04708 245.352H1.81115M65.446 245.352L99.6052 228.205M65.446 245.352L29.5893 263.351M65.446 245.352H168.487M65.446 245.352H1.81115M99.6052 228.205L132.184 211.853M99.6052 228.205H200.204M99.6052 228.205H1.81115M33.9118 211.853H132.184M33.9118 211.853L67.2394 196.239M33.9118 211.853H1.81115M33.9118 211.853L1.81115 226.891M99.0921 181.315H193.019M99.0921 181.315L129.567 167.038M99.0921 181.315H5.16556M99.0921 181.315L67.2394 196.239M193.019 181.315L221.464 167.038M193.019 181.315L163.289 196.239M193.019 181.315H286.947M129.567 167.038H221.464M129.567 167.038H37.6726M129.567 167.038L158.753 153.365M221.464 167.038L248.702 153.365M221.464 167.038H313.358M213.566 127.685H299.861M213.566 127.685L239.336 115.612M213.566 127.685H127.27M213.566 127.685L186.727 140.259M299.861 127.685L323.913 115.612M299.861 127.685L274.813 140.259M299.861 127.685H386.158M239.336 115.612H323.913M239.336 115.612H154.758M239.336 115.612L264.1 104.011M323.913 115.612L347.026 104.011M323.913 115.612H408.492M310.836 82.1148H390.646M310.836 82.1148L332.911 71.7729M310.836 82.1148H231.025M310.836 82.1148L287.915 92.8525M390.646 82.1148L411.25 71.7729M390.646 82.1148L369.254 92.8525M390.646 82.1148H470.457M332.911 71.7729H411.25M332.911 71.7729H254.572M332.911 71.7729L354.187 61.8053M411.25 71.7729L431.108 61.8053M411.25 71.7729H489.589M394.508 42.9142H468.741M394.508 42.9142L413.63 33.9554M394.508 42.9142H320.276M394.508 42.9142L374.706 52.1919M468.741 42.9142L486.587 33.9554M468.741 42.9142L450.258 52.1919M468.741 42.9142H542.974M413.63 33.9554H486.587M413.63 33.9554L432.107 25.2999M413.63 33.9554H340.672M486.587 33.9554H559.547M486.587 33.9554L503.833 25.2999M54.6015 542.615L102.677 508.83M54.6015 542.615L3.11809 578.794M54.6015 542.615H199.941M54.6015 542.615H1.81115M102.677 508.83L147.676 477.208M102.677 508.83H243.209M102.677 508.83H1.81115M101.701 419.673H229.547M101.701 419.673L142.784 393.428M101.701 419.673L58.0689 447.549M101.701 419.673H1.81115M229.547 419.673L266.894 393.428M229.547 419.673L189.881 447.549M229.547 419.673H357.393M142.784 393.428H266.894M142.784 393.428H18.6742M142.784 393.428L181.536 368.67M266.894 393.428L302.123 368.67M266.894 393.428H391.006M252.791 323.147H366.902M252.791 323.147L285.624 302.173M252.791 323.147H138.681M252.791 323.147L218.147 345.282M366.902 323.147L396.75 302.173M366.902 323.147L335.405 345.282M366.902 323.147H481.011M285.624 302.173H396.75M285.624 302.173H174.499M285.624 302.173L316.782 282.267M396.75 302.173L425.075 282.267M396.75 302.173H507.873M374.565 245.352H477.605M374.565 245.352L401.405 228.205M374.565 245.352H271.526M374.565 245.352L346.393 263.351M477.605 245.352L502.004 228.205M477.605 245.352L451.992 263.351M477.605 245.352H580.644M401.405 228.205H502.004M401.405 228.205H300.805M401.405 228.205L427.002 211.853M502.004 228.205L525.275 211.853M502.004 228.205H602.603M474.802 181.315H568.728M474.802 181.315L497.15 167.038M474.802 181.315H380.873M474.802 181.315L451.441 196.239M568.728 181.315L589.046 167.038M568.728 181.315L547.492 196.239M568.728 181.315H662.655M497.15 167.038H589.046M497.15 167.038H405.255M497.15 167.038L518.552 153.365M589.046 167.038L608.502 153.365M589.046 167.038H680.941M558.748 127.685H645.043M558.748 127.685L577.646 115.612M558.748 127.685H472.453M558.748 127.685L539.067 140.259M645.043 127.685L647.23 126.15L662.223 115.612M645.043 127.685L627.153 140.259M645.043 127.685H731.34M577.646 115.612H662.223M577.646 115.612H493.069M577.646 115.612L595.807 104.011M662.223 115.612L678.733 104.011M662.223 115.612H746.802M630.079 82.1148H709.891M630.079 82.1148L646.269 71.7729M630.079 82.1148H550.268M630.079 82.1148L613.27 92.8525M709.891 82.1148L724.608 71.7729M709.891 82.1148L704.229 86.0944L694.609 92.8525M709.891 82.1148H789.702M646.269 71.7729H724.608M646.269 71.7729H567.929M646.269 71.7729L661.87 61.8053M724.608 71.7729L738.791 61.8053M724.608 71.7729H802.947M691.438 42.9142H765.672M691.438 42.9142L705.462 33.9554M691.438 42.9142H617.207M691.438 42.9142L676.918 52.1919M765.672 42.9142L775.275 36.167L776.85 35.0581L778.421 33.9554M765.672 42.9142L752.471 52.1919M765.672 42.9142H839.905M705.462 33.9554H778.421M705.462 33.9554L719.011 25.2999M705.462 33.9554H632.504M778.421 33.9554H851.379M778.421 33.9554L790.737 25.2999M107.26 927.478H307.367M107.26 927.478L170.269 864.222M107.26 927.478L38.0224 996.988M107.26 927.478L1.81115 927.479M307.367 927.478L361.375 864.222M307.367 927.478L248.02 996.988M307.367 927.478H507.472M170.269 864.222H361.375M170.269 864.222L227.854 806.413M170.269 864.222H1.81115M361.375 864.222L410.732 806.413M361.375 864.222H552.479M329.329 704.54H497.711M329.329 704.54L374.263 659.429M329.329 704.54H160.948M329.329 704.54L280.685 753.374M497.711 704.54L536.226 659.429M497.711 704.54L456.017 753.374M497.711 704.54H666.092M374.263 659.429H536.226M374.263 659.429H212.301M374.263 659.429L415.899 617.631M536.226 659.429L571.913 617.631M536.226 659.429H698.188M490.621 542.615H635.961M490.621 542.615L524.275 508.83M490.621 542.615H345.28M490.621 542.615L454.583 578.794M635.961 542.615L664.807 508.83M635.961 542.615L605.071 578.794M635.961 542.615H781.3M524.275 508.83H664.807M524.275 508.83H383.741M524.275 508.83L555.773 477.208M664.807 508.83L691.806 477.208M664.807 508.83H805.339M613.082 419.673H740.928M613.082 419.673L639.227 393.428M613.082 419.673H485.238M613.082 419.673L585.317 447.549M740.928 419.673L763.337 393.428M740.928 419.673L717.128 447.549M740.928 419.673H868.773M639.227 393.428H763.337M639.227 393.428H515.116M639.227 393.428L663.886 368.67M763.337 393.428L784.474 368.67M763.337 393.428H887.447M709.23 323.147H823.341M709.23 323.147L730.124 302.173M709.23 323.147H595.121M709.23 323.147L687.184 345.282M823.341 323.147L841.249 302.173M823.341 323.147L804.443 345.282M823.341 323.147H937.451M730.124 302.173H841.249M730.124 302.173H618.999M730.124 302.173L749.952 282.267M841.249 302.173L858.244 282.267M841.249 302.173H952.375M786.724 245.352H889.763M786.724 245.352L803.803 228.205M786.724 245.352H683.683M786.724 245.352L768.795 263.351M889.763 245.352L904.403 228.205M889.763 245.352L874.395 263.351M889.763 245.352H992.802M803.803 228.205H904.403M803.803 228.205H703.202M803.803 228.205L820.092 211.853M904.403 228.205L918.365 211.853M904.403 228.205H1005M850.509 181.315H944.438M850.509 181.315L864.732 167.038M850.509 181.315H756.583M850.509 181.315L835.645 196.239M944.438 181.315L956.627 167.038M944.438 181.315L931.696 196.239M944.438 181.315H1038.36M864.732 167.038H956.627M864.732 167.038H772.835M864.732 167.038L878.352 153.365M956.627 167.038L968.301 153.365M956.627 167.038H1048.52M903.93 127.685H990.227M903.93 127.685L915.956 115.612M903.93 127.685H817.635M903.93 127.685L891.406 140.259M990.227 127.685L988.908 129.228L979.491 140.259M990.227 127.685L1000.53 115.612M990.227 127.685H1076.52M915.956 115.612H1000.53M915.956 115.612H831.379M915.956 115.612L927.513 104.011M1000.53 115.612L1010.44 104.011M1000.53 115.612H1085.11M949.323 82.1148H1029.13M949.323 82.1148L959.625 71.7729M949.323 82.1148H869.512M949.323 82.1148L938.628 92.8525M1029.13 82.1148L1037.96 71.7729M1029.13 82.1148L1025.74 86.0944L1023.44 88.7789L1019.97 92.8525M1029.13 82.1148H1108.94M959.625 71.7729H1037.96M959.625 71.7729H881.286M959.625 71.7729L969.553 61.8053M1037.96 71.7729L1041.19 67.9919L1043.32 65.5L1046.48 61.8053M1037.96 71.7729H1116.3M988.371 42.9142H1062.6M988.371 42.9142L995.093 36.167L997.294 33.9554M988.371 42.9142H914.138M988.371 42.9142L980.302 51.0137L979.13 52.1919M1062.6 42.9142L1068.37 36.167L1069.31 35.0581L1070.25 33.9554M1062.6 42.9142L1058.68 47.5115L1054.68 52.1919M1062.6 42.9142H1136.84M997.294 33.9554H1070.25M997.294 33.9554L1005.92 25.2999M997.294 33.9554H924.336M1070.25 33.9554H1143.21M1070.25 33.9554L1077.64 25.2999M907.683 927.478H1107.79M907.683 927.478L934.686 864.222M907.683 927.478H707.578M907.683 927.478L878.01 996.988M1107.79 927.478L1125.79 864.222M1107.79 927.478L1088.01 996.988M1107.79 927.478H1307.89M934.686 864.222H1125.79M934.686 864.222H743.582M934.686 864.222L959.366 806.413M1125.79 864.222L1142.24 806.413M1125.79 864.222H1316.9M1002.86 704.54H1171.24M1002.86 704.54L1022.11 659.429M1002.86 704.54H834.473M1002.86 704.54L982.007 753.374M1171.24 704.54L1184.08 659.429M1171.24 704.54L1157.34 753.374M1171.24 704.54H1339.62M1022.11 659.429H1184.08M1022.11 659.429H860.151M1022.11 659.429L1039.96 617.631M1184.08 659.429L1195.97 617.631M1184.08 659.429H1346.04M1071.98 542.615H1217.32M1071.98 542.615L1086.4 508.83M1071.98 542.615H926.641M1071.98 542.615L1056.54 578.794M1217.32 542.615L1226.94 508.83M1217.32 542.615L1207.02 578.794M1217.32 542.615H1362.66M1086.4 508.83H1226.94M1086.4 508.83H945.872M1086.4 508.83L1099.9 477.208M1226.94 508.83L1235.94 477.208M1226.94 508.83H1367.47M1124.46 419.673H1252.31M1124.46 419.673L1135.67 393.428M1124.46 419.673H996.619M1124.46 419.673L1112.56 447.549M1252.31 419.673L1259.78 393.428M1252.31 419.673L1244.38 447.549M1252.31 419.673H1380.15M1135.67 393.428H1259.78M1135.67 393.428H1011.56M1135.67 393.428L1146.24 368.67M1259.78 393.428L1266.82 368.67M1259.78 393.428H1383.89M1165.67 323.147H1279.78M1165.67 323.147L1174.62 302.173M1165.67 323.147H1051.56M1165.67 323.147L1156.22 345.282M1279.78 323.147L1285.75 302.173M1279.78 323.147L1273.48 345.282M1279.78 323.147H1393.89M1174.62 302.173H1285.75M1174.62 302.173H1063.5M1174.62 302.173L1183.12 282.267M1285.75 302.173L1291.41 282.267M1285.75 302.173H1396.87M1198.88 245.352H1301.92M1198.88 245.352L1206.2 228.205M1198.88 245.352H1095.84M1198.88 245.352L1191.2 263.351M1301.92 245.352L1306.8 228.205M1301.92 245.352L1296.8 263.351M1301.92 245.352H1404.96M1206.2 228.205H1306.8M1206.2 228.205H1105.6M1206.2 228.205L1208.86 221.983L1213.18 211.853M1306.8 228.205L1311.45 211.853M1306.8 228.205H1407.4M1226.22 181.315H1320.15M1226.22 181.315L1232.31 167.038M1226.22 181.315H1132.29M1226.22 181.315L1221.47 192.446L1219.85 196.239M1320.15 181.315L1321.69 175.888L1324.21 167.038M1320.15 181.315L1315.9 196.239M1320.15 181.315H1414.07M1232.31 167.038L1233.06 165.296L1238.15 153.365M1232.31 167.038H1324.21M1232.31 167.038H1140.42M1324.21 167.038L1325.69 161.842L1326.17 160.128L1326.66 158.424L1328.1 153.365M1324.21 167.038H1416.11M1249.11 127.685H1335.41M1249.11 127.685L1251.72 121.588L1252.36 120.083L1253 118.585L1253.63 117.095L1254.27 115.612M1249.11 127.685H1162.82M1249.11 127.685L1243.75 140.259M1335.41 127.685L1338 118.585L1338.42 117.095L1338.84 115.612M1335.41 127.685L1331.83 140.259M1335.41 127.685H1421.7M1254.27 115.612H1338.84M1254.27 115.612H1169.69M1254.27 115.612L1257.39 108.308L1258 106.868L1259.22 104.011M1338.84 115.612L1340.92 108.308L1341.33 106.868L1341.74 105.435L1342.15 104.011M1338.84 115.612H1423.42M1268.57 82.1148H1348.38M1268.57 82.1148L1272.98 71.7729M1268.57 82.1148H1188.76M1268.57 82.1148L1267.44 84.7607L1265.72 88.7789L1263.98 92.8525M1348.38 82.1148L1348 83.4347L1345.71 91.4879L1345.32 92.8525M1348.38 82.1148L1351.32 71.7729M1348.38 82.1148H1428.19M1272.98 71.7729H1351.32M1272.98 71.7729H1194.64M1272.98 71.7729L1277.24 61.8053M1351.32 71.7729L1352.4 67.9919L1352.75 66.7429L1353.11 65.5L1354.16 61.8053M1351.32 71.7729H1429.66M1285.3 42.9142H1359.53M1285.3 42.9142L1288.18 36.167L1289.13 33.9554M1285.3 42.9142H1211.07M1285.3 42.9142L1283.83 46.3548L1283.34 47.5115L1282.84 48.6743L1281.34 52.1919M1359.53 42.9142L1359.86 41.7776L1360.5 39.5183L1361.14 37.279L1362.08 33.9554M1359.53 42.9142L1358.23 47.5115L1357.9 48.6743L1357.23 51.0137L1356.89 52.1919M1359.53 42.9142H1433.77M1289.13 33.9554H1362.08M1289.13 33.9554L1292.37 26.3657L1292.82 25.2999M1289.13 33.9554H1216.17M1362.08 33.9554L1362.4 32.8573L1362.71 31.7638L1363.02 30.6749L1363.33 29.5907L1364.24 26.3657L1364.55 25.2999M1362.08 33.9554H1435.04M1708.11 927.478H1908.21M1708.11 927.478L1699.1 864.222M1708.11 927.478H1508M1708.11 927.478L1718 996.988M1908.21 927.478L1890.21 864.222M1908.21 927.478L1927.99 996.988M1908.21 927.478H2108.32M1699.1 864.222H1890.21M1699.1 864.222H1508M1699.1 864.222L1690.88 806.413M1890.21 864.222L1873.76 806.413M1890.21 864.222H2081.31M1676.38 704.54H1844.76M1676.38 704.54L1669.96 659.429M1676.38 704.54H1508M1676.38 704.54L1683.33 753.374M1844.76 704.54L1831.92 659.429M1844.76 704.54L1858.66 753.374M1844.76 704.54H2013.14M1669.96 659.429H1831.92M1669.96 659.429H1508M1669.96 659.429L1664.01 617.631M1831.92 659.429L1820.03 617.631M1831.92 659.429H1993.89M1653.34 542.615H1798.68M1653.34 542.615L1648.53 508.83M1653.34 542.615H1508M1653.34 542.615L1658.49 578.794M1798.68 542.615L1789.06 508.83M1798.68 542.615L1808.98 578.794M1798.68 542.615H1944.02M1648.53 508.83H1789.06M1648.53 508.83H1508M1648.53 508.83L1644.03 477.208M1789.06 508.83L1780.06 477.208M1789.06 508.83H1929.6M1635.85 419.673H1763.69M1635.85 419.673L1632.11 393.428M1635.85 419.673H1508M1635.85 419.673L1639.81 447.549M1763.69 419.673L1756.22 393.428M1763.69 419.673L1771.62 447.549M1763.69 419.673H1891.54M1632.11 393.428H1756.22M1632.11 393.428H1508M1632.11 393.428L1628.59 368.67M1756.22 393.428L1749.18 368.67M1756.22 393.428H1880.33M1622.11 323.147H1736.22M1622.11 323.147L1619.13 302.173M1622.11 323.147H1508M1622.11 323.147L1625.26 345.282M1736.22 323.147L1730.25 302.173M1736.22 323.147L1742.52 345.282M1736.22 323.147H1850.33M1619.13 302.173H1730.25M1619.13 302.173H1508M1619.13 302.173L1616.29 282.267M1730.25 302.173L1724.59 282.267M1730.25 302.173H1841.38M1611.04 245.352H1714.08M1611.04 245.352L1608.6 228.205M1611.04 245.352H1508M1611.04 245.352L1613.6 263.351M1714.08 245.352L1709.2 228.205M1714.08 245.352L1719.2 263.351M1714.08 245.352H1817.12M1608.6 228.205H1709.2M1608.6 228.205H1508M1608.6 228.205L1606.27 211.853M1709.2 228.205L1704.54 211.853M1709.2 228.205H1809.8M1601.93 181.315H1695.85M1601.93 181.315L1599.89 167.038M1601.93 181.315H1508M1601.93 181.315L1604.05 196.239M1695.85 181.315L1692.29 168.789L1691.79 167.038M1695.85 181.315L1700.1 196.239M1695.85 181.315H1789.78M1599.89 167.038L1599.65 165.296L1597.95 153.365M1599.89 167.038H1691.79M1599.89 167.038H1508M1691.79 167.038L1690.31 161.842L1689.83 160.128L1689.34 158.424L1687.9 153.365M1691.79 167.038H1783.69M1594.3 127.685H1680.59M1594.3 127.685L1592.58 115.612M1594.3 127.685H1508M1594.3 127.685L1594.96 132.339L1595.18 133.907L1595.4 135.483L1595.86 138.659L1596.09 140.259M1680.59 127.685L1678 118.585L1677.15 115.612M1680.59 127.685L1684.17 140.259M1680.59 127.685H1766.89M1592.58 115.612H1677.15M1592.58 115.612H1508M1592.58 115.612L1590.93 104.011M1677.15 115.612L1675.08 108.308L1674.67 106.868L1674.26 105.435L1673.85 104.011M1677.15 115.612H1761.73M1587.81 82.1148H1667.62M1587.81 82.1148L1586.34 71.7729M1587.81 82.1148H1508M1587.81 82.1148L1589.34 92.8525M1667.62 82.1148L1668 83.4347L1670.29 91.4879L1670.68 92.8525M1667.62 82.1148L1664.68 71.7729M1667.62 82.1148H1747.43M1586.34 71.7729H1664.68M1586.34 71.7729H1508M1586.34 71.7729L1584.92 61.8053M1664.68 71.7729L1663.6 67.9919L1663.25 66.7429L1662.89 65.5L1661.84 61.8053M1664.68 71.7729H1743.02M1582.23 42.9142H1656.47M1582.23 42.9142L1580.96 33.9554M1582.23 42.9142H1508M1582.23 42.9142L1583.55 52.1919M1656.47 42.9142L1656.14 41.7776L1655.5 39.5183L1655.18 38.3955L1654.54 36.167L1654.23 35.0581L1653.92 33.9554M1656.47 42.9142L1657.77 47.5115L1658.1 48.6743L1658.77 51.0137L1659.11 52.1919M1656.47 42.9142H1730.7M1580.96 33.9554L1580.8 32.8573L1580.65 31.7638L1580.49 30.6749L1579.73 25.2999M1580.96 33.9554H1653.92M1580.96 33.9554H1508M1653.92 33.9554H1726.87M1653.92 33.9554L1653.29 31.7638L1652.98 30.6749L1652.67 29.5907L1651.76 26.3657L1651.45 25.2999M2508.53 927.478H2708.63M2508.53 927.478L2463.52 864.222M2508.53 927.478H2308.42M2508.53 927.478L2557.98 996.988M2708.63 927.478L2654.63 864.222M2708.63 927.478L2767.98 996.988M2708.63 927.478H2908.74M2463.52 864.222H2654.63M2463.52 864.222H2272.42M2463.52 864.222L2422.39 806.413M2654.63 864.222L2605.27 806.413M2654.63 864.222H2845.73M2349.91 704.54H2518.29M2349.91 704.54L2317.81 659.429M2349.91 704.54H2181.53M2349.91 704.54L2384.65 753.374M2518.29 704.54L2479.77 659.429M2518.29 704.54L2559.98 753.374M2518.29 704.54H2686.67M2317.81 659.429H2479.77M2317.81 659.429H2155.85M2317.81 659.429L2288.07 617.631M2479.77 659.429L2444.09 617.631M2479.77 659.429H2641.74M2234.7 542.615H2380.04M2234.7 542.615L2210.66 508.83M2234.7 542.615H2089.36M2234.7 542.615L2260.44 578.794M2380.04 542.615L2351.19 508.83M2380.04 542.615L2410.93 578.794M2380.04 542.615H2525.38M2210.66 508.83H2351.19M2210.66 508.83H2070.13M2210.66 508.83L2188.16 477.208M2351.19 508.83L2324.19 477.208M2351.19 508.83H2491.72M2147.23 419.673H2275.07M2147.23 419.673L2128.55 393.428M2147.23 419.673H2019.38M2147.23 419.673L2167.06 447.549M2275.07 419.673L2252.66 393.428M2275.07 419.673L2298.87 447.549M2275.07 419.673H2402.92M2128.55 393.428H2252.66M2128.55 393.428H2004.44M2128.55 393.428L2110.94 368.67M2252.66 393.428L2231.53 368.67M2252.66 393.428H2376.77M2078.55 323.147H2192.66M2078.55 323.147L2063.63 302.173M2078.55 323.147H1964.44M2078.55 323.147L2094.3 345.282M2192.66 323.147L2174.75 302.173M2192.66 323.147L2211.56 345.282M2192.66 323.147H2306.77M2063.63 302.173H2174.75M2063.63 302.173H1952.5M2063.63 302.173L2049.46 282.267M2174.75 302.173L2157.76 282.267M2174.75 302.173H2285.88M2023.2 245.352H2126.24M2023.2 245.352L2011 228.205M2023.2 245.352H1920.16M2023.2 245.352L2036 263.351M2126.24 245.352L2111.6 228.205M2126.24 245.352L2141.6 263.351M2126.24 245.352H2229.28M2011 228.205H2111.6M2011 228.205H1910.4M2011 228.205L1999.36 211.853M2111.6 228.205L2097.64 211.853M2111.6 228.205H2212.2M1977.64 181.315L1978.94 183.145L1980.25 184.984L1988.25 196.239M1977.64 181.315H2071.56M1977.64 181.315L1967.48 167.038M1977.64 181.315H1883.71M2071.56 181.315L2059.37 167.038M2071.56 181.315L2084.3 196.239M2071.56 181.315H2165.49M1967.48 167.038H2059.37M1967.48 167.038H1875.58M1967.48 167.038L1957.75 153.365M2059.37 167.038L2047.7 153.365M2059.37 167.038H2151.27M1939.48 127.685H2025.77M1939.48 127.685L1930.89 115.612M1939.48 127.685H1853.18M1939.48 127.685L1948.42 140.259M2025.77 127.685L2019.28 120.083L2015.47 115.612M2025.77 127.685L2036.51 140.259M2025.77 127.685H2112.07M1930.89 115.612H2015.47M1930.89 115.612H1846.31M1930.89 115.612L1923.65 105.435L1922.63 104.011M2015.47 115.612L2005.56 104.011M2015.47 115.612H2100.04M1907.06 82.1148H1986.87M1907.06 82.1148L1905.19 79.492L1899.7 71.7729M1907.06 82.1148H1827.24M1907.06 82.1148L1908.94 84.7607L1912.76 90.1295L1914.69 92.8525M1986.87 82.1148L1978.04 71.7729M1986.87 82.1148L1990.26 86.0944L1992.55 88.7789L1996.03 92.8525M1986.87 82.1148H2066.68M1899.7 71.7729H1978.04M1899.7 71.7729H1821.36M1899.7 71.7729L1894.35 64.2618L1892.6 61.8053M1978.04 71.7729L1974.81 67.9919L1972.68 65.5L1969.52 61.8053M1978.04 71.7729H2056.37M1879.16 42.9142H1953.4M1879.16 42.9142L1875.15 37.279L1872.79 33.9554M1879.16 42.9142H1804.93M1879.16 42.9142L1885.76 52.1919M1953.4 42.9142L1947.63 36.167L1946.69 35.0581L1945.75 33.9554M1953.4 42.9142L1957.32 47.5115L1961.32 52.1919M1953.4 42.9142H2027.63M1872.79 33.9554H1945.75M1872.79 33.9554L1869.68 29.5907L1868.15 27.436L1867.39 26.3657L1866.63 25.2999M1872.79 33.9554H1799.83M1945.75 33.9554H2018.71M1945.75 33.9554L1938.36 25.2999M2965.66 659.429H2803.7M2965.66 659.429L2912.13 617.631M2965.66 659.429H3014.19M2965.66 659.429L3014.19 697.321M2816.06 542.615H2961.4M2816.06 542.615L2772.79 508.83M2816.06 542.615H2670.72M2816.06 542.615L2862.39 578.794M2961.4 542.615L2913.32 508.83M2961.4 542.615L3012.88 578.794M2961.4 542.615H3014.19M2772.79 508.83H2913.32M2772.79 508.83H2632.26M2772.79 508.83L2732.29 477.208M2913.32 508.83L2868.32 477.208M2913.32 508.83H3014.19M2658.61 419.673H2786.45M2658.61 419.673L2624.99 393.428M2658.61 419.673H2530.76M2658.61 419.673L2694.31 447.549M2786.45 419.673L2749.11 393.428M2786.45 419.673L2826.12 447.549M2786.45 419.673H2914.3M2624.99 393.428H2749.11M2624.99 393.428H2500.88M2624.99 393.428L2593.29 368.67M2749.11 393.428L2713.88 368.67M2749.11 393.428H2873.22M2534.99 323.147H2649.1M2534.99 323.147L2508.13 302.173M2534.99 323.147H2420.88M2534.99 323.147L2563.33 345.282M2649.1 323.147L2619.25 302.173M2649.1 323.147L2680.59 345.282M2649.1 323.147H2763.21M2508.13 302.173H2619.25M2508.13 302.173H2397M2508.13 302.173L2482.63 282.267M2619.25 302.173L2590.92 282.267M2619.25 302.173H2730.38M2435.36 245.352H2538.39M2435.36 245.352L2413.4 228.205M2435.36 245.352H2332.32M2435.36 245.352L2458.41 263.351M2538.39 245.352L2514 228.205M2538.39 245.352L2564.01 263.351M2538.39 245.352H2641.43M2413.4 228.205H2514M2413.4 228.205H2312.8M2413.4 228.205L2392.45 211.853M2514 228.205L2490.73 211.853M2514 228.205H2614.6M2353.35 181.315H2447.27M2353.35 181.315L2335.06 167.038M2353.35 181.315H2259.42M2353.35 181.315L2372.46 196.239M2447.27 181.315L2426.95 167.038M2447.27 181.315L2468.51 196.239M2447.27 181.315H2541.2M2335.06 167.038H2426.95M2335.06 167.038H2243.16M2335.06 167.038L2317.55 153.365M2426.95 167.038L2407.5 153.365M2426.95 167.038H2518.85M2284.66 127.685H2370.96M2284.66 127.685L2269.2 115.612M2284.66 127.685H2198.36M2284.66 127.685L2300.76 140.259M2370.96 127.685L2353.78 115.612M2370.96 127.685L2388.85 140.259M2370.96 127.685H2457.25M2269.2 115.612H2353.78M2269.2 115.612H2184.62M2269.2 115.612L2254.34 104.011M2353.78 115.612L2337.27 104.011M2353.78 115.612H2438.35M2226.3 82.1148H2306.11M2226.3 82.1148L2213.05 71.7729M2226.3 82.1148H2146.49M2226.3 82.1148L2229.69 84.7607L2231.39 86.0944L2240.05 92.8525M2306.11 82.1148L2291.39 71.7729M2306.11 82.1148L2321.39 92.8525M2306.11 82.1148H2385.92M2213.05 71.7729H2291.39M2213.05 71.7729H2134.71M2213.05 71.7729L2200.29 61.8053M2291.39 71.7729L2277.21 61.8053M2291.39 71.7729H2369.73M2176.1 42.9142H2250.33M2176.1 42.9142L2164.62 33.9554M2176.1 42.9142H2101.86M2176.1 42.9142L2187.98 52.1919M2250.33 42.9142L2240.72 36.167L2239.15 35.0581L2237.58 33.9554M2250.33 42.9142L2263.53 52.1919M2250.33 42.9142H2324.56M2164.62 33.9554H2237.58M2164.62 33.9554L2154.9 26.3657L2153.54 25.2999M2164.62 33.9554H2091.66M2237.58 33.9554H2310.54M2237.58 33.9554L2225.26 25.2999M2991.43 323.147L2952.63 302.173M2991.43 323.147H2877.32M2991.43 323.147L3014.19 335.452M2991.43 323.147H3014.19M2952.63 302.173H2841.5M2952.63 302.173L2915.8 282.267M2952.63 302.173H3014.19M2847.51 245.352H2950.55M2847.51 245.352L2815.79 228.205M2847.51 245.352H2744.47M2847.51 245.352L2880.81 263.351M2950.55 245.352L2916.39 228.205M2950.55 245.352L2986.41 263.351M2950.55 245.352H3014.19M2815.79 228.205H2916.39M2815.79 228.205H2715.19M2815.79 228.205L2785.54 211.853M2916.39 228.205L2883.82 211.853M2916.39 228.205H3014.19M2729.05 181.315H2822.98M2729.05 181.315L2702.64 167.038M2729.05 181.315H2635.13M2729.05 181.315L2756.66 196.239M2822.98 181.315L2794.54 167.038M2822.98 181.315L2852.71 196.239M2822.98 181.315H2916.91M2702.64 167.038H2794.54M2702.64 167.038H2610.75M2702.64 167.038L2677.35 153.365M2794.54 167.038L2767.3 153.365M2794.54 167.038H2886.43M2629.84 127.685H2716.14M2629.84 127.685L2607.51 115.612M2629.84 127.685H2543.55M2629.84 127.685L2653.1 140.259M2716.14 127.685L2692.09 115.612M2716.14 127.685L2741.19 140.259M2716.14 127.685H2802.43M2607.51 115.612H2692.09M2607.51 115.612H2522.93M2607.51 115.612L2586.05 104.011M2692.09 115.612L2668.97 104.011M2692.09 115.612H2776.66M2545.54 82.1148H2625.35M2545.54 82.1148L2526.41 71.7729M2545.54 82.1148H2465.73M2545.54 82.1148L2565.41 92.8525M2625.35 82.1148L2604.75 71.7729M2625.35 82.1148L2646.75 92.8525M2625.35 82.1148H2705.16M2526.41 71.7729H2604.75M2526.41 71.7729H2448.07M2526.41 71.7729L2507.97 61.8053M2604.75 71.7729L2584.89 61.8053M2604.75 71.7729H2683.09M2473.03 42.9142H2547.26M2473.03 42.9142L2456.45 33.9554M2473.03 42.9142H2398.79M2473.03 42.9142L2490.19 52.1919M2547.26 42.9142L2529.41 33.9554M2547.26 42.9142L2565.74 52.1919M2547.26 42.9142H2621.49M2456.45 33.9554H2529.41M2456.45 33.9554L2440.44 25.2999M2456.45 33.9554H2383.5M2529.41 33.9554H2602.37M2529.41 33.9554L2512.17 25.2999M2975.02 127.685L2945.82 115.612M2975.02 127.685H2888.73M2975.02 127.685L3005.44 140.259M2975.02 127.685H3014.19M2945.82 115.612H2861.24M2945.82 115.612L2917.75 104.011M2945.82 115.612H3014.19M2864.79 82.1148H2944.6M2864.79 82.1148L2839.77 71.7729M2864.79 82.1148H2784.98M2864.79 82.1148L2890.76 92.8525M2944.6 82.1148L2918.11 71.7729M2944.6 82.1148L2972.1 92.8525M2944.6 82.1148H3014.19M2839.77 71.7729H2918.11M2839.77 71.7729H2761.43M2839.77 71.7729L2815.65 61.8053M2918.11 71.7729L2892.58 61.8053M2918.11 71.7729H2996.45M2769.96 42.9142H2844.19M2769.96 42.9142L2748.29 33.9554M2769.96 42.9142H2695.72M2769.96 42.9142L2792.4 52.1919M2844.19 42.9142L2821.24 33.9554M2844.19 42.9142L2867.95 52.1919M2844.19 42.9142H2918.42M2748.29 33.9554H2821.24M2748.29 33.9554L2727.35 25.2999M2748.29 33.9554H2675.33M2821.24 33.9554H2894.2M2821.24 33.9554L2799.07 25.2999M2867.95 52.1919L2892.58 61.8053M2867.95 52.1919H2943.51M2867.95 52.1919H2792.4M2918.42 42.9142L2894.2 33.9554M2918.42 42.9142L2943.51 52.1919M2918.42 42.9142H2992.66M2894.2 33.9554H2967.16M2894.2 33.9554L2870.8 25.2999M2799.07 25.2999H2727.35M2799.07 25.2999H2870.8M2799.07 25.2999L2777.64 16.9309M2943.51 52.1919L2969.5 61.8053M2943.51 52.1919H3014.19M2992.66 42.9142L2967.16 33.9554M2992.66 42.9142L3014.19 50.4801M2992.66 42.9142H3014.19M2967.16 33.9554L2942.52 25.2999M2967.16 33.9554H3014.19M2870.8 25.2999H2942.52M2870.8 25.2999L2848.17 16.9309M2942.52 25.2999L2918.71 16.9309M2942.52 25.2999H3014.19M2892.58 61.8053H2969.5M2892.58 61.8053H2815.65M2996.45 71.7729L2969.5 61.8053M2996.45 71.7729L3014.19 78.334M2996.45 71.7729H3014.19M2969.5 61.8053H3014.19M2815.65 61.8053H2738.73M2815.65 61.8053L2792.4 52.1919M2792.4 52.1919H2716.85M2972.1 92.8525L3000.68 104.011M2972.1 92.8525H2890.76M2972.1 92.8525H3014.19M3014.43 82.1148H3014.19M3000.68 104.011H2917.75M3000.68 104.011L3014.19 109.284M3000.68 104.011H3014.19M2917.75 104.011H2834.83M2917.75 104.011L2890.76 92.8525M2890.76 92.8525H2809.42M2565.74 52.1919L2584.89 61.8053M2565.74 52.1919H2641.29M2565.74 52.1919H2490.19M2621.49 42.9142L2602.37 33.9554M2621.49 42.9142L2641.29 52.1919M2621.49 42.9142H2695.72M2602.37 33.9554H2675.33M2602.37 33.9554L2583.89 25.2999M2512.17 25.2999H2583.89M2512.17 25.2999L2495.5 16.9309M2512.17 25.2999H2440.44M2641.29 52.1919L2661.81 61.8053M2641.29 52.1919H2716.85M2695.72 42.9142L2675.33 33.9554M2695.72 42.9142L2716.85 52.1919M2675.33 33.9554L2655.62 25.2999M2583.89 25.2999H2655.62M2583.89 25.2999L2566.03 16.9309M2716.85 52.1919L2738.73 61.8053M2727.35 25.2999H2655.62M2727.35 25.2999L2707.1 16.9309M2655.62 25.2999L2636.57 16.9309M2584.89 61.8053H2661.81M2584.89 61.8053H2507.97M2683.09 71.7729L2661.81 61.8053M2683.09 71.7729L2705.16 82.1148M2683.09 71.7729H2761.43M2661.81 61.8053H2738.73M2507.97 61.8053H2431.05M2507.97 61.8053L2490.19 52.1919M2738.73 61.8053L2761.43 71.7729M2490.19 52.1919H2414.63M2705.16 82.1148L2728.09 92.8525M2705.16 82.1148H2784.98M2761.43 71.7729L2784.98 82.1148M2784.98 82.1148L2809.42 92.8525M2646.75 92.8525L2668.97 104.011M2646.75 92.8525H2728.09M2646.75 92.8525H2565.41M2728.09 92.8525L2751.9 104.011M2728.09 92.8525H2809.42M2809.42 92.8525L2834.83 104.011M2668.97 104.011H2751.9M2668.97 104.011H2586.05M2776.66 115.612L2751.9 104.011M2776.66 115.612L2802.43 127.685M2776.66 115.612H2861.24M2751.9 104.011H2834.83M2586.05 104.011H2503.12M2586.05 104.011L2565.41 92.8525M2834.83 104.011L2861.24 115.612M2565.41 92.8525H2484.07M2802.43 127.685L2829.27 140.259M2802.43 127.685H2888.73M2861.24 115.612L2888.73 127.685M2888.73 127.685L2917.36 140.259M2741.19 140.259L2767.3 153.365M2741.19 140.259H2829.27M2741.19 140.259H2653.1M2829.27 140.259L2857.25 153.365M2829.27 140.259H2917.36M2917.36 140.259L2947.2 153.365M2917.36 140.259H3005.44M3005.44 140.259H3014.19M3005.44 140.259L3014.19 143.874M2767.3 153.365H2857.25M2767.3 153.365H2677.35M2886.43 167.038L2857.25 153.365M2886.43 167.038L2916.91 181.315M2886.43 167.038H2978.33M2857.25 153.365H2947.2M2677.35 153.365H2587.4M2677.35 153.365L2653.1 140.259M2947.2 153.365L2978.33 167.038M2947.2 153.365H3014.19M2653.1 140.259H2565.02M2916.91 181.315L2948.76 196.239M2916.91 181.315H3010.83M2978.33 167.038L3010.83 181.315M2978.33 167.038H3014.19M3014.66 153.365H3014.19M3010.83 181.315L3014.19 182.789M3010.83 181.315H3014.19M2852.71 196.239L2883.82 211.853M2852.71 196.239H2948.76M2852.71 196.239H2756.66M2948.76 196.239L2982.09 211.853M2948.76 196.239H3014.19M3015 183.145L3014.19 182.789M2883.82 211.853H2982.09M2883.82 211.853H2785.54M2982.09 211.853H3014.19M2982.09 211.853L3014.19 226.891M2785.54 211.853H2687.27M2785.54 211.853L2756.66 196.239M2756.66 196.239H2660.61M2986.41 263.351H2880.81M2986.41 263.351L3014.19 277.294M2986.41 263.351H3014.19M3014.95 245.352H3014.19M2880.81 263.351H2775.21M2880.81 263.351L2915.8 282.267M3014.49 277.448L3014.19 277.294M2263.53 52.1919L2277.21 61.8053M2263.53 52.1919H2339.08M2263.53 52.1919H2187.98M2324.56 42.9142L2310.54 33.9554M2324.56 42.9142L2339.08 52.1919M2324.56 42.9142H2398.79M2310.54 33.9554H2383.5M2310.54 33.9554L2296.99 25.2999M2225.26 25.2999H2296.99M2225.26 25.2999L2220.75 22.1288L2213.35 16.9309M2225.26 25.2999H2153.54M2339.08 52.1919L2354.13 61.8053M2339.08 52.1919H2414.63M2398.79 42.9142L2383.5 33.9554M2398.79 42.9142L2414.63 52.1919M2383.5 33.9554L2368.71 25.2999M2296.99 25.2999H2368.71M2296.99 25.2999L2283.89 16.9309M2414.63 52.1919L2431.05 61.8053M2440.44 25.2999L2424.96 16.9309M2440.44 25.2999H2368.71M2368.71 25.2999L2366.9 24.2372L2363.3 22.1288L2354.42 16.9309M2277.21 61.8053H2354.13M2277.21 61.8053H2200.29M2369.73 71.7729L2354.13 61.8053M2369.73 71.7729L2385.92 82.1148M2369.73 71.7729H2448.07M2354.13 61.8053H2431.05M2200.29 61.8053H2123.37M2200.29 61.8053L2187.98 52.1919M2431.05 61.8053L2448.07 71.7729M2187.98 52.1919H2112.42M2385.92 82.1148L2402.73 92.8525M2385.92 82.1148H2465.73M2448.07 71.7729L2450.24 73.0435L2465.73 82.1148M2465.73 82.1148L2484.07 92.8525M2321.39 92.8525L2323.34 94.2247L2337.27 104.011M2321.39 92.8525H2402.73M2321.39 92.8525H2240.05M2402.73 92.8525L2420.19 104.011M2402.73 92.8525H2484.07M2484.07 92.8525L2503.12 104.011M2337.27 104.011H2420.19M2337.27 104.011H2254.34M2438.35 115.612L2420.19 104.011M2438.35 115.612L2457.25 127.685M2438.35 115.612H2522.93M2420.19 104.011H2503.12M2254.34 104.011H2171.41M2254.34 104.011L2240.05 92.8525M2503.12 104.011L2522.93 115.612M2240.05 92.8525H2158.71M2457.25 127.685L2476.93 140.259M2457.25 127.685H2543.55M2522.93 115.612L2543.55 127.685M2543.55 127.685L2565.02 140.259M2388.85 140.259L2407.5 153.365M2388.85 140.259H2476.93M2388.85 140.259H2300.76M2476.93 140.259L2497.45 153.365M2476.93 140.259H2565.02M2565.02 140.259L2587.4 153.365M2407.5 153.365H2497.45M2407.5 153.365H2317.55M2518.85 167.038L2497.45 153.365M2518.85 167.038L2541.2 181.315M2518.85 167.038H2610.75M2497.45 153.365H2587.4M2317.55 153.365H2227.6M2317.55 153.365L2300.76 140.259M2587.4 153.365L2610.75 167.038M2300.76 140.259H2212.68M2541.2 181.315L2564.56 196.239M2541.2 181.315H2635.13M2610.75 167.038L2635.13 181.315M2635.13 181.315L2660.61 196.239M2468.51 196.239L2490.73 211.853M2468.51 196.239H2564.56M2468.51 196.239H2372.46M2564.56 196.239L2589 211.853M2564.56 196.239H2660.61M2660.61 196.239L2687.27 211.853M2490.73 211.853H2589M2490.73 211.853H2392.45M2614.6 228.205L2589 211.853M2614.6 228.205L2641.43 245.352M2614.6 228.205H2715.19M2589 211.853H2687.27M2392.45 211.853H2294.18M2392.45 211.853L2372.46 196.239M2687.27 211.853L2715.19 228.205M2372.46 196.239H2276.41M2641.43 245.352L2669.61 263.351M2641.43 245.352H2744.47M2715.19 228.205L2744.47 245.352M2744.47 245.352L2775.21 263.351M2564.01 263.351L2590.92 282.267M2564.01 263.351H2669.61M2564.01 263.351H2458.41M2669.61 263.351L2699.22 282.267M2669.61 263.351H2775.21M2775.21 263.351L2807.51 282.267M2590.92 282.267H2699.22M2590.92 282.267H2482.63M2730.38 302.173L2699.22 282.267M2730.38 302.173L2763.21 323.147M2730.38 302.173H2841.5M2699.22 282.267H2807.51M2482.63 282.267H2374.34M2482.63 282.267L2458.41 263.351M2807.51 282.267L2841.5 302.173M2807.51 282.267H2915.8M2458.41 263.351H2352.81M2763.21 323.147L2797.85 345.282M2763.21 323.147H2877.32M2841.5 302.173L2877.32 323.147M2915.8 282.267H3014.19M2877.32 323.147L2915.11 345.282M2680.59 345.282L2713.88 368.67M2680.59 345.282H2797.85M2680.59 345.282H2563.33M2797.85 345.282L2834.46 368.67M2797.85 345.282H2915.11M2915.11 345.282L2955.05 368.67M2915.11 345.282H3014.19M2713.88 368.67H2834.46M2713.88 368.67H2593.29M2873.22 393.428L2834.46 368.67M2873.22 393.428L2914.3 419.673M2873.22 393.428H2997.33M2834.46 368.67H2955.05M2593.29 368.67H2472.7M2593.29 368.67L2563.33 345.282M2955.05 368.67L2997.33 393.428M2955.05 368.67H3014.19M2563.33 345.282H2446.07M2914.3 419.673L2957.93 447.549M2914.3 419.673H3014.19M2997.33 393.428H3014.19M2997.33 393.428L3014.19 403.302M2826.12 447.549L2868.32 477.208M2826.12 447.549H2957.93M2826.12 447.549H2694.31M2957.93 447.549L3004.36 477.208M2957.93 447.549H3014.19M2868.32 477.208H3004.36M2868.32 477.208H2732.29M3004.36 477.208L3014.19 483.489M3004.36 477.208H3014.19M2732.29 477.208H2596.26M2732.29 477.208L2694.31 447.549M2694.31 447.549H2562.5M3012.88 578.794H2862.39M3012.88 578.794H3014.19M3012.88 578.794L3014.19 579.713M2862.39 578.794H2711.91M2862.39 578.794L2912.13 617.631M1961.32 52.1919L1964.36 55.7557L1965.38 56.9555L1969.52 61.8053M1961.32 52.1919H2036.87M1961.32 52.1919H1885.76M2027.63 42.9142L2020.91 36.167L2018.71 33.9554M2027.63 42.9142L2035.7 51.0137L2036.87 52.1919M2027.63 42.9142H2101.86M2018.71 33.9554H2091.66M2018.71 33.9554L2010.08 25.2999M1938.36 25.2999H2010.08M1938.36 25.2999L1935.65 22.1288L1931.21 16.9309M1938.36 25.2999H1866.63M2036.87 52.1919L2039.23 54.5621L2046.45 61.8053M2036.87 52.1919H2112.42M2101.86 42.9142L2091.66 33.9554M2101.86 42.9142L2112.42 52.1919M2091.66 33.9554L2084.24 27.436L2081.81 25.2999M2010.08 25.2999H2081.81M2010.08 25.2999L2001.75 16.9309M2112.42 52.1919L2123.37 61.8053M2153.54 25.2999L2152.18 24.2372L2142.82 16.9309M2153.54 25.2999H2081.81M2081.81 25.2999L2078.2 22.1288L2072.28 16.9309M1969.52 61.8053H2046.45M1969.52 61.8053H1892.6M2056.37 71.7729L2046.45 61.8053M2056.37 71.7729L2066.68 82.1148M2056.37 71.7729H2134.71M2046.45 61.8053H2123.37M1892.6 61.8053H1815.68M1892.6 61.8053L1885.76 52.1919M2123.37 61.8053L2134.71 71.7729M1885.76 52.1919H1810.21M2066.68 82.1148L2073.31 88.7789L2074.66 90.1295L2077.37 92.8525M2066.68 82.1148H2146.49M2134.71 71.7729L2146.49 82.1148M2146.49 82.1148L2158.71 92.8525M1996.03 92.8525L2005.56 104.011M1996.03 92.8525H2077.37M1996.03 92.8525H1914.69M2077.37 92.8525L2088.49 104.011M2077.37 92.8525H2158.71M2158.71 92.8525L2171.41 104.011M2005.56 104.011H2088.49M2005.56 104.011H1922.63M2100.04 115.612L2092.77 108.308L2091.33 106.868L2088.49 104.011M2100.04 115.612L2112.07 127.685M2100.04 115.612H2184.62M2088.49 104.011H2171.41M1922.63 104.011H1839.71M1922.63 104.011L1914.69 92.8525M2171.41 104.011L2184.62 115.612M1914.69 92.8525H1833.36M2112.07 127.685L2124.59 140.259M2112.07 127.685H2198.36M2184.62 115.612L2198.36 127.685M2198.36 127.685L2212.68 140.259M2036.51 140.259L2042.05 146.743L2043.45 148.386L2047.7 153.365M2036.51 140.259H2124.59M2036.51 140.259H1948.42M2124.59 140.259L2137.65 153.365M2124.59 140.259H2212.68M2212.68 140.259L2227.6 153.365M2047.7 153.365H2137.65M2047.7 153.365H1957.75M2151.27 167.038L2137.65 153.365M2151.27 167.038L2165.49 181.315M2151.27 167.038H2243.16M2137.65 153.365H2227.6M1957.75 153.365H1867.8M1957.75 153.365L1955.38 150.037L1948.42 140.259M2227.6 153.365L2243.16 167.038M1948.42 140.259H1860.34M2165.49 181.315L2180.35 196.239M2165.49 181.315H2259.42M2243.16 167.038L2259.42 181.315M2259.42 181.315L2276.41 196.239M2084.3 196.239L2097.64 211.853M2084.3 196.239H2180.35M2084.3 196.239H1988.25M2180.35 196.239L2195.91 211.853M2180.35 196.239H2276.41M2276.41 196.239L2294.18 211.853M2097.64 211.853H2195.91M2097.64 211.853H1999.36M2212.2 228.205L2195.91 211.853M2212.2 228.205L2229.28 245.352M2212.2 228.205H2312.8M2195.91 211.853H2294.18M1999.36 211.853H1901.09M1999.36 211.853L1988.25 196.239M2294.18 211.853L2312.8 228.205M1988.25 196.239H1892.2M2229.28 245.352L2247.2 263.351M2229.28 245.352H2332.32M2312.8 228.205L2332.32 245.352M2332.32 245.352L2352.81 263.351M2141.6 263.351L2157.76 282.267M2141.6 263.351H2247.2M2141.6 263.351H2036M2247.2 263.351L2266.05 282.267M2247.2 263.351H2352.81M2352.81 263.351L2374.34 282.267M2157.76 282.267H2266.05M2157.76 282.267H2049.46M2285.88 302.173L2266.05 282.267M2285.88 302.173L2306.77 323.147M2285.88 302.173H2397M2266.05 282.267H2374.34M2049.46 282.267H1941.17M2049.46 282.267L2036 263.351M2374.34 282.267L2397 302.173M2036 263.351H1930.4M2306.77 323.147L2328.82 345.282M2306.77 323.147H2420.88M2397 302.173L2420.88 323.147M2420.88 323.147L2446.07 345.282M2211.56 345.282L2231.53 368.67M2211.56 345.282H2328.82M2211.56 345.282H2094.3M2328.82 345.282L2352.11 368.67M2328.82 345.282H2446.07M2446.07 345.282L2472.7 368.67M2231.53 368.67H2352.11M2231.53 368.67H2110.94M2376.77 393.428L2352.11 368.67M2376.77 393.428L2402.92 419.673M2376.77 393.428H2500.88M2352.11 368.67H2472.7M2110.94 368.67H1990.35M2110.94 368.67L2094.3 345.282M2472.7 368.67L2500.88 393.428M2094.3 345.282H1977.04M2402.92 419.673L2430.68 447.549M2402.92 419.673H2530.76M2500.88 393.428L2530.76 419.673M2530.76 419.673L2562.5 447.549M2298.87 447.549L2324.19 477.208M2298.87 447.549H2430.68M2298.87 447.549H2167.06M2430.68 447.549L2460.23 477.208M2430.68 447.549H2562.5M2562.5 447.549L2596.26 477.208M2324.19 477.208H2460.23M2324.19 477.208H2188.16M2491.72 508.83L2460.23 477.208M2491.72 508.83L2525.38 542.615M2491.72 508.83H2632.26M2460.23 477.208H2596.26M2188.16 477.208H2052.13M2188.16 477.208L2167.06 447.549M2596.26 477.208L2632.26 508.83M2167.06 447.549H2035.25M2525.38 542.615L2561.42 578.794M2525.38 542.615H2670.72M2632.26 508.83L2670.72 542.615M2670.72 542.615L2711.91 578.794M2410.93 578.794L2444.09 617.631M2410.93 578.794H2561.42M2410.93 578.794H2260.44M2561.42 578.794L2600.1 617.631M2561.42 578.794H2711.91M2711.91 578.794L2756.12 617.631M2444.09 617.631H2600.1M2444.09 617.631H2288.07M2641.74 659.429L2600.1 617.631M2641.74 659.429L2686.67 704.54M2641.74 659.429H2803.7M2600.1 617.631H2756.12M2288.07 617.631H2132.06M2288.07 617.631L2260.44 578.794M2756.12 617.631L2803.7 659.429M2756.12 617.631H2912.13M2260.44 578.794H2109.95M2686.67 704.54L2735.31 753.374M2686.67 704.54H2855.05M2803.7 659.429L2855.05 704.54M2912.13 617.631H3014.19M2855.05 704.54L2910.65 753.374M2855.05 704.54H3014.19M2559.98 753.374L2605.27 806.413M2559.98 753.374H2735.31M2559.98 753.374H2384.65M2735.31 753.374L2788.15 806.413M2735.31 753.374H2910.65M2910.65 753.374L2971.02 806.413M2910.65 753.374H3014.19M2605.27 806.413H2788.15M2605.27 806.413H2422.39M2845.73 864.222L2788.15 806.413M2845.73 864.222L2908.74 927.478M2845.73 864.222H3014.19M2788.15 806.413H2971.02M2422.39 806.413H2239.51M2422.39 806.413L2384.65 753.374M2971.02 806.413H3014.19M2971.02 806.413L3014.19 844.33M2384.65 753.374H2209.32M2908.74 927.478L2977.98 996.988M2908.74 927.478H3014.19M2767.98 996.988L2833.5 1073.73M2767.98 996.988H2977.98M2767.98 996.988H2557.98M2977.98 996.988L3014.19 1033.34M2977.98 996.988H3014.19M2833.5 1073.73H2612.58M2833.5 1073.73L3014.19 1073.73M2612.58 1073.73H2391.67M2612.58 1073.73L2557.98 996.988M2557.98 996.988H2347.99M1659.11 52.1919L1659.44 53.3747L1659.78 54.5621L1660.12 55.7557L1660.46 56.9555L1661.49 60.584L1661.84 61.8053M1659.11 52.1919H1734.66M1659.11 52.1919H1583.55M1730.7 42.9142L1727.82 36.167L1726.87 33.9554M1730.7 42.9142L1733.16 48.6743L1734.66 52.1919M1730.7 42.9142H1804.93M1726.87 33.9554H1799.83M1726.87 33.9554L1724.09 27.436L1723.18 25.2999M1651.45 25.2999L1651.15 24.2372L1649.96 20.0358L1649.07 16.9309M1651.45 25.2999H1723.18M1651.45 25.2999H1579.73M1734.66 52.1919L1735.16 53.3747L1735.67 54.5621L1736.18 55.7557L1736.69 56.9555L1738.76 61.8053M1734.66 52.1919H1810.21M1804.93 42.9142L1801.09 36.167L1799.83 33.9554M1804.93 42.9142L1810.21 52.1919M1799.83 33.9554L1797.35 29.5907L1795.51 26.3657L1794.91 25.2999M1723.18 25.2999L1722.73 24.2372L1721.83 22.1288L1720.93 20.0358L1720.49 18.9962L1719.61 16.9309M1723.18 25.2999H1794.91M1810.21 52.1919L1814.3 59.3688L1815.68 61.8053M1866.63 25.2999L1862.15 18.9962L1860.68 16.9309M1866.63 25.2999H1794.91M1794.91 25.2999L1790.73 17.9613L1790.14 16.9309M1661.84 61.8053H1738.76M1661.84 61.8053H1584.92M1743.02 71.7729L1738.76 61.8053M1743.02 71.7729L1747.43 82.1148M1743.02 71.7729H1821.36M1738.76 61.8053H1815.68M1584.92 61.8053H1508M1584.92 61.8053L1583.55 52.1919M1815.68 61.8053L1821.36 71.7729M1583.55 52.1919H1508M1747.43 82.1148L1748.56 84.7607L1750.28 88.7789L1752.02 92.8525M1747.43 82.1148H1827.24M1821.36 71.7729L1822.08 73.0435L1827.24 82.1148M1827.24 82.1148L1827.99 83.4347L1828.75 84.7607L1829.51 86.0944L1833.36 92.8525M1670.68 92.8525L1673.85 104.011M1670.68 92.8525H1752.02M1670.68 92.8525H1589.34M1752.02 92.8525L1756.78 104.011M1752.02 92.8525H1833.36M1833.36 92.8525L1838.1 101.18L1838.9 102.592L1839.71 104.011M1673.85 104.011H1756.78M1673.85 104.011H1590.93M1761.73 115.612L1762.37 117.095L1763 118.585L1763.64 120.083L1766.89 127.685M1761.73 115.612L1759.23 109.754L1758.61 108.308L1758 106.868L1756.78 104.011M1761.73 115.612H1846.31M1756.78 104.011H1839.71M1590.93 104.011H1508M1590.93 104.011L1589.34 92.8525M1839.71 104.011L1846.31 115.612M1589.34 92.8525H1508M1766.89 127.685L1771.57 138.659L1772.25 140.259M1766.89 127.685H1853.18M1846.31 115.612L1848 118.585L1853.18 127.685M1853.18 127.685L1855.83 132.339L1860.34 140.259M1684.17 140.259L1686.02 146.743L1686.48 148.386L1687.9 153.365M1684.17 140.259H1772.25M1684.17 140.259H1596.09M1772.25 140.259L1777.85 153.365M1772.25 140.259H1860.34M1860.34 140.259L1867.8 153.365M1687.9 153.365H1777.85M1687.9 153.365H1597.95M1783.69 167.038L1777.85 153.365M1783.69 167.038L1789.78 181.315M1783.69 167.038H1875.58M1777.85 153.365H1867.8M1597.95 153.365H1508M1597.95 153.365L1597.48 150.037L1596.54 143.484L1596.09 140.259M1867.8 153.365L1875.58 167.038M1596.09 140.259H1508M1789.78 181.315L1794.53 192.446L1796.15 196.239M1789.78 181.315H1883.71M1875.58 167.038L1883.71 181.315M1883.71 181.315L1887.91 188.694L1892.2 196.239M1700.1 196.239L1704.54 211.853M1700.1 196.239H1796.15M1700.1 196.239H1604.05M1796.15 196.239L1802.82 211.853M1796.15 196.239H1892.2M1892.2 196.239L1901.09 211.853M1704.54 211.853H1802.82M1704.54 211.853H1606.27M1809.8 228.205L1808.02 224.046L1802.82 211.853M1809.8 228.205L1817.12 245.352M1809.8 228.205H1910.4M1802.82 211.853H1901.09M1606.27 211.853H1508M1606.27 211.853L1604.05 196.239M1901.09 211.853L1910.4 228.205M1604.05 196.239H1508M1817.12 245.352L1824.8 263.351M1817.12 245.352H1920.16M1910.4 228.205L1920.16 245.352M1920.16 245.352L1930.4 263.351M1719.2 263.351L1724.59 282.267M1719.2 263.351H1824.8M1719.2 263.351H1613.6M1824.8 263.351L1832.88 282.267M1824.8 263.351H1930.4M1930.4 263.351L1941.17 282.267M1724.59 282.267H1832.88M1724.59 282.267H1616.29M1841.38 302.173L1832.88 282.267M1841.38 302.173L1850.33 323.147M1841.38 302.173H1952.5M1832.88 282.267H1941.17M1616.29 282.267H1508M1616.29 282.267L1613.93 265.664L1613.6 263.351M1941.17 282.267L1952.5 302.173M1613.6 263.351H1508M1850.33 323.147L1859.78 345.282M1850.33 323.147H1964.44M1952.5 302.173L1961.39 317.8L1964.44 323.147M1964.44 323.147L1977.04 345.282M1742.52 345.282L1749.18 368.67M1742.52 345.282H1859.78M1742.52 345.282H1625.26M1859.78 345.282L1869.76 368.67M1859.78 345.282H1977.04M1977.04 345.282L1990.35 368.67M1749.18 368.67H1869.76M1749.18 368.67H1628.59M1880.33 393.428L1869.76 368.67M1880.33 393.428L1891.54 419.673M1880.33 393.428H2004.44M1869.76 368.67H1990.35M1628.59 368.67H1508M1628.59 368.67L1625.26 345.282M1990.35 368.67L2004.44 393.428M1625.26 345.282H1508M1891.54 419.673L1903.44 447.549M1891.54 419.673H2019.38M2004.44 393.428L2019.38 419.673M2019.38 419.673L2035.25 447.549M1771.62 447.549L1780.06 477.208M1771.62 447.549H1903.44M1771.62 447.549H1639.81M1903.44 447.549L1916.1 477.208M1903.44 447.549H2035.25M2035.25 447.549L2052.13 477.208M1780.06 477.208H1916.1M1780.06 477.208H1644.03M1929.6 508.83L1916.1 477.208M1929.6 508.83L1944.02 542.615M1929.6 508.83H2070.13M1916.1 477.208H2052.13M1644.03 477.208H1508M1644.03 477.208L1639.81 447.549M2052.13 477.208L2070.13 508.83M1639.81 447.549H1508M1944.02 542.615L1959.46 578.794M1944.02 542.615H2089.36M2070.13 508.83L2089.36 542.615M2089.36 542.615L2109.95 578.794M1808.98 578.794L1820.03 617.631M1808.98 578.794H1959.46M1808.98 578.794H1658.49M1959.46 578.794L1976.04 617.631M1959.46 578.794H2109.95M2109.95 578.794L2132.06 617.631M1820.03 617.631H1976.04M1820.03 617.631H1664.01M1993.89 659.429L1976.04 617.631M1993.89 659.429L2013.14 704.54M1993.89 659.429H2155.85M1976.04 617.631H2132.06M1664.01 617.631H1508M1664.01 617.631L1658.49 578.794M2132.06 617.631L2155.85 659.429M1658.49 578.794H1508M2013.14 704.54L2033.99 753.374M2013.14 704.54H2181.53M2155.85 659.429L2181.53 704.54M2181.53 704.54L2209.32 753.374M1858.66 753.374L1873.76 806.413M1858.66 753.374H2033.99M1858.66 753.374H1683.33M2033.99 753.374L2056.63 806.413M2033.99 753.374H2209.32M2209.32 753.374L2239.51 806.413M1873.76 806.413H2056.63M1873.76 806.413H1690.88M2081.31 864.222L2056.63 806.413M2081.31 864.222L2108.32 927.478M2081.31 864.222H2272.42M2056.63 806.413H2239.51M1690.88 806.413H1508M1690.88 806.413L1683.33 753.374M2239.51 806.413L2272.42 864.222M1683.33 753.374H1508M2108.32 927.478L2137.99 996.988M2108.32 927.478H2308.42M2272.42 864.222L2308.42 927.478M2308.42 927.478L2347.99 996.988M1927.99 996.988L1949.83 1073.73M1927.99 996.988H2137.99M1927.99 996.988H1718M2137.99 996.988L2170.75 1073.73M2137.99 996.988H2347.99M2347.99 996.988L2391.67 1073.73M2170.75 1073.73H1949.83M2170.75 1073.73H2391.67M1949.83 1073.73H1728.92M1728.92 1073.73H1508M1728.92 1073.73L1718 996.988M1718 996.988H1508M1356.89 52.1919L1356.56 53.3747L1356.22 54.5621L1355.88 55.7557L1355.54 56.9555L1354.85 59.3688L1354.51 60.584L1354.16 61.8053M1356.89 52.1919H1432.45M1356.89 52.1919H1281.34M1433.77 42.9142L1435.04 33.9554M1433.77 42.9142L1432.45 52.1919M1433.77 42.9142H1508M1435.04 33.9554L1435.2 32.8573L1435.35 31.7638L1435.51 30.6749L1436.27 25.2999M1435.04 33.9554H1508M1364.55 25.2999L1364.85 24.2372L1366.04 20.0358L1366.93 16.9309M1364.55 25.2999H1436.27M1364.55 25.2999H1292.82M1432.45 52.1919L1432.28 53.3747L1432.11 54.5621L1431.94 55.7557L1431.08 61.8053M1432.45 52.1919H1508M1508 42.9142V33.9554M1508 42.9142V52.1919M1508 33.9554V25.2999M1436.27 25.2999H1508M1436.27 25.2999L1436.72 22.1288L1436.87 21.08L1437.46 16.9309M1508 52.1919V61.8053M1579.73 25.2999L1579.28 22.1288L1579.13 21.08L1578.98 20.0358L1578.83 18.9962L1578.68 17.9613L1578.54 16.9309M1579.73 25.2999H1508M1508 25.2999V16.9309M1354.16 61.8053H1431.08M1354.16 61.8053H1277.24M1429.66 71.7729L1429.48 73.0435L1429.3 74.3218L1428.19 82.1148M1429.66 71.7729L1431.08 61.8053M1429.66 71.7729H1508M1431.08 61.8053H1508M1277.24 61.8053H1200.32M1277.24 61.8053L1278.28 59.3688L1278.79 58.1598L1279.31 56.9555L1279.82 55.7557L1280.33 54.5621L1280.84 53.3747L1281.34 52.1919M1508 61.8053V71.7729M1281.34 52.1919H1205.79M1428.19 82.1148L1426.66 92.8525M1428.19 82.1148H1508M1508 71.7729V82.1148M1508 82.1148V92.8525M1345.32 92.8525L1342.15 104.011M1345.32 92.8525H1426.66M1345.32 92.8525H1263.98M1426.66 92.8525L1425.07 104.011M1426.66 92.8525H1508M1508 92.8525V104.011M1342.15 104.011H1425.07M1342.15 104.011H1259.22M1423.42 115.612L1425.07 104.011M1423.42 115.612L1421.7 127.685M1423.42 115.612H1508M1425.07 104.011H1508M1259.22 104.011H1176.29M1259.22 104.011L1263.98 92.8525M1508 104.011V115.612M1263.98 92.8525H1182.64M1421.7 127.685L1421.04 132.339L1420.37 137.066L1419.91 140.259M1421.7 127.685H1508M1508 115.612V127.685M1508 127.685V140.259M1331.83 140.259L1329.98 146.743L1329.52 148.386L1328.1 153.365M1331.83 140.259H1419.91M1331.83 140.259H1243.75M1419.91 140.259L1419.46 143.484L1418.52 150.037L1418.05 153.365M1419.91 140.259H1508M1508 140.259V153.365M1328.1 153.365H1418.05M1328.1 153.365H1238.15M1416.11 167.038L1416.35 165.296L1418.05 153.365M1416.11 167.038L1414.07 181.315M1416.11 167.038H1508M1418.05 153.365H1508M1238.15 153.365H1148.2M1238.15 153.365L1243.75 140.259M1508 153.365V167.038M1243.75 140.259H1155.66M1414.07 181.315L1411.95 196.239M1414.07 181.315H1508M1508 167.038V181.315M1508 181.315V196.239M1315.9 196.239L1311.45 211.853M1315.9 196.239H1411.95M1315.9 196.239H1219.85M1411.95 196.239L1409.73 211.853M1411.95 196.239H1508M1508 196.239V211.853M1311.45 211.853H1409.73M1311.45 211.853H1213.18M1407.4 228.205L1409.73 211.853M1407.4 228.205L1404.96 245.352M1407.4 228.205H1508M1409.73 211.853H1508M1213.18 211.853H1114.91M1213.18 211.853L1219.85 196.239M1508 211.853V228.205M1219.85 196.239H1123.8M1404.96 245.352L1402.4 263.351M1404.96 245.352H1508M1508 228.205V245.352M1508 245.352V263.351M1296.8 263.351L1291.41 282.267M1296.8 263.351H1402.4M1296.8 263.351H1191.2M1402.4 263.351L1399.71 282.267M1402.4 263.351H1508M1508 263.351V282.267M1291.41 282.267H1399.71M1291.41 282.267H1183.12M1396.87 302.173L1399.71 282.267M1396.87 302.173L1393.89 323.147M1396.87 302.173H1508M1399.71 282.267H1508M1183.12 282.267H1074.83M1183.12 282.267L1191.2 263.351M1508 282.267V302.173M1191.2 263.351H1085.6M1393.89 323.147L1390.74 345.282M1393.89 323.147H1508M1508 302.173V323.147M1508 323.147V345.282M1273.48 345.282L1266.82 368.67M1273.48 345.282H1390.74M1273.48 345.282H1156.22M1390.74 345.282L1387.41 368.67M1390.74 345.282H1508M1508 345.282V368.67M1266.82 368.67H1387.41M1266.82 368.67H1146.24M1383.89 393.428L1387.41 368.67M1383.89 393.428L1380.15 419.673M1383.89 393.428H1508M1387.41 368.67H1508M1146.24 368.67H1025.65M1146.24 368.67L1156.22 345.282M1508 368.67V393.428M1156.22 345.282H1038.96M1380.15 419.673L1376.19 447.549M1380.15 419.673H1508M1508 393.428V419.673M1508 419.673V447.549M1244.38 447.549L1235.94 477.208M1244.38 447.549H1376.19M1244.38 447.549H1112.56M1376.19 447.549L1371.97 477.208M1376.19 447.549H1508M1508 447.549V477.208M1235.94 477.208H1371.97M1235.94 477.208H1099.9M1367.47 508.83L1371.97 477.208M1367.47 508.83L1362.66 542.615M1367.47 508.83H1508M1371.97 477.208H1508M1099.9 477.208H963.87M1099.9 477.208L1112.56 447.549M1508 477.208V508.83M1112.56 447.549H980.752M1362.66 542.615L1357.51 578.794M1362.66 542.615H1508M1508 508.83V542.615M1508 542.615V578.794M1207.02 578.794L1195.97 617.631M1207.02 578.794H1357.51M1207.02 578.794H1056.54M1357.51 578.794L1351.99 617.631M1357.51 578.794H1508M1508 578.794V617.631M1195.97 617.631H1351.99M1195.97 617.631H1039.96M1346.04 659.429L1351.99 617.631M1346.04 659.429L1339.62 704.54M1346.04 659.429H1508M1351.99 617.631H1508M1039.96 617.631H883.942M1039.96 617.631L1056.54 578.794M1508 617.631V659.429M1056.54 578.794H906.047M1339.62 704.54L1332.67 753.374M1339.62 704.54H1508M1508 659.429V704.54M1508 704.54V753.374M1157.34 753.374L1142.24 806.413M1157.34 753.374H1332.67M1157.34 753.374H982.007M1332.67 753.374L1325.12 806.413M1332.67 753.374H1508M1508 753.374V806.413M1142.24 806.413H1325.12M1142.24 806.413H959.366M1316.9 864.222L1325.12 806.413M1316.9 864.222L1307.89 927.478M1316.9 864.222H1508M1325.12 806.413H1508M959.366 806.413H776.488M959.366 806.413L982.007 753.374M1508 806.413V864.222M982.007 753.374H806.678M1307.89 927.478L1298 996.988M1307.89 927.478H1508M1508 864.222V927.478M1508 927.478V996.988M1088.01 996.988L1066.17 1073.73M1088.01 996.988H1298M1088.01 996.988H878.01M1298 996.988L1287.08 1073.73M1298 996.988H1508M1508 996.988V1073.73M1287.08 1073.73H1066.17M1287.08 1073.73H1508M1066.17 1073.73H845.25M845.25 1073.73H624.333M845.25 1073.73L878.01 996.988M878.01 996.988H668.013M1054.68 52.1919L1050.62 56.9555L1046.48 61.8053M1054.68 52.1919H1130.24M1054.68 52.1919H979.13M1136.84 42.9142L1143.21 33.9554M1136.84 42.9142L1130.24 52.1919M1136.84 42.9142H1211.07M1143.21 33.9554H1216.17M1143.21 33.9554L1147.85 27.436L1149.37 25.2999M1077.64 25.2999H1149.37M1077.64 25.2999L1080.35 22.1288L1084.79 16.9309M1077.64 25.2999H1005.92M1130.24 52.1919L1123.4 61.8053M1130.24 52.1919H1205.79M1211.07 42.9142L1216.17 33.9554M1211.07 42.9142L1205.79 52.1919M1216.17 33.9554L1218.65 29.5907L1220.49 26.3657L1221.09 25.2999M1149.37 25.2999H1221.09M1149.37 25.2999L1153.85 18.9962L1155.32 16.9309M1205.79 52.1919L1201.7 59.3688L1200.32 61.8053M1292.82 25.2999L1293.27 24.2372L1294.17 22.1288L1295.51 18.9962L1296.39 16.9309M1292.82 25.2999H1221.09M1221.09 25.2999L1221.7 24.2372L1222.9 22.1288L1225.86 16.9309M1046.48 61.8053H1123.4M1046.48 61.8053H969.553M1116.3 71.7729L1117.21 70.5069L1118.1 69.2456L1121.65 64.2618L1123.4 61.8053M1116.3 71.7729L1110.81 79.492L1108.94 82.1148M1116.3 71.7729H1194.64M1123.4 61.8053H1200.32M969.553 61.8053H892.632M969.553 61.8053L976.767 54.5621L979.13 52.1919M1200.32 61.8053L1194.64 71.7729M979.13 52.1919H903.576M1108.94 82.1148L1108.01 83.4347L1107.06 84.7607L1104.2 88.7789L1103.24 90.1295L1101.31 92.8525M1108.94 82.1148H1188.76M1194.64 71.7729L1193.92 73.0435L1188.76 82.1148M1188.76 82.1148L1188.01 83.4347L1187.25 84.7607L1186.49 86.0944L1182.64 92.8525M1019.97 92.8525L1010.44 104.011M1019.97 92.8525H1101.31M1019.97 92.8525H938.628M1101.31 92.8525L1093.37 104.011M1101.31 92.8525H1182.64M1182.64 92.8525L1176.29 104.011M1010.44 104.011H1093.37M1010.44 104.011H927.513M1085.11 115.612L1093.37 104.011M1085.11 115.612L1076.52 127.685M1085.11 115.612H1169.69M1093.37 104.011H1176.29M927.513 104.011H844.587M927.513 104.011L938.628 92.8525M1176.29 104.011L1169.69 115.612M938.628 92.8525H857.287M1076.52 127.685L1067.58 140.259M1076.52 127.685H1162.82M1169.69 115.612L1168 118.585L1162.82 127.685M1162.82 127.685L1160.17 132.339L1157.48 137.066L1155.66 140.259M979.491 140.259L973.954 146.743L968.301 153.365M979.491 140.259H1067.58M979.491 140.259H891.406M1067.58 140.259L1058.25 153.365M1067.58 140.259H1155.66M1155.66 140.259L1148.2 153.365M968.301 153.365H1058.25M968.301 153.365H878.352M1048.52 167.038L1058.25 153.365M1048.52 167.038L1038.36 181.315M1048.52 167.038H1140.42M1058.25 153.365H1148.2M878.352 153.365H788.401M878.352 153.365L891.406 140.259M1148.2 153.365L1140.42 167.038M891.406 140.259H803.322M1038.36 181.315L1035.75 184.984L1027.75 196.239M1038.36 181.315H1132.29M1140.42 167.038L1132.29 181.315M1132.29 181.315L1131.25 183.145L1128.09 188.694L1123.8 196.239M931.696 196.239L918.365 211.853M931.696 196.239H1027.75M931.696 196.239H835.645M1027.75 196.239L1016.64 211.853M1027.75 196.239H1123.8M1123.8 196.239L1114.91 211.853M918.365 211.853H1016.64M918.365 211.853H820.092M1005 228.205L1012.34 217.896L1016.64 211.853M1005 228.205L992.802 245.352M1005 228.205H1105.6M1016.64 211.853H1114.91M820.092 211.853H721.82M820.092 211.853L835.645 196.239M1114.91 211.853L1105.6 228.205M835.645 196.239H739.594M992.802 245.352L979.996 263.351M992.802 245.352H1095.84M1105.6 228.205L1095.84 245.352M1095.84 245.352L1085.6 263.351M874.395 263.351L858.244 282.267M874.395 263.351H979.996M874.395 263.351H768.795M979.996 263.351L966.538 282.267M979.996 263.351H1085.6M1085.6 263.351L1074.83 282.267M858.244 282.267H966.538M858.244 282.267H749.952M952.375 302.173L966.538 282.267M952.375 302.173L937.451 323.147M952.375 302.173H1063.5M966.538 282.267H1074.83M749.952 282.267H641.661M749.952 282.267L768.795 263.351M1074.83 282.267L1063.5 302.173M768.795 263.351H663.194M937.451 323.147L921.703 345.282M937.451 323.147H1051.56M1063.5 302.173L1051.56 323.147M1051.56 323.147L1038.96 345.282M804.443 345.282L784.474 368.67M804.443 345.282H921.703M804.443 345.282H687.184M921.703 345.282L905.062 368.67M921.703 345.282H1038.96M1038.96 345.282L1025.65 368.67M784.474 368.67H905.062M784.474 368.67H663.886M887.447 393.428L905.062 368.67M887.447 393.428L868.773 419.673M887.447 393.428H1011.56M905.062 368.67H1025.65M663.886 368.67H543.299M663.886 368.67L687.184 345.282M1025.65 368.67L1011.56 393.428M687.184 345.282H569.925M868.773 419.673L848.94 447.549M868.773 419.673H996.619M1011.56 393.428L996.619 419.673M996.619 419.673L980.752 447.549M717.128 447.549L691.806 477.208M717.128 447.549H848.94M717.128 447.549H585.317M848.94 447.549L827.838 477.208M848.94 447.549H980.752M980.752 447.549L963.87 477.208M691.806 477.208H827.838M691.806 477.208H555.773M805.339 508.83L827.838 477.208M805.339 508.83L781.3 542.615M805.339 508.83H945.872M827.838 477.208H963.87M555.773 477.208H419.741M555.773 477.208L585.317 447.549M963.87 477.208L945.872 508.83M585.317 447.549H453.505M781.3 542.615L755.56 578.794M781.3 542.615H926.641M945.872 508.83L926.641 542.615M926.641 542.615L906.047 578.794M605.071 578.794L571.913 617.631M605.071 578.794H755.56M605.071 578.794H454.583M755.56 578.794L727.928 617.631M755.56 578.794H906.047M906.047 578.794L883.942 617.631M571.913 617.631H727.928M571.913 617.631H415.899M698.188 659.429L727.928 617.631M698.188 659.429L666.092 704.54M698.188 659.429H860.151M727.928 617.631H883.942M415.899 617.631H259.884M415.899 617.631L454.583 578.794M883.942 617.631L860.151 659.429M454.583 578.794H304.094M666.092 704.54L631.346 753.374M666.092 704.54H834.473M860.151 659.429L834.473 704.54M834.473 704.54L806.678 753.374M456.017 753.374L410.732 806.413M456.017 753.374H631.346M456.017 753.374H280.685M631.346 753.374L593.61 806.413M631.346 753.374H806.678M806.678 753.374L776.488 806.413M410.732 806.413H593.61M410.732 806.413H227.854M552.479 864.222L593.61 806.413M552.479 864.222L507.472 927.478M552.479 864.222H743.582M593.61 806.413H776.488M227.854 806.413H44.976M227.854 806.413L280.685 753.374M776.488 806.413L743.582 864.222M280.685 753.374H105.355M507.472 927.478L458.017 996.988M507.472 927.478H707.578M743.582 864.222L707.578 927.478M707.578 927.478L668.013 996.988M248.02 996.988L182.5 1073.73M248.02 996.988H458.017M248.02 996.988H38.0224M458.017 996.988L403.418 1073.73M458.017 996.988H668.013M668.013 996.988L624.333 1073.73M403.418 1073.73H182.5M403.418 1073.73H624.333M182.5 1073.73L1.81115 1073.73M38.0224 996.988L1.81115 1033.34M38.0224 996.988H1.81115M752.471 52.1919L738.791 61.8053M752.471 52.1919H828.023M752.471 52.1919H676.918M839.905 42.9142L851.379 33.9554M839.905 42.9142L828.023 52.1919M839.905 42.9142H914.138M851.379 33.9554H924.336M851.379 33.9554L862.465 25.2999M790.737 25.2999H862.465M790.737 25.2999L795.251 22.1288L802.647 16.9309M790.737 25.2999H719.011M828.023 52.1919L815.712 61.8053M828.023 52.1919H903.576M914.138 42.9142L924.336 33.9554M914.138 42.9142L903.576 52.1919M924.336 33.9554L931.759 27.436L934.191 25.2999M862.465 25.2999L863.823 24.2372L873.182 16.9309M862.465 25.2999H934.191M903.576 52.1919L892.632 61.8053M1005.92 25.2999L1014.25 16.9309M1005.92 25.2999H934.191M934.191 25.2999L937.801 22.1288L943.717 16.9309M738.791 61.8053H815.712M738.791 61.8053H661.87M802.947 71.7729L815.712 61.8053M802.947 71.7729L789.702 82.1148M802.947 71.7729H881.286M815.712 61.8053H892.632M661.87 61.8053H584.949M661.87 61.8053L676.918 52.1919M892.632 61.8053L881.286 71.7729M676.918 52.1919H601.365M789.702 82.1148L786.311 84.7607L775.948 92.8525M789.702 82.1148H869.512M881.286 71.7729L869.512 82.1148M869.512 82.1148L857.287 92.8525M694.609 92.8525L692.659 94.2247L678.733 104.011M694.609 92.8525H775.948M694.609 92.8525H613.27M775.948 92.8525L761.66 104.011M775.948 92.8525H857.287M857.287 92.8525L855.728 94.2247L844.587 104.011M678.733 104.011H761.66M678.733 104.011H595.807M746.802 115.612L761.66 104.011M746.802 115.612L731.34 127.685M746.802 115.612H831.379M761.66 104.011H844.587M595.807 104.011H512.88M595.807 104.011L613.27 92.8525M844.587 104.011L831.379 115.612M613.27 92.8525H531.932M731.34 127.685L715.236 140.259M731.34 127.685H817.635M831.379 115.612L817.635 127.685M817.635 127.685L803.322 140.259M627.153 140.259L608.502 153.365M627.153 140.259H715.236M627.153 140.259H539.067M715.236 140.259L698.452 153.365M715.236 140.259H803.322M803.322 140.259L788.401 153.365M608.502 153.365H698.452M608.502 153.365H518.552M680.941 167.038L698.452 153.365M680.941 167.038L662.655 181.315M680.941 167.038H772.835M698.452 153.365H788.401M518.552 153.365H428.602M518.552 153.365L539.067 140.259M788.401 153.365L772.835 167.038M539.067 140.259H450.982M662.655 181.315L643.543 196.239M662.655 181.315H756.583M772.835 167.038L756.583 181.315M756.583 181.315L739.594 196.239M547.492 196.239L525.275 211.853M547.492 196.239H643.543M547.492 196.239H451.441M643.543 196.239L623.547 211.853M643.543 196.239H739.594M739.594 196.239L721.82 211.853M525.275 211.853H623.547M525.275 211.853H427.002M602.603 228.205L623.547 211.853M602.603 228.205L580.644 245.352M602.603 228.205H703.202M623.547 211.853H721.82M427.002 211.853H328.729M427.002 211.853L451.441 196.239M721.82 211.853L703.202 228.205M451.441 196.239H355.391M580.644 245.352L557.593 263.351M580.644 245.352H683.683M703.202 228.205L683.683 245.352M683.683 245.352L663.194 263.351M451.992 263.351L425.075 282.267M451.992 263.351H557.593M451.992 263.351H346.393M557.593 263.351L533.367 282.267M557.593 263.351H663.194M663.194 263.351L641.661 282.267M425.075 282.267H533.367M425.075 282.267H316.782M507.873 302.173L533.367 282.267M507.873 302.173L481.011 323.147M507.873 302.173H618.999M533.367 282.267H641.661M316.782 282.267H208.49M316.782 282.267L346.393 263.351M641.661 282.267L618.999 302.173M346.393 263.351H240.792M481.011 323.147L452.665 345.282M481.011 323.147H595.121M618.999 302.173L595.121 323.147M595.121 323.147L569.925 345.282M335.405 345.282L302.123 368.67M335.405 345.282H452.665M335.405 345.282H218.147M452.665 345.282L422.711 368.67M452.665 345.282H569.925M569.925 345.282L543.299 368.67M302.123 368.67H422.711M302.123 368.67H181.536M391.006 393.428L422.711 368.67M391.006 393.428L357.393 419.673M391.006 393.428H515.116M422.711 368.67H543.299M181.536 368.67H60.9479M181.536 368.67L218.147 345.282M543.299 368.67L515.116 393.428M218.147 345.282H100.887M357.393 419.673L321.693 447.549M357.393 419.673H485.238M515.116 393.428L485.238 419.673M485.238 419.673L453.505 447.549M189.881 447.549L147.676 477.208M189.881 447.549H321.693M189.881 447.549H58.0689M321.693 447.549L283.709 477.208M321.693 447.549H453.505M453.505 447.549L419.741 477.208M147.676 477.208H283.709M147.676 477.208H11.6437M243.209 508.83L283.709 477.208M243.209 508.83L199.941 542.615M243.209 508.83H383.741M283.709 477.208H419.741M11.6437 477.208L58.0689 447.549M11.6437 477.208H1.81115M11.6437 477.208L1.81115 483.489M419.741 477.208L383.741 508.83M58.0689 447.549H1.81115M199.941 542.615L153.607 578.794M199.941 542.615H345.28M383.741 508.83L345.28 542.615M345.28 542.615L304.094 578.794M3.11809 578.794H153.607M3.11809 578.794H1.81115M3.11809 578.794L1.81115 579.713M153.607 578.794L103.868 617.631M153.607 578.794H304.094M304.094 578.794L259.884 617.631M50.3387 659.429L103.868 617.631M50.3387 659.429H212.301M50.3387 659.429H1.81115M50.3387 659.429L1.81115 697.321M103.868 617.631H259.884M103.868 617.631H1.81115M259.884 617.631L212.301 659.429M212.301 659.429L160.948 704.54M160.948 704.54L105.355 753.374M160.948 704.54H1.81115M105.355 753.374L44.976 806.413M105.355 753.374H1.81115M44.976 806.413H1.81115M44.976 806.413L1.81115 844.33M450.258 52.1919L431.108 61.8053M450.258 52.1919H525.813M450.258 52.1919H374.706M542.974 42.9142L559.547 33.9554M542.974 42.9142L525.813 52.1919M542.974 42.9142H617.207M559.547 33.9554H632.504M559.547 33.9554L575.559 25.2999M503.833 25.2999H575.559M503.833 25.2999L520.505 16.9309M503.833 25.2999H432.107M525.813 52.1919L508.029 61.8053M525.813 52.1919H601.365M617.207 42.9142L632.504 33.9554M617.207 42.9142L601.365 52.1919M632.504 33.9554L647.285 25.2999M575.559 25.2999L577.522 24.2372L591.04 16.9309M575.559 25.2999H647.285M601.365 52.1919L584.949 61.8053M719.011 25.2999L732.11 16.9309M719.011 25.2999H647.285M647.285 25.2999L649.097 24.2372L661.575 16.9309M431.108 61.8053H508.029M431.108 61.8053H354.187M489.589 71.7729L508.029 61.8053M489.589 71.7729L470.457 82.1148M489.589 71.7729H567.929M508.029 61.8053H584.949M354.187 61.8053H277.266M354.187 61.8053L374.706 52.1919M584.949 61.8053L567.929 71.7729M374.706 52.1919H299.153M470.457 82.1148L450.593 92.8525M470.457 82.1148H550.268M567.929 71.7729L565.756 73.0435L550.268 82.1148M550.268 82.1148L531.932 92.8525M369.254 92.8525L347.026 104.011M369.254 92.8525H450.593M369.254 92.8525H287.915M450.593 92.8525L429.953 104.011M450.593 92.8525H531.932M531.932 92.8525L512.88 104.011M347.026 104.011H429.953M347.026 104.011H264.1M408.492 115.612L429.953 104.011M408.492 115.612L386.158 127.685M408.492 115.612H493.069M429.953 104.011H512.88M264.1 104.011H181.173M264.1 104.011L287.915 92.8525M512.88 104.011L493.069 115.612M287.915 92.8525H206.576M386.158 127.685L362.898 140.259M386.158 127.685H472.453M493.069 115.612L472.453 127.685M472.453 127.685L450.982 140.259M274.813 140.259L248.702 153.365M274.813 140.259H362.898M274.813 140.259H186.727M362.898 140.259L338.653 153.365M362.898 140.259H450.982M450.982 140.259L428.602 153.365M248.702 153.365H338.653M248.702 153.365H158.753M313.358 167.038L338.653 153.365M313.358 167.038L286.947 181.315M313.358 167.038H405.255M338.653 153.365H428.602M158.753 153.365H68.8036M158.753 153.365L186.727 140.259M428.602 153.365L405.255 167.038M186.727 140.259H98.6434M286.947 181.315L259.34 196.239M286.947 181.315H380.873M405.255 167.038L380.873 181.315M380.873 181.315L355.391 196.239M163.289 196.239L132.184 211.853M163.289 196.239H259.34M163.289 196.239H67.2394M259.34 196.239L230.457 211.853M259.34 196.239H355.391M355.391 196.239L328.729 211.853M132.184 211.853H230.457M200.204 228.205L230.457 211.853M200.204 228.205L168.487 245.352M200.204 228.205H300.805M230.457 211.853H328.729M328.729 211.853L300.805 228.205M67.2394 196.239H1.81115M168.487 245.352L135.19 263.351M168.487 245.352H271.526M300.805 228.205L271.526 245.352M271.526 245.352L240.792 263.351M29.5893 263.351H135.19M29.5893 263.351H1.81115M29.5893 263.351L1.81115 277.294M135.19 263.351L100.197 282.267M135.19 263.351H240.792M240.792 263.351L208.49 282.267M63.3735 302.173L100.197 282.267M63.3735 302.173L24.5719 323.147M63.3735 302.173H174.499M63.3735 302.173H1.81115M100.197 282.267H208.49M100.197 282.267H1.81115M208.49 282.267L174.499 302.173M1.50521 277.448L1.81115 277.294M24.5719 323.147H138.681M24.5719 323.147H1.81115M24.5719 323.147L1.81115 335.452M174.499 302.173L138.681 323.147M138.681 323.147L100.887 345.282M100.887 345.282L60.9479 368.67M100.887 345.282H1.81115M18.6742 393.428L60.9479 368.67M18.6742 393.428H1.81115M18.6742 393.428L1.81115 403.302M60.9479 368.67H1.81115M148.048 52.1919L123.425 61.8053M148.048 52.1919H223.601M148.048 52.1919H72.4938M246.043 42.9142L267.715 33.9554M246.043 42.9142L223.601 52.1919M246.043 42.9142H320.276M267.715 33.9554H340.672M267.715 33.9554L288.654 25.2999M216.928 25.2999H288.654M216.928 25.2999L238.363 16.9309M216.928 25.2999H145.202M223.601 52.1919L200.346 61.8053M223.601 52.1919H299.153M320.276 42.9142L340.672 33.9554M320.276 42.9142L299.153 52.1919M340.672 33.9554L360.38 25.2999M288.654 25.2999H360.38M288.654 25.2999L308.9 16.9309M299.153 52.1919L277.266 61.8053M432.107 25.2999L449.97 16.9309M432.107 25.2999H360.38M360.38 25.2999L379.435 16.9309M123.425 61.8053H200.346M123.425 61.8053H46.5042M176.233 71.7729L200.346 61.8053M176.233 71.7729L151.214 82.1148M176.233 71.7729H254.572M200.346 61.8053H277.266M46.5042 61.8053L72.4938 52.1919M46.5042 61.8053H1.81115M277.266 61.8053L254.572 71.7729M72.4938 52.1919H1.81115M151.214 82.1148L125.237 92.8525M151.214 82.1148H231.025M254.572 71.7729L231.025 82.1148M231.025 82.1148L206.576 92.8525M43.8981 92.8525L15.3198 104.011M43.8981 92.8525H125.237M43.8981 92.8525H1.81115M125.237 92.8525L98.2465 104.011M125.237 92.8525H206.576M206.576 92.8525L181.173 104.011M70.1811 115.612L98.2465 104.011M70.1811 115.612L40.9752 127.685M70.1811 115.612H154.758M70.1811 115.612H1.81115M98.2465 104.011H15.3198M98.2465 104.011H181.173M15.3198 104.011L1.81115 109.284M15.3198 104.011H1.81115M181.173 104.011L154.758 115.612M40.9752 127.685L10.558 140.259M40.9752 127.685H127.27M40.9752 127.685H1.81115M154.758 115.612L127.27 127.685M127.27 127.685L98.6434 140.259M10.558 140.259H98.6434M10.558 140.259L1.81115 143.874M10.558 140.259H1.81115M98.6434 140.259L68.8036 153.365M37.6726 167.038L68.8036 153.365M37.6726 167.038L5.16556 181.315M37.6726 167.038H1.81115M68.8036 153.365H1.81115M1.34047 153.365H1.81115M5.16556 181.315H1.81115M5.16556 181.315L1.81115 182.789M1 183.145L1.81115 182.789M23.3449 42.9142L48.8403 33.9554M23.3449 42.9142H1.81115M23.3449 42.9142L1.81115 50.4801M48.8403 33.9554L73.4759 25.2999M48.8403 33.9554H1.81115M145.202 25.2999L167.828 16.9309M145.202 25.2999H73.4759M73.4759 25.2999L97.2925 16.9309M73.4759 25.2999H1.81115M2495.5 16.9309H2566.03M2495.5 16.9309H2424.96M2548.75 8.83608L2553.02 10.8352L2566.03 16.9309M2548.75 8.83608H2618.13M2566.03 16.9309H2636.57M2618.13 8.83608L2622.68 10.8352L2624.98 11.8393L2636.57 16.9309M2636.57 16.9309H2707.1M2707.1 16.9309H2777.64M2424.96 16.9309H2354.42M2777.64 16.9309H2848.17M2848.17 16.9309L2826.28 8.83608M2848.17 16.9309H2918.71M2826.28 8.83608H2895.67M2213.35 16.9309H2283.89M2213.35 16.9309H2142.82M2271.22 8.83608L2274.35 10.8352L2275.92 11.8393L2283.89 16.9309M2271.22 8.83608H2340.6M2283.89 16.9309H2354.42M2340.6 8.83608L2354.42 16.9309M2142.82 16.9309H2072.28M1931.21 16.9309H2001.75M1931.21 16.9309H1860.68M1993.68 8.83608L1994.68 9.83254L1995.67 10.8352L1996.68 11.8393L2001.75 16.9309M1993.68 8.83608H2063.07M2001.75 16.9309H2072.28M2063.07 8.83608L2072.28 16.9309M1860.68 16.9309H1790.14M1649.07 16.9309H1719.61M1649.07 16.9309H1578.54M1716.15 8.83608L1719.61 16.9309M1716.15 8.83608H1785.53M1719.61 16.9309H1790.14M1785.53 8.83608L1786.1 9.83254L1786.67 10.8352L1787.24 11.8393L1790.14 16.9309M1578.54 16.9309H1508M1366.93 16.9309H1437.46M1366.93 16.9309H1296.39M1438.62 8.83608L1437.46 16.9309M1438.62 8.83608H1508M1437.46 16.9309H1508M1508 8.83608V16.9309M1296.39 16.9309H1225.86M1084.79 16.9309H1155.32M1084.79 16.9309H1014.25M1161.08 8.83608L1159.66 10.8352L1156.78 14.8811L1155.32 16.9309M1161.08 8.83608H1230.47M1155.32 16.9309H1225.86M1230.47 8.83608L1229.9 9.83254L1229.33 10.8352L1228.76 11.8393L1225.86 16.9309M1014.25 16.9309H943.717M802.647 16.9309H873.182M802.647 16.9309H732.11M883.55 8.83608L880.989 10.8352L879.701 11.8393L873.182 16.9309M883.55 8.83608H952.933M873.182 16.9309H943.717M952.933 8.83608L951.797 9.83254L943.717 16.9309M732.11 16.9309H661.575M520.505 16.9309H591.04M520.505 16.9309H449.97M606.016 8.83608L602.318 10.8352L600.457 11.8393L591.04 16.9309M606.016 8.83608H675.399M591.04 16.9309H661.575M675.399 8.83608L673.695 9.83254L661.575 16.9309M449.97 16.9309H379.435M238.363 16.9309H308.9M238.363 16.9309H167.828M328.482 8.83608L308.9 16.9309M328.482 8.83608H397.865M308.9 16.9309H379.435M397.865 8.83608L393.315 10.8352L391.025 11.8393L379.435 16.9309M167.828 16.9309H97.2925M50.949 8.83608L26.7574 16.9309M50.949 8.83608H120.333M50.949 8.83608H1.81115M26.7574 16.9309H97.2925M26.7574 16.9309L1.81115 25.2794M26.7574 16.9309H1.81115M120.333 8.83608L114.644 10.8352L97.2925 16.9309M2895.67 8.83608L2901.36 10.8352L2918.71 16.9309M2918.71 16.9309H2989.24M2989.24 16.9309L3014.19 25.2795M2989.24 16.9309H3014.19M3014.19 403.302V393.428M3014.19 403.302V419.673M3014.19 393.428V368.67M3014.19 419.673V424.565V447.549M3014.19 447.549V477.208M3014.19 211.853V196.239M3014.19 211.853V226.891M3014.19 8.83608V16.9309M3014.19 16.9309V25.2795M3014.19 25.2795L3014.25 25.2999H3014.19M3014.19 25.2795V25.2999M3014.19 25.2999V33.9554M3014.19 33.9554V42.9142M3014.19 42.9142V50.4801M3014.19 50.4801V52.1919M3014.19 52.1919V61.8053M3014.19 61.8053V71.7729M3014.19 71.7729V78.334M3014.19 78.334V82.1148M3014.19 82.1148V92.8525M3014.19 92.8525V104.011M3014.19 104.011V109.284M3014.19 109.284V115.612M3014.19 115.612V127.685M3014.19 127.685V140.259M3014.19 140.259V143.874M3014.19 143.874V153.365M3014.19 153.365V167.038M3014.19 167.038V181.315M3014.19 181.315V182.789M3014.19 182.789V196.239M3014.19 228.205V245.352M3014.19 228.205V226.891M3014.19 245.352V263.351M3014.19 263.351V277.294M3014.19 277.294V282.267M3014.19 282.267V302.173M3014.19 302.173V323.147M3014.19 323.147V335.452M3014.19 335.452V345.282M3014.19 345.282V368.67M3014.19 477.208V483.489M3014.19 483.489V508.83M3014.19 508.83V542.615M3014.19 542.615V578.794M3014.19 578.794V579.713M3014.19 579.713V617.631M3014.19 617.631V659.429M3014.19 659.429V697.321M3014.19 697.321V704.54M3014.19 704.54V753.374M3014.19 753.374V806.413M3014.19 806.413V844.33M3014.19 844.33V864.222M3014.19 864.222V927.478M3014.19 927.478V996.988M3014.19 996.988V1033.34M3014.19 1033.34V1073.73M3014.19 1073.73V1074H1.81115V1073.73M1.81115 228.205V245.352M1.81115 228.205V226.891M1.81115 226.891V211.853M1.81115 211.853V196.239M1.81115 196.239V182.789M1.81115 182.789V181.315M1.81115 181.315V167.038M1.81115 167.038V153.365M1.81115 153.365V143.874M1.81115 143.874V140.259M1.81115 140.259V127.685M1.81115 127.685V115.612M1.81115 115.612V109.284M1.81115 109.284V104.011M1.81115 104.011V92.8525M1.81115 92.8525V82.1148M1.81115 82.1148V78.334M1.81115 78.334V71.7729M1.81115 71.7729V61.8053M1.81115 61.8053V52.1919M1.81115 52.1919V50.4801M1.81115 50.4801V42.9142M1.81115 42.9142V33.9554M1.81115 33.9554V25.2999M1.81115 25.2999H1.74996L1.81115 25.2794M1.81115 25.2999V25.2794M1.81115 25.2794V16.9309M1.81115 16.9309V8.83608M1.81115 1073.73V1033.34M1.81115 1033.34V996.988M1.81115 996.988V927.479M1.81115 927.479V864.222M1.81115 864.222V844.33M1.81115 844.33V806.413M1.81115 806.413V753.374M1.81115 753.374V704.54M1.81115 704.54V697.321M1.81115 697.321V659.429M1.81115 659.429V617.631M1.81115 617.631V579.713M1.81115 579.713V578.794M1.81115 578.794V542.615M1.81115 542.615V508.83M1.81115 508.83V483.489M1.81115 483.489V477.208M1.81115 477.208V447.549M1.81115 447.549V419.673M1.81115 419.673V403.302M1.81115 403.302V393.428M1.81115 393.428V368.67M1.81115 368.67V345.282M1.81115 345.282V335.452M1.81115 335.452V323.147M1.81115 323.147V302.173M1.81115 302.173V282.267M1.81115 282.267V277.294M1.81115 277.294V263.351M1.81115 263.351V245.352" stroke="url(#paint0_radial_174_1630)" stroke-width="1.2" stroke-miterlimit="10" stroke-linecap="round" stroke-linejoin="round"/>
</g>
<defs>
<radialGradient id="paint0_radial_174_1630" cx="0" cy="0" r="1" gradientUnits="userSpaceOnUse" gradientTransform="translate(1508 537.5) rotate(90) scale(388.95 1088.17)">
<stop offset="0.665789" stop-color="white"/>
<stop offset="1" stop-color="white" stop-opacity="0"/>
</radialGradient>
</defs>
</svg>
