<svg width="2874" height="1328" viewBox="0 0 2874 1328" fill="none" xmlns="http://www.w3.org/2000/svg">
<g style="mix-blend-mode:soft-light" opacity="0.7">
<path d="M83.7715 19.6055H19.332V84.0449M83.7715 19.6055V84.0449M83.7715 19.6055H148.211M83.7715 84.0449H19.332M83.7715 84.0449V148.484M83.7715 84.0449H148.211M19.332 84.0449V148.484M83.7715 148.484H19.332M83.7715 148.484V212.924M83.7715 148.484H148.211M19.332 148.484V212.924M83.7715 212.924H19.332M83.7715 212.924V277.363M83.7715 212.924H148.211M19.332 212.924V277.363M83.7715 277.363H19.332M83.7715 277.363V341.803M83.7715 277.363H148.211M19.332 277.363V341.803M83.7715 341.803H19.332M83.7715 341.803V406.242M83.7715 341.803H148.211M19.332 341.803V406.242M83.7715 406.242H19.332M83.7715 406.242V470.682M83.7715 406.242H148.211M19.332 406.242V470.682M83.7715 470.682H19.332M83.7715 470.682V535.121M83.7715 470.682H148.211M19.332 470.682V535.121M83.7715 535.121H19.332M83.7715 535.121V599.561M83.7715 535.121H148.211M19.332 535.121V599.561M83.7715 599.561H19.332M83.7715 599.561V664M83.7715 599.561H148.211M19.332 599.561V664M83.7715 664H19.332M83.7715 664V728.44M83.7715 664H148.211M19.332 664V728.44M83.7715 728.44H19.332M83.7715 728.44V792.879M83.7715 728.44H148.211M19.332 728.44V792.879M83.7715 792.879H19.332M83.7715 792.879V857.318M83.7715 792.879H148.211M19.332 792.879V857.318M83.7715 857.318H19.332M83.7715 857.318V921.758M83.7715 857.318H148.211M19.332 857.318V921.758M83.7715 921.758H19.332M83.7715 921.758V986.197M83.7715 921.758H148.211M19.332 921.758V986.197M83.7715 986.197H19.332M83.7715 986.197V1050.64M83.7715 986.197H148.211M19.332 986.197V1050.64M83.7715 1050.64H19.332M83.7715 1050.64V1115.08M83.7715 1050.64H148.211M19.332 1050.64V1115.08M83.7715 1115.08H19.332M83.7715 1115.08V1179.52M83.7715 1115.08H148.211M19.332 1115.08V1179.52M83.7715 1179.52H19.332M83.7715 1179.52V1243.96M83.7715 1179.52H148.211M19.332 1179.52V1243.96M83.7715 1243.96H19.332M83.7715 1243.96V1308.39M83.7715 1243.96H148.211M19.332 1243.96V1308.39H83.7715M83.7715 1308.39H148.211M148.211 19.6055V84.0449M148.211 19.6055H212.65M148.211 84.0449V148.484M148.211 84.0449H212.65M148.211 148.484V212.924M148.211 148.484H212.65M148.211 212.924V277.363M148.211 212.924H212.65M148.211 277.363V341.803M148.211 277.363H212.65M148.211 341.803V406.242M148.211 341.803H212.65M148.211 406.242V470.682M148.211 406.242H212.65M148.211 470.682V535.121M148.211 470.682H212.65M148.211 535.121V599.561M148.211 535.121H212.65M148.211 599.561V664M148.211 599.561H212.65M148.211 664V728.44M148.211 664H212.65M148.211 728.44V792.879M148.211 728.44H212.65M148.211 792.879V857.318M148.211 792.879H212.65M148.211 857.318V921.758M148.211 857.318H212.65M148.211 921.758V986.197M148.211 921.758H212.65M148.211 986.197V1050.64M148.211 986.197H212.65M148.211 1050.64V1115.08M148.211 1050.64H212.65M148.211 1115.08V1179.52M148.211 1115.08H212.65M148.211 1179.52V1243.96M148.211 1179.52H212.65M148.211 1243.96V1308.39M148.211 1243.96H212.65M148.211 1308.39H212.65M212.65 19.6055V84.0449M212.65 19.6055H277.09M212.65 84.0449V148.484M212.65 84.0449H277.09M212.65 148.484V212.924M212.65 148.484H277.09M212.65 212.924V277.363M212.65 212.924H277.09M212.65 277.363V341.803M212.65 277.363H277.09M212.65 341.803V406.242M212.65 341.803H277.09M212.65 406.242V470.682M212.65 406.242H277.09M212.65 470.682V535.121M212.65 470.682H277.09M212.65 535.121V599.561M212.65 535.121H277.09M212.65 599.561V664M212.65 599.561H277.09M212.65 664V728.44M212.65 664H277.09M212.65 728.44V792.879M212.65 728.44H277.09M212.65 792.879V857.318M212.65 792.879H277.09M212.65 857.318V921.758M212.65 857.318H277.09M212.65 921.758V986.197M212.65 921.758H277.09M212.65 986.197V1050.64M212.65 986.197H277.09M212.65 1050.64V1115.08M212.65 1050.64H277.09M212.65 1115.08V1179.52M212.65 1115.08H277.09M212.65 1179.52V1243.96M212.65 1179.52H277.09M212.65 1243.96V1308.39M212.65 1243.96H277.09M212.65 1308.39H277.09M277.09 19.6055V84.0449M277.09 19.6055H341.529M277.09 84.0449V148.484M277.09 84.0449H341.529M277.09 148.484V212.924M277.09 148.484H341.529M277.09 212.924V277.363M277.09 212.924H341.529M277.09 277.363V341.803M277.09 277.363H341.529M277.09 341.803V406.242M277.09 341.803H341.529M277.09 406.242V470.682M277.09 406.242H341.529M277.09 470.682V535.121M277.09 470.682H341.529M277.09 535.121V599.561M277.09 535.121H341.529M277.09 599.561V664M277.09 599.561H341.529M277.09 664V728.44M277.09 664H341.529M277.09 728.44V792.879M277.09 728.44H341.529M277.09 792.879V857.318M277.09 792.879H341.529M277.09 857.318V921.758M277.09 857.318H341.529M277.09 921.758V986.197M277.09 921.758H341.529M277.09 986.197V1050.64M277.09 986.197H341.529M277.09 1050.64V1115.08M277.09 1050.64H341.529M277.09 1115.08V1179.52M277.09 1115.08H341.529M277.09 1179.52V1243.96M277.09 1179.52H341.529M277.09 1243.96V1308.39M277.09 1243.96H341.529M277.09 1308.39H341.529M341.529 19.6055V84.0449M341.529 19.6055H405.969M341.529 84.0449V148.484M341.529 84.0449H405.969M341.529 148.484V212.924M341.529 148.484H405.969M341.529 212.924V277.363M341.529 212.924H405.969M341.529 277.363V341.803M341.529 277.363H405.969M341.529 341.803V406.242M341.529 341.803H405.969M341.529 406.242V470.682M341.529 406.242H405.969M341.529 470.682V535.121M341.529 470.682H405.969M341.529 535.121V599.561M341.529 535.121H405.969M341.529 599.561V664M341.529 599.561H405.969M341.529 664V728.44M341.529 664H405.969M341.529 728.44V792.879M341.529 728.44H405.969M341.529 792.879V857.318M341.529 792.879H405.969M341.529 857.318V921.758M341.529 857.318H405.969M341.529 921.758V986.197M341.529 921.758H405.969M341.529 986.197V1050.64M341.529 986.197H405.969M341.529 1050.64V1115.08M341.529 1050.64H405.969M341.529 1115.08V1179.52M341.529 1115.08H405.969M341.529 1179.52V1243.96M341.529 1179.52H405.969M341.529 1243.96V1308.39M341.529 1243.96H405.969M341.529 1308.39H405.969M405.969 19.6055V84.0449M405.969 19.6055H470.408M405.969 84.0449V148.484M405.969 84.0449H470.408M405.969 148.484V212.924M405.969 148.484H470.408M405.969 212.924V277.363M405.969 212.924H470.408M405.969 277.363V341.803M405.969 277.363H470.408M405.969 341.803V406.242M405.969 341.803H470.408M405.969 406.242V470.682M405.969 406.242H470.408M405.969 470.682V535.121M405.969 470.682H470.408M405.969 535.121V599.561M405.969 535.121H470.408M405.969 599.561V664M405.969 599.561H470.408M405.969 664V728.44M405.969 664H470.408M405.969 728.44V792.879M405.969 728.44H470.408M405.969 792.879V857.318M405.969 792.879H470.408M405.969 857.318V921.758M405.969 857.318H470.408M405.969 921.758V986.197M405.969 921.758H470.408M405.969 986.197V1050.64M405.969 986.197H470.408M405.969 1050.64V1115.08M405.969 1050.64H470.408M405.969 1115.08V1179.52M405.969 1115.08H470.408M405.969 1179.52V1243.96M405.969 1179.52H470.408M405.969 1243.96V1308.39M405.969 1243.96H470.408M405.969 1308.39H470.408M470.408 19.6055V84.0449M470.408 19.6055H534.848M470.408 84.0449V148.484M470.408 84.0449H534.848M470.408 148.484V212.924M470.408 148.484H534.848M470.408 212.924V277.363M470.408 212.924H534.848M470.408 277.363V341.803M470.408 277.363H534.848M470.408 341.803V406.242M470.408 341.803H534.848M470.408 406.242V470.682M470.408 406.242H534.848M470.408 470.682V535.121M470.408 470.682H534.848M470.408 535.121V599.561M470.408 535.121H534.848M470.408 599.561V664M470.408 599.561H534.848M470.408 664V728.44M470.408 664H534.848M470.408 728.44V792.879M470.408 728.44H534.848M470.408 792.879V857.318M470.408 792.879H534.848M470.408 857.318V921.758M470.408 857.318H534.848M470.408 921.758V986.197M470.408 921.758H534.848M470.408 986.197V1050.64M470.408 986.197H534.848M470.408 1050.64V1115.08M470.408 1050.64H534.848M470.408 1115.08V1179.52M470.408 1115.08H534.848M470.408 1179.52V1243.96M470.408 1179.52H534.848M470.408 1243.96V1308.39M470.408 1243.96H534.848M470.408 1308.39H534.848M534.848 19.6055V84.0449M534.848 19.6055H599.287M534.848 84.0449V148.484M534.848 84.0449H599.287M534.848 148.484V212.924M534.848 148.484H599.287M534.848 212.924V277.363M534.848 212.924H599.287M534.848 277.363V341.803M534.848 277.363H599.287M534.848 341.803V406.242M534.848 341.803H599.287M534.848 406.242V470.682M534.848 406.242H599.287M534.848 470.682V535.121M534.848 470.682H599.287M534.848 535.121V599.561M534.848 535.121H599.287M534.848 599.561V664M534.848 599.561H599.287M534.848 664V728.44M534.848 664H599.287M534.848 728.44V792.879M534.848 728.44H599.287M534.848 792.879V857.318M534.848 792.879H599.287M534.848 857.318V921.758M534.848 857.318H599.287M534.848 921.758V986.197M534.848 921.758H599.287M534.848 986.197V1050.64M534.848 986.197H599.287M534.848 1050.64V1115.08M534.848 1050.64H599.287M534.848 1115.08V1179.52M534.848 1115.08H599.287M534.848 1179.52V1243.96M534.848 1179.52H599.287M534.848 1243.96V1308.39M534.848 1243.96H599.287M534.848 1308.39H599.287M599.287 19.6055V84.0449M599.287 19.6055H663.727M599.287 84.0449V148.484M599.287 84.0449H663.727M599.287 148.484V212.924M599.287 148.484H663.727M599.287 212.924V277.363M599.287 212.924H663.727M599.287 277.363V341.803M599.287 277.363H663.727M599.287 341.803V406.242M599.287 341.803H663.727M599.287 406.242V470.682M599.287 406.242H663.727M599.287 470.682V535.121M599.287 470.682H663.727M599.287 535.121V599.561M599.287 535.121H663.727M599.287 599.561V664M599.287 599.561H663.727M599.287 664V728.44M599.287 664H663.727M599.287 728.44V792.879M599.287 728.44H663.727M599.287 792.879V857.318M599.287 792.879H663.727M599.287 857.318V921.758M599.287 857.318H663.727M599.287 921.758V986.197M599.287 921.758H663.727M599.287 986.197V1050.64M599.287 986.197H663.727M599.287 1050.64V1115.08M599.287 1050.64H663.727M599.287 1115.08V1179.52M599.287 1115.08H663.727M599.287 1179.52V1243.96M599.287 1179.52H663.727M599.287 1243.96V1308.39M599.287 1243.96H663.727M599.287 1308.39H663.727M663.727 19.6055V84.0449M663.727 19.6055H728.166M663.727 84.0449V148.484M663.727 84.0449H728.166M663.727 148.484V212.924M663.727 148.484H728.166M663.727 212.924V277.363M663.727 212.924H728.166M663.727 277.363V341.803M663.727 277.363H728.166M663.727 341.803V406.242M663.727 341.803H728.166M663.727 406.242V470.682M663.727 406.242H728.166M663.727 470.682V535.121M663.727 470.682H728.166M663.727 535.121V599.561M663.727 535.121H728.166M663.727 599.561V664M663.727 599.561H728.166M663.727 664V728.44M663.727 664H728.166M663.727 728.44V792.879M663.727 728.44H728.166M663.727 792.879V857.318M663.727 792.879H728.166M663.727 857.318V921.758M663.727 857.318H728.166M663.727 921.758V986.197M663.727 921.758H728.166M663.727 986.197V1050.64M663.727 986.197H728.166M663.727 1050.64V1115.08M663.727 1050.64H728.166M663.727 1115.08V1179.52M663.727 1115.08H728.166M663.727 1179.52V1243.96M663.727 1179.52H728.166M663.727 1243.96V1308.39M663.727 1243.96H728.166M663.727 1308.39H728.166M728.166 19.6055V84.0449M728.166 19.6055H792.606M728.166 84.0449V148.484M728.166 84.0449H792.606M728.166 148.484V212.924M728.166 148.484H792.606M728.166 212.924V277.363M728.166 212.924H792.606M728.166 277.363V341.803M728.166 277.363H792.606M728.166 341.803V406.242M728.166 341.803H792.606M728.166 406.242V470.682M728.166 406.242H792.606M728.166 470.682V535.121M728.166 470.682H792.606M728.166 535.121V599.561M728.166 535.121H792.606M728.166 599.561V664M728.166 599.561H792.606M728.166 664V728.44M728.166 664H792.606M728.166 728.44V792.879M728.166 728.44H792.606M728.166 792.879V857.318M728.166 792.879H792.606M728.166 857.318V921.758M728.166 857.318H792.606M728.166 921.758V986.197M728.166 921.758H792.606M728.166 986.197V1050.64M728.166 986.197H792.606M728.166 1050.64V1115.08M728.166 1050.64H792.606M728.166 1115.08V1179.52M728.166 1115.08H792.606M728.166 1179.52V1243.96M728.166 1179.52H792.606M728.166 1243.96V1308.39M728.166 1243.96H792.606M728.166 1308.39H792.606M792.606 19.6055V84.0449M792.606 19.6055H857.045M792.606 84.0449V148.484M792.606 84.0449H857.045M792.606 148.484V212.924M792.606 148.484H857.045M792.606 212.924V277.363M792.606 212.924H857.045M792.606 277.363V341.803M792.606 277.363H857.045M792.606 341.803V406.242M792.606 341.803H857.045M792.606 406.242V470.682M792.606 406.242H857.045M792.606 470.682V535.121M792.606 470.682H857.045M792.606 535.121V599.561M792.606 535.121H857.045M792.606 599.561V664M792.606 599.561H857.045M792.606 664V728.44M792.606 664H857.045M792.606 728.44V792.879M792.606 728.44H857.045M792.606 792.879V857.318M792.606 792.879H857.045M792.606 857.318V921.758M792.606 857.318H857.045M792.606 921.758V986.197M792.606 921.758H857.045M792.606 986.197V1050.64M792.606 986.197H857.045M792.606 1050.64V1115.08M792.606 1050.64H857.045M792.606 1115.08V1179.52M792.606 1115.08H857.045M792.606 1179.52V1243.96M792.606 1179.52H857.045M792.606 1243.96V1308.39M792.606 1243.96H857.045M792.606 1308.39H857.045M857.045 19.6055V84.0449M857.045 19.6055H921.485M857.045 84.0449V148.484M857.045 84.0449H921.485M857.045 148.484V212.924M857.045 148.484H921.485M857.045 212.924V277.363M857.045 212.924H921.485M857.045 277.363V341.803M857.045 277.363H921.485M857.045 341.803V406.242M857.045 341.803H921.485M857.045 406.242V470.682M857.045 406.242H921.485M857.045 470.682V535.121M857.045 470.682H921.485M857.045 535.121V599.561M857.045 535.121H921.485M857.045 599.561V664M857.045 599.561H921.485M857.045 664V728.44M857.045 664H921.485M857.045 728.44V792.879M857.045 728.44H921.485M857.045 792.879V857.318M857.045 792.879H921.485M857.045 857.318V921.758M857.045 857.318H921.485M857.045 921.758V986.197M857.045 921.758H921.485M857.045 986.197V1050.64M857.045 986.197H921.485M857.045 1050.64V1115.08M857.045 1050.64H921.485M857.045 1115.08V1179.52M857.045 1115.08H921.485M857.045 1179.52V1243.96M857.045 1179.52H921.485M857.045 1243.96V1308.39M857.045 1243.96H921.485M857.045 1308.39H921.485M921.485 19.6055V84.0449M921.485 19.6055H985.924M921.485 84.0449V148.484M921.485 84.0449H985.924M921.485 148.484V212.924M921.485 148.484H985.924M921.485 212.924V277.363M921.485 212.924H985.924M921.485 277.363V341.803M921.485 277.363H985.924M921.485 341.803V406.242M921.485 341.803H985.924M921.485 406.242V470.682M921.485 406.242H985.924M921.485 470.682V535.121M921.485 470.682H985.924M921.485 535.121V599.561M921.485 535.121H985.924M921.485 599.561V664M921.485 599.561H985.924M921.485 664V728.44M921.485 664H985.924M921.485 728.44V792.879M921.485 728.44H985.924M921.485 792.879V857.318M921.485 792.879H985.924M921.485 857.318V921.758M921.485 857.318H985.924M921.485 921.758V986.197M921.485 921.758H985.924M921.485 986.197V1050.64M921.485 986.197H985.924M921.485 1050.64V1115.08M921.485 1050.64H985.924M921.485 1115.08V1179.52M921.485 1115.08H985.924M921.485 1179.52V1243.96M921.485 1179.52H985.924M921.485 1243.96V1308.39M921.485 1243.96H985.924M921.485 1308.39H985.924M985.924 19.6055V84.0449M985.924 19.6055H1050.36M985.924 84.0449V148.484M985.924 84.0449H1050.36M985.924 148.484V212.924M985.924 148.484H1050.36M985.924 212.924V277.363M985.924 212.924H1050.36M985.924 277.363V341.803M985.924 277.363H1050.36M985.924 341.803V406.242M985.924 341.803H1050.36M985.924 406.242V470.682M985.924 406.242H1050.36M985.924 470.682V535.121M985.924 470.682H1050.36M985.924 535.121V599.561M985.924 535.121H1050.36M985.924 599.561V664M985.924 599.561H1050.36M985.924 664V728.44M985.924 664H1050.36M985.924 728.44V792.879M985.924 728.44H1050.36M985.924 792.879V857.318M985.924 792.879H1050.36M985.924 857.318V921.758M985.924 857.318H1050.36M985.924 921.758V986.197M985.924 921.758H1050.36M985.924 986.197V1050.64M985.924 986.197H1050.36M985.924 1050.64V1115.08M985.924 1050.64H1050.36M985.924 1115.08V1179.52M985.924 1115.08H1050.36M985.924 1179.52V1243.96M985.924 1179.52H1050.36M985.924 1243.96V1308.39M985.924 1243.96H1050.36M985.924 1308.39H1050.36M1050.36 19.6055V84.0449M1050.36 19.6055H1114.8M1050.36 84.0449V148.484M1050.36 84.0449H1114.8M1050.36 148.484V212.924M1050.36 148.484H1114.8M1050.36 212.924V277.363M1050.36 212.924H1114.8M1050.36 277.363V341.803M1050.36 277.363H1114.8M1050.36 341.803V406.242M1050.36 341.803H1114.8M1050.36 406.242V470.682M1050.36 406.242H1114.8M1050.36 470.682V535.121M1050.36 470.682H1114.8M1050.36 535.121V599.561M1050.36 535.121H1114.8M1050.36 599.561V664M1050.36 599.561H1114.8M1050.36 664V728.44M1050.36 664H1114.8M1050.36 728.44V792.879M1050.36 728.44H1114.8M1050.36 792.879V857.318M1050.36 792.879H1114.8M1050.36 857.318V921.758M1050.36 857.318H1114.8M1050.36 921.758V986.197M1050.36 921.758H1114.8M1050.36 986.197V1050.64M1050.36 986.197H1114.8M1050.36 1050.64V1115.08M1050.36 1050.64H1114.8M1050.36 1115.08V1179.52M1050.36 1115.08H1114.8M1050.36 1179.52V1243.96M1050.36 1179.52H1114.8M1050.36 1243.96V1308.39M1050.36 1243.96H1114.8M1050.36 1308.39H1114.8M1114.8 19.6055V84.0449M1114.8 19.6055H1179.24M1114.8 84.0449V148.484M1114.8 84.0449H1179.24M1114.8 148.484V212.924M1114.8 148.484H1179.24M1114.8 212.924V277.363M1114.8 212.924H1179.24M1114.8 277.363V341.803M1114.8 277.363H1179.24M1114.8 341.803V406.242M1114.8 341.803H1179.24M1114.8 406.242V470.682M1114.8 406.242H1179.24M1114.8 470.682V535.121M1114.8 470.682H1179.24M1114.8 535.121V599.561M1114.8 535.121H1179.24M1114.8 599.561V664M1114.8 599.561H1179.24M1114.8 664V728.44M1114.8 664H1179.24M1114.8 728.44V792.879M1114.8 728.44H1179.24M1114.8 792.879V857.318M1114.8 792.879H1179.24M1114.8 857.318V921.758M1114.8 857.318H1179.24M1114.8 921.758V986.197M1114.8 921.758H1179.24M1114.8 986.197V1050.64M1114.8 986.197H1179.24M1114.8 1050.64V1115.08M1114.8 1050.64H1179.24M1114.8 1115.08V1179.52M1114.8 1115.08H1179.24M1114.8 1179.52V1243.96M1114.8 1179.52H1179.24M1114.8 1243.96V1308.39M1114.8 1243.96H1179.24M1114.8 1308.39H1179.24M1179.24 19.6055V84.0449M1179.24 19.6055H1243.68M1179.24 84.0449V148.484M1179.24 84.0449H1243.68M1179.24 148.484V212.924M1179.24 148.484H1243.68M1179.24 212.924V277.363M1179.24 212.924H1243.68M1179.24 277.363V341.803M1179.24 277.363H1243.68M1179.24 341.803V406.242M1179.24 341.803H1243.68M1179.24 406.242V470.682M1179.24 406.242H1243.68M1179.24 470.682V535.121M1179.24 470.682H1243.68M1179.24 535.121V599.561M1179.24 535.121H1243.68M1179.24 599.561V664M1179.24 599.561H1243.68M1179.24 664V728.44M1179.24 664H1243.68M1179.24 728.44V792.879M1179.24 728.44H1243.68M1179.24 792.879V857.318M1179.24 792.879H1243.68M1179.24 857.318V921.758M1179.24 857.318H1243.68M1179.24 921.758V986.197M1179.24 921.758H1243.68M1179.24 986.197V1050.64M1179.24 986.197H1243.68M1179.24 1050.64V1115.08M1179.24 1050.64H1243.68M1179.24 1115.08V1179.52M1179.24 1115.08H1243.68M1179.24 1179.52V1243.96M1179.24 1179.52H1243.68M1179.24 1243.96V1308.39M1179.24 1243.96H1243.68M1179.24 1308.39H1243.68M1243.68 19.6055V84.0449M1243.68 19.6055H1308.12M1243.68 84.0449V148.484M1243.68 84.0449H1308.12M1243.68 148.484V212.924M1243.68 148.484H1308.12M1243.68 212.924V277.363M1243.68 212.924H1308.12M1243.68 277.363V341.803M1243.68 277.363H1308.12M1243.68 341.803V406.242M1243.68 341.803H1308.12M1243.68 406.242V470.682M1243.68 406.242H1308.12M1243.68 470.682V535.121M1243.68 470.682H1308.12M1243.68 535.121V599.561M1243.68 535.121H1308.12M1243.68 599.561V664M1243.68 599.561H1308.12M1243.68 664V728.44M1243.68 664H1308.12M1243.68 728.44V792.879M1243.68 728.44H1308.12M1243.68 792.879V857.318M1243.68 792.879H1308.12M1243.68 857.318V921.758M1243.68 857.318H1308.12M1243.68 921.758V986.197M1243.68 921.758H1308.12M1243.68 986.197V1050.64M1243.68 986.197H1308.12M1243.68 1050.64V1115.08M1243.68 1050.64H1308.12M1243.68 1115.08V1179.52M1243.68 1115.08H1308.12M1243.68 1179.52V1243.96M1243.68 1179.52H1308.12M1243.68 1243.96V1308.39M1243.68 1243.96H1308.12M1243.68 1308.39H1308.12M1308.12 19.6055V84.0449M1308.12 19.6055H1372.56M1308.12 84.0449V148.484M1308.12 84.0449H1372.56M1308.12 148.484V212.924M1308.12 148.484H1372.56M1308.12 212.924V277.363M1308.12 212.924H1372.56M1308.12 277.363V341.803M1308.12 277.363H1372.56M1308.12 341.803V406.242M1308.12 341.803H1372.56M1308.12 406.242V470.682M1308.12 406.242H1372.56M1308.12 470.682V535.121M1308.12 470.682H1372.56M1308.12 535.121V599.561M1308.12 535.121H1372.56M1308.12 599.561V664M1308.12 599.561H1372.56M1308.12 664V728.44M1308.12 664H1372.56M1308.12 728.44V792.879M1308.12 728.44H1372.56M1308.12 792.879V857.318M1308.12 792.879H1372.56M1308.12 857.318V921.758M1308.12 857.318H1372.56M1308.12 921.758V986.197M1308.12 921.758H1372.56M1308.12 986.197V1050.64M1308.12 986.197H1372.56M1308.12 1050.64V1115.08M1308.12 1050.64H1372.56M1308.12 1115.08V1179.52M1308.12 1115.08H1372.56M1308.12 1179.52V1243.96M1308.12 1179.52H1372.56M1308.12 1243.96V1308.39M1308.12 1243.96H1372.56M1308.12 1308.39H1372.56M1372.56 19.6055V84.0449M1372.56 19.6055H1437M1372.56 84.0449V148.484M1372.56 84.0449H1437M1372.56 148.484V212.924M1372.56 148.484H1437M1372.56 212.924V277.363M1372.56 212.924H1437M1372.56 277.363V341.803M1372.56 277.363H1437M1372.56 341.803V406.242M1372.56 341.803H1437M1372.56 406.242V470.682M1372.56 406.242H1437M1372.56 470.682V535.121M1372.56 470.682H1437M1372.56 535.121V599.561M1372.56 535.121H1437M1372.56 599.561V664M1372.56 599.561H1437M1372.56 664V728.44M1372.56 664H1437M1372.56 728.44V792.879M1372.56 728.44H1437M1372.56 792.879V857.318M1372.56 792.879H1437M1372.56 857.318V921.758M1372.56 857.318H1437M1372.56 921.758V986.197M1372.56 921.758H1437M1372.56 986.197V1050.64M1372.56 986.197H1437M1372.56 1050.64V1115.08M1372.56 1050.64H1437M1372.56 1115.08V1179.52M1372.56 1115.08H1437M1372.56 1179.52V1243.96M1372.56 1179.52H1437M1372.56 1243.96V1308.39M1372.56 1243.96H1437M1372.56 1308.39H1437M1437 19.6055V84.0449M1437 19.6055H1501.44M1437 84.0449V148.484M1437 84.0449H1501.44M1437 148.484V212.924M1437 148.484H1501.44M1437 212.924V277.363M1437 212.924H1501.44M1437 277.363V341.803M1437 277.363H1501.44M1437 341.803V406.242M1437 341.803H1501.44M1437 406.242V470.682M1437 406.242H1501.44M1437 470.682V535.121M1437 470.682H1501.44M1437 535.121V599.561M1437 535.121H1501.44M1437 599.561V664M1437 599.561H1501.44M1437 664V728.44M1437 664H1501.44M1437 728.44V792.879M1437 728.44H1501.44M1437 792.879V857.318M1437 792.879H1501.44M1437 857.318V921.758M1437 857.318H1501.44M1437 921.758V986.197M1437 921.758H1501.44M1437 986.197V1050.64M1437 986.197H1501.44M1437 1050.64V1115.08M1437 1050.64H1501.44M1437 1115.08V1179.52M1437 1115.08H1501.44M1437 1179.52V1243.96M1437 1179.52H1501.44M1437 1243.96V1308.39M1437 1243.96H1501.44M1437 1308.39H1501.44M1501.44 19.6055V84.0449M1501.44 19.6055H1565.88M1501.44 84.0449V148.484M1501.44 84.0449H1565.88M1501.44 148.484V212.924M1501.44 148.484H1565.88M1501.44 212.924V277.363M1501.44 212.924H1565.88M1501.44 277.363V341.803M1501.44 277.363H1565.88M1501.44 341.803V406.242M1501.44 341.803H1565.88M1501.44 406.242V470.682M1501.44 406.242H1565.88M1501.44 470.682V535.121M1501.44 470.682H1565.88M1501.44 535.121V599.561M1501.44 535.121H1565.88M1501.44 599.561V664M1501.44 599.561H1565.88M1501.44 664V728.44M1501.44 664H1565.88M1501.44 728.44V792.879M1501.44 728.44H1565.88M1501.44 792.879V857.318M1501.44 792.879H1565.88M1501.44 857.318V921.758M1501.44 857.318H1565.88M1501.44 921.758V986.197M1501.44 921.758H1565.88M1501.44 986.197V1050.64M1501.44 986.197H1565.88M1501.44 1050.64V1115.08M1501.44 1050.64H1565.88M1501.44 1115.08V1179.52M1501.44 1115.08H1565.88M1501.44 1179.52V1243.96M1501.44 1179.52H1565.88M1501.44 1243.96V1308.39M1501.44 1243.96H1565.88M1501.44 1308.39H1565.88M1565.88 19.6055V84.0449M1565.88 19.6055H1630.32M1565.88 84.0449V148.484M1565.88 84.0449H1630.32M1565.88 148.484V212.924M1565.88 148.484H1630.32M1565.88 212.924V277.363M1565.88 212.924H1630.32M1565.88 277.363V341.803M1565.88 277.363H1630.32M1565.88 341.803V406.242M1565.88 341.803H1630.32M1565.88 406.242V470.682M1565.88 406.242H1630.32M1565.88 470.682V535.121M1565.88 470.682H1630.32M1565.88 535.121V599.561M1565.88 535.121H1630.32M1565.88 599.561V664M1565.88 599.561H1630.32M1565.88 664V728.44M1565.88 664H1630.32M1565.88 728.44V792.879M1565.88 728.44H1630.32M1565.88 792.879V857.318M1565.88 792.879H1630.32M1565.88 857.318V921.758M1565.88 857.318H1630.32M1565.88 921.758V986.197M1565.88 921.758H1630.32M1565.88 986.197V1050.64M1565.88 986.197H1630.32M1565.88 1050.64V1115.08M1565.88 1050.64H1630.32M1565.88 1115.08V1179.52M1565.88 1115.08H1630.32M1565.88 1179.52V1243.96M1565.88 1179.52H1630.32M1565.88 1243.96V1308.39M1565.88 1243.96H1630.32M1565.88 1308.39H1630.32M1630.32 19.6055V84.0449M1630.32 19.6055H1694.76M1630.32 84.0449V148.484M1630.32 84.0449H1694.76M1630.32 148.484V212.924M1630.32 148.484H1694.76M1630.32 212.924V277.363M1630.32 212.924H1694.76M1630.32 277.363V341.803M1630.32 277.363H1694.76M1630.32 341.803V406.242M1630.32 341.803H1694.76M1630.32 406.242V470.682M1630.32 406.242H1694.76M1630.32 470.682V535.121M1630.32 470.682H1694.76M1630.32 535.121V599.561M1630.32 535.121H1694.76M1630.32 599.561V664M1630.32 599.561H1694.76M1630.32 664V728.44M1630.32 664H1694.76M1630.32 728.44V792.879M1630.32 728.44H1694.76M1630.32 792.879V857.318M1630.32 792.879H1694.76M1630.32 857.318V921.758M1630.32 857.318H1694.76M1630.32 921.758V986.197M1630.32 921.758H1694.76M1630.32 986.197V1050.64M1630.32 986.197H1694.76M1630.32 1050.64V1115.08M1630.32 1050.64H1694.76M1630.32 1115.08V1179.52M1630.32 1115.08H1694.76M1630.32 1179.52V1243.96M1630.32 1179.52H1694.76M1630.32 1243.96V1308.39M1630.32 1243.96H1694.76M1630.32 1308.39H1694.76M1694.76 19.6055V84.0449M1694.76 19.6055H1759.2M1694.76 84.0449V148.484M1694.76 84.0449H1759.2M1694.76 148.484V212.924M1694.76 148.484H1759.2M1694.76 212.924V277.363M1694.76 212.924H1759.2M1694.76 277.363V341.803M1694.76 277.363H1759.2M1694.76 341.803V406.242M1694.76 341.803H1759.2M1694.76 406.242V470.682M1694.76 406.242H1759.2M1694.76 470.682V535.121M1694.76 470.682H1759.2M1694.76 535.121V599.561M1694.76 535.121H1759.2M1694.76 599.561V664M1694.76 599.561H1759.2M1694.76 664V728.44M1694.76 664H1759.2M1694.76 728.44V792.879M1694.76 728.44H1759.2M1694.76 792.879V857.318M1694.76 792.879H1759.2M1694.76 857.318V921.758M1694.76 857.318H1759.2M1694.76 921.758V986.197M1694.76 921.758H1759.2M1694.76 986.197V1050.64M1694.76 986.197H1759.2M1694.76 1050.64V1115.08M1694.76 1050.64H1759.2M1694.76 1115.08V1179.52M1694.76 1115.08H1759.2M1694.76 1179.52V1243.96M1694.76 1179.52H1759.2M1694.76 1243.96V1308.39M1694.76 1243.96H1759.2M1694.76 1308.39H1759.2M1759.2 19.6055V84.0449M1759.2 19.6055H1823.64M1759.2 84.0449V148.484M1759.2 84.0449H1823.64M1759.2 148.484V212.924M1759.2 148.484H1823.64M1759.2 212.924V277.363M1759.2 212.924H1823.64M1759.2 277.363V341.803M1759.2 277.363H1823.64M1759.2 341.803V406.242M1759.2 341.803H1823.64M1759.2 406.242V470.682M1759.2 406.242H1823.64M1759.2 470.682V535.121M1759.2 470.682H1823.64M1759.2 535.121V599.561M1759.2 535.121H1823.64M1759.2 599.561V664M1759.2 599.561H1823.64M1759.2 664V728.44M1759.2 664H1823.64M1759.2 728.44V792.879M1759.2 728.44H1823.64M1759.2 792.879V857.318M1759.2 792.879H1823.64M1759.2 857.318V921.758M1759.2 857.318H1823.64M1759.2 921.758V986.197M1759.2 921.758H1823.64M1759.2 986.197V1050.64M1759.2 986.197H1823.64M1759.2 1050.64V1115.08M1759.2 1050.64H1823.64M1759.2 1115.08V1179.52M1759.2 1115.08H1823.64M1759.2 1179.52V1243.96M1759.2 1179.52H1823.64M1759.2 1243.96V1308.39M1759.2 1243.96H1823.64M1759.2 1308.39H1823.64M1823.64 19.6055V84.0449M1823.64 19.6055H1888.08M1823.64 84.0449V148.484M1823.64 84.0449H1888.08M1823.64 148.484V212.924M1823.64 148.484H1888.08M1823.64 212.924V277.363M1823.64 212.924H1888.08M1823.64 277.363V341.803M1823.64 277.363H1888.08M1823.64 341.803V406.242M1823.64 341.803H1888.08M1823.64 406.242V470.682M1823.64 406.242H1888.08M1823.64 470.682V535.121M1823.64 470.682H1888.08M1823.64 535.121V599.561M1823.64 535.121H1888.08M1823.64 599.561V664M1823.64 599.561H1888.08M1823.64 664V728.44M1823.64 664H1888.08M1823.64 728.44V792.879M1823.64 728.44H1888.08M1823.64 792.879V857.318M1823.64 792.879H1888.08M1823.64 857.318V921.758M1823.64 857.318H1888.08M1823.64 921.758V986.197M1823.64 921.758H1888.08M1823.64 986.197V1050.64M1823.64 986.197H1888.08M1823.64 1050.64V1115.08M1823.64 1050.64H1888.08M1823.64 1115.08V1179.52M1823.64 1115.08H1888.08M1823.64 1179.52V1243.96M1823.64 1179.52H1888.08M1823.64 1243.96V1308.39M1823.64 1243.96H1888.08M1823.64 1308.39H1888.08M1888.08 19.6055V84.0449M1888.08 19.6055H1952.52M1888.08 84.0449V148.484M1888.08 84.0449H1952.52M1888.08 148.484V212.924M1888.08 148.484H1952.52M1888.08 212.924V277.363M1888.08 212.924H1952.52M1888.08 277.363V341.803M1888.08 277.363H1952.52M1888.08 341.803V406.242M1888.08 341.803H1952.52M1888.08 406.242V470.682M1888.08 406.242H1952.52M1888.08 470.682V535.121M1888.08 470.682H1952.52M1888.08 535.121V599.561M1888.08 535.121H1952.52M1888.08 599.561V664M1888.08 599.561H1952.52M1888.08 664V728.44M1888.08 664H1952.52M1888.08 728.44V792.879M1888.08 728.44H1952.52M1888.08 792.879V857.318M1888.08 792.879H1952.52M1888.08 857.318V921.758M1888.08 857.318H1952.52M1888.08 921.758V986.197M1888.08 921.758H1952.52M1888.08 986.197V1050.64M1888.08 986.197H1952.52M1888.08 1050.64V1115.08M1888.08 1050.64H1952.52M1888.08 1115.08V1179.52M1888.08 1115.08H1952.52M1888.08 1179.52V1243.96M1888.08 1179.52H1952.52M1888.08 1243.96V1308.39M1888.08 1243.96H1952.52M1888.08 1308.39H1952.52M1952.52 19.6055V84.0449M1952.52 19.6055H2016.96M1952.52 84.0449V148.484M1952.52 84.0449H2016.96M1952.52 148.484V212.924M1952.52 148.484H2016.96M1952.52 212.924V277.363M1952.52 212.924H2016.96M1952.52 277.363V341.803M1952.52 277.363H2016.96M1952.52 341.803V406.242M1952.52 341.803H2016.96M1952.52 406.242V470.682M1952.52 406.242H2016.96M1952.52 470.682V535.121M1952.52 470.682H2016.96M1952.52 535.121V599.561M1952.52 535.121H2016.96M1952.52 599.561V664M1952.52 599.561H2016.96M1952.52 664V728.44M1952.52 664H2016.96M1952.52 728.44V792.879M1952.52 728.44H2016.96M1952.52 792.879V857.318M1952.52 792.879H2016.96M1952.52 857.318V921.758M1952.52 857.318H2016.96M1952.52 921.758V986.197M1952.52 921.758H2016.96M1952.52 986.197V1050.64M1952.52 986.197H2016.96M1952.52 1050.64V1115.08M1952.52 1050.64H2016.96M1952.52 1115.08V1179.52M1952.52 1115.08H2016.96M1952.52 1179.52V1243.96M1952.52 1179.52H2016.96M1952.52 1243.96V1308.39M1952.52 1243.96H2016.96M1952.52 1308.39H2016.96M2016.96 19.6055V84.0449M2016.96 19.6055H2081.4M2016.96 84.0449V148.484M2016.96 84.0449H2081.4M2016.96 148.484V212.924M2016.96 148.484H2081.4M2016.96 212.924V277.363M2016.96 212.924H2081.4M2016.96 277.363V341.803M2016.96 277.363H2081.4M2016.96 341.803V406.242M2016.96 341.803H2081.4M2016.96 406.242V470.682M2016.96 406.242H2081.4M2016.96 470.682V535.121M2016.96 470.682H2081.4M2016.96 535.121V599.561M2016.96 535.121H2081.4M2016.96 599.561V664M2016.96 599.561H2081.4M2016.96 664V728.44M2016.96 664H2081.4M2016.96 728.44V792.879M2016.96 728.44H2081.4M2016.96 792.879V857.318M2016.96 792.879H2081.4M2016.96 857.318V921.758M2016.96 857.318H2081.4M2016.96 921.758V986.197M2016.96 921.758H2081.4M2016.96 986.197V1050.64M2016.96 986.197H2081.4M2016.96 1050.64V1115.08M2016.96 1050.64H2081.4M2016.96 1115.08V1179.52M2016.96 1115.08H2081.4M2016.96 1179.52V1243.96M2016.96 1179.52H2081.4M2016.96 1243.96V1308.39M2016.96 1243.96H2081.4M2016.96 1308.39H2081.4M2081.4 19.6055V84.0449M2081.4 19.6055H2145.83M2081.4 84.0449V148.484M2081.4 84.0449H2145.83M2081.4 148.484V212.924M2081.4 148.484H2145.83M2081.4 212.924V277.363M2081.4 212.924H2145.83M2081.4 277.363V341.803M2081.4 277.363H2145.83M2081.4 341.803V406.242M2081.4 341.803H2145.83M2081.4 406.242V470.682M2081.4 406.242H2145.83M2081.4 470.682V535.121M2081.4 470.682H2145.83M2081.4 535.121V599.561M2081.4 535.121H2145.83M2081.4 599.561V664M2081.4 599.561H2145.83M2081.4 664V728.44M2081.4 664H2145.83M2081.4 728.44V792.879M2081.4 728.44H2145.83M2081.4 792.879V857.318M2081.4 792.879H2145.83M2081.4 857.318V921.758M2081.4 857.318H2145.83M2081.4 921.758V986.197M2081.4 921.758H2145.83M2081.4 986.197V1050.64M2081.4 986.197H2145.83M2081.4 1050.64V1115.08M2081.4 1050.64H2145.83M2081.4 1115.08V1179.52M2081.4 1115.08H2145.83M2081.4 1179.52V1243.96M2081.4 1179.52H2145.83M2081.4 1243.96V1308.39M2081.4 1243.96H2145.83M2081.4 1308.39H2145.83M2145.83 19.6055V84.0449M2145.83 19.6055H2210.27M2145.83 84.0449V148.484M2145.83 84.0449H2210.27M2145.83 148.484V212.924M2145.83 148.484H2210.27M2145.83 212.924V277.363M2145.83 212.924H2210.27M2145.83 277.363V341.803M2145.83 277.363H2210.27M2145.83 341.803V406.242M2145.83 341.803H2210.27M2145.83 406.242V470.682M2145.83 406.242H2210.27M2145.83 470.682V535.121M2145.83 470.682H2210.27M2145.83 535.121V599.561M2145.83 535.121H2210.27M2145.83 599.561V664M2145.83 599.561H2210.27M2145.83 664V728.44M2145.83 664H2210.27M2145.83 728.44V792.879M2145.83 728.44H2210.27M2145.83 792.879V857.318M2145.83 792.879H2210.27M2145.83 857.318V921.758M2145.83 857.318H2210.27M2145.83 921.758V986.197M2145.83 921.758H2210.27M2145.83 986.197V1050.64M2145.83 986.197H2210.27M2145.83 1050.64V1115.08M2145.83 1050.64H2210.27M2145.83 1115.08V1179.52M2145.83 1115.08H2210.27M2145.83 1179.52V1243.96M2145.83 1179.52H2210.27M2145.83 1243.96V1308.39M2145.83 1243.96H2210.27M2145.83 1308.39H2210.27M2210.27 19.6055V84.0449M2210.27 19.6055H2274.71M2210.27 84.0449V148.484M2210.27 84.0449H2274.71M2210.27 148.484V212.924M2210.27 148.484H2274.71M2210.27 212.924V277.363M2210.27 212.924H2274.71M2210.27 277.363V341.803M2210.27 277.363H2274.71M2210.27 341.803V406.242M2210.27 341.803H2274.71M2210.27 406.242V470.682M2210.27 406.242H2274.71M2210.27 470.682V535.121M2210.27 470.682H2274.71M2210.27 535.121V599.561M2210.27 535.121H2274.71M2210.27 599.561V664M2210.27 599.561H2274.71M2210.27 664V728.44M2210.27 664H2274.71M2210.27 728.44V792.879M2210.27 728.44H2274.71M2210.27 792.879V857.318M2210.27 792.879H2274.71M2210.27 857.318V921.758M2210.27 857.318H2274.71M2210.27 921.758V986.197M2210.27 921.758H2274.71M2210.27 986.197V1050.64M2210.27 986.197H2274.71M2210.27 1050.64V1115.08M2210.27 1050.64H2274.71M2210.27 1115.08V1179.52M2210.27 1115.08H2274.71M2210.27 1179.52V1243.96M2210.27 1179.52H2274.71M2210.27 1243.96V1308.39M2210.27 1243.96H2274.71M2210.27 1308.39H2274.71M2274.71 19.6055V84.0449M2274.71 19.6055H2339.15M2274.71 84.0449V148.484M2274.71 84.0449H2339.15M2274.71 148.484V212.924M2274.71 148.484H2339.15M2274.71 212.924V277.363M2274.71 212.924H2339.15M2274.71 277.363V341.803M2274.71 277.363H2339.15M2274.71 341.803V406.242M2274.71 341.803H2339.15M2274.71 406.242V470.682M2274.71 406.242H2339.15M2274.71 470.682V535.121M2274.71 470.682H2339.15M2274.71 535.121V599.561M2274.71 535.121H2339.15M2274.71 599.561V664M2274.71 599.561H2339.15M2274.71 664V728.44M2274.71 664H2339.15M2274.71 728.44V792.879M2274.71 728.44H2339.15M2274.71 792.879V857.318M2274.71 792.879H2339.15M2274.71 857.318V921.758M2274.71 857.318H2339.15M2274.71 921.758V986.197M2274.71 921.758H2339.15M2274.71 986.197V1050.64M2274.71 986.197H2339.15M2274.71 1050.64V1115.08M2274.71 1050.64H2339.15M2274.71 1115.08V1179.52M2274.71 1115.08H2339.15M2274.71 1179.52V1243.96M2274.71 1179.52H2339.15M2274.71 1243.96V1308.39M2274.71 1243.96H2339.15M2274.71 1308.39H2339.15M2339.15 19.6055V84.0449M2339.15 19.6055H2403.59M2339.15 84.0449V148.484M2339.15 84.0449H2403.59M2339.15 148.484V212.924M2339.15 148.484H2403.59M2339.15 212.924V277.363M2339.15 212.924H2403.59M2339.15 277.363V341.803M2339.15 277.363H2403.59M2339.15 341.803V406.242M2339.15 341.803H2403.59M2339.15 406.242V470.682M2339.15 406.242H2403.59M2339.15 470.682V535.121M2339.15 470.682H2403.59M2339.15 535.121V599.561M2339.15 535.121H2403.59M2339.15 599.561V664M2339.15 599.561H2403.59M2339.15 664V728.44M2339.15 664H2403.59M2339.15 728.44V792.879M2339.15 728.44H2403.59M2339.15 792.879V857.318M2339.15 792.879H2403.59M2339.15 857.318V921.758M2339.15 857.318H2403.59M2339.15 921.758V986.197M2339.15 921.758H2403.59M2339.15 986.197V1050.64M2339.15 986.197H2403.59M2339.15 1050.64V1115.08M2339.15 1050.64H2403.59M2339.15 1115.08V1179.52M2339.15 1115.08H2403.59M2339.15 1179.52V1243.96M2339.15 1179.52H2403.59M2339.15 1243.96V1308.39M2339.15 1243.96H2403.59M2339.15 1308.39H2403.59M2403.59 19.6055V84.0449M2403.59 19.6055H2468.03M2403.59 84.0449V148.484M2403.59 84.0449H2468.03M2403.59 148.484V212.924M2403.59 148.484H2468.03M2403.59 212.924V277.363M2403.59 212.924H2468.03M2403.59 277.363V341.803M2403.59 277.363H2468.03M2403.59 341.803V406.242M2403.59 341.803H2468.03M2403.59 406.242V470.682M2403.59 406.242H2468.03M2403.59 470.682V535.121M2403.59 470.682H2468.03M2403.59 535.121V599.561M2403.59 535.121H2468.03M2403.59 599.561V664M2403.59 599.561H2468.03M2403.59 664V728.44M2403.59 664H2468.03M2403.59 728.44V792.879M2403.59 728.44H2468.03M2403.59 792.879V857.318M2403.59 792.879H2468.03M2403.59 857.318V921.758M2403.59 857.318H2468.03M2403.59 921.758V986.197M2403.59 921.758H2468.03M2403.59 986.197V1050.64M2403.59 986.197H2468.03M2403.59 1050.64V1115.08M2403.59 1050.64H2468.03M2403.59 1115.08V1179.52M2403.59 1115.08H2468.03M2403.59 1179.52V1243.96M2403.59 1179.52H2468.03M2403.59 1243.96V1308.39M2403.59 1243.96H2468.03M2403.59 1308.39H2468.03M2468.03 19.6055V84.0449M2468.03 19.6055H2532.47M2468.03 84.0449V148.484M2468.03 84.0449H2532.47M2468.03 148.484V212.924M2468.03 148.484H2532.47M2468.03 212.924V277.363M2468.03 212.924H2532.47M2468.03 277.363V341.803M2468.03 277.363H2532.47M2468.03 341.803V406.242M2468.03 341.803H2532.47M2468.03 406.242V470.682M2468.03 406.242H2532.47M2468.03 470.682V535.121M2468.03 470.682H2532.47M2468.03 535.121V599.561M2468.03 535.121H2532.47M2468.03 599.561V664M2468.03 599.561H2532.47M2468.03 664V728.44M2468.03 664H2532.47M2468.03 728.44V792.879M2468.03 728.44H2532.47M2468.03 792.879V857.318M2468.03 792.879H2532.47M2468.03 857.318V921.758M2468.03 857.318H2532.47M2468.03 921.758V986.197M2468.03 921.758H2532.47M2468.03 986.197V1050.64M2468.03 986.197H2532.47M2468.03 1050.64V1115.08M2468.03 1050.64H2532.47M2468.03 1115.08V1179.52M2468.03 1115.08H2532.47M2468.03 1179.52V1243.96M2468.03 1179.52H2532.47M2468.03 1243.96V1308.39M2468.03 1243.96H2532.47M2468.03 1308.39H2532.47M2532.47 19.6055V84.0449M2532.47 19.6055H2596.91M2532.47 84.0449V148.484M2532.47 84.0449H2596.91M2532.47 148.484V212.924M2532.47 148.484H2596.91M2532.47 212.924V277.363M2532.47 212.924H2596.91M2532.47 277.363V341.803M2532.47 277.363H2596.91M2532.47 341.803V406.242M2532.47 341.803H2596.91M2532.47 406.242V470.682M2532.47 406.242H2596.91M2532.47 470.682V535.121M2532.47 470.682H2596.91M2532.47 535.121V599.561M2532.47 535.121H2596.91M2532.47 599.561V664M2532.47 599.561H2596.91M2532.47 664V728.44M2532.47 664H2596.91M2532.47 728.44V792.879M2532.47 728.44H2596.91M2532.47 792.879V857.318M2532.47 792.879H2596.91M2532.47 857.318V921.758M2532.47 857.318H2596.91M2532.47 921.758V986.197M2532.47 921.758H2596.91M2532.47 986.197V1050.64M2532.47 986.197H2596.91M2532.47 1050.64V1115.08M2532.47 1050.64H2596.91M2532.47 1115.08V1179.52M2532.47 1115.08H2596.91M2532.47 1179.52V1243.96M2532.47 1179.52H2596.91M2532.47 1243.96V1308.39M2532.47 1243.96H2596.91M2532.47 1308.39H2596.91M2596.91 19.6055V84.0449M2596.91 19.6055H2661.35M2596.91 84.0449V148.484M2596.91 84.0449H2661.35M2596.91 148.484V212.924M2596.91 148.484H2661.35M2596.91 212.924V277.363M2596.91 212.924H2661.35M2596.91 277.363V341.803M2596.91 277.363H2661.35M2596.91 341.803V406.242M2596.91 341.803H2661.35M2596.91 406.242V470.682M2596.91 406.242H2661.35M2596.91 470.682V535.121M2596.91 470.682H2661.35M2596.91 535.121V599.561M2596.91 535.121H2661.35M2596.91 599.561V664M2596.91 599.561H2661.35M2596.91 664V728.44M2596.91 664H2661.35M2596.91 728.44V792.879M2596.91 728.44H2661.35M2596.91 792.879V857.318M2596.91 792.879H2661.35M2596.91 857.318V921.758M2596.91 857.318H2661.35M2596.91 921.758V986.197M2596.91 921.758H2661.35M2596.91 986.197V1050.64M2596.91 986.197H2661.35M2596.91 1050.64V1115.08M2596.91 1050.64H2661.35M2596.91 1115.08V1179.52M2596.91 1115.08H2661.35M2596.91 1179.52V1243.96M2596.91 1179.52H2661.35M2596.91 1243.96V1308.39M2596.91 1243.96H2661.35M2596.91 1308.39H2661.35M2661.35 19.6055V84.0449M2661.35 19.6055H2725.79M2661.35 84.0449V148.484M2661.35 84.0449H2725.79M2661.35 148.484V212.924M2661.35 148.484H2725.79M2661.35 212.924V277.363M2661.35 212.924H2725.79M2661.35 277.363V341.803M2661.35 277.363H2725.79M2661.35 341.803V406.242M2661.35 341.803H2725.79M2661.35 406.242V470.682M2661.35 406.242H2725.79M2661.35 470.682V535.121M2661.35 470.682H2725.79M2661.35 535.121V599.561M2661.35 535.121H2725.79M2661.35 599.561V664M2661.35 599.561H2725.79M2661.35 664V728.44M2661.35 664H2725.79M2661.35 728.44V792.879M2661.35 728.44H2725.79M2661.35 792.879V857.318M2661.35 792.879H2725.79M2661.35 857.318V921.758M2661.35 857.318H2725.79M2661.35 921.758V986.197M2661.35 921.758H2725.79M2661.35 986.197V1050.64M2661.35 986.197H2725.79M2661.35 1050.64V1115.08M2661.35 1050.64H2725.79M2661.35 1115.08V1179.52M2661.35 1115.08H2725.79M2661.35 1179.52V1243.96M2661.35 1179.52H2725.79M2661.35 1243.96V1308.39M2661.35 1243.96H2725.79M2661.35 1308.39H2725.79M2725.79 19.6055V84.0449M2725.79 19.6055H2790.23M2725.79 84.0449V148.484M2725.79 84.0449H2790.23M2725.79 148.484V212.924M2725.79 148.484H2790.23M2725.79 212.924V277.363M2725.79 212.924H2790.23M2725.79 277.363V341.803M2725.79 277.363H2790.23M2725.79 341.803V406.242M2725.79 341.803H2790.23M2725.79 406.242V470.682M2725.79 406.242H2790.23M2725.79 470.682V535.121M2725.79 470.682H2790.23M2725.79 535.121V599.561M2725.79 535.121H2790.23M2725.79 599.561V664M2725.79 599.561H2790.23M2725.79 664V728.44M2725.79 664H2790.23M2725.79 728.44V792.879M2725.79 728.44H2790.23M2725.79 792.879V857.318M2725.79 792.879H2790.23M2725.79 857.318V921.758M2725.79 857.318H2790.23M2725.79 921.758V986.197M2725.79 921.758H2790.23M2725.79 986.197V1050.64M2725.79 986.197H2790.23M2725.79 1050.64V1115.08M2725.79 1050.64H2790.23M2725.79 1115.08V1179.52M2725.79 1115.08H2790.23M2725.79 1179.52V1243.96M2725.79 1179.52H2790.23M2725.79 1243.96V1308.39M2725.79 1243.96H2790.23M2725.79 1308.39H2790.23M2790.23 19.6055V84.0449M2790.23 19.6055H2854.67V84.0449M2790.23 84.0449V148.484M2790.23 84.0449H2854.67M2790.23 148.484V212.924M2790.23 148.484H2854.67M2790.23 212.924V277.363M2790.23 212.924H2854.67M2790.23 277.363V341.803M2790.23 277.363H2854.67M2790.23 341.803V406.242M2790.23 341.803H2854.67M2790.23 406.242V470.682M2790.23 406.242H2854.67M2790.23 470.682V535.121M2790.23 470.682H2854.67M2790.23 535.121V599.561M2790.23 535.121H2854.67M2790.23 599.561V664M2790.23 599.561H2854.67M2790.23 664V728.44M2790.23 664H2854.67M2790.23 728.44V792.879M2790.23 728.44H2854.67M2790.23 792.879V857.318M2790.23 792.879H2854.67M2790.23 857.318V921.758M2790.23 857.318H2854.67M2790.23 921.758V986.197M2790.23 921.758H2854.67M2790.23 986.197V1050.64M2790.23 986.197H2854.67M2790.23 1050.64V1115.08M2790.23 1050.64H2854.67M2790.23 1115.08V1179.52M2790.23 1115.08H2854.67M2790.23 1179.52V1243.96M2790.23 1179.52H2854.67M2790.23 1243.96V1308.39M2790.23 1243.96H2854.67M2790.23 1308.39H2854.67V1243.96M2854.67 84.0449V148.484M2854.67 148.484V212.924M2854.67 212.924V277.363M2854.67 277.363V341.803M2854.67 341.803V406.242M2854.67 406.242V470.682M2854.67 470.682V535.121M2854.67 535.121V599.561M2854.67 599.561V664M2854.67 664V728.44M2854.67 728.44V792.879M2854.67 792.879V857.318M2854.67 857.318V921.758M2854.67 921.758V986.197M2854.67 986.197V1050.64M2854.67 1050.64V1115.08M2854.67 1115.08V1179.52M2854.67 1179.52V1243.96" stroke="url(#paint0_radial_201_334)" stroke-opacity="0.6" stroke-width="0.805493"/>
</g>
<g style="mix-blend-mode:soft-light" opacity="0.8">
<path d="M277.09 258.031V277.363M277.09 277.363V296.695M277.09 277.363H257.758M277.09 277.363H296.422M277.09 773.547V792.879M277.09 792.879V812.211M277.09 792.879H257.758M277.09 792.879H296.422M277.09 1289.06V1308.39M277.09 1308.39V1327.73M277.09 1308.39H257.758M277.09 1308.39H296.422M792.606 258.031V277.363M792.606 277.363V296.695M792.606 277.363H773.274M792.606 277.363H811.937M792.606 773.547V792.879M792.606 792.879V812.211M792.606 792.879H773.274M792.606 792.879H811.937M792.606 1289.06V1308.39M792.606 1308.39V1327.73M792.606 1308.39H773.274M792.606 1308.39H811.937M1308.12 258.031V277.363M1308.12 277.363V296.695M1308.12 277.363H1288.79M1308.12 277.363H1327.45M1308.12 773.547V792.879M1308.12 792.879V812.211M1308.12 792.879H1288.79M1308.12 792.879H1327.45M1308.12 1289.06V1308.39M1308.12 1308.39V1327.73M1308.12 1308.39H1288.79M1308.12 1308.39H1327.45M1823.64 258.031V277.363M1823.64 277.363V296.695M1823.64 277.363H1804.31M1823.64 277.363H1842.97M1823.64 773.547V792.879M1823.64 792.879V812.211M1823.64 792.879H1804.31M1823.64 792.879H1842.97M1823.64 1289.06V1308.39M1823.64 1308.39V1327.73M1823.64 1308.39H1804.31M1823.64 1308.39H1842.97M2339.15 258.031V277.363M2339.15 277.363V296.695M2339.15 277.363H2319.82M2339.15 277.363H2358.48M2339.15 773.547V792.879M2339.15 792.879V812.211M2339.15 792.879H2319.82M2339.15 792.879H2358.48M2339.15 1289.06V1308.39M2339.15 1308.39V1327.73M2339.15 1308.39H2319.82M2339.15 1308.39H2358.48M2854.67 258.031V277.363M2854.67 277.363V296.695M2854.67 277.363H2835.34M2854.67 277.363H2874M2854.67 773.547V792.879M2854.67 792.879V812.211M2854.67 792.879H2835.34M2854.67 792.879H2874M2854.67 1289.06V1308.39M2854.67 1308.39V1327.73M2854.67 1308.39H2835.34M2854.67 1308.39H2874M277.09 0.273438V19.6053M277.09 19.6053V38.9371M277.09 19.6053H257.758M277.09 19.6053H296.422M277.09 515.789V535.121M277.09 535.121V554.453M277.09 535.121H257.758M277.09 535.121H296.422M277.09 1031.3V1050.64M277.09 1050.64V1069.97M277.09 1050.64H257.758M277.09 1050.64H296.422M792.606 0.273438V19.6053M792.606 19.6053V38.9371M792.606 19.6053H773.274M792.606 19.6053H811.937M792.606 515.789V535.121M792.606 535.121V554.453M792.606 535.121H773.274M792.606 535.121H811.937M792.606 1031.3V1050.64M792.606 1050.64V1069.97M792.606 1050.64H773.274M792.606 1050.64H811.937M1308.12 0.273438V19.6053M1308.12 19.6053V38.9371M1308.12 19.6053H1288.79M1308.12 19.6053H1327.45M1308.12 515.789V535.121M1308.12 535.121V554.453M1308.12 535.121H1288.79M1308.12 535.121H1327.45M1308.12 1031.3V1050.64M1308.12 1050.64V1069.97M1308.12 1050.64H1288.79M1308.12 1050.64H1327.45M1823.64 0.273438V19.6053M1823.64 19.6053V38.9371M1823.64 19.6053H1804.31M1823.64 19.6053H1842.97M1823.64 515.789V535.121M1823.64 535.121V554.453M1823.64 535.121H1804.31M1823.64 535.121H1842.97M1823.64 1031.3V1050.64M1823.64 1050.64V1069.97M1823.64 1050.64H1804.31M1823.64 1050.64H1842.97M2339.15 0.273438V19.6053M2339.15 19.6053V38.9371M2339.15 19.6053H2319.82M2339.15 19.6053H2358.48M2339.15 515.789V535.121M2339.15 535.121V554.453M2339.15 535.121H2319.82M2339.15 535.121H2358.48M2339.15 1031.3V1050.64M2339.15 1050.64V1069.97M2339.15 1050.64H2319.82M2339.15 1050.64H2358.48M2854.67 0.273438V19.6053M2854.67 19.6053V38.9371M2854.67 19.6053H2835.34M2854.67 19.6053H2874M2854.67 515.789V535.121M2854.67 535.121V554.453M2854.67 535.121H2835.34M2854.67 535.121H2874M2854.67 1031.3V1050.64M2854.67 1050.64V1069.97M2854.67 1050.64H2835.34M2854.67 1050.64H2874M19.3318 258.031V277.363M19.3318 277.363V296.695M19.3318 277.363H0M19.3318 277.363H38.6637M19.3318 773.547V792.879M19.3318 792.879V812.211M19.3318 792.879H0M19.3318 792.879H38.6637M19.3318 1289.06V1308.39M19.3318 1308.39V1327.73M19.3318 1308.39H0M19.3318 1308.39H38.6637M534.848 258.031V277.363M534.848 277.363V296.695M534.848 277.363H515.516M534.848 277.363H554.18M534.848 773.547V792.879M534.848 792.879V812.211M534.848 792.879H515.516M534.848 792.879H554.18M534.848 1289.06V1308.39M534.848 1308.39V1327.73M534.848 1308.39H515.516M534.848 1308.39H554.18M1050.36 258.031V277.363M1050.36 277.363V296.695M1050.36 277.363H1031.03M1050.36 277.363H1069.7M1050.36 773.547V792.879M1050.36 792.879V812.211M1050.36 792.879H1031.03M1050.36 792.879H1069.7M1050.36 1289.06V1308.39M1050.36 1308.39V1327.73M1050.36 1308.39H1031.03M1050.36 1308.39H1069.7M1565.88 258.031V277.363M1565.88 277.363V296.695M1565.88 277.363H1546.55M1565.88 277.363H1585.21M1565.88 773.547V792.879M1565.88 792.879V812.211M1565.88 792.879H1546.55M1565.88 792.879H1585.21M1565.88 1289.06V1308.39M1565.88 1308.39V1327.73M1565.88 1308.39H1546.55M1565.88 1308.39H1585.21M2081.39 258.031V277.363M2081.39 277.363V296.695M2081.39 277.363H2062.06M2081.39 277.363H2100.73M2081.39 773.547V792.879M2081.39 792.879V812.211M2081.39 792.879H2062.06M2081.39 792.879H2100.73M2081.39 1289.06V1308.39M2081.39 1308.39V1327.73M2081.39 1308.39H2062.06M2081.39 1308.39H2100.73M2596.91 258.031V277.363M2596.91 277.363V296.695M2596.91 277.363H2577.58M2596.91 277.363H2616.24M2596.91 773.547V792.879M2596.91 792.879V812.211M2596.91 792.879H2577.58M2596.91 792.879H2616.24M2596.91 1289.06V1308.39M2596.91 1308.39V1327.73M2596.91 1308.39H2577.58M2596.91 1308.39H2616.24M19.3318 0.273533V19.6054M19.3318 19.6054V38.9372M19.3318 19.6054H0M19.3318 19.6054H38.6637M19.3318 515.789V535.121M19.3318 535.121V554.453M19.3318 535.121H0M19.3318 535.121H38.6637M19.3318 1031.3V1050.64M19.3318 1050.64V1069.97M19.3318 1050.64H0M19.3318 1050.64H38.6637M534.848 0.273438V19.6053M534.848 19.6053V38.9371M534.848 19.6053H515.516M534.848 19.6053H554.18M534.848 515.789V535.121M534.848 535.121V554.453M534.848 535.121H515.516M534.848 535.121H554.18M534.848 1031.3V1050.64M534.848 1050.64V1069.97M534.848 1050.64H515.516M534.848 1050.64H554.18M1050.36 0.273438V19.6053M1050.36 19.6053V38.9371M1050.36 19.6053H1031.03M1050.36 19.6053H1069.7M1050.36 515.789V535.121M1050.36 535.121V554.453M1050.36 535.121H1031.03M1050.36 535.121H1069.7M1050.36 1031.3V1050.64M1050.36 1050.64V1069.97M1050.36 1050.64H1031.03M1050.36 1050.64H1069.7M1565.88 0.273438V19.6053M1565.88 19.6053V38.9371M1565.88 19.6053H1546.55M1565.88 19.6053H1585.21M1565.88 515.789V535.121M1565.88 535.121V554.453M1565.88 535.121H1546.55M1565.88 535.121H1585.21M1565.88 1031.3V1050.64M1565.88 1050.64V1069.97M1565.88 1050.64H1546.55M1565.88 1050.64H1585.21M2081.39 0.273438V19.6053M2081.39 19.6053V38.9371M2081.39 19.6053H2062.06M2081.39 19.6053H2100.73M2081.39 515.789V535.121M2081.39 535.121V554.453M2081.39 535.121H2062.06M2081.39 535.121H2100.73M2081.39 1031.3V1050.64M2081.39 1050.64V1069.97M2081.39 1050.64H2062.06M2081.39 1050.64H2100.73M2596.91 0.273438V19.6053M2596.91 19.6053V38.9371M2596.91 19.6053H2577.58M2596.91 19.6053H2616.24M2596.91 515.789V535.121M2596.91 535.121V554.453M2596.91 535.121H2577.58M2596.91 535.121H2616.24M2596.91 1031.3V1050.64M2596.91 1050.64V1069.97M2596.91 1050.64H2577.58M2596.91 1050.64H2616.24" stroke="url(#paint1_radial_201_334)" stroke-opacity="0.6" stroke-width="1.61099"/>
</g>
<defs>
<radialGradient id="paint0_radial_201_334" cx="0" cy="0" r="1" gradientUnits="userSpaceOnUse" gradientTransform="translate(1437 664) rotate(90) scale(644.395 1417.67)">
<stop stop-color="white"/>
<stop offset="1" stop-color="white" stop-opacity="0"/>
</radialGradient>
<radialGradient id="paint1_radial_201_334" cx="0" cy="0" r="1" gradientUnits="userSpaceOnUse" gradientTransform="translate(1437 664) rotate(90) scale(663.726 1437)">
<stop stop-color="white"/>
<stop offset="1" stop-color="white" stop-opacity="0"/>
</radialGradient>
</defs>
</svg>
