<svg width="3771" height="3142" viewBox="0 0 3771 3142" fill="none" xmlns="http://www.w3.org/2000/svg">
<path fill-rule="evenodd" clip-rule="evenodd" d="M1886.63 2827.7V3140.43H2199.36V2860.1L2166.96 2827.7H1886.63ZM2199.36 2794.43L2167.38 2826.42H1886.63V2513.68H2199.36V2794.43ZM2232.15 2826.42L2200.64 2794.91V2513.68H2513.38V2826.42H2232.15ZM2200.64 2859.62L2232.57 2827.7H2513.38V3140.43H2200.64V2859.62ZM1885.53 3141.53H2199.55H2200.46H2513.56H2514.48H2827.57H2828.49H3141.59H3142.5H3455.6H3456.52H3770.53V2827.51V2826.6V2513.5V2512.58V2199.49V2198.57V1885.47V1884.56V1571.46V1570.54V1257.44V1256.53V943.429V942.514V629.415V628.499V315.401V314.485V0.470703L3456.52 0.469727H3142.5H3141.59H2827.57H2514.48H2200.46H2199.55H1885.53V314.485V315.4V628.499V629.415V942.514V943.429V1256.53V1257.44L1885.53 1570.54V1571.46V1884.56V1885.47V2198.57V2199.49V2512.58V2513.5V2826.6V2827.51V3141.53ZM1886.63 2512.4V2199.67H2199.36V2512.4H1886.63ZM1886.63 1885.66V2198.39H2199.36V1885.66H1886.63ZM1886.63 1884.37V1571.64H2199.36V1884.37H1886.63ZM1886.63 1257.63L1886.63 1570.36H2199.36V1257.63H1886.63ZM1886.63 1256.34V943.612H2199.36V1256.34H1886.63ZM1886.63 629.598V942.33H2199.36V629.598H1886.63ZM1886.63 628.317V315.584H2199.36V628.317H1886.63ZM1886.63 1.56836V314.301H2199.36V1.56836H1886.63ZM2200.64 2512.4V2199.67H2513.38V2512.4H2200.64ZM2200.64 1885.66V2198.39H2513.38V1917.11L2481.92 1885.66H2200.64ZM2513.38 1853.42L2482.42 1884.37H2200.64V1571.64H2513.38V1853.42ZM2547.11 1884.37L2514.77 1852.03L2514.66 1852.14V1571.64H2827.39V1884.37H2547.11ZM2514.66 1918.39L2514.77 1918.5L2547.61 1885.66H2827.39V2198.39H2514.66V1918.39ZM2200.64 1257.63V1570.36H2513.38V1257.63H2200.64ZM2200.64 1256.34V943.612H2513.38V1256.34H2200.64ZM2200.64 629.598V942.33H2513.38V629.598H2200.64ZM2200.64 628.317V315.584H2426.62L2427.15 316.115L2513.38 402.346V628.317H2200.64ZM2514.66 403.627V628.316H2796.58L2795.53 627.266L2827.39 595.406V315.583H2602.92L2602.38 316.115L2515.61 402.885L2514.77 403.734L2514.66 403.627ZM2601.22 315.583L2514.77 402.037L2514.66 401.93V348.393L2514.77 348.5L2547.68 315.583H2601.22ZM2602.27 314.302H2827.39V1.56934H2514.66V226.905L2514.77 226.798L2515.61 227.646L2602.27 314.302ZM2514.66 228.602L2514.77 228.495L2600.57 314.302H2547.04L2514.77 282.032L2514.66 282.139V228.602ZM2513.38 228.186V1.56836H2200.64V314.301H2427.26L2513.38 228.186ZM2428.96 314.301L2513.38 229.883V283.42L2482.5 314.301H2428.96ZM2428.31 315.584L2513.38 400.649V347.112L2481.85 315.584H2428.31ZM2860.95 628.317L2862 627.266L2828.77 594.032L2828.67 594.124V315.584H3141.41V628.317H2860.95ZM2828.67 660.407L2828.77 660.5L2859.67 629.598H3141.41V942.33H2828.67V660.407ZM2797.86 629.598L2827.39 659.125V942.33H2514.66V629.598H2797.86ZM2514.66 3140.43V2827.7H2827.39V3140.43H2514.66ZM2514.66 2513.68V2826.42H2827.39V2513.68H2514.66ZM2514.66 2512.4V2199.67H2827.39V2512.4H2514.66ZM2514.66 1257.63V1570.36H2827.39V1257.63H2514.66ZM2514.66 1256.34V943.612H2827.39V1256.34H2514.66ZM2828.67 3140.43V2827.7H3141.41V3140.43H2828.67ZM2828.67 2513.68V2826.42H3141.41V2600.09L3141 2600.5L3140.15 2599.65L3054.18 2513.68H2828.67ZM3055.88 2513.68L3141 2598.8L3141.41 2598.4V2544.86L3141 2545.27L3109.42 2513.68H3055.88ZM3108.14 2512.4H3054.6L3054.23 2512.03L3141 2425.26L3141.41 2425.67V2479.2L3141 2478.8L3107.76 2512.03L3108.14 2512.4ZM3173.86 2512.4L3174.23 2512.03L3142.69 2480.49V2426.95L3227.77 2512.03L3227.4 2512.4H3173.86ZM3142.69 2543.58L3172.58 2513.68H3226.12L3142.69 2597.11V2543.58ZM3142.69 2598.81V2826.42H3455.42V2513.68H3227.82L3142.69 2598.81ZM3229.1 2512.4H3455.42V2199.67H3142.69V2425.25L3228.62 2511.18L3229.47 2512.03L3229.1 2512.4ZM3141.41 2423.97V2199.67H2828.67V2512.4H3052.9L3052.53 2512.03L3053.38 2511.18L3140.15 2424.41L3141 2423.56L3141.41 2423.97ZM2828.67 1885.66V2198.39H3141.41V1885.66H2828.67ZM2828.67 1884.37V1571.64H3141.41V1884.37H2828.67ZM2828.67 1257.63V1570.36H3141.41V1257.63H2828.67ZM2828.67 1256.34V943.612H3141.41V1256.34H2828.67ZM2828.67 1.56836V314.301H3141.41V1.56836H2828.67ZM3142.69 3140.43V2827.7H3455.42V3140.43H3142.69ZM3142.69 1885.66V2198.39H3455.42V1885.66H3142.69ZM3142.69 1884.37V1571.64H3455.42V1884.37H3142.69ZM3142.69 1257.63V1570.36H3455.42V1257.63H3142.69ZM3142.69 1256.34V943.612H3455.42V1256.34H3142.69ZM3142.69 629.598V942.33H3455.42V629.598H3142.69ZM3142.69 628.317V315.584H3455.42V628.317H3142.69ZM3142.69 1.56836V314.301H3455.42V1.56836H3142.69ZM3456.7 3140.43V2827.7H3769.43V3140.43H3456.7ZM3456.7 2513.68V2826.42H3769.43V2513.68H3456.7ZM3456.7 2512.4V2199.67H3769.43V2512.4H3456.7ZM3456.7 1885.66V2198.39H3769.43V1885.66L3456.7 1885.66ZM3456.7 1884.37V1571.64L3769.43 1571.64V1884.37L3456.7 1884.37ZM3456.7 1257.63V1570.36L3769.43 1570.36V1257.63L3456.7 1257.63ZM3456.7 1256.34V943.612H3769.43V1256.34L3456.7 1256.34ZM3456.7 629.598V942.33H3769.43V629.598H3456.7ZM3456.7 628.317V315.584H3769.43V628.317H3456.7ZM3456.7 1.56934V314.302H3769.43V1.56934H3456.7Z" fill="url(#paint0_radial_1703_46)" fill-opacity="0.6"/>
<path fill-rule="evenodd" clip-rule="evenodd" d="M1884.44 314.302V1.5693L1571.7 1.5693V281.903L1604.1 314.302L1884.44 314.302ZM1571.7 347.565L1603.69 315.584L1884.44 315.584L1884.44 628.317L1571.7 628.317V347.565ZM1538.92 315.584L1570.42 347.089V628.317H1257.69V315.584L1538.92 315.584ZM1570.42 282.379L1538.5 314.302L1257.69 314.302V1.5693L1570.42 1.5693V282.379ZM1885.54 0.470703L1571.52 0.470703L1570.61 0.470703L1257.51 0.470703L1256.59 0.470703L943.492 0.470703L942.577 0.470703L629.478 0.470703L628.562 0.470703L315.463 0.470703L314.548 0.470703L0.533203 0.470703V314.485V315.401L0.533203 628.499V629.415V942.514V943.429V1256.53V1257.44V1570.54V1571.46L0.533203 1884.56V1885.47V2198.57V2199.49V2512.58V2513.5V2826.6V2827.51L0.533203 3141.53L314.548 3141.53H628.562H629.478L943.492 3141.53H1256.59H1570.61H1571.52H1885.54L1885.54 2827.51V2826.6V2513.5V2512.58V2199.49V2198.57V1885.47V1884.56L1885.54 1571.46V1570.54V1257.44V1256.53V943.429V942.514V629.415V628.499L1885.54 315.401V314.485V0.470703ZM1884.44 629.598V942.33L1571.7 942.33L1571.7 629.598L1884.44 629.598ZM1884.44 1256.34V943.612L1571.7 943.612V1256.34H1884.44ZM1884.44 1257.63V1570.36H1571.7V1257.63H1884.44ZM1884.44 1884.37L1884.44 1571.64H1571.7L1571.7 1884.37H1884.44ZM1884.44 1885.66V2198.39H1571.7V1885.66H1884.44ZM1884.44 2512.4V2199.67H1571.7V2512.4H1884.44ZM1884.44 2513.68V2826.42H1571.7V2513.68H1884.44ZM1884.44 3140.43L1884.44 2827.7H1571.7V3140.43H1884.44ZM1570.42 629.598L1570.42 942.33H1257.69L1257.69 629.598H1570.42ZM1570.42 1256.34V943.612H1257.69V1224.89L1289.15 1256.34H1570.42ZM1257.69 1288.58L1288.64 1257.63H1570.42V1570.36L1257.69 1570.36L1257.69 1288.58ZM1223.96 1257.63L1256.3 1289.97L1256.41 1289.86L1256.41 1570.36H943.676L943.676 1257.63H1223.96ZM1256.41 1223.61L1256.3 1223.5L1223.46 1256.34H943.676V943.612L1256.41 943.612V1223.61ZM1570.42 1884.37L1570.42 1571.64L1257.69 1571.64V1884.37L1570.42 1884.37ZM1570.42 1885.66V2198.39H1257.69V1885.66L1570.42 1885.66ZM1570.42 2512.4V2199.67H1257.69V2512.4H1570.42ZM1570.42 2513.68V2826.42H1344.45L1343.92 2825.89L1257.69 2739.65V2513.68H1570.42ZM1256.41 2738.37V2513.68H974.485L975.535 2514.73L943.676 2546.59L943.676 2826.42H1168.15L1168.68 2825.89L1255.45 2739.11L1256.3 2738.27L1256.41 2738.37ZM1169.85 2826.42L1256.3 2739.96L1256.41 2740.07V2793.61L1256.3 2793.5L1223.38 2826.42H1169.85ZM1168.8 2827.7H943.676V3140.43H1256.41V2915.09L1256.3 2915.2L1255.45 2914.35L1168.8 2827.7ZM1256.41 2913.4L1256.3 2913.51L1170.49 2827.7H1224.03L1256.3 2859.97L1256.41 2859.86V2913.4ZM1257.69 2913.81V3140.43H1570.42V2827.7H1343.8L1257.69 2913.81ZM1342.11 2827.7L1257.69 2912.12V2858.58L1288.57 2827.7H1342.11ZM1342.75 2826.42L1257.69 2741.35V2794.89L1289.22 2826.42H1342.75ZM910.118 2513.68L909.067 2514.73L942.301 2547.97L942.394 2547.88L942.394 2826.42L629.661 2826.42V2513.68L910.118 2513.68ZM942.394 2481.59L942.301 2481.5L911.399 2512.4L629.661 2512.4V2199.67L942.394 2199.67V2481.59ZM973.203 2512.4L943.676 2482.87V2199.67H1256.41V2512.4H973.203ZM1256.41 1.5693V314.302L943.676 314.302L943.676 1.5693L1256.41 1.5693ZM1256.41 628.317V315.584L943.676 315.584V628.317L1256.41 628.317ZM1256.41 629.598L1256.41 942.33L943.676 942.33L943.676 629.598L1256.41 629.598ZM1256.41 1884.37V1571.64H943.676V1884.37H1256.41ZM1256.41 1885.66V2198.39H943.676L943.676 1885.66H1256.41ZM942.394 1.5693L942.394 314.302L629.661 314.302V1.5693L942.394 1.5693ZM942.394 628.317V315.584L629.661 315.584V541.907L630.068 541.5L630.916 542.349L716.884 628.317H942.394ZM715.187 628.317L630.068 543.197L629.661 543.604V597.141L630.068 596.734L661.65 628.317H715.187ZM662.931 629.598H716.468L716.839 629.968L630.068 716.739L629.661 716.333V662.796L630.068 663.202L663.302 629.968L662.931 629.598ZM597.205 629.598L596.834 629.968L628.379 661.514V715.051L543.297 629.968L543.667 629.598H597.205ZM628.379 598.423L598.486 628.317H544.948L628.379 544.886V598.423ZM628.379 543.189V315.584L315.646 315.584L315.646 628.317L543.251 628.317L628.379 543.189ZM541.97 629.598L315.646 629.598V942.33L628.379 942.33V716.748L542.448 630.817L541.6 629.968L541.97 629.598ZM629.661 718.03V942.33H942.394L942.394 629.598H718.165L718.536 629.968L717.687 630.817L630.916 717.588L630.068 718.436L629.661 718.03ZM942.394 1256.34V943.612H629.661V1256.34H942.394ZM942.394 1257.63L942.394 1570.36H629.661V1257.63H942.394ZM942.394 1884.37V1571.64H629.661L629.661 1884.37H942.394ZM942.394 1885.66L942.394 2198.39L629.661 2198.39V1885.66H942.394ZM942.394 3140.43V2827.7L629.661 2827.7L629.661 3140.43L942.394 3140.43ZM628.379 1.5693V314.302L315.646 314.302V1.5693L628.379 1.5693ZM628.379 1256.34V943.612L315.646 943.612V1256.34H628.379ZM628.379 1257.63V1570.36H315.646V1257.63H628.379ZM628.379 1884.37L628.379 1571.64H315.646L315.646 1884.37H628.379ZM628.379 1885.66V2198.39H315.646V1885.66H628.379ZM628.379 2512.4V2199.67H315.646V2512.4H628.379ZM628.379 2513.68V2826.42H315.646V2513.68H628.379ZM628.379 3140.43L628.379 2827.7H315.646L315.646 3140.43H628.379ZM314.365 1.5693V314.302L1.63184 314.302V1.5693L314.365 1.5693ZM314.365 628.317L314.365 315.584L1.63184 315.584L1.63184 628.317H314.365ZM314.365 629.598V942.33H1.63184V629.598H314.365ZM314.365 1256.34V943.612H1.63184V1256.34L314.365 1256.34ZM314.365 1257.63V1570.36L1.63184 1570.36V1257.63L314.365 1257.63ZM314.365 1884.37L314.365 1571.64L1.63184 1571.64L1.63184 1884.37L314.365 1884.37ZM314.365 1885.66V2198.39H1.63184V1885.66L314.365 1885.66ZM314.365 2512.4V2199.67H1.63184V2512.4H314.365ZM314.365 2513.68V2826.42H1.63184V2513.68H314.365ZM314.365 3140.43L314.365 2827.7H1.63184L1.63184 3140.43H314.365Z" fill="url(#paint1_radial_1703_46)" fill-opacity="0.6"/>
<defs>
<radialGradient id="paint0_radial_1703_46" cx="0" cy="0" r="1" gradientUnits="userSpaceOnUse" gradientTransform="translate(827.531 1571) scale(2705.5 4508.29)">
<stop stop-color="white"/>
<stop offset="1" stop-color="white" stop-opacity="0"/>
</radialGradient>
<radialGradient id="paint1_radial_1703_46" cx="0" cy="0" r="1" gradientUnits="userSpaceOnUse" gradientTransform="translate(2943.54 1571) rotate(-180) scale(2705.5 4508.29)">
<stop stop-color="white"/>
<stop offset="1" stop-color="white" stop-opacity="0"/>
</radialGradient>
</defs>
</svg>
