<svg width="3126" height="720" viewBox="0 0 3126 720" fill="none" xmlns="http://www.w3.org/2000/svg">
<path d="M3074.2 6.25083L3049.91 1M3074.2 6.25083H3002.23M3074.2 6.25083L3099.29 11.6751M3074.2 6.25083H3125.16M3049.91 1L3058.75 1.00205L3067.49 1.01342L3076.06 1.04538L3084.35 1.10834L3092.28 1.21051L3099.77 1.3643L3106.73 1.57792L3113.19 1.85035L3118.73 2.22705L3123.77 2.66359L3125.16 2.8165V6.25083M3049.91 1H2979.11M2979.11 1H2908.3M2979.11 1L3002.23 6.25083M2908.3 1H2837.5M2908.3 1L2930.27 6.25083M2837.5 1H2766.69M2837.5 1L2858.31 6.25083M2766.69 1H2695.89M2766.69 1L2786.35 6.25083M2695.89 1H2625.08M2695.89 1L2714.39 6.25083M2625.08 1H2554.27M2625.08 1L2642.43 6.25083M2554.27 1H2483.47M2554.27 1L2570.46 6.25083M2483.47 1H2412.66M2483.47 1L2498.5 6.25083M2412.66 1H2341.86M2412.66 1L2426.54 6.25083M2341.86 1H2271.05M2341.86 1L2354.58 6.25083M2271.05 1H2200.25M2271.05 1L2282.62 6.25083M2200.25 1H2129.44M2200.25 1L2202.82 2.29722L2206.71 4.26114L2210.65 6.25083M2129.44 1H2058.64M2129.44 1L2131.73 2.29722L2138.69 6.25083M2058.64 1H1987.83M2058.64 1L2066.73 6.25083M1987.83 1H1917.03M1987.83 1L1990.41 2.94944L1993.02 4.92161L1993.89 5.5852L1994.77 6.25083M1917.03 1H1846.22M1917.03 1L1919.17 2.94944L1919.89 3.60373L1920.62 4.26114L1922.81 6.25083M1846.22 1H1775.42M1846.22 1L1850.85 6.25083M1775.42 1L1775.84 1.64705L1776.27 2.29722L1778.44 5.5852L1778.89 6.25083M1775.42 1H1704.61M1704.61 1H1633.8M1704.61 1L1706.92 6.25083M1633.8 1H1563M1633.8 1L1634.23 2.94944L1634.96 6.25083M1563 1H1492.2M1563 1V6.25083M1492.2 1H1421.39M1492.2 1L1491.77 2.94944L1491.04 6.25083M1421.39 1H1350.58M1421.39 1L1419.08 6.25083M1350.58 1L1350.16 1.64705L1349.73 2.29722L1347.56 5.5852L1347.11 6.25083M1350.58 1H1279.78M1279.78 1H1208.97M1279.78 1L1275.74 5.5852L1275.15 6.25083M1208.97 1H1138.17M1208.97 1L1206.83 2.94944L1206.11 3.60373L1204.65 4.92161L1203.92 5.5852L1203.19 6.25083M1138.17 1H1067.36M1138.17 1L1135.59 2.94944L1132.99 4.92161L1132.11 5.5852L1131.23 6.25083M1067.36 1H996.558M1067.36 1L1059.27 6.25083M996.558 1H925.751M996.558 1L994.273 2.29722L987.307 6.25083M925.751 1H854.947M925.751 1L915.345 6.25083M854.947 1H784.142M854.947 1L843.383 6.25083M784.142 1H713.335M784.142 1L771.422 6.25083M713.335 1H642.531M713.335 1L699.46 6.25083M642.531 1H571.726M642.531 1L627.498 6.25083M571.726 1H500.921M571.726 1L555.536 6.25083M500.921 1H430.114M500.921 1L483.574 6.25083M430.114 1H359.31M430.114 1L411.613 6.25083M359.31 1H288.505M359.31 1L339.651 6.25083M288.505 1H217.698M288.505 1L267.689 6.25083M217.698 1H146.893M217.698 1L195.729 6.25083M146.893 1H76.0885M146.893 1L123.767 6.25083M76.0885 1L67.2526 1.00205L58.5077 1.01342L49.9451 1.04538L41.6511 1.10834L33.7166 1.21051L26.2264 1.3643L19.2699 1.57792L12.813 1.85035L7.27218 2.22705L2.22771 2.66359L0.841297 2.81653V6.25083M76.0885 1L51.8051 6.25083M195.729 6.25083H267.689M195.729 6.25083H123.767M195.729 6.25083L173.027 11.6751M267.689 6.25083L246.183 11.6751M267.689 6.25083H339.651M483.574 6.25083H555.536M483.574 6.25083H411.613M483.574 6.25083L479.15 7.59038L465.654 11.6751M555.536 6.25083L538.81 11.6751M555.536 6.25083H627.498M771.422 6.25083H843.383M771.422 6.25083H699.46M771.422 6.25083L768.177 7.59038L766.543 8.26326L758.278 11.6751M843.383 6.25083L841.911 6.91854L840.433 7.59038L831.436 11.6751M843.383 6.25083H915.345M1059.27 6.25083L1058.24 6.91854L1050.9 11.6751M1059.27 6.25083H1131.23M1059.27 6.25083H987.307M1131.23 6.25083L1129.46 7.59038L1128.57 8.26326L1127.68 8.94026L1124.06 11.6751M1131.23 6.25083H1203.19M1347.11 6.25083H1419.08M1347.11 6.25083H1275.15M1347.11 6.25083L1343.53 11.6751M1419.08 6.25083L1418.78 6.91854L1418.49 7.59038L1418.19 8.26326L1417.29 10.3015L1416.69 11.6751M1419.08 6.25083H1491.04M1634.96 6.25083H1706.92M1634.96 6.25083H1563M1634.96 6.25083L1636.16 11.6751M1706.92 6.25083L1707.22 6.91854L1707.51 7.59038L1707.81 8.26326L1709.31 11.6751M1706.92 6.25083H1778.89M1922.81 6.25083H1994.77M1922.81 6.25083H1850.85M1922.81 6.25083L1924.28 7.59038L1927.27 10.3015L1928.02 10.9867L1928.78 11.6751M1994.77 6.25083L1996.54 7.59038L1997.43 8.26326L1998.32 8.94026L2001.94 11.6751M1994.77 6.25083H2066.73M2210.65 6.25083H2282.62M2210.65 6.25083H2138.69M2210.65 6.25083L2213.31 7.59038L2214.65 8.26326L2221.41 11.6751M2282.62 6.25083L2284.09 6.91854L2285.57 7.59038L2294.56 11.6751M2282.62 6.25083H2354.58M2498.5 6.25083H2570.46M2498.5 6.25083H2426.54M2498.5 6.25083L2502.34 7.59038L2504.27 8.26326L2514.03 11.6751M2570.46 6.25083L2587.19 11.6751M2570.46 6.25083H2642.43M2786.35 6.25083H2858.31M2786.35 6.25083H2714.39M2786.35 6.25083L2806.66 11.6751M2858.31 6.25083L2879.82 11.6751M2858.31 6.25083H2930.27M0.589076 55.3537H0.841297M73.0195 55.3537L100.494 48.4238M73.0195 55.3537L44.4922 62.5489M73.0195 55.3537H155.796M73.0195 55.3537H0.841297M100.494 48.4238H19.2439M100.494 48.4238L126.974 41.7446M100.494 48.4238H181.744M19.2439 48.4238L47.1951 41.7446M19.2439 48.4238H0.841297M19.2439 48.4238L0.841297 52.8203M100.165 29.0861H177.157M100.165 29.0861L125.287 23.0829M100.165 29.0861H23.1753M100.165 29.0861L74.1505 35.3029M177.157 29.0861L200.957 23.0829M177.157 29.0861L152.512 35.3029M177.157 29.0861H254.149M125.287 23.0829H200.957M125.287 23.0829L149.56 17.283M125.287 23.0829H49.6181M200.957 23.0829H276.626M200.957 23.0829L223.952 17.283M0.0488279 164.736H0.841297M66.8409 164.736L102.269 153.247M66.8409 164.736L29.6517 176.797M66.8409 164.736H173.71M66.8409 164.736H0.841297M102.269 153.247L136.059 142.289M102.269 153.247H206.607M102.269 153.247H0.841297M34.1348 142.289H136.059M34.1348 142.289L68.7008 131.826M34.1348 142.289H0.841297M34.1348 142.289L0.841297 152.366M101.737 121.826H199.154M101.737 121.826L133.345 112.26M101.737 121.826H4.32036M101.737 121.826L68.7008 131.826M199.154 121.826L228.656 112.26M199.154 121.826L168.319 131.826M199.154 121.826H296.573M133.345 112.26H228.656M133.345 112.26H38.0353M133.345 112.26L163.615 103.097M228.656 112.26L256.907 103.097M228.656 112.26H323.966M220.465 85.8898H309.967M220.465 85.8898L247.192 77.7999M220.465 85.8898H130.963M220.465 85.8898L192.629 94.3151M309.967 85.8898L334.912 77.7999M309.967 85.8898L283.987 94.3151M309.967 85.8898H399.47M247.192 77.7999H334.912M247.192 77.7999H159.472M247.192 77.7999L272.877 70.0257M334.912 77.7999L358.885 70.0257M334.912 77.7999H422.634M321.349 55.3537H404.126M321.349 55.3537L344.245 48.4238M321.349 55.3537H238.573M321.349 55.3537L297.577 62.5489M404.126 55.3537L425.495 48.4238M404.126 55.3537L381.938 62.5489M404.126 55.3537H486.902M344.245 48.4238H425.495M344.245 48.4238H262.994M344.245 48.4238L366.312 41.7446M425.495 48.4238L446.091 41.7446M425.495 48.4238H506.745M408.13 29.0861H485.122M408.13 29.0861L427.963 23.0829M408.13 29.0861H331.14M408.13 29.0861L387.593 35.3029M485.122 29.0861L503.632 23.0829M485.122 29.0861L465.953 35.3029M485.122 29.0861H562.114M427.963 23.0829H503.632M427.963 23.0829L447.127 17.283M427.963 23.0829H352.294M503.632 23.0829H579.302M503.632 23.0829L521.519 17.283M55.5933 363.928L105.456 341.289M55.5933 363.928L2.1968 388.171M55.5933 363.928H206.334M55.5933 363.928H0.841297M105.456 341.289L152.127 320.1M105.456 341.289H251.21M105.456 341.289H0.841297M104.443 281.546H237.04M104.443 281.546L147.053 263.959M104.443 281.546L59.1895 300.225M104.443 281.546H0.841297M237.04 281.546L275.775 263.959M237.04 281.546L195.9 300.225M237.04 281.546H369.636M147.053 263.959H275.775M147.053 263.959H18.331M147.053 263.959L187.244 247.37M275.775 263.959L312.313 247.37M275.775 263.959H404.498M261.147 216.866H379.499M261.147 216.866L295.201 202.811M261.147 216.866H142.798M261.147 216.866L225.216 231.698M379.499 216.866L410.456 202.811M379.499 216.866L346.832 231.698M379.499 216.866H497.849M295.201 202.811H410.456M295.201 202.811H179.946M295.201 202.811L327.516 189.472M410.456 202.811L439.834 189.472M410.456 202.811H525.709M387.446 164.736H494.316M387.446 164.736L415.284 153.247M387.446 164.736H280.578M387.446 164.736L358.227 176.797M494.316 164.736L519.621 153.247M494.316 164.736L467.751 176.797M494.316 164.736H601.184M415.284 153.247H519.621M415.284 153.247H310.946M415.284 153.247L441.832 142.289M519.621 153.247L543.757 142.289M519.621 153.247H623.959M491.408 121.826H588.825M491.408 121.826L514.586 112.26M491.408 121.826H393.989M491.408 121.826L467.18 131.826M588.825 121.826L609.898 112.26M588.825 121.826L566.8 131.826M588.825 121.826H686.242M514.586 112.26H609.898M514.586 112.26H419.277M514.586 112.26L536.784 103.097M609.898 112.26L630.077 103.097M609.898 112.26H705.207M578.474 85.8898H667.976M578.474 85.8898L598.074 77.7999M578.474 85.8898H488.972M578.474 85.8898L558.062 94.3151M667.976 85.8898L670.244 84.8608L685.794 77.7999M667.976 85.8898L649.42 94.3151M667.976 85.8898H757.479M598.074 77.7999H685.794M598.074 77.7999H510.354M598.074 77.7999L616.91 70.0257M685.794 77.7999L702.918 70.0257M685.794 77.7999H773.516M652.455 55.3537H735.233M652.455 55.3537L669.247 48.4238M652.455 55.3537H569.679M652.455 55.3537L635.022 62.5489M735.233 55.3537L750.497 48.4238M735.233 55.3537L729.361 58.0204L719.384 62.5489M735.233 55.3537H818.01M669.247 48.4238H750.497M669.247 48.4238H587.997M669.247 48.4238L685.428 41.7446M750.497 48.4238L765.207 41.7446M750.497 48.4238H831.747M716.095 29.0861H793.087M716.095 29.0861L730.64 23.0829M716.095 29.0861H639.105M716.095 29.0861L701.035 35.3029M793.087 29.0861L803.047 24.5648L804.681 23.8218L806.31 23.0829M793.087 29.0861L779.395 35.3029M793.087 29.0861H870.079M730.64 23.0829H806.31M730.64 23.0829L744.693 17.283M730.64 23.0829H654.971M806.31 23.0829H881.979M806.31 23.0829L819.084 17.283M110.209 621.818H317.751M110.209 621.818L175.559 579.431M110.209 621.818L38.3982 668.396M110.209 621.818L0.841297 621.819M317.751 621.818L373.766 579.431M317.751 621.818L256.199 668.396M317.751 621.818H525.292M175.559 579.431H373.766M175.559 579.431L235.284 540.694M175.559 579.431H0.841297M373.766 579.431L424.958 540.694M373.766 579.431H571.971M340.529 472.431H515.169M340.529 472.431L387.134 442.202M340.529 472.431H165.892M340.529 472.431L290.078 505.154M515.169 472.431L555.115 442.202M515.169 472.431L471.925 505.154M515.169 472.431H689.807M387.134 442.202H555.115M387.134 442.202H219.153M387.134 442.202L430.316 414.195M555.115 442.202L592.128 414.195M555.115 442.202H723.096M507.816 363.928H658.556M507.816 363.928L542.72 341.289M507.816 363.928H357.074M507.816 363.928L470.438 388.171M658.556 363.928L688.474 341.289M658.556 363.928L626.518 388.171M658.556 363.928H809.296M542.72 341.289H688.474M542.72 341.289H396.964M542.72 341.289L575.389 320.1M688.474 341.289L716.476 320.1M688.474 341.289H834.229M634.827 281.546H767.424M634.827 281.546L661.944 263.959M634.827 281.546H502.232M634.827 281.546L606.03 300.225M767.424 281.546L790.665 263.959M767.424 281.546L742.74 300.225M767.424 281.546H900.02M661.944 263.959H790.665M661.944 263.959H533.22M661.944 263.959L687.519 247.37M790.665 263.959L812.588 247.37M790.665 263.959H919.387M734.548 216.866H852.9M734.548 216.866L756.218 202.811M734.548 216.866H616.198M734.548 216.866L711.682 231.698M852.9 216.866L871.473 202.811M852.9 216.866L833.299 231.698M852.9 216.866H971.25M756.218 202.811H871.473M756.218 202.811H640.964M756.218 202.811L776.783 189.472M871.473 202.811L889.099 189.472M871.473 202.811H986.728M814.921 164.736H921.789M814.921 164.736L832.636 153.247M814.921 164.736H708.052M814.921 164.736L796.327 176.797M921.789 164.736L936.973 153.247M921.789 164.736L905.85 176.797M921.789 164.736H1028.66M832.636 153.247H936.973M832.636 153.247H728.296M832.636 153.247L849.53 142.289M936.973 153.247L951.454 142.289M936.973 153.247H1041.31M881.077 121.826H978.496M881.077 121.826L895.828 112.26M881.077 121.826H783.66M881.077 121.826L865.661 131.826M978.496 121.826L991.138 112.26M978.496 121.826L965.281 131.826M978.496 121.826H1075.91M895.828 112.26H991.138M895.828 112.26H800.517M895.828 112.26L909.954 103.097M991.138 112.26L1003.25 103.097M991.138 112.26H1086.45M936.483 85.8898H1025.99M936.483 85.8898L948.956 77.7999M936.483 85.8898H846.981M936.483 85.8898L923.493 94.3151M1025.99 85.8898L1024.62 86.9238L1014.85 94.3151M1025.99 85.8898L1036.68 77.7999M1025.99 85.8898H1115.49M948.956 77.7999H1036.68M948.956 77.7999H861.236M948.956 77.7999L960.943 70.0257M1036.68 77.7999L1046.95 70.0257M1036.68 77.7999H1124.4M983.563 55.3537H1066.34M983.563 55.3537L994.247 48.4238M983.563 55.3537H900.786M983.563 55.3537L972.47 62.5489M1066.34 55.3537L1075.5 48.4238M1066.34 55.3537L1062.82 58.0204L1060.44 59.8192L1056.83 62.5489M1066.34 55.3537H1149.12M994.247 48.4238H1075.5M994.247 48.4238H912.997M994.247 48.4238L1004.54 41.7446M1075.5 48.4238L1078.85 45.8902L1081.05 44.2204L1084.33 41.7446M1075.5 48.4238H1156.75M1024.06 29.0861H1101.05M1024.06 29.0861L1031.03 24.5648L1033.32 23.0829M1024.06 29.0861H947.07M1024.06 29.0861L1015.69 34.5134L1014.48 35.3029M1101.05 29.0861L1107.03 24.5648L1108.01 23.8218L1108.99 23.0829M1101.05 29.0861L1096.98 32.1666L1092.84 35.3029M1101.05 29.0861H1178.04M1033.32 23.0829H1108.99M1033.32 23.0829L1042.26 17.283M1033.32 23.0829H957.647M1108.99 23.0829H1184.66M1108.99 23.0829L1116.65 17.283M940.376 621.818H1147.92M940.376 621.818L968.382 579.431M940.376 621.818H732.835M940.376 621.818L909.6 668.396M1147.92 621.818L1166.59 579.431M1147.92 621.818L1127.4 668.396M1147.92 621.818H1355.46M968.382 579.431H1166.59M968.382 579.431H770.177M968.382 579.431L993.979 540.694M1166.59 579.431L1183.65 540.694M1166.59 579.431H1364.79M1039.08 472.431H1213.72M1039.08 472.431L1059.06 442.202M1039.08 472.431H864.445M1039.08 472.431L1017.46 505.154M1213.72 472.431L1227.04 442.202M1213.72 472.431L1199.31 505.154M1213.72 472.431H1388.36M1059.06 442.202H1227.04M1059.06 442.202H891.077M1059.06 442.202L1077.56 414.195M1227.04 442.202L1239.38 414.195M1227.04 442.202H1395.02M1110.78 363.928H1261.52M1110.78 363.928L1125.74 341.289M1110.78 363.928H960.038M1110.78 363.928L1094.76 388.171M1261.52 363.928L1271.49 341.289M1261.52 363.928L1250.84 388.171M1261.52 363.928H1412.26M1125.74 341.289H1271.49M1125.74 341.289H979.983M1125.74 341.289L1139.74 320.1M1271.49 341.289L1280.83 320.1M1271.49 341.289H1417.25M1165.21 281.546H1297.81M1165.21 281.546L1176.83 263.959M1165.21 281.546H1032.62M1165.21 281.546L1152.87 300.225M1297.81 281.546L1305.55 263.959M1297.81 281.546L1289.58 300.225M1297.81 281.546H1430.4M1176.83 263.959H1305.55M1176.83 263.959H1048.11M1176.83 263.959L1187.79 247.37M1305.55 263.959L1312.86 247.37M1305.55 263.959H1434.28M1207.95 216.866H1326.3M1207.95 216.866L1217.24 202.811M1207.95 216.866H1089.6M1207.95 216.866L1198.15 231.698M1326.3 216.866L1332.49 202.811M1326.3 216.866L1319.77 231.698M1326.3 216.866H1444.65M1217.24 202.811H1332.49M1217.24 202.811H1101.98M1217.24 202.811L1226.05 189.472M1332.49 202.811L1338.37 189.472M1332.49 202.811H1447.75M1242.39 164.736H1349.26M1242.39 164.736L1249.99 153.247M1242.39 164.736H1135.53M1242.39 164.736L1234.43 176.797M1349.26 164.736L1354.33 153.247M1349.26 164.736L1343.95 176.797M1349.26 164.736H1456.13M1249.99 153.247H1354.33M1249.99 153.247H1145.65M1249.99 153.247L1252.74 149.077L1257.23 142.289M1354.33 153.247L1359.15 142.289M1354.33 153.247H1458.66M1270.75 121.826H1368.16M1270.75 121.826L1277.07 112.26M1270.75 121.826H1173.33M1270.75 121.826L1265.82 129.285L1264.14 131.826M1368.16 121.826L1369.77 118.19L1372.38 112.26M1368.16 121.826L1363.76 131.826M1368.16 121.826H1465.58M1277.07 112.26L1277.84 111.092L1283.12 103.097M1277.07 112.26H1372.38M1277.07 112.26H1181.76M1372.38 112.26L1373.91 108.778L1374.42 107.629L1374.92 106.488L1376.41 103.097M1372.38 112.26H1467.69M1294.49 85.8898H1383.99M1294.49 85.8898L1297.19 81.804L1297.86 80.7958L1298.52 79.7916L1299.18 78.7937L1299.84 77.7999M1294.49 85.8898H1204.99M1294.49 85.8898L1288.93 94.3151M1383.99 85.8898L1386.68 79.7916L1387.12 78.7937L1387.56 77.7999M1383.99 85.8898L1380.28 94.3151M1383.99 85.8898H1473.5M1299.84 77.7999H1387.56M1299.84 77.7999H1212.12M1299.84 77.7999L1303.07 72.905L1303.71 71.9401L1304.98 70.0257M1387.56 77.7999L1389.71 72.905L1390.14 71.9401L1390.56 70.9804L1390.98 70.0257M1387.56 77.7999H1475.28M1314.67 55.3537H1397.45M1314.67 55.3537L1319.25 48.4238M1314.67 55.3537H1231.89M1314.67 55.3537L1313.5 57.1267L1311.72 59.8192L1309.92 62.5489M1397.45 55.3537L1397.06 56.2381L1394.68 61.6345L1394.28 62.5489M1397.45 55.3537L1400.5 48.4238M1397.45 55.3537H1480.22M1319.25 48.4238H1400.5M1319.25 48.4238H1238M1319.25 48.4238L1323.66 41.7446M1400.5 48.4238L1401.62 45.8902L1401.98 45.0532L1402.35 44.2204L1403.44 41.7446M1400.5 48.4238H1481.75M1332.03 29.0861H1409.02M1332.03 29.0861L1335.01 24.5648L1335.99 23.0829M1332.03 29.0861H1255.04M1332.03 29.0861L1330.5 31.3915L1329.99 32.1666L1329.48 32.9458L1327.92 35.3029M1409.02 29.0861L1409.35 28.3244L1410.02 26.8105L1410.68 25.3099L1411.66 23.0829M1409.02 29.0861L1407.66 32.1666L1407.32 32.9458L1406.63 34.5134L1406.28 35.3029M1409.02 29.0861H1486.01M1335.99 23.0829H1411.66M1335.99 23.0829L1339.35 17.9972L1339.83 17.283M1335.99 23.0829H1260.32M1411.66 23.0829L1411.99 22.3471L1412.31 21.6143L1412.63 20.8847L1412.95 20.1582L1413.9 17.9972L1414.22 17.283M1411.66 23.0829H1487.33M1770.54 621.818H1978.08M1770.54 621.818L1761.21 579.431M1770.54 621.818H1563M1770.54 621.818L1780.8 668.396M1978.08 621.818L1959.41 579.431M1978.08 621.818L1998.6 668.396M1978.08 621.818H2185.62M1761.21 579.431H1959.41M1761.21 579.431H1563M1761.21 579.431L1752.67 540.694M1959.41 579.431L1942.35 540.694M1959.41 579.431H2157.62M1737.64 472.431H1912.28M1737.64 472.431L1730.98 442.202M1737.64 472.431H1563M1737.64 472.431L1744.85 505.154M1912.28 472.431L1898.96 442.202M1912.28 472.431L1926.69 505.154M1912.28 472.431H2086.92M1730.98 442.202H1898.96M1730.98 442.202H1563M1730.98 442.202L1724.81 414.195M1898.96 442.202L1886.62 414.195M1898.96 442.202H2066.94M1713.74 363.928H1864.48M1713.74 363.928L1708.75 341.289M1713.74 363.928H1563M1713.74 363.928L1719.08 388.171M1864.48 363.928L1854.51 341.289M1864.48 363.928L1875.16 388.171M1864.48 363.928H2015.22M1708.75 341.289H1854.51M1708.75 341.289H1563M1708.75 341.289L1704.09 320.1M1854.51 341.289L1845.17 320.1M1854.51 341.289H2000.26M1695.6 281.546H1828.19M1695.6 281.546L1691.72 263.959M1695.6 281.546H1563M1695.6 281.546L1699.71 300.225M1828.19 281.546L1820.45 263.959M1828.19 281.546L1836.42 300.225M1828.19 281.546H1960.79M1691.72 263.959H1820.45M1691.72 263.959H1563M1691.72 263.959L1688.07 247.37M1820.45 263.959L1813.14 247.37M1820.45 263.959H1949.17M1681.35 216.866H1799.7M1681.35 216.866L1678.25 202.811M1681.35 216.866H1563M1681.35 216.866L1684.62 231.698M1799.7 216.866L1793.51 202.811M1799.7 216.866L1806.23 231.698M1799.7 216.866H1918.05M1678.25 202.811H1793.51M1678.25 202.811H1563M1678.25 202.811L1675.32 189.472M1793.51 202.811L1787.63 189.472M1793.51 202.811H1908.76M1669.87 164.736H1776.74M1669.87 164.736L1667.34 153.247M1669.87 164.736H1563M1669.87 164.736L1672.53 176.797M1776.74 164.736L1771.68 153.247M1776.74 164.736L1782.05 176.797M1776.74 164.736H1883.61M1667.34 153.247H1771.68M1667.34 153.247H1563M1667.34 153.247L1664.92 142.289M1771.68 153.247L1766.85 142.289M1771.68 153.247H1876.01M1660.42 121.826H1757.84M1660.42 121.826L1658.31 112.26M1660.42 121.826H1563M1660.42 121.826L1662.62 131.826M1757.84 121.826L1754.14 113.433L1753.62 112.26M1757.84 121.826L1762.24 131.826M1757.84 121.826H1855.25M1658.31 112.26L1658.05 111.092L1656.29 103.097M1658.31 112.26H1753.62M1658.31 112.26H1563M1753.62 112.26L1752.09 108.778L1751.58 107.629L1751.08 106.488L1749.59 103.097M1753.62 112.26H1848.93M1652.5 85.8898H1742.01M1652.5 85.8898L1650.72 77.7999M1652.5 85.8898H1563M1652.5 85.8898L1653.19 89.0085L1653.42 90.0591L1653.65 91.1148L1654.12 93.2428L1654.36 94.3151M1742.01 85.8898L1739.32 79.7916L1738.44 77.7999M1742.01 85.8898L1745.72 94.3151M1742.01 85.8898H1831.51M1650.72 77.7999H1738.44M1650.72 77.7999H1563M1650.72 77.7999L1649.01 70.0257M1738.44 77.7999L1736.29 72.905L1735.86 71.9401L1735.44 70.9804L1735.02 70.0257M1738.44 77.7999H1826.16M1645.78 55.3537H1728.55M1645.78 55.3537L1644.25 48.4238M1645.78 55.3537H1563M1645.78 55.3537L1647.36 62.5489M1728.55 55.3537L1728.94 56.2381L1731.32 61.6345L1731.72 62.5489M1728.55 55.3537L1725.5 48.4238M1728.55 55.3537H1811.33M1644.25 48.4238H1725.5M1644.25 48.4238H1563M1644.25 48.4238L1642.78 41.7446M1725.5 48.4238L1724.38 45.8902L1724.02 45.0532L1723.65 44.2204L1722.56 41.7446M1725.5 48.4238H1806.75M1639.99 29.0861H1716.98M1639.99 29.0861L1638.67 23.0829M1639.99 29.0861H1563M1639.99 29.0861L1641.36 35.3029M1716.98 29.0861L1716.65 28.3244L1715.98 26.8105L1715.65 26.0581L1714.99 24.5648L1714.66 23.8218L1714.34 23.0829M1716.98 29.0861L1718.34 32.1666L1718.68 32.9458L1719.37 34.5134L1719.72 35.3029M1716.98 29.0861H1793.97M1638.67 23.0829L1638.51 22.3471L1638.35 21.6143L1638.19 20.8847L1637.39 17.283M1638.67 23.0829H1714.34M1638.67 23.0829H1563M1714.34 23.0829H1790.01M1714.34 23.0829L1713.69 21.6143L1713.37 20.8847L1713.05 20.1582L1712.1 17.9972L1711.78 17.283M2600.71 621.818H2808.25M2600.71 621.818L2554.03 579.431M2600.71 621.818H2393.17M2600.71 621.818L2652 668.396M2808.25 621.818L2752.23 579.431M2808.25 621.818L2869.8 668.396M2808.25 621.818H3015.79M2554.03 579.431H2752.23M2554.03 579.431H2355.82M2554.03 579.431L2511.37 540.694M2752.23 579.431L2701.04 540.694M2752.23 579.431H2950.44M2436.19 472.431H2610.83M2436.19 472.431L2402.9 442.202M2436.19 472.431H2261.56M2436.19 472.431L2472.23 505.154M2610.83 472.431L2570.89 442.202M2610.83 472.431L2654.08 505.154M2610.83 472.431H2785.47M2402.9 442.202H2570.89M2402.9 442.202H2234.92M2402.9 442.202L2372.06 414.195M2570.89 442.202L2533.87 414.195M2570.89 442.202H2738.87M2316.7 363.928H2467.44M2316.7 363.928L2291.77 341.289M2316.7 363.928H2165.96M2316.7 363.928L2343.4 388.171M2467.44 363.928L2437.53 341.289M2467.44 363.928L2499.48 388.171M2467.44 363.928H2618.18M2291.77 341.289H2437.53M2291.77 341.289H2146.02M2291.77 341.289L2268.44 320.1M2437.53 341.289L2409.52 320.1M2437.53 341.289H2583.28M2225.98 281.546H2358.58M2225.98 281.546L2206.61 263.959M2225.98 281.546H2093.38M2225.98 281.546L2246.55 300.225M2358.58 281.546L2335.33 263.959M2358.58 281.546L2383.26 300.225M2358.58 281.546H2491.17M2206.61 263.959H2335.33M2206.61 263.959H2077.89M2206.61 263.959L2188.34 247.37M2335.33 263.959L2313.41 247.37M2335.33 263.959H2464.06M2154.75 216.866H2273.1M2154.75 216.866L2139.27 202.811M2154.75 216.866H2036.4M2154.75 216.866L2171.08 231.698M2273.1 216.866L2254.53 202.811M2273.1 216.866L2292.7 231.698M2273.1 216.866H2391.45M2139.27 202.811H2254.53M2139.27 202.811H2024.02M2139.27 202.811L2124.58 189.472M2254.53 202.811L2236.9 189.472M2254.53 202.811H2369.78M2097.34 164.736H2204.21M2097.34 164.736L2084.69 153.247M2097.34 164.736H1990.47M2097.34 164.736L2110.62 176.797M2204.21 164.736L2189.03 153.247M2204.21 164.736L2220.15 176.797M2204.21 164.736H2311.08M2084.69 153.247H2189.03M2084.69 153.247H1980.35M2084.69 153.247L2072.62 142.289M2189.03 153.247L2174.55 142.289M2189.03 153.247H2293.36M2050.09 121.826L2051.44 123.052L2052.8 124.285L2061.1 131.826M2050.09 121.826H2147.5M2050.09 121.826L2039.55 112.26M2050.09 121.826H1952.67M2147.5 121.826L2134.86 112.26M2147.5 121.826L2160.72 131.826M2147.5 121.826H2244.92M2039.55 112.26H2134.86M2039.55 112.26H1944.24M2039.55 112.26L2029.46 103.097M2134.86 112.26L2122.75 103.097M2134.86 112.26H2230.17M2010.51 85.8898H2100.01M2010.51 85.8898L2001.6 77.7999M2010.51 85.8898H1921.01M2010.51 85.8898L2019.79 94.3151M2100.01 85.8898L2093.28 80.7958L2089.32 77.7999M2100.01 85.8898L2111.15 94.3151M2100.01 85.8898H2189.52M2001.6 77.7999H2089.32M2001.6 77.7999H1913.88M2001.6 77.7999L1994.09 70.9804L1993.04 70.0257M2089.32 77.7999L2079.05 70.0257M2089.32 77.7999H2177.04M1976.88 55.3537H2059.66M1976.88 55.3537L1974.95 53.5962L1969.25 48.4238M1976.88 55.3537H1894.11M1976.88 55.3537L1978.84 57.1267L1982.8 60.7243L1984.81 62.5489M2059.66 55.3537L2050.5 48.4238M2059.66 55.3537L2063.18 58.0204L2065.56 59.8192L2069.17 62.5489M2059.66 55.3537H2142.44M1969.25 48.4238H2050.5M1969.25 48.4238H1888M1969.25 48.4238L1963.71 43.3907L1961.9 41.7446M2050.5 48.4238L2047.15 45.8902L2044.95 44.2204L2041.67 41.7446M2050.5 48.4238H2131.75M1947.96 29.0861H2024.95M1947.96 29.0861L1943.8 25.3099L1941.35 23.0829M1947.96 29.0861H1870.97M1947.96 29.0861L1954.8 35.3029M2024.95 29.0861L2018.97 24.5648L2017.99 23.8218L2017.01 23.0829M2024.95 29.0861L2029.02 32.1666L2033.16 35.3029M2024.95 29.0861H2101.94M1941.35 23.0829H2017.01M1941.35 23.0829L1938.12 20.1582L1936.54 18.7144L1935.74 17.9972L1934.96 17.283M1941.35 23.0829H1865.68M2017.01 23.0829H2092.68M2017.01 23.0829L2009.35 17.283M3074.83 442.202H2906.85M3074.83 442.202L3019.31 414.195M3074.83 442.202H3125.16M3074.83 442.202L3125.16 467.593M2919.67 363.928H3070.41M2919.67 363.928L2874.79 341.289M2919.67 363.928H2768.93M2919.67 363.928L2967.72 388.171M3070.41 363.928L3020.54 341.289M3070.41 363.928L3123.8 388.171M3070.41 363.928H3125.16M2874.79 341.289H3020.54M2874.79 341.289H2729.04M2874.79 341.289L2832.79 320.1M3020.54 341.289L2973.87 320.1M3020.54 341.289H3125.16M2756.36 281.546H2888.96M2756.36 281.546L2721.5 263.959M2756.36 281.546H2623.77M2756.36 281.546L2793.39 300.225M2888.96 281.546L2850.23 263.959M2888.96 281.546L2930.1 300.225M2888.96 281.546H3021.56M2721.5 263.959H2850.23M2721.5 263.959H2592.78M2721.5 263.959L2688.62 247.37M2850.23 263.959L2813.69 247.37M2850.23 263.959H2978.95M2628.15 216.866H2746.5M2628.15 216.866L2600.29 202.811M2628.15 216.866H2509.8M2628.15 216.866L2657.55 231.698M2746.5 216.866L2715.54 202.811M2746.5 216.866L2779.17 231.698M2746.5 216.866H2864.85M2600.29 202.811H2715.54M2600.29 202.811H2485.04M2600.29 202.811L2573.85 189.472M2715.54 202.811L2686.17 189.472M2715.54 202.811H2830.8M2524.82 164.736H2631.68M2524.82 164.736L2502.04 153.247M2524.82 164.736H2417.95M2524.82 164.736L2548.72 176.797M2631.68 164.736L2606.38 153.247M2631.68 164.736L2658.25 176.797M2631.68 164.736H2738.55M2502.04 153.247H2606.38M2502.04 153.247H2397.7M2502.04 153.247L2480.32 142.289M2606.38 153.247L2582.24 142.289M2606.38 153.247H2710.72M2439.76 121.826H2537.18M2439.76 121.826L2420.79 112.26M2439.76 121.826H2342.34M2439.76 121.826L2459.58 131.826M2537.18 121.826L2516.1 112.26M2537.18 121.826L2559.2 131.826M2537.18 121.826H2634.59M2420.79 112.26H2516.1M2420.79 112.26H2325.48M2420.79 112.26L2402.63 103.097M2516.1 112.26L2495.92 103.097M2516.1 112.26H2611.41M2368.52 85.8898H2458.02M2368.52 85.8898L2352.48 77.7999M2368.52 85.8898H2279.02M2368.52 85.8898L2385.22 94.3151M2458.02 85.8898L2440.21 77.7999M2458.02 85.8898L2476.58 94.3151M2458.02 85.8898H2547.53M2352.48 77.7999H2440.21M2352.48 77.7999H2264.76M2352.48 77.7999L2337.07 70.0257M2440.21 77.7999L2423.08 70.0257M2440.21 77.7999H2527.93M2307.99 55.3537H2390.77M2307.99 55.3537L2294.25 48.4238M2307.99 55.3537H2225.21M2307.99 55.3537L2311.51 57.1267L2313.28 58.0204L2322.25 62.5489M2390.77 55.3537L2375.5 48.4238M2390.77 55.3537L2406.62 62.5489M2390.77 55.3537H2473.54M2294.25 48.4238H2375.5M2294.25 48.4238H2213M2294.25 48.4238L2281.01 41.7446M2375.5 48.4238L2360.79 41.7446M2375.5 48.4238H2456.75M2255.92 29.0861H2332.91M2255.92 29.0861L2244.02 23.0829M2255.92 29.0861H2178.93M2255.92 29.0861L2268.24 35.3029M2332.91 29.0861L2322.95 24.5648L2321.32 23.8218L2319.69 23.0829M2332.91 29.0861L2346.6 35.3029M2332.91 29.0861H2409.9M2244.02 23.0829H2319.69M2244.02 23.0829L2233.94 17.9972L2232.52 17.283M2244.02 23.0829H2168.35M2319.69 23.0829H2395.36M2319.69 23.0829L2306.92 17.283M3101.55 216.866L3061.31 202.811M3101.55 216.866H2983.2M3101.55 216.866L3125.16 225.111M3101.55 216.866H3125.16M3061.31 202.811H2946.05M3061.31 202.811L3023.12 189.472M3061.31 202.811H3125.16M2952.29 164.736H3059.16M2952.29 164.736L2919.39 153.247M2952.29 164.736H2845.42M2952.29 164.736L2986.82 176.797M3059.16 164.736L3023.73 153.247M3059.16 164.736L3096.35 176.797M3059.16 164.736H3125.16M2919.39 153.247H3023.73M2919.39 153.247H2815.05M2919.39 153.247L2888.02 142.289M3023.73 153.247L2989.94 142.289M3023.73 153.247H3125.16M2829.43 121.826H2926.85M2829.43 121.826L2802.03 112.26M2829.43 121.826H2732.01M2829.43 121.826L2858.06 131.826M2926.85 121.826L2897.34 112.26M2926.85 121.826L2957.68 131.826M2926.85 121.826H3024.26M2802.03 112.26H2897.34M2802.03 112.26H2706.72M2802.03 112.26L2775.8 103.097M2897.34 112.26L2869.09 103.097M2897.34 112.26H2992.66M2726.53 85.8898H2816.03M2726.53 85.8898L2703.37 77.7999M2726.53 85.8898H2637.03M2726.53 85.8898L2750.65 94.3151M2816.03 85.8898L2791.09 77.7999M2816.03 85.8898L2842.01 94.3151M2816.03 85.8898H2905.54M2703.37 77.7999H2791.09M2703.37 77.7999H2615.65M2703.37 77.7999L2681.11 70.0257M2791.09 77.7999L2767.12 70.0257M2791.09 77.7999H2878.81M2639.1 55.3537H2721.87M2639.1 55.3537L2619.26 48.4238M2639.1 55.3537H2556.32M2639.1 55.3537L2659.7 62.5489M2721.87 55.3537L2700.51 48.4238M2721.87 55.3537L2744.06 62.5489M2721.87 55.3537H2804.65M2619.26 48.4238H2700.51M2619.26 48.4238H2538M2619.26 48.4238L2600.13 41.7446M2700.51 48.4238L2679.91 41.7446M2700.51 48.4238H2781.76M2563.89 29.0861H2640.88M2563.89 29.0861L2546.7 23.0829M2563.89 29.0861H2486.89M2563.89 29.0861L2581.69 35.3029M2640.88 29.0861L2622.37 23.0829M2640.88 29.0861L2660.05 35.3029M2640.88 29.0861H2717.87M2546.7 23.0829H2622.37M2546.7 23.0829L2530.09 17.283M2546.7 23.0829H2471.03M2622.37 23.0829H2698.04M2622.37 23.0829L2604.48 17.283M3084.54 85.8898L3054.25 77.7999M3084.54 85.8898H2995.04M3084.54 85.8898L3116.09 94.3151M3084.54 85.8898H3125.16M3054.25 77.7999H2966.53M3054.25 77.7999L3025.14 70.0257M3054.25 77.7999H3125.16M2970.2 55.3537H3052.98M2970.2 55.3537L2944.26 48.4238M2970.2 55.3537H2887.43M2970.2 55.3537L2997.15 62.5489M3052.98 55.3537L3025.51 48.4238M3052.98 55.3537L3081.51 62.5489M3052.98 55.3537H3125.16M2944.26 48.4238H3025.51M2944.26 48.4238H2863.01M2944.26 48.4238L2919.25 41.7446M3025.51 48.4238L2999.03 41.7446M3025.51 48.4238H3106.76M2871.85 29.0861H2948.84M2871.85 29.0861L2849.37 23.0829M2871.85 29.0861H2794.86M2871.85 29.0861L2895.13 35.3029M2948.84 29.0861L2925.04 23.0829M2948.84 29.0861L2973.49 35.3029M2948.84 29.0861H3025.83M2849.37 23.0829H2925.04M2849.37 23.0829L2827.66 17.283M2849.37 23.0829H2773.71M2925.04 23.0829H3000.71M2925.04 23.0829L2902.05 17.283M2973.49 35.3029L2999.03 41.7446M2973.49 35.3029H3051.85M2973.49 35.3029H2895.13M3025.83 29.0861L3000.71 23.0829M3025.83 29.0861L3051.85 35.3029M3025.83 29.0861H3102.82M3000.71 23.0829H3076.38M3000.71 23.0829L2976.44 17.283M2902.05 17.283H2827.66M2902.05 17.283H2976.44M2902.05 17.283L2879.82 11.6751M3051.85 35.3029L3078.81 41.7446M3051.85 35.3029H3125.16M3102.82 29.0861L3076.38 23.0829M3102.82 29.0861L3125.16 34.1558M3102.82 29.0861H3125.16M3076.38 23.0829L3050.83 17.283M3076.38 23.0829H3125.16M2976.44 17.283H3050.83M2976.44 17.283L2952.97 11.6751M3050.83 17.283L3026.13 11.6751M3050.83 17.283H3125.16M2999.03 41.7446H3078.81M2999.03 41.7446H2919.25M3106.76 48.4238L3078.81 41.7446M3106.76 48.4238L3125.16 52.8203M3106.76 48.4238H3125.16M3078.81 41.7446H3125.16M2919.25 41.7446H2839.47M2919.25 41.7446L2895.13 35.3029M2895.13 35.3029H2816.77M3081.51 62.5489L3111.15 70.0257M3081.51 62.5489H2997.15M3081.51 62.5489H3125.16M3125.41 55.3537H3125.16M3111.15 70.0257H3025.14M3111.15 70.0257L3125.16 73.5593M3111.15 70.0257H3125.16M3025.14 70.0257H2939.13M3025.14 70.0257L2997.15 62.5489M2997.15 62.5489H2912.79M2660.05 35.3029L2679.91 41.7446M2660.05 35.3029H2738.41M2660.05 35.3029H2581.69M2717.87 29.0861L2698.04 23.0829M2717.87 29.0861L2738.41 35.3029M2717.87 29.0861H2794.86M2698.04 23.0829H2773.71M2698.04 23.0829L2678.87 17.283M2604.48 17.283H2678.87M2604.48 17.283L2587.19 11.6751M2604.48 17.283H2530.09M2738.41 35.3029L2759.69 41.7446M2738.41 35.3029H2816.77M2794.86 29.0861L2773.71 23.0829M2794.86 29.0861L2816.77 35.3029M2773.71 23.0829L2753.27 17.283M2678.87 17.283H2753.27M2678.87 17.283L2660.35 11.6751M2816.77 35.3029L2839.47 41.7446M2827.66 17.283H2753.27M2827.66 17.283L2806.66 11.6751M2753.27 17.283L2733.5 11.6751M2679.91 41.7446H2759.69M2679.91 41.7446H2600.13M2781.76 48.4238L2759.69 41.7446M2781.76 48.4238L2804.65 55.3537M2781.76 48.4238H2863.01M2759.69 41.7446H2839.47M2600.13 41.7446H2520.35M2600.13 41.7446L2581.69 35.3029M2839.47 41.7446L2863.01 48.4238M2581.69 35.3029H2503.33M2804.65 55.3537L2828.42 62.5489M2804.65 55.3537H2887.43M2863.01 48.4238L2887.43 55.3537M2887.43 55.3537L2912.79 62.5489M2744.06 62.5489L2767.12 70.0257M2744.06 62.5489H2828.42M2744.06 62.5489H2659.7M2828.42 62.5489L2853.12 70.0257M2828.42 62.5489H2912.79M2912.79 62.5489L2939.13 70.0257M2767.12 70.0257H2853.12M2767.12 70.0257H2681.11M2878.81 77.7999L2853.12 70.0257M2878.81 77.7999L2905.54 85.8898M2878.81 77.7999H2966.53M2853.12 70.0257H2939.13M2681.11 70.0257H2595.1M2681.11 70.0257L2659.7 62.5489M2939.13 70.0257L2966.53 77.7999M2659.7 62.5489H2575.34M2905.54 85.8898L2933.37 94.3151M2905.54 85.8898H2995.04M2966.53 77.7999L2995.04 85.8898M2995.04 85.8898L3024.73 94.3151M2842.01 94.3151L2869.09 103.097M2842.01 94.3151H2933.37M2842.01 94.3151H2750.65M2933.37 94.3151L2962.39 103.097M2933.37 94.3151H3024.73M3024.73 94.3151L3055.68 103.097M3024.73 94.3151H3116.09M3116.09 94.3151H3125.16M3116.09 94.3151L3125.16 96.7375M2869.09 103.097H2962.39M2869.09 103.097H2775.8M2992.66 112.26L2962.39 103.097M2992.66 112.26L3024.26 121.826M2992.66 112.26H3087.96M2962.39 103.097H3055.68M2775.8 103.097H2682.51M2775.8 103.097L2750.65 94.3151M3055.68 103.097L3087.96 112.26M3055.68 103.097H3125.16M2750.65 94.3151H2659.3M3024.26 121.826L3057.3 131.826M3024.26 121.826H3121.68M3087.96 112.26L3121.68 121.826M3087.96 112.26H3125.16M3125.65 103.097H3125.16M3121.68 121.826L3125.16 122.814M3121.68 121.826H3125.16M2957.68 131.826L2989.94 142.289M2957.68 131.826H3057.3M2957.68 131.826H2858.06M3057.3 131.826L3091.87 142.289M3057.3 131.826H3125.16M3126 123.052L3125.16 122.814M2989.94 142.289H3091.87M2989.94 142.289H2888.02M3091.87 142.289H3125.16M3091.87 142.289L3125.16 152.366M2888.02 142.289H2786.09M2888.02 142.289L2858.06 131.826M2858.06 131.826H2758.44M3096.35 176.797H2986.82M3096.35 176.797L3125.16 186.14M3096.35 176.797H3125.16M3125.95 164.736H3125.16M2986.82 176.797H2877.3M2986.82 176.797L3023.12 189.472M3125.48 186.243L3125.16 186.14M2346.6 35.3029L2360.79 41.7446M2346.6 35.3029H2424.97M2346.6 35.3029H2268.24M2409.9 29.0861L2395.36 23.0829M2409.9 29.0861L2424.97 35.3029M2409.9 29.0861H2486.89M2395.36 23.0829H2471.03M2395.36 23.0829L2381.31 17.283M2306.92 17.283H2381.31M2306.92 17.283L2302.23 15.1581L2294.56 11.6751M2306.92 17.283H2232.52M2424.97 35.3029L2440.57 41.7446M2424.97 35.3029H2503.33M2486.89 29.0861L2471.03 23.0829M2486.89 29.0861L2503.33 35.3029M2471.03 23.0829L2455.7 17.283M2381.31 17.283H2455.7M2381.31 17.283L2367.72 11.6751M2503.33 35.3029L2520.35 41.7446M2530.09 17.283L2514.03 11.6751M2530.09 17.283H2455.7M2455.7 17.283L2453.82 16.5709L2450.08 15.1581L2440.88 11.6751M2360.79 41.7446H2440.57M2360.79 41.7446H2281.01M2456.75 48.4238L2440.57 41.7446M2456.75 48.4238L2473.54 55.3537M2456.75 48.4238H2538M2440.57 41.7446H2520.35M2281.01 41.7446H2201.23M2281.01 41.7446L2268.24 35.3029M2520.35 41.7446L2538 48.4238M2268.24 35.3029H2189.88M2473.54 55.3537L2490.98 62.5489M2473.54 55.3537H2556.32M2538 48.4238L2540.26 49.2752L2556.32 55.3537M2556.32 55.3537L2575.34 62.5489M2406.62 62.5489L2408.64 63.4684L2423.08 70.0257M2406.62 62.5489H2490.98M2406.62 62.5489H2322.25M2490.98 62.5489L2509.09 70.0257M2490.98 62.5489H2575.34M2575.34 62.5489L2595.1 70.0257M2423.08 70.0257H2509.09M2423.08 70.0257H2337.07M2527.93 77.7999L2509.09 70.0257M2527.93 77.7999L2547.53 85.8898M2527.93 77.7999H2615.65M2509.09 70.0257H2595.1M2337.07 70.0257H2251.07M2337.07 70.0257L2322.25 62.5489M2595.1 70.0257L2615.65 77.7999M2322.25 62.5489H2237.89M2547.53 85.8898L2567.94 94.3151M2547.53 85.8898H2637.03M2615.65 77.7999L2637.03 85.8898M2637.03 85.8898L2659.3 94.3151M2476.58 94.3151L2495.92 103.097M2476.58 94.3151H2567.94M2476.58 94.3151H2385.22M2567.94 94.3151L2589.22 103.097M2567.94 94.3151H2659.3M2659.3 94.3151L2682.51 103.097M2495.92 103.097H2589.22M2495.92 103.097H2402.63M2611.41 112.26L2589.22 103.097M2611.41 112.26L2634.59 121.826M2611.41 112.26H2706.72M2589.22 103.097H2682.51M2402.63 103.097H2309.34M2402.63 103.097L2385.22 94.3151M2682.51 103.097L2706.72 112.26M2385.22 94.3151H2293.86M2634.59 121.826L2658.82 131.826M2634.59 121.826H2732.01M2706.72 112.26L2732.01 121.826M2732.01 121.826L2758.44 131.826M2559.2 131.826L2582.24 142.289M2559.2 131.826H2658.82M2559.2 131.826H2459.58M2658.82 131.826L2684.17 142.289M2658.82 131.826H2758.44M2758.44 131.826L2786.09 142.289M2582.24 142.289H2684.17M2582.24 142.289H2480.32M2710.72 153.247L2684.17 142.289M2710.72 153.247L2738.55 164.736M2710.72 153.247H2815.05M2684.17 142.289H2786.09M2480.32 142.289H2378.39M2480.32 142.289L2459.58 131.826M2786.09 142.289L2815.05 153.247M2459.58 131.826H2359.96M2738.55 164.736L2767.77 176.797M2738.55 164.736H2845.42M2815.05 153.247L2845.42 164.736M2845.42 164.736L2877.3 176.797M2658.25 176.797L2686.17 189.472M2658.25 176.797H2767.77M2658.25 176.797H2548.72M2767.77 176.797L2798.48 189.472M2767.77 176.797H2877.3M2877.3 176.797L2910.8 189.472M2686.17 189.472H2798.48M2686.17 189.472H2573.85M2830.8 202.811L2798.48 189.472M2830.8 202.811L2864.85 216.866M2830.8 202.811H2946.05M2798.48 189.472H2910.8M2573.85 189.472H2461.53M2573.85 189.472L2548.72 176.797M2910.8 189.472L2946.05 202.811M2910.8 189.472H3023.12M2548.72 176.797H2439.2M2864.85 216.866L2900.78 231.698M2864.85 216.866H2983.2M2946.05 202.811L2983.2 216.866M3023.12 189.472H3125.16M2983.2 216.866L3022.4 231.698M2779.17 231.698L2813.69 247.37M2779.17 231.698H2900.78M2779.17 231.698H2657.55M2900.78 231.698L2938.76 247.37M2900.78 231.698H3022.4M3022.4 231.698L3063.82 247.37M3022.4 231.698H3125.16M2813.69 247.37H2938.76M2813.69 247.37H2688.62M2978.95 263.959L2938.76 247.37M2978.95 263.959L3021.56 281.546M2978.95 263.959H3107.67M2938.76 247.37H3063.82M2688.62 247.37H2563.55M2688.62 247.37L2657.55 231.698M3063.82 247.37L3107.67 263.959M3063.82 247.37H3125.16M2657.55 231.698H2535.93M3021.56 281.546L3066.81 300.225M3021.56 281.546H3125.16M3107.67 263.959H3125.16M3107.67 263.959L3125.16 270.576M2930.1 300.225L2973.87 320.1M2930.1 300.225H3066.81M2930.1 300.225H2793.39M3066.81 300.225L3114.96 320.1M3066.81 300.225H3125.16M2973.87 320.1H3114.96M2973.87 320.1H2832.79M3114.96 320.1L3125.16 324.308M3114.96 320.1H3125.16M2832.79 320.1H2691.7M2832.79 320.1L2793.39 300.225M2793.39 300.225H2656.68M3123.8 388.171H2967.72M3123.8 388.171H3125.16M3123.8 388.171L3125.16 388.786M2967.72 388.171H2811.64M2967.72 388.171L3019.31 414.195M2033.16 35.3029L2036.32 37.6909L2037.38 38.4949L2041.67 41.7446M2033.16 35.3029H2111.52M2033.16 35.3029H1954.8M2101.94 29.0861L2094.97 24.5648L2092.68 23.0829M2101.94 29.0861L2110.31 34.5134L2111.52 35.3029M2101.94 29.0861H2178.93M2092.68 23.0829H2168.35M2092.68 23.0829L2083.74 17.283M2009.35 17.283H2083.74M2009.35 17.283L2006.54 15.1581L2001.94 11.6751M2009.35 17.283H1934.96M2111.52 35.3029L2113.97 36.8911L2121.46 41.7446M2111.52 35.3029H2189.88M2178.93 29.0861L2168.35 23.0829M2178.93 29.0861L2189.88 35.3029M2168.35 23.0829L2160.65 18.7144L2158.13 17.283M2083.74 17.283H2158.13M2083.74 17.283L2075.1 11.6751M2189.88 35.3029L2201.23 41.7446M2232.52 17.283L2231.11 16.5709L2221.41 11.6751M2232.52 17.283H2158.13M2158.13 17.283L2154.39 15.1581L2148.25 11.6751M2041.67 41.7446H2121.46M2041.67 41.7446H1961.9M2131.75 48.4238L2121.46 41.7446M2131.75 48.4238L2142.44 55.3537M2131.75 48.4238H2213M2121.46 41.7446H2201.23M1961.9 41.7446H1882.12M1961.9 41.7446L1954.8 35.3029M2201.23 41.7446L2213 48.4238M1954.8 35.3029H1876.44M2142.44 55.3537L2149.32 59.8192L2150.72 60.7243L2153.53 62.5489M2142.44 55.3537H2225.21M2213 48.4238L2225.21 55.3537M2225.21 55.3537L2237.89 62.5489M2069.17 62.5489L2079.05 70.0257M2069.17 62.5489H2153.53M2069.17 62.5489H1984.81M2153.53 62.5489L2165.06 70.0257M2153.53 62.5489H2237.89M2237.89 62.5489L2251.07 70.0257M2079.05 70.0257H2165.06M2079.05 70.0257H1993.04M2177.04 77.7999L2169.5 72.905L2168.01 71.9401L2165.06 70.0257M2177.04 77.7999L2189.52 85.8898M2177.04 77.7999H2264.76M2165.06 70.0257H2251.07M1993.04 70.0257H1907.03M1993.04 70.0257L1984.81 62.5489M2251.07 70.0257L2264.76 77.7999M1984.81 62.5489H1900.45M2189.52 85.8898L2202.51 94.3151M2189.52 85.8898H2279.02M2264.76 77.7999L2279.02 85.8898M2279.02 85.8898L2293.86 94.3151M2111.15 94.3151L2116.89 98.6598L2118.34 99.761L2122.75 103.097M2111.15 94.3151H2202.51M2111.15 94.3151H2019.79M2202.51 94.3151L2216.05 103.097M2202.51 94.3151H2293.86M2293.86 94.3151L2309.34 103.097M2122.75 103.097H2216.05M2122.75 103.097H2029.46M2230.17 112.26L2216.05 103.097M2230.17 112.26L2244.92 121.826M2230.17 112.26H2325.48M2216.05 103.097H2309.34M2029.46 103.097H1936.17M2029.46 103.097L2027.01 100.867L2019.79 94.3151M2309.34 103.097L2325.48 112.26M2019.79 94.3151H1928.43M2244.92 121.826L2260.34 131.826M2244.92 121.826H2342.34M2325.48 112.26L2342.34 121.826M2342.34 121.826L2359.96 131.826M2160.72 131.826L2174.55 142.289M2160.72 131.826H2260.34M2160.72 131.826H2061.1M2260.34 131.826L2276.47 142.289M2260.34 131.826H2359.96M2359.96 131.826L2378.39 142.289M2174.55 142.289H2276.47M2174.55 142.289H2072.62M2293.36 153.247L2276.47 142.289M2293.36 153.247L2311.08 164.736M2293.36 153.247H2397.7M2276.47 142.289H2378.39M2072.62 142.289H1970.7M2072.62 142.289L2061.1 131.826M2378.39 142.289L2397.7 153.247M2061.1 131.826H1961.48M2311.08 164.736L2329.67 176.797M2311.08 164.736H2417.95M2397.7 153.247L2417.95 164.736M2417.95 164.736L2439.2 176.797M2220.15 176.797L2236.9 189.472M2220.15 176.797H2329.67M2220.15 176.797H2110.62M2329.67 176.797L2349.22 189.472M2329.67 176.797H2439.2M2439.2 176.797L2461.53 189.472M2236.9 189.472H2349.22M2236.9 189.472H2124.58M2369.78 202.811L2349.22 189.472M2369.78 202.811L2391.45 216.866M2369.78 202.811H2485.04M2349.22 189.472H2461.53M2124.58 189.472H2012.27M2124.58 189.472L2110.62 176.797M2461.53 189.472L2485.04 202.811M2110.62 176.797H2001.1M2391.45 216.866L2414.32 231.698M2391.45 216.866H2509.8M2485.04 202.811L2509.8 216.866M2509.8 216.866L2535.93 231.698M2292.7 231.698L2313.41 247.37M2292.7 231.698H2414.32M2292.7 231.698H2171.08M2414.32 231.698L2438.48 247.37M2414.32 231.698H2535.93M2535.93 231.698L2563.55 247.37M2313.41 247.37H2438.48M2313.41 247.37H2188.34M2464.06 263.959L2438.48 247.37M2464.06 263.959L2491.17 281.546M2464.06 263.959H2592.78M2438.48 247.37H2563.55M2188.34 247.37H2063.27M2188.34 247.37L2171.08 231.698M2563.55 247.37L2592.78 263.959M2171.08 231.698H2049.47M2491.17 281.546L2519.97 300.225M2491.17 281.546H2623.77M2592.78 263.959L2623.77 281.546M2623.77 281.546L2656.68 300.225M2383.26 300.225L2409.52 320.1M2383.26 300.225H2519.97M2383.26 300.225H2246.55M2519.97 300.225L2550.61 320.1M2519.97 300.225H2656.68M2656.68 300.225L2691.7 320.1M2409.52 320.1H2550.61M2409.52 320.1H2268.44M2583.28 341.289L2550.61 320.1M2583.28 341.289L2618.18 363.928M2583.28 341.289H2729.04M2550.61 320.1H2691.7M2268.44 320.1H2127.35M2268.44 320.1L2246.55 300.225M2691.7 320.1L2729.04 341.289M2246.55 300.225H2109.84M2618.18 363.928L2655.56 388.171M2618.18 363.928H2768.93M2729.04 341.289L2768.93 363.928M2768.93 363.928L2811.64 388.171M2499.48 388.171L2533.87 414.195M2499.48 388.171H2655.56M2499.48 388.171H2343.4M2655.56 388.171L2695.68 414.195M2655.56 388.171H2811.64M2811.64 388.171L2857.5 414.195M2533.87 414.195H2695.68M2533.87 414.195H2372.06M2738.87 442.202L2695.68 414.195M2738.87 442.202L2785.47 472.431M2738.87 442.202H2906.85M2695.68 414.195H2857.5M2372.06 414.195H2210.25M2372.06 414.195L2343.4 388.171M2857.5 414.195L2906.85 442.202M2857.5 414.195H3019.31M2343.4 388.171H2187.32M2785.47 472.431L2835.92 505.154M2785.47 472.431H2960.11M2906.85 442.202L2960.11 472.431M3019.31 414.195H3125.16M2960.11 472.431L3017.77 505.154M2960.11 472.431H3125.16M2654.08 505.154L2701.04 540.694M2654.08 505.154H2835.92M2654.08 505.154H2472.23M2835.92 505.154L2890.72 540.694M2835.92 505.154H3017.77M3017.77 505.154L3080.39 540.694M3017.77 505.154H3125.16M2701.04 540.694H2890.72M2701.04 540.694H2511.37M2950.44 579.431L2890.72 540.694M2950.44 579.431L3015.79 621.818M2950.44 579.431H3125.16M2890.72 540.694H3080.39M2511.37 540.694H2321.7M2511.37 540.694L2472.23 505.154M3080.39 540.694H3125.16M3080.39 540.694L3125.16 566.102M2472.23 505.154H2290.38M3015.79 621.818L3087.6 668.396M3015.79 621.818H3125.16M2869.8 668.396L2937.76 719.817M2869.8 668.396H3087.6M2869.8 668.396H2652M3087.6 668.396L3125.16 692.756M3087.6 668.396H3125.16M2937.76 719.817H2708.63M2937.76 719.817L3125.16 719.816M2708.63 719.817H2479.5M2708.63 719.817L2652 668.396M2652 668.396H2434.2M1719.72 35.3029L1720.07 36.0954L1720.42 36.8911L1720.77 37.6909L1721.13 38.4949L1722.2 40.9263L1722.56 41.7446M1719.72 35.3029H1798.08M1719.72 35.3029H1641.36M1793.97 29.0861L1790.99 24.5648L1790.01 23.0829M1793.97 29.0861L1796.52 32.9458L1798.08 35.3029M1793.97 29.0861H1870.97M1790.01 23.0829H1865.68M1790.01 23.0829L1787.12 18.7144L1786.17 17.283M1711.78 17.283L1711.47 16.5709L1710.23 13.7556L1709.31 11.6751M1711.78 17.283H1786.17M1711.78 17.283H1637.39M1798.08 35.3029L1798.6 36.0954L1799.13 36.8911L1799.66 37.6909L1800.19 38.4949L1802.34 41.7446M1798.08 35.3029H1876.44M1870.97 29.0861L1866.98 24.5648L1865.68 23.0829M1870.97 29.0861L1876.44 35.3029M1865.68 23.0829L1863.1 20.1582L1861.19 17.9972L1860.57 17.283M1786.17 17.283L1785.71 16.5709L1784.77 15.1581L1783.84 13.7556L1783.38 13.059L1782.47 11.6751M1786.17 17.283H1860.57M1876.44 35.3029L1880.68 40.112L1882.12 41.7446M1934.96 17.283L1930.31 13.059L1928.78 11.6751M1934.96 17.283H1860.57M1860.57 17.283L1856.24 12.3655L1855.62 11.6751M1722.56 41.7446H1802.34M1722.56 41.7446H1642.78M1806.75 48.4238L1802.34 41.7446M1806.75 48.4238L1811.33 55.3537M1806.75 48.4238H1888M1802.34 41.7446H1882.12M1642.78 41.7446H1563M1642.78 41.7446L1641.36 35.3029M1882.12 41.7446L1888 48.4238M1641.36 35.3029H1563M1811.33 55.3537L1812.5 57.1267L1814.28 59.8192L1816.08 62.5489M1811.33 55.3537H1894.11M1888 48.4238L1888.75 49.2752L1894.11 55.3537M1894.11 55.3537L1894.89 56.2381L1895.67 57.1267L1896.46 58.0204L1900.45 62.5489M1731.72 62.5489L1735.02 70.0257M1731.72 62.5489H1816.08M1731.72 62.5489H1647.36M1816.08 62.5489L1821.02 70.0257M1816.08 62.5489H1900.45M1900.45 62.5489L1905.36 68.1289L1906.2 69.0753L1907.03 70.0257M1735.02 70.0257H1821.02M1735.02 70.0257H1649.01M1826.16 77.7999L1826.82 78.7937L1827.48 79.7916L1828.14 80.7958L1831.51 85.8898M1826.16 77.7999L1823.57 73.8741L1822.93 72.905L1822.29 71.9401L1821.02 70.0257M1826.16 77.7999H1913.88M1821.02 70.0257H1907.03M1649.01 70.0257H1563M1649.01 70.0257L1647.36 62.5489M1907.03 70.0257L1913.88 77.7999M1647.36 62.5489H1563M1831.51 85.8898L1836.37 93.2428L1837.07 94.3151M1831.51 85.8898H1921.01M1913.88 77.7999L1915.64 79.7916L1921.01 85.8898M1921.01 85.8898L1923.76 89.0085L1928.43 94.3151M1745.72 94.3151L1747.63 98.6598L1748.11 99.761L1749.59 103.097M1745.72 94.3151H1837.07M1745.72 94.3151H1654.36M1837.07 94.3151L1842.88 103.097M1837.07 94.3151H1928.43M1928.43 94.3151L1936.17 103.097M1749.59 103.097H1842.88M1749.59 103.097H1656.29M1848.93 112.26L1842.88 103.097M1848.93 112.26L1855.25 121.826M1848.93 112.26H1944.24M1842.88 103.097H1936.17M1656.29 103.097H1563M1656.29 103.097L1655.8 100.867L1654.83 96.4761L1654.36 94.3151M1936.17 103.097L1944.24 112.26M1654.36 94.3151H1563M1855.25 121.826L1860.18 129.285L1861.86 131.826M1855.25 121.826H1952.67M1944.24 112.26L1952.67 121.826M1952.67 121.826L1957.03 126.771L1961.48 131.826M1762.24 131.826L1766.85 142.289M1762.24 131.826H1861.86M1762.24 131.826H1662.62M1861.86 131.826L1868.77 142.289M1861.86 131.826H1961.48M1961.48 131.826L1970.7 142.289M1766.85 142.289H1868.77M1766.85 142.289H1664.92M1876.01 153.247L1874.17 150.459L1868.77 142.289M1876.01 153.247L1883.61 164.736M1876.01 153.247H1980.35M1868.77 142.289H1970.7M1664.92 142.289H1563M1664.92 142.289L1662.62 131.826M1970.7 142.289L1980.35 153.247M1662.62 131.826H1563M1883.61 164.736L1891.57 176.797M1883.61 164.736H1990.47M1980.35 153.247L1990.47 164.736M1990.47 164.736L2001.1 176.797M1782.05 176.797L1787.63 189.472M1782.05 176.797H1891.57M1782.05 176.797H1672.53M1891.57 176.797L1899.95 189.472M1891.57 176.797H2001.1M2001.1 176.797L2012.27 189.472M1787.63 189.472H1899.95M1787.63 189.472H1675.32M1908.76 202.811L1899.95 189.472M1908.76 202.811L1918.05 216.866M1908.76 202.811H2024.02M1899.95 189.472H2012.27M1675.32 189.472H1563M1675.32 189.472L1672.87 178.347L1672.53 176.797M2012.27 189.472L2024.02 202.811M1672.53 176.797H1563M1918.05 216.866L1927.85 231.698M1918.05 216.866H2036.4M2024.02 202.811L2033.24 213.283L2036.4 216.866M2036.4 216.866L2049.47 231.698M1806.23 231.698L1813.14 247.37M1806.23 231.698H1927.85M1806.23 231.698H1684.62M1927.85 231.698L1938.21 247.37M1927.85 231.698H2049.47M2049.47 231.698L2063.27 247.37M1813.14 247.37H1938.21M1813.14 247.37H1688.07M1949.17 263.959L1938.21 247.37M1949.17 263.959L1960.79 281.546M1949.17 263.959H2077.89M1938.21 247.37H2063.27M1688.07 247.37H1563M1688.07 247.37L1684.62 231.698M2063.27 247.37L2077.89 263.959M1684.62 231.698H1563M1960.79 281.546L1973.13 300.225M1960.79 281.546H2093.38M2077.89 263.959L2093.38 281.546M2093.38 281.546L2109.84 300.225M1836.42 300.225L1845.17 320.1M1836.42 300.225H1973.13M1836.42 300.225H1699.71M1973.13 300.225L1986.26 320.1M1973.13 300.225H2109.84M2109.84 300.225L2127.35 320.1M1845.17 320.1H1986.26M1845.17 320.1H1704.09M2000.26 341.289L1986.26 320.1M2000.26 341.289L2015.22 363.928M2000.26 341.289H2146.02M1986.26 320.1H2127.35M1704.09 320.1H1563M1704.09 320.1L1699.71 300.225M2127.35 320.1L2146.02 341.289M1699.71 300.225H1563M2015.22 363.928L2031.24 388.171M2015.22 363.928H2165.96M2146.02 341.289L2165.96 363.928M2165.96 363.928L2187.32 388.171M1875.16 388.171L1886.62 414.195M1875.16 388.171H2031.24M1875.16 388.171H1719.08M2031.24 388.171L2048.44 414.195M2031.24 388.171H2187.32M2187.32 388.171L2210.25 414.195M1886.62 414.195H2048.44M1886.62 414.195H1724.81M2066.94 442.202L2048.44 414.195M2066.94 442.202L2086.92 472.431M2066.94 442.202H2234.92M2048.44 414.195H2210.25M1724.81 414.195H1563M1724.81 414.195L1719.08 388.171M2210.25 414.195L2234.92 442.202M1719.08 388.171H1563M2086.92 472.431L2108.54 505.154M2086.92 472.431H2261.56M2234.92 442.202L2261.56 472.431M2261.56 472.431L2290.38 505.154M1926.69 505.154L1942.35 540.694M1926.69 505.154H2108.54M1926.69 505.154H1744.85M2108.54 505.154L2132.02 540.694M2108.54 505.154H2290.38M2290.38 505.154L2321.7 540.694M1942.35 540.694H2132.02M1942.35 540.694H1752.67M2157.62 579.431L2132.02 540.694M2157.62 579.431L2185.62 621.818M2157.62 579.431H2355.82M2132.02 540.694H2321.7M1752.67 540.694H1563M1752.67 540.694L1744.85 505.154M2321.7 540.694L2355.82 579.431M1744.85 505.154H1563M2185.62 621.818L2216.4 668.396M2185.62 621.818H2393.17M2355.82 579.431L2393.17 621.818M2393.17 621.818L2434.2 668.396M1998.6 668.396L2021.25 719.817M1998.6 668.396H2216.4M1998.6 668.396H1780.8M2216.4 668.396L2250.38 719.817M2216.4 668.396H2434.2M2434.2 668.396L2479.5 719.817M2250.38 719.817H2021.25M2250.38 719.817H2479.5M2021.25 719.817H1792.13M1792.13 719.817H1563M1792.13 719.817L1780.8 668.396M1780.8 668.396H1563M1406.28 35.3029L1405.93 36.0954L1405.58 36.8911L1405.23 37.6909L1404.87 38.4949L1404.16 40.112L1403.8 40.9263L1403.44 41.7446M1406.28 35.3029H1484.64M1406.28 35.3029H1327.92M1486.01 29.0861L1487.33 23.0829M1486.01 29.0861L1484.64 35.3029M1486.01 29.0861H1563M1487.33 23.0829L1487.49 22.3471L1487.66 21.6143L1487.81 20.8847L1488.61 17.283M1487.33 23.0829H1563M1414.22 17.283L1414.53 16.5709L1415.77 13.7556L1416.69 11.6751M1414.22 17.283H1488.61M1414.22 17.283H1339.83M1484.64 35.3029L1484.46 36.0954L1484.29 36.8911L1484.11 37.6909L1483.22 41.7446M1484.64 35.3029H1563M1563 29.0861V23.0829M1563 29.0861V35.3029M1563 23.0829V17.283M1488.61 17.283H1563M1488.61 17.283L1489.08 15.1581L1489.23 14.4553L1489.84 11.6751M1563 35.3029V41.7446M1637.39 17.283L1636.92 15.1581L1636.77 14.4553L1636.62 13.7556L1636.46 13.059L1636.31 12.3655L1636.16 11.6751M1637.39 17.283H1563M1563 17.283V11.6751M1403.44 41.7446H1483.22M1403.44 41.7446H1323.66M1481.75 48.4238L1481.56 49.2752L1481.37 50.1318L1480.22 55.3537M1481.75 48.4238L1483.22 41.7446M1481.75 48.4238H1563M1483.22 41.7446H1563M1323.66 41.7446H1243.88M1323.66 41.7446L1324.74 40.112L1325.28 39.3019L1325.81 38.4949L1326.34 37.6909L1326.87 36.8911L1327.4 36.0954L1327.92 35.3029M1563 41.7446V48.4238M1327.92 35.3029H1249.56M1480.22 55.3537L1478.64 62.5489M1480.22 55.3537H1563M1563 48.4238V55.3537M1563 55.3537V62.5489M1394.28 62.5489L1390.98 70.0257M1394.28 62.5489H1478.64M1394.28 62.5489H1309.92M1478.64 62.5489L1476.99 70.0257M1478.64 62.5489H1563M1563 62.5489V70.0257M1390.98 70.0257H1476.99M1390.98 70.0257H1304.98M1475.28 77.7999L1476.99 70.0257M1475.28 77.7999L1473.5 85.8898M1475.28 77.7999H1563M1476.99 70.0257H1563M1304.98 70.0257H1218.97M1304.98 70.0257L1309.92 62.5489M1563 70.0257V77.7999M1309.92 62.5489H1225.55M1473.5 85.8898L1472.81 89.0085L1472.11 92.1757L1471.64 94.3151M1473.5 85.8898H1563M1563 77.7999V85.8898M1563 85.8898V94.3151M1380.28 94.3151L1378.37 98.6598L1377.89 99.761L1376.41 103.097M1380.28 94.3151H1471.64M1380.28 94.3151H1288.93M1471.64 94.3151L1471.17 96.4761L1470.2 100.867L1469.71 103.097M1471.64 94.3151H1563M1563 94.3151V103.097M1376.41 103.097H1469.71M1376.41 103.097H1283.12M1467.69 112.26L1467.95 111.092L1469.71 103.097M1467.69 112.26L1465.58 121.826M1467.69 112.26H1563M1469.71 103.097H1563M1283.12 103.097H1189.83M1283.12 103.097L1288.93 94.3151M1563 103.097V112.26M1288.93 94.3151H1197.57M1465.58 121.826L1463.38 131.826M1465.58 121.826H1563M1563 112.26V121.826M1563 121.826V131.826M1363.76 131.826L1359.15 142.289M1363.76 131.826H1463.38M1363.76 131.826H1264.14M1463.38 131.826L1461.08 142.289M1463.38 131.826H1563M1563 131.826V142.289M1359.15 142.289H1461.08M1359.15 142.289H1257.23M1458.66 153.247L1461.08 142.289M1458.66 153.247L1456.13 164.736M1458.66 153.247H1563M1461.08 142.289H1563M1257.23 142.289H1155.3M1257.23 142.289L1264.14 131.826M1563 142.289V153.247M1264.14 131.826H1164.52M1456.13 164.736L1453.47 176.797M1456.13 164.736H1563M1563 153.247V164.736M1563 164.736V176.797M1343.95 176.797L1338.37 189.472M1343.95 176.797H1453.47M1343.95 176.797H1234.43M1453.47 176.797L1450.68 189.472M1453.47 176.797H1563M1563 176.797V189.472M1338.37 189.472H1450.68M1338.37 189.472H1226.05M1447.75 202.811L1450.68 189.472M1447.75 202.811L1444.65 216.866M1447.75 202.811H1563M1450.68 189.472H1563M1226.05 189.472H1113.73M1226.05 189.472L1234.43 176.797M1563 189.472V202.811M1234.43 176.797H1124.9M1444.65 216.866L1441.38 231.698M1444.65 216.866H1563M1563 202.811V216.866M1563 216.866V231.698M1319.77 231.698L1312.86 247.37M1319.77 231.698H1441.38M1319.77 231.698H1198.15M1441.38 231.698L1437.93 247.37M1441.38 231.698H1563M1563 231.698V247.37M1312.86 247.37H1437.93M1312.86 247.37H1187.79M1434.28 263.959L1437.93 247.37M1434.28 263.959L1430.4 281.546M1434.28 263.959H1563M1437.93 247.37H1563M1187.79 247.37H1062.73M1187.79 247.37L1198.15 231.698M1563 247.37V263.959M1198.15 231.698H1076.53M1430.4 281.546L1426.29 300.225M1430.4 281.546H1563M1563 263.959V281.546M1563 281.546V300.225M1289.58 300.225L1280.83 320.1M1289.58 300.225H1426.29M1289.58 300.225H1152.87M1426.29 300.225L1421.91 320.1M1426.29 300.225H1563M1563 300.225V320.1M1280.83 320.1H1421.91M1280.83 320.1H1139.74M1417.25 341.289L1421.91 320.1M1417.25 341.289L1412.26 363.928M1417.25 341.289H1563M1421.91 320.1H1563M1139.74 320.1H998.651M1139.74 320.1L1152.87 300.225M1563 320.1V341.289M1152.87 300.225H1016.16M1412.26 363.928L1406.92 388.171M1412.26 363.928H1563M1563 341.289V363.928M1563 363.928V388.171M1250.84 388.171L1239.38 414.195M1250.84 388.171H1406.92M1250.84 388.171H1094.76M1406.92 388.171L1401.19 414.195M1406.92 388.171H1563M1563 388.171V414.195M1239.38 414.195H1401.19M1239.38 414.195H1077.56M1395.02 442.202L1401.19 414.195M1395.02 442.202L1388.36 472.431M1395.02 442.202H1563M1401.19 414.195H1563M1077.56 414.195H915.752M1077.56 414.195L1094.76 388.171M1563 414.195V442.202M1094.76 388.171H938.679M1388.36 472.431L1381.15 505.154M1388.36 472.431H1563M1563 442.202V472.431M1563 472.431V505.154M1199.31 505.154L1183.65 540.694M1199.31 505.154H1381.15M1199.31 505.154H1017.46M1381.15 505.154L1373.33 540.694M1381.15 505.154H1563M1563 505.154V540.694M1183.65 540.694H1373.33M1183.65 540.694H993.979M1364.79 579.431L1373.33 540.694M1364.79 579.431L1355.46 621.818M1364.79 579.431H1563M1373.33 540.694H1563M993.979 540.694H804.305M993.979 540.694L1017.46 505.154M1563 540.694V579.431M1017.46 505.154H835.617M1355.46 621.818L1345.2 668.396M1355.46 621.818H1563M1563 579.431V621.818M1563 621.818V668.396M1127.4 668.396L1104.75 719.817M1127.4 668.396H1345.2M1127.4 668.396H909.6M1345.2 668.396L1333.87 719.817M1345.2 668.396H1563M1563 668.396V719.817M1333.87 719.817H1104.75M1333.87 719.817H1563M1104.75 719.817H875.623M875.623 719.817H646.496M875.623 719.817L909.6 668.396M909.6 668.396H691.799M1092.84 35.3029L1088.62 38.4949L1084.33 41.7446M1092.84 35.3029H1171.2M1092.84 35.3029H1014.48M1178.04 29.0861L1184.66 23.0829M1178.04 29.0861L1171.2 35.3029M1178.04 29.0861H1255.04M1184.66 23.0829H1260.32M1184.66 23.0829L1189.47 18.7144L1191.04 17.283M1116.65 17.283H1191.04M1116.65 17.283L1119.46 15.1581L1124.06 11.6751M1116.65 17.283H1042.26M1171.2 35.3029L1164.1 41.7446M1171.2 35.3029H1249.56M1255.04 29.0861L1260.32 23.0829M1255.04 29.0861L1249.56 35.3029M1260.32 23.0829L1262.9 20.1582L1264.81 17.9972L1265.43 17.283M1191.04 17.283H1265.43M1191.04 17.283L1195.69 13.059L1197.22 11.6751M1249.56 35.3029L1245.32 40.112L1243.88 41.7446M1339.83 17.283L1340.29 16.5709L1341.23 15.1581L1342.62 13.059L1343.53 11.6751M1339.83 17.283H1265.43M1265.43 17.283L1266.06 16.5709L1267.31 15.1581L1270.37 11.6751M1084.33 41.7446H1164.1M1084.33 41.7446H1004.54M1156.75 48.4238L1157.68 47.5755L1158.61 46.7303L1162.29 43.3907L1164.1 41.7446M1156.75 48.4238L1151.05 53.5962L1149.12 55.3537M1156.75 48.4238H1238M1164.1 41.7446H1243.88M1004.54 41.7446H924.766M1004.54 41.7446L1012.03 36.8911L1014.48 35.3029M1243.88 41.7446L1238 48.4238M1014.48 35.3029H936.116M1149.12 55.3537L1148.14 56.2381L1147.16 57.1267L1144.2 59.8192L1143.2 60.7243L1141.19 62.5489M1149.12 55.3537H1231.89M1238 48.4238L1237.25 49.2752L1231.89 55.3537M1231.89 55.3537L1231.11 56.2381L1230.33 57.1267L1229.54 58.0204L1225.55 62.5489M1056.83 62.5489L1046.95 70.0257M1056.83 62.5489H1141.19M1056.83 62.5489H972.47M1141.19 62.5489L1132.96 70.0257M1141.19 62.5489H1225.55M1225.55 62.5489L1218.97 70.0257M1046.95 70.0257H1132.96M1046.95 70.0257H960.943M1124.4 77.7999L1132.96 70.0257M1124.4 77.7999L1115.49 85.8898M1124.4 77.7999H1212.12M1132.96 70.0257H1218.97M960.943 70.0257H874.934M960.943 70.0257L972.47 62.5489M1218.97 70.0257L1212.12 77.7999M972.47 62.5489H888.107M1115.49 85.8898L1106.21 94.3151M1115.49 85.8898H1204.99M1212.12 77.7999L1210.36 79.7916L1204.99 85.8898M1204.99 85.8898L1202.24 89.0085L1199.45 92.1757L1197.57 94.3151M1014.85 94.3151L1009.11 98.6598L1003.25 103.097M1014.85 94.3151H1106.21M1014.85 94.3151H923.493M1106.21 94.3151L1096.54 103.097M1106.21 94.3151H1197.57M1197.57 94.3151L1189.83 103.097M1003.25 103.097H1096.54M1003.25 103.097H909.954M1086.45 112.26L1096.54 103.097M1086.45 112.26L1075.91 121.826M1086.45 112.26H1181.76M1096.54 103.097H1189.83M909.954 103.097H816.661M909.954 103.097L923.493 94.3151M1189.83 103.097L1181.76 112.26M923.493 94.3151H832.136M1075.91 121.826L1073.2 124.285L1064.9 131.826M1075.91 121.826H1173.33M1181.76 112.26L1173.33 121.826M1173.33 121.826L1172.25 123.052L1168.97 126.771L1164.52 131.826M965.281 131.826L951.454 142.289M965.281 131.826H1064.9M965.281 131.826H865.661M1064.9 131.826L1053.38 142.289M1064.9 131.826H1164.52M1164.52 131.826L1155.3 142.289M951.454 142.289H1053.38M951.454 142.289H849.53M1041.31 153.247L1048.92 146.339L1053.38 142.289M1041.31 153.247L1028.66 164.736M1041.31 153.247H1145.65M1053.38 142.289H1155.3M849.53 142.289H747.605M849.53 142.289L865.661 131.826M1155.3 142.289L1145.65 153.247M865.661 131.826H766.04M1028.66 164.736L1015.38 176.797M1028.66 164.736H1135.53M1145.65 153.247L1135.53 164.736M1135.53 164.736L1124.9 176.797M905.85 176.797L889.099 189.472M905.85 176.797H1015.38M905.85 176.797H796.327M1015.38 176.797L1001.42 189.472M1015.38 176.797H1124.9M1124.9 176.797L1113.73 189.472M889.099 189.472H1001.42M889.099 189.472H776.783M986.728 202.811L1001.42 189.472M986.728 202.811L971.25 216.866M986.728 202.811H1101.98M1001.42 189.472H1113.73M776.783 189.472H664.468M776.783 189.472L796.327 176.797M1113.73 189.472L1101.98 202.811M796.327 176.797H686.801M971.25 216.866L954.917 231.698M971.25 216.866H1089.6M1101.98 202.811L1089.6 216.866M1089.6 216.866L1076.53 231.698M833.299 231.698L812.588 247.37M833.299 231.698H954.917M833.299 231.698H711.682M954.917 231.698L937.657 247.37M954.917 231.698H1076.53M1076.53 231.698L1062.73 247.37M812.588 247.37H937.657M812.588 247.37H687.519M919.387 263.959L937.657 247.37M919.387 263.959L900.02 281.546M919.387 263.959H1048.11M937.657 247.37H1062.73M687.519 247.37H562.45M687.519 247.37L711.682 231.698M1062.73 247.37L1048.11 263.959M711.682 231.698H590.066M900.02 281.546L879.45 300.225M900.02 281.546H1032.62M1048.11 263.959L1032.62 281.546M1032.62 281.546L1016.16 300.225M742.74 300.225L716.476 320.1M742.74 300.225H879.45M742.74 300.225H606.03M879.45 300.225L857.563 320.1M879.45 300.225H1016.16M1016.16 300.225L998.651 320.1M716.476 320.1H857.563M716.476 320.1H575.389M834.229 341.289L857.563 320.1M834.229 341.289L809.296 363.928M834.229 341.289H979.983M857.563 320.1H998.651M575.389 320.1H434.301M575.389 320.1L606.03 300.225M998.651 320.1L979.983 341.289M606.03 300.225H469.32M809.296 363.928L782.599 388.171M809.296 363.928H960.038M979.983 341.289L960.038 363.928M960.038 363.928L938.679 388.171M626.518 388.171L592.128 414.195M626.518 388.171H782.599M626.518 388.171H470.438M782.599 388.171L753.94 414.195M782.599 388.171H938.679M938.679 388.171L915.752 414.195M592.128 414.195H753.94M592.128 414.195H430.316M723.096 442.202L753.94 414.195M723.096 442.202L689.807 472.431M723.096 442.202H891.077M753.94 414.195H915.752M430.316 414.195H268.504M430.316 414.195L470.438 388.171M915.752 414.195L891.077 442.202M470.438 388.171H314.357M689.807 472.431L653.77 505.154M689.807 472.431H864.445M891.077 442.202L864.445 472.431M864.445 472.431L835.617 505.154M471.925 505.154L424.958 540.694M471.925 505.154H653.77M471.925 505.154H290.078M653.77 505.154L614.631 540.694M653.77 505.154H835.617M835.617 505.154L804.305 540.694M424.958 540.694H614.631M424.958 540.694H235.284M571.971 579.431L614.631 540.694M571.971 579.431L525.292 621.818M571.971 579.431H770.177M614.631 540.694H804.305M235.284 540.694H45.6102M235.284 540.694L290.078 505.154M804.305 540.694L770.177 579.431M290.078 505.154H108.233M525.292 621.818L474 668.396M525.292 621.818H732.835M770.177 579.431L732.835 621.818M732.835 621.818L691.799 668.396M256.199 668.396L188.245 719.817M256.199 668.396H474M256.199 668.396H38.3982M474 668.396L417.371 719.817M474 668.396H691.799M691.799 668.396L646.496 719.817M417.371 719.817H188.245M417.371 719.817H646.496M188.245 719.817L0.841297 719.816M38.3982 668.396L0.841297 692.756M38.3982 668.396H0.841297M779.395 35.3029L765.207 41.7446M779.395 35.3029H857.755M779.395 35.3029H701.035M870.079 29.0861L881.979 23.0829M870.079 29.0861L857.755 35.3029M870.079 29.0861H947.07M881.979 23.0829H957.647M881.979 23.0829L893.477 17.283M819.084 17.283H893.477M819.084 17.283L823.765 15.1581L831.436 11.6751M819.084 17.283H744.693M857.755 35.3029L844.986 41.7446M857.755 35.3029H936.116M947.07 29.0861L957.647 23.0829M947.07 29.0861L936.116 35.3029M957.647 23.0829L965.346 18.7144L967.868 17.283M893.477 17.283L894.886 16.5709L904.592 11.6751M893.477 17.283H967.868M936.116 35.3029L924.766 41.7446M1042.26 17.283L1050.9 11.6751M1042.26 17.283H967.868M967.868 17.283L971.612 15.1581L977.749 11.6751M765.207 41.7446H844.986M765.207 41.7446H685.428M831.747 48.4238L844.986 41.7446M831.747 48.4238L818.01 55.3537M831.747 48.4238H912.997M844.986 41.7446H924.766M685.428 41.7446H605.649M685.428 41.7446L701.035 35.3029M924.766 41.7446L912.997 48.4238M701.035 35.3029H622.675M818.01 55.3537L814.493 57.1267L803.745 62.5489M818.01 55.3537H900.786M912.997 48.4238L900.786 55.3537M900.786 55.3537L888.107 62.5489M719.384 62.5489L717.361 63.4684L702.918 70.0257M719.384 62.5489H803.745M719.384 62.5489H635.022M803.745 62.5489L788.926 70.0257M803.745 62.5489H888.107M888.107 62.5489L886.489 63.4684L874.934 70.0257M702.918 70.0257H788.926M702.918 70.0257H616.91M773.516 77.7999L788.926 70.0257M773.516 77.7999L757.479 85.8898M773.516 77.7999H861.236M788.926 70.0257H874.934M616.91 70.0257H530.901M616.91 70.0257L635.022 62.5489M874.934 70.0257L861.236 77.7999M635.022 62.5489H550.661M757.479 85.8898L740.777 94.3151M757.479 85.8898H846.981M861.236 77.7999L846.981 85.8898M846.981 85.8898L832.136 94.3151M649.42 94.3151L630.077 103.097M649.42 94.3151H740.777M649.42 94.3151H558.062M740.777 94.3151L723.369 103.097M740.777 94.3151H832.136M832.136 94.3151L816.661 103.097M630.077 103.097H723.369M630.077 103.097H536.784M705.207 112.26L723.369 103.097M705.207 112.26L686.242 121.826M705.207 112.26H800.517M723.369 103.097H816.661M536.784 103.097H443.492M536.784 103.097L558.062 94.3151M816.661 103.097L800.517 112.26M558.062 94.3151H466.703M686.242 121.826L666.42 131.826M686.242 121.826H783.66M800.517 112.26L783.66 121.826M783.66 121.826L766.04 131.826M566.8 131.826L543.757 142.289M566.8 131.826H666.42M566.8 131.826H467.18M666.42 131.826L645.681 142.289M666.42 131.826H766.04M766.04 131.826L747.605 142.289M543.757 142.289H645.681M543.757 142.289H441.832M623.959 153.247L645.681 142.289M623.959 153.247L601.184 164.736M623.959 153.247H728.296M645.681 142.289H747.605M441.832 142.289H339.908M441.832 142.289L467.18 131.826M747.605 142.289L728.296 153.247M467.18 131.826H367.56M601.184 164.736L577.276 176.797M601.184 164.736H708.052M728.296 153.247L708.052 164.736M708.052 164.736L686.801 176.797M467.751 176.797L439.834 189.472M467.751 176.797H577.276M467.751 176.797H358.227M577.276 176.797L552.15 189.472M577.276 176.797H686.801M686.801 176.797L664.468 189.472M439.834 189.472H552.15M439.834 189.472H327.516M525.709 202.811L552.15 189.472M525.709 202.811L497.849 216.866M525.709 202.811H640.964M552.15 189.472H664.468M327.516 189.472H215.2M327.516 189.472L358.227 176.797M664.468 189.472L640.964 202.811M358.227 176.797H248.702M497.849 216.866L468.449 231.698M497.849 216.866H616.198M640.964 202.811L616.198 216.866M616.198 216.866L590.066 231.698M346.832 231.698L312.313 247.37M346.832 231.698H468.449M346.832 231.698H225.216M468.449 231.698L437.382 247.37M468.449 231.698H590.066M590.066 231.698L562.45 247.37M312.313 247.37H437.382M312.313 247.37H187.244M404.498 263.959L437.382 247.37M404.498 263.959L369.636 281.546M404.498 263.959H533.22M437.382 247.37H562.45M187.244 247.37H62.1755M187.244 247.37L225.216 231.698M562.45 247.37L533.22 263.959M225.216 231.698H103.599M369.636 281.546L332.61 300.225M369.636 281.546H502.232M533.22 263.959L502.232 281.546M502.232 281.546L469.32 300.225M195.9 300.225L152.127 320.1M195.9 300.225H332.61M195.9 300.225H59.1895M332.61 300.225L293.214 320.1M332.61 300.225H469.32M469.32 300.225L434.301 320.1M152.127 320.1H293.214M152.127 320.1H11.0393M251.21 341.289L293.214 320.1M251.21 341.289L206.334 363.928M251.21 341.289H396.964M293.214 320.1H434.301M11.0393 320.1L59.1895 300.225M11.0393 320.1H0.841297M11.0393 320.1L0.841297 324.308M434.301 320.1L396.964 341.289M59.1895 300.225H0.841297M206.334 363.928L158.278 388.171M206.334 363.928H357.074M396.964 341.289L357.074 363.928M357.074 363.928L314.357 388.171M2.1968 388.171H158.278M2.1968 388.171H0.841297M2.1968 388.171L0.841297 388.786M158.278 388.171L106.691 414.195M158.278 388.171H314.357M314.357 388.171L268.504 414.195M51.1721 442.202L106.691 414.195M51.1721 442.202H219.153M51.1721 442.202H0.841297M51.1721 442.202L0.841297 467.593M106.691 414.195H268.504M106.691 414.195H0.841297M268.504 414.195L219.153 442.202M219.153 442.202L165.892 472.431M165.892 472.431L108.233 505.154M165.892 472.431H0.841297M108.233 505.154L45.6102 540.694M108.233 505.154H0.841297M45.6102 540.694H0.841297M45.6102 540.694L0.841297 566.102M465.953 35.3029L446.091 41.7446M465.953 35.3029H544.315M465.953 35.3029H387.593M562.114 29.0861L579.302 23.0829M562.114 29.0861L544.315 35.3029M562.114 29.0861H639.105M579.302 23.0829H654.971M579.302 23.0829L595.91 17.283M521.519 17.283H595.91M521.519 17.283L538.81 11.6751M521.519 17.283H447.127M544.315 35.3029L525.87 41.7446M544.315 35.3029H622.675M639.105 29.0861L654.971 23.0829M639.105 29.0861L622.675 35.3029M654.971 23.0829L670.301 17.283M595.91 17.283L597.946 16.5709L611.966 11.6751M595.91 17.283H670.301M622.675 35.3029L605.649 41.7446M744.693 17.283L758.278 11.6751M744.693 17.283H670.301M670.301 17.283L672.181 16.5709L685.122 11.6751M446.091 41.7446H525.87M446.091 41.7446H366.312M506.745 48.4238L525.87 41.7446M506.745 48.4238L486.902 55.3537M506.745 48.4238H587.997M525.87 41.7446H605.649M366.312 41.7446H286.532M366.312 41.7446L387.593 35.3029M605.649 41.7446L587.997 48.4238M387.593 35.3029H309.233M486.902 55.3537L466.3 62.5489M486.902 55.3537H569.679M587.997 48.4238L585.743 49.2752L569.679 55.3537M569.679 55.3537L550.661 62.5489M381.938 62.5489L358.885 70.0257M381.938 62.5489H466.3M381.938 62.5489H297.577M466.3 62.5489L444.893 70.0257M466.3 62.5489H550.661M550.661 62.5489L530.901 70.0257M358.885 70.0257H444.893M358.885 70.0257H272.877M422.634 77.7999L444.893 70.0257M422.634 77.7999L399.47 85.8898M422.634 77.7999H510.354M444.893 70.0257H530.901M272.877 70.0257H186.868M272.877 70.0257L297.577 62.5489M530.901 70.0257L510.354 77.7999M297.577 62.5489H213.215M399.47 85.8898L375.346 94.3151M399.47 85.8898H488.972M510.354 77.7999L488.972 85.8898M488.972 85.8898L466.703 94.3151M283.987 94.3151L256.907 103.097M283.987 94.3151H375.346M283.987 94.3151H192.629M375.346 94.3151L350.2 103.097M375.346 94.3151H466.703M466.703 94.3151L443.492 103.097M256.907 103.097H350.2M256.907 103.097H163.615M323.966 112.26L350.2 103.097M323.966 112.26L296.573 121.826M323.966 112.26H419.277M350.2 103.097H443.492M163.615 103.097H70.3232M163.615 103.097L192.629 94.3151M443.492 103.097L419.277 112.26M192.629 94.3151H101.272M296.573 121.826L267.94 131.826M296.573 121.826H393.989M419.277 112.26L393.989 121.826M393.989 121.826L367.56 131.826M168.319 131.826L136.059 142.289M168.319 131.826H267.94M168.319 131.826H68.7008M267.94 131.826L237.984 142.289M267.94 131.826H367.56M367.56 131.826L339.908 142.289M136.059 142.289H237.984M206.607 153.247L237.984 142.289M206.607 153.247L173.71 164.736M206.607 153.247H310.946M237.984 142.289H339.908M339.908 142.289L310.946 153.247M68.7008 131.826H0.841297M173.71 164.736L139.177 176.797M173.71 164.736H280.578M310.946 153.247L280.578 164.736M280.578 164.736L248.702 176.797M29.6517 176.797H139.177M29.6517 176.797H0.841297M29.6517 176.797L0.841297 186.14M139.177 176.797L102.883 189.472M139.177 176.797H248.702M248.702 176.797L215.2 189.472M64.6913 202.811L102.883 189.472M64.6913 202.811L24.4478 216.866M64.6913 202.811H179.946M64.6913 202.811H0.841297M102.883 189.472H215.2M102.883 189.472H0.841297M215.2 189.472L179.946 202.811M0.523984 186.243L0.841297 186.14M24.4478 216.866H142.798M24.4478 216.866H0.841297M24.4478 216.866L0.841297 225.111M179.946 202.811L142.798 216.866M142.798 216.866L103.599 231.698M103.599 231.698L62.1755 247.37M103.599 231.698H0.841297M18.331 263.959L62.1755 247.37M18.331 263.959H0.841297M18.331 263.959L0.841297 270.576M62.1755 247.37H0.841297M152.512 35.3029L126.974 41.7446M152.512 35.3029H230.872M152.512 35.3029H74.1505M254.149 29.0861L276.626 23.0829M254.149 29.0861L230.872 35.3029M254.149 29.0861H331.14M276.626 23.0829H352.294M276.626 23.0829L298.343 17.283M223.952 17.283H298.343M223.952 17.283L246.183 11.6751M223.952 17.283H149.56M230.872 35.3029L206.753 41.7446M230.872 35.3029H309.233M331.14 29.0861L352.294 23.0829M331.14 29.0861L309.233 35.3029M352.294 23.0829L372.734 17.283M298.343 17.283H372.734M298.343 17.283L319.341 11.6751M309.233 35.3029L286.532 41.7446M447.127 17.283L465.654 11.6751M447.127 17.283H372.734M372.734 17.283L392.497 11.6751M126.974 41.7446H206.753M126.974 41.7446H47.1951M181.744 48.4238L206.753 41.7446M181.744 48.4238L155.796 55.3537M181.744 48.4238H262.994M206.753 41.7446H286.532M47.1951 41.7446L74.1505 35.3029M47.1951 41.7446H0.841297M286.532 41.7446L262.994 48.4238M74.1505 35.3029H0.841297M155.796 55.3537L128.854 62.5489M155.796 55.3537H238.573M262.994 48.4238L238.573 55.3537M238.573 55.3537L213.215 62.5489M44.4922 62.5489L14.8519 70.0257M44.4922 62.5489H128.854M44.4922 62.5489H0.841297M128.854 62.5489L100.86 70.0257M128.854 62.5489H213.215M213.215 62.5489L186.868 70.0257M71.7519 77.7999L100.86 70.0257M71.7519 77.7999L41.4607 85.8898M71.7519 77.7999H159.472M71.7519 77.7999H0.841297M100.86 70.0257H14.8519M100.86 70.0257H186.868M14.8519 70.0257L0.841297 73.5593M14.8519 70.0257H0.841297M186.868 70.0257L159.472 77.7999M41.4607 85.8898L9.9132 94.3151M41.4607 85.8898H130.963M41.4607 85.8898H0.841297M159.472 77.7999L130.963 85.8898M130.963 85.8898L101.272 94.3151M9.9132 94.3151H101.272M9.9132 94.3151L0.841297 96.7375M9.9132 94.3151H0.841297M101.272 94.3151L70.3232 103.097M38.0353 112.26L70.3232 103.097M38.0353 112.26L4.32036 121.826M38.0353 112.26H0.841297M70.3232 103.097H0.841297M0.353118 103.097H0.841297M4.32036 121.826H0.841297M4.32036 121.826L0.841297 122.814M0 123.052L0.841297 122.814M23.1753 29.0861L49.6181 23.0829M23.1753 29.0861H0.841297M23.1753 29.0861L0.841297 34.1558M49.6181 23.0829L75.1691 17.283M49.6181 23.0829H0.841297M149.56 17.283L173.027 11.6751M149.56 17.283H75.1691M75.1691 17.283L99.8708 11.6751M75.1691 17.283H0.841297M2587.19 11.6751H2660.35M2587.19 11.6751H2514.03M2642.43 6.25083L2646.85 7.59038L2660.35 11.6751M2642.43 6.25083H2714.39M2660.35 11.6751H2733.5M2714.39 6.25083L2719.11 7.59038L2721.48 8.26326L2733.5 11.6751M2733.5 11.6751H2806.66M2806.66 11.6751H2879.82M2514.03 11.6751H2440.88M2879.82 11.6751H2952.97M2952.97 11.6751L2930.27 6.25083M2952.97 11.6751H3026.13M2930.27 6.25083H3002.23M2294.56 11.6751H2367.72M2294.56 11.6751H2221.41M2354.58 6.25083L2357.82 7.59038L2359.46 8.26326L2367.72 11.6751M2354.58 6.25083H2426.54M2367.72 11.6751H2440.88M2426.54 6.25083L2440.88 11.6751M2221.41 11.6751H2148.25M2001.94 11.6751H2075.1M2001.94 11.6751H1928.78M2066.73 6.25083L2067.76 6.91854L2068.8 7.59038L2069.84 8.26326L2075.1 11.6751M2066.73 6.25083H2138.69M2075.1 11.6751H2148.25M2138.69 6.25083L2148.25 11.6751M1928.78 11.6751H1855.62M1709.31 11.6751H1782.47M1709.31 11.6751H1636.16M1778.89 6.25083L1782.47 11.6751M1778.89 6.25083H1850.85M1782.47 11.6751H1855.62M1850.85 6.25083L1851.44 6.91854L1852.03 7.59038L1852.62 8.26326L1855.62 11.6751M1636.16 11.6751H1563M1416.69 11.6751H1489.84M1416.69 11.6751H1343.53M1491.04 6.25083L1489.84 11.6751M1491.04 6.25083H1563M1489.84 11.6751H1563M1563 6.25083V11.6751M1343.53 11.6751H1270.37M1124.06 11.6751H1197.22M1124.06 11.6751H1050.9M1203.19 6.25083L1201.72 7.59038L1198.73 10.3015L1197.22 11.6751M1203.19 6.25083H1275.15M1197.22 11.6751H1270.37M1275.15 6.25083L1274.56 6.91854L1273.97 7.59038L1273.38 8.26326L1270.37 11.6751M1050.9 11.6751H977.749M831.436 11.6751H904.592M831.436 11.6751H758.278M915.345 6.25083L912.69 7.59038L911.354 8.26326L904.592 11.6751M915.345 6.25083H987.307M904.592 11.6751H977.749M987.307 6.25083L986.129 6.91854L977.749 11.6751M758.278 11.6751H685.122M538.81 11.6751H611.966M538.81 11.6751H465.654M627.498 6.25083L623.663 7.59038L621.733 8.26326L611.966 11.6751M627.498 6.25083H699.46M611.966 11.6751H685.122M699.46 6.25083L697.693 6.91854L685.122 11.6751M465.654 11.6751H392.497M246.183 11.6751H319.341M246.183 11.6751H173.027M339.651 6.25083L319.341 11.6751M339.651 6.25083H411.613M319.341 11.6751H392.497M411.613 6.25083L406.894 7.59038L404.518 8.26326L392.497 11.6751M173.027 11.6751H99.8708M51.8051 6.25083L26.7145 11.6751M51.8051 6.25083H123.767M51.8051 6.25083H0.841297M26.7145 11.6751H99.8708M26.7145 11.6751L0.841297 17.2693M26.7145 11.6751H0.841297M123.767 6.25083L117.867 7.59038L99.8708 11.6751M3002.23 6.25083L3008.13 7.59038L3026.13 11.6751M3026.13 11.6751H3099.29M3099.29 11.6751L3125.16 17.2693M3099.29 11.6751H3125.16M3125.16 270.576V263.959M3125.16 270.576V281.546M3125.16 263.959V247.37M3125.16 281.546V284.824V300.225M3125.16 300.225V320.1M3125.16 142.289V131.826M3125.16 142.289V152.366M3125.16 6.25083V11.6751M3125.16 11.6751V17.2693M3125.16 17.2693L3125.22 17.283H3125.16M3125.16 17.2693V17.283M3125.16 17.283V23.0829M3125.16 23.0829V29.0861M3125.16 29.0861V34.1558M3125.16 34.1558V35.3029M3125.16 35.3029V41.7446M3125.16 41.7446V48.4238M3125.16 48.4238V52.8203M3125.16 52.8203V55.3537M3125.16 55.3537V62.5489M3125.16 62.5489V70.0257M3125.16 70.0257V73.5593M3125.16 73.5593V77.7999M3125.16 77.7999V85.8898M3125.16 85.8898V94.3151M3125.16 94.3151V96.7375M3125.16 96.7375V103.097M3125.16 103.097V112.26M3125.16 112.26V121.826M3125.16 121.826V122.814M3125.16 122.814V131.826M3125.16 153.247V164.736M3125.16 153.247V152.366M3125.16 164.736V176.797M3125.16 176.797V186.14M3125.16 186.14V189.472M3125.16 189.472V202.811M3125.16 202.811V216.866M3125.16 216.866V225.111M3125.16 225.111V231.698M3125.16 231.698V247.37M3125.16 320.1V324.308M3125.16 324.308V341.289M3125.16 341.289V363.928M3125.16 363.928V388.171M3125.16 388.171V388.786M3125.16 388.786V414.195M3125.16 414.195V442.202M3125.16 442.202V467.593M3125.16 467.593V472.431M3125.16 472.431V505.154M3125.16 505.154V540.694M3125.16 540.694V566.102M3125.16 566.102V579.431M3125.16 579.431V621.818M3125.16 621.818V668.396M3125.16 668.396V692.756M3125.16 692.756V719.816M3125.16 719.816V720H0.841297V719.816M0.841297 153.247V164.736M0.841297 153.247V152.366M0.841297 152.366V142.289M0.841297 142.289V131.826M0.841297 131.826V122.814M0.841297 122.814V121.826M0.841297 121.826V112.26M0.841297 112.26V103.097M0.841297 103.097V96.7375M0.841297 96.7375V94.3151M0.841297 94.3151V85.8898M0.841297 85.8898V77.7999M0.841297 77.7999V73.5593M0.841297 73.5593V70.0257M0.841297 70.0257V62.5489M0.841297 62.5489V55.3537M0.841297 55.3537V52.8203M0.841297 52.8203V48.4238M0.841297 48.4238V41.7446M0.841297 41.7446V35.3029M0.841297 35.3029V34.1558M0.841297 34.1558V29.0861M0.841297 29.0861V23.0829M0.841297 23.0829V17.283M0.841297 17.283H0.777832L0.841297 17.2693M0.841297 17.283V17.2693M0.841297 17.2693V11.6751M0.841297 11.6751V6.25083M0.841297 719.816V692.756M0.841297 692.756V668.396M0.841297 668.396V621.819M0.841297 621.819V579.431M0.841297 579.431V566.102M0.841297 566.102V540.694M0.841297 540.694V505.154M0.841297 505.154V472.431M0.841297 472.431V467.593M0.841297 467.593V442.202M0.841297 442.202V414.195M0.841297 414.195V388.786M0.841297 388.786V388.171M0.841297 388.171V363.928M0.841297 363.928V341.289M0.841297 341.289V324.308M0.841297 324.308V320.1M0.841297 320.1V300.225M0.841297 300.225V281.546M0.841297 281.546V270.576M0.841297 270.576V263.959M0.841297 263.959V247.37M0.841297 247.37V231.698M0.841297 231.698V225.111M0.841297 225.111V216.866M0.841297 216.866V202.811M0.841297 202.811V189.472M0.841297 189.472V186.14M0.841297 186.14V176.797M0.841297 176.797V164.736" stroke="url(#paint0_radial_174_1731)" stroke-opacity="0.6" stroke-width="1.8895" stroke-miterlimit="10" stroke-linecap="round" stroke-linejoin="round"/>
<defs>
<radialGradient id="paint0_radial_174_1731" cx="0" cy="0" r="1" gradientUnits="userSpaceOnUse" gradientTransform="translate(1563 693.5) rotate(-90) scale(1125.5 4893.34)">
<stop stop-color="#525252"/>
<stop offset="0.489074" stop-color="#CED2DF" stop-opacity="0"/>
</radialGradient>
</defs>
</svg>
