<?xml version="1.0" encoding="UTF-8"?>
<svg version="1.1" xmlns="http://www.w3.org/2000/svg" width="502" height="497">
<path d="M0 0 C1.09920273 0.00222061 2.19840546 0.00444122 3.33091736 0.00672913 C4.57212845 0.00680466 5.81333954 0.00688019 7.09216309 0.00695801 C8.45682311 0.01206541 9.82148274 0.01728142 11.18614197 0.02259827 C12.57476755 0.02446251 13.96339379 0.02588638 15.35202026 0.02688599 C19.01319686 0.03071065 22.67433402 0.04054048 26.335495 0.05158997 C30.06890835 0.06180519 33.80232805 0.06638384 37.53575134 0.07142639 C44.86584748 0.08216281 52.19591108 0.0992386 59.52598572 0.12025452 C58.27150085 3.88370913 57.31310795 4.04417103 53.85411072 5.79212952 C52.88505798 6.28857971 51.91600525 6.78502991 50.91758728 7.29652405 C49.88085876 7.8158551 48.84413025 8.33518616 47.77598572 8.87025452 C45.6715296 9.94520888 43.56736125 11.02072679 41.46348572 12.09681702 C40.44254822 12.61534241 39.42161072 13.1338678 38.36973572 13.66810608 C34.81383474 15.48391128 31.29116601 17.35185059 27.77598572 19.24525452 C26.81176697 19.76345764 25.84754822 20.28166077 24.85411072 20.81556702 C22.37185778 22.16730068 22.37185778 22.16730068 19.52598572 24.12025452 C19.05109873 26.17187952 19.05109873 26.17187952 19.09361267 28.56996155 C19.06392143 29.95116684 19.06392143 29.95116684 19.03363037 31.36027527 C19.02724045 32.35614655 19.02085052 33.35201782 19.01426697 34.37806702 C18.99631577 35.39625519 18.97836456 36.41444336 18.95986938 37.46348572 C18.90557225 40.72403284 18.87180834 43.984432 18.83848572 47.24525452 C18.8053298 49.45230645 18.77084178 51.6593388 18.73497009 53.86634827 C18.64983497 59.28418432 18.58156768 64.70203909 18.52598572 70.12025452 C15.07643238 68.84224936 12.14508543 67.35907015 9.10020447 65.29994202 C8.30420837 64.76498108 7.50821228 64.23002014 6.68809509 63.67884827 C5.871474 63.12326233 5.05485291 62.56767639 4.21348572 61.99525452 C3.37752869 61.4319342 2.54157166 60.86861389 1.68028259 60.28822327 C-0.3740048 58.90304662 -2.42528466 57.51363232 -4.47401428 56.12025452 C-3.81401428 57.11025452 -3.15401428 58.10025452 -2.47401428 59.12025452 C-2.47401428 60.11025452 -2.47401428 61.10025452 -2.47401428 62.12025452 C-1.81401428 62.12025452 -1.15401428 62.12025452 -0.47401428 62.12025452 C0.76036072 63.82337952 0.76036072 63.82337952 2.27598572 66.37025452 C4.72605688 70.4013545 7.30374669 74.21244268 10.13536072 77.98744202 C10.77376892 78.85208069 11.41217712 79.71671936 12.06993103 80.6075592 C13.35752586 82.34385158 14.66384094 84.06644158 15.98985291 85.77357483 C18.92634153 89.77988575 21.0421451 92.71354266 20.62364197 97.80775452 C19.79947883 101.81797961 18.31559156 105.34166988 16.46348572 108.99525452 C15.82328862 110.29302358 15.18674045 111.59259732 14.55332947 112.89369202 C14.22059021 113.57528381 13.88785095 114.25687561 13.54502869 114.9591217 C11.73884287 118.78958573 10.14261337 122.70695486 8.52598572 126.62025452 C5.66274301 133.50311525 2.64790341 140.27336141 -0.54432678 147.01087952 C-3.44530547 153.14864149 -6.21807258 159.34596491 -9.01063538 165.53358459 C-14.89972176 178.54596199 -14.89972176 178.54596199 -16.47401428 180.12025452 C-27.92253653 181.13790094 -41.22164202 176.45863527 -50.53651428 169.99525452 C-55.99926801 161.88923285 -56.10557948 151.3938468 -56.66151428 141.93275452 C-56.74336975 140.69460999 -56.82522522 139.45646545 -56.90956116 138.18080139 C-57.10776456 135.16111419 -57.29571076 132.14117078 -57.47401428 129.12025452 C-60.69918996 142.57096379 -60.69918996 142.57096379 -63.47401428 156.12025452 C-64.46401428 156.12025452 -65.45401428 156.12025452 -66.47401428 156.12025452 C-68.27088928 153.84681702 -68.27088928 153.84681702 -70.22401428 150.74525452 C-71.28362366 149.09396545 -71.28362366 149.09396545 -72.36463928 147.40931702 C-73.40877991 145.78123108 -73.40877991 145.78123108 -74.47401428 144.12025452 C-75.63019934 142.44629962 -76.79613275 140.77901429 -77.97401428 139.12025452 C-81.91833025 133.52715981 -85.69835817 127.82786972 -89.47401428 122.12025452 C-83.87083881 134.3439418 -77.81407499 146.26406718 -71.47401428 158.12025452 C-67.11698549 166.28678535 -62.77165032 174.45105913 -58.66151428 182.74525452 C-52.16848626 195.84666892 -45.30848958 208.76344993 -38.47499084 221.68959045 C-34.88047914 228.49418911 -31.31839141 235.31335664 -27.84901428 242.18275452 C-27.50580139 242.85620911 -27.1625885 243.5296637 -26.80897522 244.223526 C-24.47401428 248.88431742 -24.47401428 248.88431742 -24.47401428 251.12025452 C-30.68114701 251.29453686 -36.88682665 251.42090279 -43.09584045 251.504776 C-45.203515 251.5397722 -47.31102218 251.58738673 -49.41810608 251.64833069 C-71.50039147 252.27058784 -71.50039147 252.27058784 -80.47401428 244.12025452 C-81.46401428 243.46025452 -82.45401428 242.80025452 -83.47401428 242.12025452 C-83.47401428 241.46025452 -83.47401428 240.80025452 -83.47401428 240.12025452 C-84.25776428 239.81087952 -85.04151428 239.50150452 -85.84901428 239.18275452 C-88.47401428 238.12025452 -88.47401428 238.12025452 -90.47401428 237.12025452 C-90.47401428 236.46025452 -90.47401428 235.80025452 -90.47401428 235.12025452 C-91.17913147 234.86244202 -91.88424866 234.60462952 -92.61073303 234.33900452 C-95.71670744 233.01695266 -98.43379493 231.42277598 -101.28651428 229.62025452 C-102.26233459 229.01181702 -103.23815491 228.40337952 -104.24354553 227.77650452 C-104.97960022 227.22994202 -105.71565491 226.68337952 -106.47401428 226.12025452 C-106.47401428 225.46025452 -106.47401428 224.80025452 -106.47401428 224.12025452 C-107.17913147 223.87146545 -107.88424866 223.62267639 -108.61073303 223.36634827 C-111.83257726 221.96420869 -114.42094387 220.21697844 -117.28651428 218.18275452 C-118.43336086 217.37505258 -119.58051067 216.56778106 -120.72792053 215.76087952 C-121.33265198 215.3335553 -121.93738342 214.90623108 -122.56044006 214.46595764 C-125.93060644 212.09591974 -129.32781901 209.76526894 -132.72401428 207.43275452 C-133.40117493 206.96708069 -134.07833557 206.50140686 -134.77601624 206.0216217 C-139.64604256 202.67679393 -144.53921954 199.36899439 -149.47401428 196.12025452 C-149.04088928 196.95169983 -148.60776428 197.78314514 -148.16151428 198.63978577 C-147.60463928 199.72646545 -147.04776428 200.81314514 -146.47401428 201.93275452 C-145.63870178 203.55117249 -145.63870178 203.55117249 -144.78651428 205.20228577 C-143.47401428 208.12025452 -143.47401428 208.12025452 -143.47401428 211.12025452 C-186.04401428 211.12025452 -228.61401428 211.12025452 -272.47401428 211.12025452 C-272.47401428 210.13025452 -272.47401428 209.14025452 -272.47401428 208.12025452 C-269.84901428 206.18275452 -269.84901428 206.18275452 -266.47401428 204.12025452 C-265.40151428 203.37775452 -264.32901428 202.63525452 -263.22401428 201.87025452 C-260.47401428 200.12025452 -260.47401428 200.12025452 -258.47401428 200.12025452 C-258.47401428 199.46025452 -258.47401428 198.80025452 -258.47401428 198.12025452 C-255.97401428 196.49525452 -255.97401428 196.49525452 -253.47401428 195.12025452 C-260.06802449 197.22293827 -266.48481913 199.64950837 -272.89588928 202.25306702 C-274.36690094 202.84726944 -274.36690094 202.84726944 -275.86763 203.45347595 C-277.93894864 204.29094202 -280.00972032 205.12976204 -282.07997131 205.96986389 C-285.17208637 207.2241898 -288.2662494 208.47334782 -291.36073303 209.72181702 C-302.16708704 214.09169391 -312.93011778 218.54599868 -323.62580872 223.18083191 C-330.17664938 226.0172197 -336.78540104 228.62410976 -343.47401428 231.12025452 C-349.7388871 233.49684492 -355.9865986 235.89260411 -362.16151428 238.49525452 C-368.08497098 240.99100427 -374.06865745 243.31729838 -380.0684967 245.62171936 C-380.79657532 245.90225159 -381.52465393 246.18278381 -382.27479553 246.47181702 C-382.91586243 246.71754456 -383.55692932 246.96327209 -384.21742249 247.21644592 C-386.64626705 248.14643024 -386.64626705 248.14643024 -389.52381897 249.70497131 C-394.49283517 251.8318638 -399.55772433 251.49273863 -404.87635803 251.41322327 C-405.9540596 251.40897842 -407.03176117 251.40473358 -408.14212036 251.40036011 C-411.56551174 251.38364171 -414.98830248 251.34600135 -418.41151428 251.30775452 C-420.74028179 251.29269888 -423.06905857 251.27901201 -425.39784241 251.26673889 C-431.09010272 251.2337606 -436.78201557 251.18362935 -442.47401428 251.12025452 C-441.63732247 246.85937519 -440.09176709 245.72361421 -436.53651428 243.18275452 C-436.01073792 242.80215881 -435.48496155 242.42156311 -434.94325256 242.0294342 C-433.76852488 241.18088913 -432.59024809 240.33724281 -431.40907288 239.49769592 C-429.36622293 238.04352492 -427.33526363 236.57385084 -425.30604553 235.10072327 C-419.14298341 230.63068976 -412.96120023 226.18681317 -406.77479553 221.74916077 C-405.23677339 220.64405618 -403.69900968 219.53859182 -402.16151428 218.43275452 C-401.41603333 217.89706848 -400.67055237 217.36138245 -399.90248108 216.8094635 C-394.20864025 212.69839844 -388.66032948 208.42854025 -383.17323303 204.04603577 C-380.64382381 202.24140661 -378.40205384 201.11760132 -375.47401428 200.12025452 C-375.47401428 199.46025452 -375.47401428 198.80025452 -375.47401428 198.12025452 C-374.11224372 197.15862507 -372.74074026 196.20888166 -371.332901 195.3160553 C-367.79991176 193.04332332 -364.43678578 190.52273189 -361.03651428 188.05775452 C-359.86475647 187.2114447 -359.86475647 187.2114447 -358.66932678 186.34803772 C-354.77294125 183.52955219 -350.8902271 180.69472965 -347.03260803 177.82337952 C-346.34674622 177.3142804 -345.6608844 176.80518127 -344.95423889 176.28065491 C-343.65635273 175.31528107 -342.36147026 174.34585281 -341.06996155 173.3719635 C-336.69554442 170.12025452 -336.69554442 170.12025452 -334.47401428 170.12025452 C-337.65598625 165.74205249 -341.27867075 162.68251048 -345.53651428 159.43275452 C-346.16106506 158.94742249 -346.78561584 158.46209045 -347.42909241 157.96205139 C-350.06734147 155.92071674 -352.69593765 153.97230561 -355.47401428 152.12025452 C-355.47401428 151.46025452 -355.47401428 150.80025452 -355.47401428 150.12025452 C-356.21651428 149.85212952 -356.95901428 149.58400452 -357.72401428 149.30775452 C-360.36463377 148.16748701 -362.32954272 147.02645146 -364.47401428 145.12025452 C-364.47401428 144.46025452 -364.47401428 143.80025452 -364.47401428 143.12025452 C-366.12401428 142.46025452 -367.77401428 141.80025452 -369.47401428 141.12025452 C-369.47401428 140.46025452 -369.47401428 139.80025452 -369.47401428 139.12025452 C-370.03346741 138.87017639 -370.59292053 138.62009827 -371.16932678 138.36244202 C-373.84548912 136.92003588 -376.00508681 135.18027253 -378.34901428 133.24525452 C-381.19239272 130.92344253 -383.99059944 128.69911527 -387.09901428 126.74525452 C-387.88276428 126.20900452 -388.66651428 125.67275452 -389.47401428 125.12025452 C-389.47401428 124.46025452 -389.47401428 123.80025452 -389.47401428 123.12025452 C-390.05151428 122.85212952 -390.62901428 122.58400452 -391.22401428 122.30775452 C-393.52951471 121.09096263 -395.49457621 119.81691572 -397.47401428 118.12025452 C-397.47401428 117.46025452 -397.47401428 116.80025452 -397.47401428 116.12025452 C-393.53736856 114.80803928 -389.79079237 114.98936535 -385.68812561 115.00672913 C-384.34147575 115.00651009 -384.34147575 115.00651009 -382.96762085 115.00628662 C-379.99707126 115.00698387 -377.02658419 115.01476755 -374.05604553 115.02259827 C-371.99767084 115.02446311 -369.9392957 115.0258867 -367.88092041 115.02688599 C-362.46070635 115.03070593 -357.04051904 115.04053178 -351.62031555 115.05158997 C-346.09043235 115.0618153 -340.56054483 115.06638602 -335.03065491 115.07142639 C-324.1784296 115.08215449 -313.32622417 115.09922467 -302.47401428 115.12025452 C-302.47401428 114.46025452 -302.47401428 113.80025452 -302.47401428 113.12025452 C-303.13401428 113.12025452 -303.79401428 113.12025452 -304.47401428 113.12025452 C-306.01253194 111.40073478 -307.48133187 109.61837954 -308.91151428 107.80775452 C-313.93172404 100.8470005 -313.93172404 100.8470005 -321.57948303 98.17103577 C-322.56239319 98.04535217 -323.54530334 97.91966858 -324.55799866 97.79017639 C-325.58215881 97.67222717 -326.60631897 97.55427795 -327.66151428 97.43275452 C-328.697276 97.30320374 -329.73303772 97.17365295 -330.80018616 97.04017639 C-333.356948 96.72205395 -335.91457268 96.41590377 -338.47401428 96.12025452 C-339.8625591 92.16060288 -340.93204737 88.28953791 -341.72792053 84.17103577 C-341.94254944 83.07597717 -342.15717834 81.98091858 -342.37831116 80.85267639 C-342.7041217 79.15981506 -342.7041217 79.15981506 -343.03651428 77.43275452 C-343.47359978 75.17851475 -343.91232562 72.92459224 -344.35292053 70.67103577 C-344.54442688 69.67757141 -344.73593323 68.68410706 -344.9332428 67.66053772 C-345.4468674 65.01541336 -345.4468674 65.01541336 -346.47401428 62.12025452 C-346.60183214 59.44630487 -346.51793299 56.79929594 -346.47401428 54.12025452 C-338.86873845 55.66823101 -331.4618969 57.78375868 -324.03260803 60.00648499 C-321.95283754 60.62656836 -319.86981104 61.23479488 -317.78651428 61.84291077 C-316.46338354 62.23672348 -315.14045873 62.6312289 -313.81776428 63.02650452 C-312.62344788 63.38035217 -311.42913147 63.73419983 -310.19862366 64.09877014 C-307.47401428 65.12025452 -307.47401428 65.12025452 -306.47401428 67.12025452 C-306.33645853 68.61964833 -306.24744969 70.12367431 -306.18495178 71.62806702 C-306.07912414 83.08727007 -306.07912414 83.08727007 -301.28651428 92.99525452 C-300.04716388 94.07418796 -298.77557265 95.11724274 -297.47401428 96.12025452 C-296.21097431 97.37812868 -294.96062302 98.64888685 -293.72401428 99.93275452 C-292.08927676 101.54075568 -290.45486066 103.13795844 -288.77088928 104.69447327 C-287.47401428 106.12025452 -287.47401428 106.12025452 -287.47401428 108.12025452 C-286.81401428 108.12025452 -286.15401428 108.12025452 -285.47401428 108.12025452 C-285.47401428 108.78025452 -285.47401428 109.44025452 -285.47401428 110.12025452 C-284.81401428 110.12025452 -284.15401428 110.12025452 -283.47401428 110.12025452 C-281.75965248 112.07952515 -280.08996261 114.07905663 -278.47401428 116.12025452 C-280.038066 121.12522001 -282.4545563 125.70837096 -286.47401428 129.12025452 C-290.60230654 130.28653089 -294.60499188 130.1922924 -298.87245178 130.12025452 C-300.06254852 130.13113098 -301.25264526 130.14200745 -302.47880554 130.1532135 C-306.26979811 130.17935248 -310.05809374 130.15053574 -313.84901428 130.12025452 C-316.42324699 130.12834653 -318.99747109 130.14002384 -321.57167053 130.15541077 C-327.87294361 130.18525179 -334.17289401 130.17001053 -340.47401428 130.12025452 C-339.82440735 130.28630188 -339.17480042 130.45234924 -338.50550842 130.62342834 C-335.51497802 131.38986973 -332.52575006 132.16128 -329.53651428 132.93275452 C-328.51493225 133.19378967 -327.49335022 133.45482483 -326.44081116 133.72377014 C-320.35764436 135.2980082 -314.41023865 137.05897953 -308.47401428 139.12025452 C-308.80401428 143.41025452 -309.13401428 147.70025452 -309.47401428 152.12025452 C-308.67479553 151.43060608 -307.87557678 150.74095764 -307.05213928 150.03041077 C-299.7281365 143.7493226 -292.24646742 137.84148964 -284.47401428 132.12025452 C-282.3118134 130.45649422 -280.15024772 128.79225903 -277.99745178 127.11634827 C-276.47401428 126.12025452 -276.47401428 126.12025452 -274.47401428 126.12025452 C-274.47401428 125.46025452 -274.47401428 124.80025452 -274.47401428 124.12025452 C-272.73808193 122.63581767 -270.93006768 121.23563261 -269.09901428 119.87025452 C-267.90184774 118.96864319 -266.70526571 118.06625539 -265.50917053 117.16322327 C-264.85964417 116.67515198 -264.2101178 116.18708069 -263.54090881 115.68421936 C-259.84433837 112.88712152 -256.19254077 110.03251048 -252.53651428 107.18275452 C-251.77016663 106.58664368 -251.00381897 105.99053284 -250.21424866 105.37635803 C-245.49552102 101.7039613 -240.79321706 98.01141324 -236.09901428 94.30775452 C-230.82705419 90.14958881 -225.48717103 86.09395612 -220.09510803 82.09291077 C-218.28216423 80.72847467 -216.50495354 79.31572495 -214.75917053 77.86634827 C-212.47401428 76.12025452 -212.47401428 76.12025452 -210.47401428 76.12025452 C-210.47401428 75.46025452 -210.47401428 74.80025452 -210.47401428 74.12025452 C-209.03700256 72.79164124 -209.03700256 72.79164124 -207.04432678 71.29994202 C-206.33147522 70.76498108 -205.61862366 70.23002014 -204.88417053 69.67884827 C-204.13006897 69.12326233 -203.37596741 68.56767639 -202.59901428 67.99525452 C-201.4794635 67.15027405 -201.4794635 67.15027405 -200.33729553 66.28822327 C-194.73627215 62.12025452 -194.73627215 62.12025452 -192.47401428 62.12025452 C-192.47401428 61.46025452 -192.47401428 60.80025452 -192.47401428 60.12025452 C-190.15568326 58.24974828 -187.82397461 56.48735709 -185.41151428 54.74525452 C-179.69293906 50.54198324 -174.06074616 46.26374124 -168.53651428 41.80775452 C-167.91679749 41.30937073 -167.29708069 40.81098694 -166.65858459 40.29750061 C-164.92952037 38.90616602 -163.20161896 37.51340072 -161.47401428 36.12025452 C-159.70765054 34.69801886 -157.93759459 33.28033745 -156.16151428 31.87025452 C-155.48475647 31.32884827 -154.80799866 30.78744202 -154.11073303 30.22962952 C-152.47401428 29.12025452 -152.47401428 29.12025452 -150.47401428 29.12025452 C-150.47401428 28.46025452 -150.47401428 27.80025452 -150.47401428 27.12025452 C-146.63118148 25.64017905 -144.46585644 26.65087923 -140.78260803 28.25306702 C-139.67208069 28.73002014 -138.56155334 29.20697327 -137.41737366 29.69837952 C-135.68197327 30.46408264 -135.68197327 30.46408264 -133.91151428 31.24525452 C-132.781651 31.73252014 -131.65178772 32.21978577 -130.48768616 32.72181702 C-120.54776073 37.02511231 -110.70377013 41.53468331 -100.88417053 46.10462952 C-97.14435988 47.68056269 -93.92520784 48.24736006 -89.87245178 48.25306702 C-88.45391907 48.25596741 -88.45391907 48.25596741 -87.00672913 48.25892639 C-85.44366028 48.25215881 -85.44366028 48.25215881 -83.84901428 48.24525452 C-82.75411682 48.24332092 -81.65921936 48.24138733 -80.53114319 48.23939514 C-62.50893458 48.15187329 -44.48914093 47.60058976 -26.47401428 47.12025452 C-25.03427825 44.43720453 -23.59872207 41.75205191 -22.16542053 39.06556702 C-21.56002441 37.93888611 -21.56002441 37.93888611 -20.94239807 36.78944397 C-18.53325171 32.26509895 -16.36537149 27.73426731 -14.41151428 22.99525452 C-5.00417653 0.24323822 -5.00417653 0.24323822 0 0 Z M-91.47401428 119.12025452 C-90.47401428 121.12025452 -90.47401428 121.12025452 -90.47401428 121.12025452 Z " fill="#FAF9F9" transform="translate(442.47401428222656,107.87974548339844)"/>
<path d="M0 0 C-0.55635861 6.76263481 -2.93425239 12.6463958 -5.375 18.9375 C-5.97441406 20.50661133 -5.97441406 20.50661133 -6.5859375 22.10742188 C-7.36693431 24.15111582 -8.15039407 26.19387055 -8.93652344 28.2355957 C-10.85327079 33.21799476 -12.72780612 38.21038595 -14.5 43.24609375 C-15 44.64322917 -15.5 46.04036458 -16 47.4375 C-16.37125 48.51547852 -16.37125 48.51547852 -16.75 49.61523438 C-17.41313323 51.44403148 -18.19832808 53.22755348 -19 55 C-20.485 55.495 -20.485 55.495 -22 56 C-24.81627358 49.16047845 -26.44761232 42.22245615 -28 35 C-31.00386087 37.32838951 -34.00218732 39.6638299 -37 42 C-38.02867187 42.79921875 -39.05734375 43.5984375 -40.1171875 44.421875 C-47.42973881 50.12220181 -54.61346838 55.96056512 -61.75195312 61.87719727 C-66.94213946 66.16497224 -72.23391988 70.27755021 -77.59375 74.3515625 C-83.26661622 78.71556862 -88.74185022 83.32994381 -94.25 87.8984375 C-94.90613281 88.42920898 -95.56226563 88.95998047 -96.23828125 89.50683594 C-98.19010815 91.10329939 -98.19010815 91.10329939 -100.4375 93.6015625 C-103 95 -103 95 -106.828125 94.1484375 C-108.56193751 93.45648999 -110.28449048 92.73615506 -112 92 C-113.80993757 91.27813774 -115.61991609 90.55637667 -117.43054199 89.83624268 C-120.87975086 88.4554385 -124.31395289 87.03816171 -127.75 85.625 C-129.14050206 85.05438781 -130.53112641 84.48407354 -131.921875 83.9140625 C-132.60495728 83.63391296 -133.28803955 83.35376343 -133.99182129 83.06512451 C-135.35545591 82.50869516 -136.72060498 81.95596207 -138.08728027 81.40704346 C-141.31315586 80.11111619 -144.50665049 78.78235996 -147.66601562 77.33105469 C-153.19083809 74.65063138 -153.19083809 74.65063138 -159.11669922 74.40869141 C-160.98611263 75.43151948 -162.41869499 76.57551027 -164 78 C-165.11690917 78.79938879 -166.2394621 79.59094392 -167.3671875 80.375 C-168.5388682 81.24677039 -169.70804333 82.12191606 -170.875 83 C-178.5172495 88.67926316 -186.27628516 94.18226147 -194.078125 99.63964844 C-195.38928068 100.56771748 -196.69107326 101.50912238 -197.984375 102.46191406 C-202.79796205 106 -202.79796205 106 -205 106 C-205 106.66 -205 107.32 -205 108 C-206.56958008 109.29345703 -206.56958008 109.29345703 -208.76953125 110.7578125 C-209.57140869 111.29768799 -210.37328613 111.83756348 -211.19946289 112.39379883 C-212.06176514 112.96509521 -212.92406738 113.5363916 -213.8125 114.125 C-215.55822902 115.29678181 -217.30302483 116.46995515 -219.046875 117.64453125 C-219.89701172 118.2163916 -220.74714844 118.78825195 -221.62304688 119.37744141 C-225.52387443 122.04022899 -229.30014546 124.85736435 -233.06640625 127.70703125 C-235 129 -235 129 -237 129 C-237 129.66 -237 130.32 -237 131 C-239.09245208 132.64923816 -241.18389173 134.17935647 -243.375 135.6875 C-244.00825195 136.13013184 -244.64150391 136.57276367 -245.29394531 137.02880859 C-246.58126848 137.92811343 -247.87033289 138.82493091 -249.16113281 139.71923828 C-250.81303995 140.86978327 -252.45047674 142.04103837 -254.0859375 143.21484375 C-254.96507812 143.84519531 -255.84421875 144.47554687 -256.75 145.125 C-257.52859375 145.68445313 -258.3071875 146.24390625 -259.109375 146.8203125 C-261 148 -261 148 -263 148 C-263 148.66 -263 149.32 -263 150 C-267.38461538 153 -267.38461538 153 -270 153 C-270 153.66 -270 154.32 -270 155 C-275.41176471 159 -275.41176471 159 -278 159 C-276.4254269 155.13513876 -273.9952764 152.86504699 -271 150 C-269.99259766 148.96166016 -269.99259766 148.96166016 -268.96484375 147.90234375 C-268.25457031 147.17144531 -267.54429687 146.44054687 -266.8125 145.6875 C-266.13832031 144.99011719 -265.46414063 144.29273438 -264.76953125 143.57421875 C-263 142 -263 142 -261 142 C-260.01 140.02 -260.01 140.02 -259 138 C-258.34 138 -257.68 138 -257 138 C-256.67 137.01 -256.34 136.02 -256 135 C-255.34 135 -254.68 135 -254 135 C-254 134.34 -254 133.68 -254 133 C-252.63671875 131.66015625 -252.63671875 131.66015625 -250.6875 130.0625 C-246.42465257 126.4631011 -242.5384439 122.5813202 -238.68237305 118.55688477 C-237.49090704 117.33509286 -236.24906136 116.16284669 -235 115 C-234.34 115 -233.68 115 -233 115 C-233 114.34 -233 113.68 -233 113 C-231.625 111.375 -231.625 111.375 -230 110 C-229.34 110 -228.68 110 -228 110 C-228 109.34 -228 108.68 -228 108 C-226.7421875 106.765625 -226.7421875 106.765625 -224.875 105.25 C-219.85385937 101.01454144 -215.31293511 96.34070942 -210.74951172 91.62402344 C-210.16443848 91.02750977 -209.57936523 90.43099609 -208.9765625 89.81640625 C-208.45143066 89.27443604 -207.92629883 88.73246582 -207.38525391 88.17407227 C-206 87 -206 87 -204 87 C-203.505 85.515 -203.505 85.515 -203 84 C-201.43359375 82.45703125 -201.43359375 82.45703125 -199.4375 80.8125 C-195.60614476 77.58173558 -192.11928602 74.13120266 -188.6640625 70.50390625 C-187 69 -187 69 -185 69 C-184.5978125 68.1028125 -184.5978125 68.1028125 -184.1875 67.1875 C-183.00082594 65.00152146 -181.90400887 63.58667406 -180 62 C-179.34 62 -178.68 62 -178 62 C-178 61.34 -178 60.68 -178 60 C-177.34 60 -176.68 60 -176 60 C-176 59.34 -176 58.68 -176 58 C-174.390625 56.4140625 -174.390625 56.4140625 -172.25 54.625 C-169.89252767 52.65149427 -167.90013679 50.87895368 -165.9375 48.5 C-164 47 -164 47 -160.97119141 47.17211914 C-156.21762012 47.97999813 -151.93731827 49.86345974 -147.5234375 51.74609375 C-146.63516266 52.11726822 -145.74688782 52.48844269 -144.83169556 52.87086487 C-142.00952088 54.05210796 -139.1922371 55.24453551 -136.375 56.4375 C-134.47427665 57.23578437 -132.57323785 58.03331811 -130.671875 58.83007812 C-127.18598643 60.2914479 -123.70222576 61.75768915 -120.22021484 63.22827148 C-118.81350637 63.81891866 -117.40677191 64.40950395 -116 65 C-115.02498535 65.41258057 -114.0499707 65.82516113 -113.04541016 66.25024414 C-110.45838348 67.19853239 -109.53158089 67.07400401 -107 66 C-104.95912192 64.73012031 -102.96374635 63.38617389 -101 62 C-100.43619629 61.60498291 -99.87239258 61.20996582 -99.29150391 60.80297852 C-96.34605992 58.72458986 -93.44722457 56.59511355 -90.5859375 54.40234375 C-90.04582031 53.98919922 -89.50570312 53.57605469 -88.94921875 53.15039062 C-87.44666286 51.99271419 -85.95354434 50.82281962 -84.4609375 49.65234375 C-82 48 -82 48 -79 48 C-79 47.34 -79 46.68 -79 46 C-77.31933594 44.62719727 -77.31933594 44.62719727 -74.984375 43.06640625 C-73.72560547 42.2165918 -73.72560547 42.2165918 -72.44140625 41.34960938 C-71.55324219 40.75986328 -70.66507813 40.17011719 -69.75 39.5625 C-68.01516114 38.39782606 -66.28077054 37.23248409 -64.546875 36.06640625 C-63.77182617 35.55021729 -62.99677734 35.03402832 -62.19824219 34.50219727 C-60.71139439 33.48614057 -59.25841244 32.41898912 -57.84082031 31.30834961 C-56 30 -56 30 -54 30 C-54 29.34 -54 28.68 -54 28 C-51.2111921 26.08043092 -48.31411116 24.38921776 -45.40625 22.65625 C-44.6121875 22.1096875 -43.818125 21.563125 -43 21 C-43 20.34 -43 19.68 -43 19 C-46.73019236 16.74634211 -50.17154004 14.87022624 -54.3125 13.5 C-58 12 -58 12 -59.5 9.8125 C-59.665 9.214375 -59.83 8.61625 -60 8 C-56.10348478 6.88842325 -52.1196135 6.41246388 -48.11328125 5.87890625 C-47.33800583 5.77408432 -46.56273041 5.66926239 -45.76396179 5.56126404 C-44.11744485 5.3391595 -42.47077806 5.11816349 -40.82397461 4.89819336 C-38.36599362 4.56965016 -35.9085539 4.23728689 -33.45117188 3.90429688 C-25.44687336 2.82500102 -17.43874935 1.7895551 -9.41796875 0.83984375 C-8.3388195 0.71156944 -8.3388195 0.71156944 -7.23786926 0.58070374 C-2.25264411 0 -2.25264411 0 0 0 Z " fill="#F0EFEF" transform="translate(452,46)"/>
<path d="M0 0 C1.3171701 -0.00021904 1.3171701 -0.00021904 2.66094971 -0.0004425 C5.57200567 0.00025581 8.48299815 0.00804444 11.39404297 0.01586914 C13.4090064 0.01773361 15.42397028 0.01915738 17.43893433 0.02015686 C22.74901577 0.02397977 28.05906997 0.03380815 33.36914062 0.04486084 C38.78498974 0.0550798 44.20084325 0.05965552 49.61669922 0.06469727 C60.24822162 0.0754306 70.87972378 0.09250433 81.51123047 0.11352539 C81.51123047 0.44352539 81.51123047 0.77352539 81.51123047 1.11352539 C52.17542733 2.15441073 22.86307834 2.23059194 -6.48876953 2.11352539 C-5.82876953 3.76352539 -5.16876953 5.41352539 -4.48876953 7.11352539 C-6.52710378 5.83956649 -8.52729079 4.50290616 -10.48876953 3.11352539 C-10.48876953 2.45352539 -10.48876953 1.79352539 -10.48876953 1.11352539 C-7.21537436 -0.52317219 -3.59656146 -0.01549737 0 0 Z " fill="#908E8C" transform="translate(55.48876953125,222.886474609375)"/>
<path d="M0 0 C0.33 0.99 0.66 1.98 1 3 C1.61875 2.79375 2.2375 2.5875 2.875 2.375 C3.926875 2.189375 3.926875 2.189375 5 2 C5.66 2.66 6.32 3.32 7 4 C5.54550599 5.0055761 4.08627557 6.00430435 2.625 7 C1.81289062 7.556875 1.00078125 8.11375 0.1640625 8.6875 C-2 10 -2 10 -4 10 C-4 10.66 -4 11.32 -4 12 C-8.38461538 15 -8.38461538 15 -11 15 C-11 15.66 -11 16.32 -11 17 C-16.41176471 21 -16.41176471 21 -19 21 C-17.4254269 17.13513876 -14.9952764 14.86504699 -12 12 C-10.99259766 10.96166016 -10.99259766 10.96166016 -9.96484375 9.90234375 C-9.25457031 9.17144531 -8.54429687 8.44054687 -7.8125 7.6875 C-7.13832031 6.99011719 -6.46414062 6.29273438 -5.76953125 5.57421875 C-4 4 -4 4 -2 4 C-1.34 2.68 -0.68 1.36 0 0 Z " fill="#D6D3D2" transform="translate(193,184)"/>
<path d="M0 0 C20.79 0 41.58 0 63 0 C63 0.33 63 0.66 63 1 C45.18 1.33 27.36 1.66 9 2 C10.65 2.33 12.3 2.66 14 3 C14 3.33 14 3.66 14 4 C8.34605369 4.34615998 4.96993194 3.43425238 0 1 C0 0.67 0 0.34 0 0 Z " fill="#D6D2D3" transform="translate(93,236)"/>
<path d="M0 0 C20.46 0 40.92 0 62 0 C61.67 0.99 61.34 1.98 61 3 C60.505 2.01 60.505 2.01 60 1 C52.50665495 1.08442761 45.01350422 1.17932038 37.52046585 1.28752708 C34.04102811 1.33744564 30.56162007 1.38377582 27.08203125 1.421875 C23.08053553 1.46584663 19.07940584 1.52547971 15.078125 1.5859375 C13.83009094 1.59748871 12.58205688 1.60903992 11.29620361 1.62094116 C9.55485138 1.6507457 9.55485138 1.6507457 7.77832031 1.68115234 C6.24609833 1.70113785 6.24609833 1.70113785 4.68292236 1.7215271 C1.98082921 2.00198982 0.31308402 2.6167239 -2 4 C-1.34 2.68 -0.68 1.36 0 0 Z " fill="#B4B1B0" transform="translate(440,108)"/>
<path d="M0 0 C0.33 0 0.66 0 1 0 C1.75573446 14.01324648 2.13698472 27.96667632 2 42 C1.67 42 1.34 42 1 42 C0.34 33.09 -0.32 24.18 -1 15 C-1.33 15 -1.66 15 -2 15 C-2.05429959 13.25034642 -2.09292823 11.50020213 -2.125 9.75 C-2.15980469 8.28820312 -2.15980469 8.28820312 -2.1953125 6.796875 C-1.99862781 3.9803502 -1.44568916 2.39050964 0 0 Z " fill="#807C7B" transform="translate(386,222)"/>
<path d="M0 0 C0.33 0.66 0.66 1.32 1 2 C1.99 2 2.98 2 4 2 C4 2.66 4 3.32 4 4 C-0.38461538 7 -0.38461538 7 -3 7 C-3 7.66 -3 8.32 -3 9 C-8.41176471 13 -8.41176471 13 -11 13 C-9.43638038 9.16202456 -6.97489917 6.8332373 -4 4 C-3.236875 3.236875 -2.47375 2.47375 -1.6875 1.6875 C-1.130625 1.130625 -0.57375 0.57375 0 0 Z " fill="#A29C9C" transform="translate(185,192)"/>
<path d="M0 0 C4.07130378 3.60601192 6.42406108 7.26427652 8.88671875 12.109375 C9.86203046 14.15760372 9.86203046 14.15760372 12 15 C11.67 16.65 11.34 18.3 11 20 C8 18 8 18 7.1875 15.5 C5.76138257 11.29670654 3.60845057 7.90807985 1.2421875 4.171875 C0 2 0 2 0 0 Z " fill="#B0A6A5" transform="translate(340,209)"/>
<path d="M0 0 C-0.66 0.66 -1.32 1.32 -2 2 C-3.32 2 -4.64 2 -6 2 C-6 2.66 -6 3.32 -6 4 C-5.01 3.67 -4.02 3.34 -3 3 C-2.01 4.32 -1.02 5.64 0 7 C-3.94120709 6.43697042 -6.7508723 5.3208055 -10 3 C-10 2.34 -10 1.68 -10 1 C-6.78548731 -0.60725635 -3.56387464 -0.05748185 0 0 Z " fill="#9F9A98" transform="translate(402,53)"/>
<path d="M0 0 C0 3 0 3 -2.125 5.5 C-4.98849066 7.98999188 -7.48398287 9.59359315 -11 11 C-11.66 10.67 -12.32 10.34 -13 10 C-8.71 6.7 -4.42 3.4 0 0 Z " fill="#A7A5A4" transform="translate(96,285)"/>
<path d="M0 0 C4.95 0 9.9 0 15 0 C15 0.33 15 0.66 15 1 C13.02 1.33 11.04 1.66 9 2 C10.65 2.33 12.3 2.66 14 3 C14 3.33 14 3.66 14 4 C8.34605369 4.34615998 4.96993194 3.43425238 0 1 C0 0.67 0 0.34 0 0 Z " fill="#BEB8B8" transform="translate(93,236)"/>
<path d="M0 0 C8.25 0 16.5 0 25 0 C25 0.33 25 0.66 25 1 C24.32420898 1.01981934 23.64841797 1.03963867 22.95214844 1.06005859 C19.88437956 1.15543238 16.81728002 1.26506165 13.75 1.375 C12.15478516 1.42140625 12.15478516 1.42140625 10.52734375 1.46875 C8.99013672 1.52675781 8.99013672 1.52675781 7.421875 1.5859375 C6.47924805 1.6173584 5.53662109 1.6487793 4.56542969 1.68115234 C1.95164571 2.00600977 0.25646966 2.67676162 -2 4 C-1.34 2.68 -0.68 1.36 0 0 Z " fill="#C3BBBA" transform="translate(440,108)"/>
<path d="M0 0 C0.66 0.33 1.32 0.66 2 1 C-3.75 5 -3.75 5 -6 5 C-6 5.66 -6 6.32 -6 7 C-6.5775 6.814375 -7.155 6.62875 -7.75 6.4375 C-10.20692525 5.95976454 -11.64397534 6.24270636 -14 7 C-13.5 5.0625 -13.5 5.0625 -12 3 C-9.9986521 2.67720195 -7.99066129 2.36526531 -5.96875 2.21875 C-3.65915319 1.96212813 -2.02872432 1.09239002 0 0 Z " fill="#9D9695" transform="translate(197,297)"/>
<path d="M0 0 C0.70640625 0.05220703 1.4128125 0.10441406 2.140625 0.15820312 C3.88579987 0.28791207 5.63045725 0.42454954 7.375 0.5625 C7.375 0.8925 7.375 1.2225 7.375 1.5625 C3.085 1.5625 -1.205 1.5625 -5.625 1.5625 C-4.965 3.2125 -4.305 4.8625 -3.625 6.5625 C-5.66333424 5.2885411 -7.66352126 3.95188077 -9.625 2.5625 C-9.625 1.9025 -9.625 1.2425 -9.625 0.5625 C-6.5270403 -0.98647985 -3.36283448 -0.26989539 0 0 Z " fill="#908B8B" transform="translate(54.625,223.4375)"/>
<path d="M0 0 C0.33 0.99 0.66 1.98 1 3 C-1.16888758 6.73440042 -3.75500739 9.59402415 -7.875 10.9375 C-8.57625 10.958125 -9.2775 10.97875 -10 11 C-9.67 10.01 -9.34 9.02 -9 8 C-8.34 8 -7.68 8 -7 8 C-7 7.34 -7 6.68 -7 6 C-5.46875 4.4921875 -5.46875 4.4921875 -3.5 2.875 C-2.8503125 2.33617187 -2.200625 1.79734375 -1.53125 1.2421875 C-0.77328125 0.62730469 -0.77328125 0.62730469 0 0 Z " fill="#AFAEAE" transform="translate(205,173)"/>
<path d="M0 0 C0 0.99 0 1.98 0 3 C-1.7015625 3.680625 -1.7015625 3.680625 -3.4375 4.375 C-7.04721692 5.57095806 -7.04721692 5.57095806 -8 8 C-10.5625 8.625 -10.5625 8.625 -13 9 C-10.6875 6.5 -10.6875 6.5 -8 4 C-7.01 4 -6.02 4 -5 4 C-5 3.34 -5 2.68 -5 2 C-2 0 -2 0 0 0 Z " fill="#9F9C9D" transform="translate(378,90)"/>
<path d="M0 0 C0.33 0 0.66 0 1 0 C1.33 1.98 1.66 3.96 2 6 C1.401875 6.226875 0.80375 6.45375 0.1875 6.6875 C-2.56351888 8.33811133 -3.52484637 10.1972081 -5 13 C-5 9.51038791 -4.09620626 7.88519705 -2.5 4.8125 C-2.0359375 3.91144531 -1.571875 3.01039062 -1.09375 2.08203125 C-0.7328125 1.39496094 -0.371875 0.70789063 0 0 Z " fill="#ADACAA" transform="translate(437,113)"/>
<path d="M0 0 C-1.49097658 3.7952131 -3.75700849 5.61042731 -7 8 C-7.99 7.34 -8.98 6.68 -10 6 C-8.71283353 4.99421411 -7.42011342 3.99553202 -6.125 3 C-5.40570312 2.443125 -4.68640625 1.88625 -3.9453125 1.3125 C-2 0 -2 0 0 0 Z " fill="#BEBBBB" transform="translate(37,330)"/>
<path d="M0 0 C0.33 0.99 0.66 1.98 1 3 C-0.1196986 4.00593243 -1.2459412 5.0045849 -2.375 6 C-3.00148437 6.556875 -3.62796875 7.11375 -4.2734375 7.6875 C-6 9 -6 9 -8 9 C-8 8.34 -8 7.68 -8 7 C-6.25 5.2734375 -6.25 5.2734375 -4 3.375 C-3.2575 2.74335938 -2.515 2.11171875 -1.75 1.4609375 C-1.1725 0.97882813 -0.595 0.49671875 0 0 Z " fill="#C4C2C1" transform="translate(232,147)"/>
<path d="M0 0 C0.66 0 1.32 0 2 0 C1.67 1.65 1.34 3.3 1 5 C-1.64 5.66 -4.28 6.32 -7 7 C-4.66666667 4.66666667 -2.33333333 2.33333333 0 0 Z " fill="#BDBBBC" transform="translate(281,144)"/>
<path d="M0 0 C0.33 0.99 0.66 1.98 1 3 C-1.3125 5.5 -1.3125 5.5 -4 8 C-4.99 8 -5.98 8 -7 8 C-5.61918777 3.8575633 -3.40174442 2.67796901 0 0 Z " fill="#BDBBBC" transform="translate(255,125)"/>
<path d="M0 0 C2.31 0.33 4.62 0.66 7 1 C7 1.33 7 1.66 7 2 C5.35 2.33 3.7 2.66 2 3 C2 5.64 2 8.28 2 11 C-0.67927341 6.98108988 -0.15601248 4.75838077 0 0 Z " fill="#837E7E" transform="translate(96,162)"/>
<path d="M0 0 C0.66 0 1.32 0 2 0 C2 0.66 2 1.32 2 2 C2.66 2.33 3.32 2.66 4 3 C-1.75 7 -1.75 7 -4 7 C-2.79618552 4.50638429 -1.54571278 2.31856917 0 0 Z " fill="#6B6565" transform="translate(178,198)"/>
<path d="M0 0 C0.66 0.33 1.32 0.66 2 1 C0.3125 4 0.3125 4 -2 7 C-4.75 7.375 -4.75 7.375 -7 7 C-4.66666667 4.66666667 -2.33333333 2.33333333 0 0 Z " fill="#A09E9E" transform="translate(141,253)"/>
<path d="M0 0 C0.66 0.33 1.32 0.66 2 1 C0.35 2.98 -1.3 4.96 -3 7 C-4.32 6.67 -5.64 6.34 -7 6 C-4.69 4.02 -2.38 2.04 0 0 Z " fill="#B0ADAE" transform="translate(191,214)"/>
<path d="M0 0 C2.475 0.99 2.475 0.99 5 2 C5 3.65 5 5.3 5 7 C3.0625 6.3125 3.0625 6.3125 1 5 C0.25 2.375 0.25 2.375 0 0 Z " fill="#C4B8B7" transform="translate(433,159)"/>
<path d="M0 0 C0 4.38968456 -2.12805101 5.76905739 -5 9 C-5.99 8.67 -6.98 8.34 -8 8 C-5.36 5.36 -2.72 2.72 0 0 Z " fill="#B4B1B0" transform="translate(241,138)"/>
<path d="M0 0 C1.45792884 -0.05399736 2.91642712 -0.09279177 4.375 -0.125 C5.18710937 -0.14820313 5.99921875 -0.17140625 6.8359375 -0.1953125 C9 0 9 0 11 2 C9.4375 3.1875 9.4375 3.1875 7 4 C3.25 2.625 3.25 2.625 0 1 C0 0.67 0 0.34 0 0 Z " fill="#A49D9D" transform="translate(340,137)"/>
<path d="M0 0 C0.66 0.33 1.32 0.66 2 1 C0 4 0 4 -3 5 C-3.33 5.66 -3.66 6.32 -4 7 C-5.32 6.67 -6.64 6.34 -8 6 C-5.36 4.02 -2.72 2.04 0 0 Z " fill="#ABA5A6" transform="translate(77,299)"/>
<path d="M0 0 C3.0916909 2.52956528 3.90931332 5.22454612 5 9 C3 8 1 7 -1 6 C-0.67 5.34 -0.34 4.68 0 4 C0 2.68 0 1.36 0 0 Z " fill="#ACA5A4" transform="translate(292,305)"/>
<path d="M0 0 C0.33 0 0.66 0 1 0 C0.67 2.31 0.34 4.62 0 7 C-0.99 7 -1.98 7 -3 7 C-3.66 5.68 -4.32 4.36 -5 3 C-4.34 3 -3.68 3 -3 3 C-3 3.66 -3 4.32 -3 5 C-2.34 5 -1.68 5 -1 5 C-0.67 3.35 -0.34 1.7 0 0 Z " fill="#817F7E" transform="translate(379,257)"/>
<path d="M0 0 C0 0.99 0 1.98 0 3 C-2 4.6875 -2 4.6875 -4 6 C-4.99 5.34 -5.98 4.68 -7 4 C-2.25 0 -2.25 0 0 0 Z " fill="#C5C1C3" transform="translate(223,191)"/>
<path d="M0 0 C0.33 0.99 0.66 1.98 1 3 C-0.32 4.32 -1.64 5.64 -3 7 C-3.99 6.67 -4.98 6.34 -6 6 C-4 4 -2 2 0 0 Z " fill="#AEAAAA" transform="translate(284,97)"/>
<path d="M0 0 C0.33 0.66 0.66 1.32 1 2 C-2.44615385 6.8 -2.44615385 6.8 -5.25 7.8125 C-6.11625 7.9053125 -6.11625 7.9053125 -7 8 C-5.625 6 -5.625 6 -4 4 C-3.34 4 -2.68 4 -2 4 C-1.34 2.68 -0.68 1.36 0 0 Z " fill="#959393" transform="translate(193,184)"/>
<path d="M0 0 C1.65 1.65 3.3 3.3 5 5 C4.67 5.66 4.34 6.32 4 7 C2.68 6.67 1.36 6.34 0 6 C0 4.02 0 2.04 0 0 Z " fill="#AEADAB" transform="translate(456,193)"/>
<path d="M0 0 C0.33 0.66 0.66 1.32 1 2 C1.99 2 2.98 2 4 2 C4 2.66 4 3.32 4 4 C2.02 4.33 0.04 4.66 -2 5 C-1.34 3.35 -0.68 1.7 0 0 Z " fill="#B8B3B1" transform="translate(185,192)"/>
</svg>
